<?xml version="1.0" standalone="no"?>
<!DOCTYPE svg PUBLIC "-//W3C//DTD SVG 1.1//EN" "http://www.w3.org/Graphics/SVG/1.1/DTD/svg11.dtd" >
<svg xmlns="http://www.w3.org/2000/svg">
<metadata></metadata>
<defs>
<font id="alegreya_scitalic" horiz-adv-x="382" >
<font-face units-per-em="1000" ascent="800" descent="-200" />
<missing-glyph horiz-adv-x="192" />
<glyph unicode="&#xd;" horiz-adv-x="333" />
<glyph unicode=" "  horiz-adv-x="192" />
<glyph unicode="&#x09;" horiz-adv-x="192" />
<glyph unicode="&#xa0;" horiz-adv-x="192" />
<glyph unicode="!" horiz-adv-x="274" d="M134.5 8q-19.5 -20 -46.5 -20t-39.5 14.5t-12.5 39t19.5 45t46 20.5t39.5 -14t13 -39.5t-19.5 -45.5zM100 210l47 456l9 10l84 18l8 -11l-109 -474l-29 -7z" />
<glyph unicode="&#x22;" horiz-adv-x="287" d="M177 649l6 -8q-27 -110 -60 -212l-27 -14l-10 2q15 89 21 218zM296 649l6 -8q-27 -110 -60 -212l-27 -14l-11 2q15 89 21 218z" />
<glyph unicode="#" horiz-adv-x="480" d="M66 362l-2 10l19 37l103 -1l54 160l41 5l7 -6l-56 -160h50l50 -1l55 162l41 5l7 -6l-56 -161h103l3 -9l-23 -36l-100 1l-37 -110h102l3 -9l-22 -36l-98 1l-54 -165l-40 -8l-7 6l56 168l-66 1l-35 -1l-55 -166l-41 -8l-6 6l56 168l-106 -1l-2 10l19 37l104 -1l37 109z M216 363l-38 -110h50l52 -1l37 111l-64 1z" />
<glyph unicode="$" horiz-adv-x="428" d="M338 350q8 32 8 56q0 48 -60 52l-37 -170q76 -42 103.5 -69t27.5 -65q0 -68 -54 -113t-141 -49l-30 -143l-27 -3l-4 7l29 138q-60 2 -116 26l-3 9q18 61 28 135l41 4q-5 -35 -5 -61t6 -40q12 -26 59 -30l39 185q-90 50 -108 87q-9 19 -9 42q0 63 50.5 108t127.5 50 l32 148l28 4l4 -9l-31 -142q57 -2 115 -20l2 -5q-20 -61 -34 -133l-36 -3zM271.5 60q29.5 24 29.5 63t-70 80l-37 -169q48 2 77.5 26zM185 434.5q-27 -21.5 -27 -55.5t60 -73l2 -2l33 155q-41 -3 -68 -24.5z" />
<glyph unicode="%" horiz-adv-x="647" d="M136.5 413q25.5 -23 62 -23t66 22.5t29.5 70.5t-23.5 74t-65.5 26t-68 -28.5t-26 -73.5t25.5 -68zM183 326q-54 0 -87 37.5t-33 95.5q0 81 45.5 135.5t108.5 54.5t94.5 -38t31.5 -91q0 -78 -43.5 -136t-116.5 -58zM423.5 75q25.5 -23 61.5 -23t65.5 22.5t29.5 71t-23 74 t-65 25.5t-68 -28.5t-26 -73.5t25.5 -68zM470 -12q-54 0 -87 37.5t-33 95.5q0 81 45.5 135.5t108.5 54.5t94.5 -38t31.5 -91q0 -78 -43.5 -136t-116.5 -58zM582 659l5 -14q-174 -259 -262 -400l-215 -340l-38 19l-5 12q133 202 476 742z" />
<glyph unicode="&#x26;" horiz-adv-x="600" d="M287.5 445.5q20.5 -18.5 20.5 -47.5t-14 -51l4 -2q188 135 210 279l5 5h19q22 -59 22 -86q0 -14 -50 -74.5t-137 -124.5t-269 -170q14 -60 58 -93.5t115.5 -33.5t126 50t73.5 139l-52 8q-16 0 -68 -58h-5l-23 20v5l82 92l16 5q18 0 90.5 -12.5t92.5 -12.5q13 0 67 58h7 l21 -20v-5l-81 -92l-16 -7l-76 11q-30 -104 -112 -172t-176.5 -68t-149 60.5t-54.5 162.5t60.5 177.5t135.5 75.5q37 0 57.5 -18.5zM93 236v-23q88 55 116 85t28 68t-40.5 38t-72 -48t-31.5 -120z" />
<glyph unicode="'" horiz-adv-x="169" d="M177 649l6 -8q-27 -110 -60 -212l-27 -14l-10 2q15 89 21 218z" />
<glyph unicode="(" horiz-adv-x="297" d="M142 178q-4 -35 -4 -64t5 -65.5t21 -70.5q31 -61 64 -84l13 -9v-5l-25 -26h-4q-2 1 -5.5 2.5t-15.5 8.5t-22 15.5t-25 23t-25.5 31.5t-23 40.5t-17.5 50.5q-9 61 -9 86.5t4 50.5l21 173q12 100 56 170q41 63 86 97q40 31 76 46h5l10 -29l-2 -4q-14 -5 -44 -30t-50.5 -52 t-40.5 -76t-27 -107z" />
<glyph unicode=")" horiz-adv-x="301" d="M163 325q4 32 4 61t-5.5 68.5t-21.5 70.5q-36 66 -64 85l-13 8l1 5l24 26h4q2 -1 5.5 -2.5t15.5 -8.5t22 -15.5t25 -23t25.5 -31.5t23 -40.5t17.5 -51.5q10 -57 10 -84t-4 -52l-22 -173q-12 -100 -56 -169q-41 -64 -86 -98q-40 -31 -76 -46h-4l-10 29l1 4q14 5 44 30 t50.5 52t41 76t27.5 107z" />
<glyph unicode="*" horiz-adv-x="435" d="M124 666q55 -29 100 -63l-6 -33l-6 -5l-106 29q0 38 9 68zM129 473q44 44 91 76l29 -16l3 -7q-28 -38 -60 -92q-36 12 -62 30zM314 418q-28 56 -44 110l24 23l8 1q28 -40 68 -86q-22 -30 -47 -49zM423 577q-51 -7 -80.5 -7h-37.5l-14 29l1 8q41 13 103 39q22 -31 32 -60z M306 730q-11 -61 -29 -114l-34 -5l-6 4l-5 110q36 12 67 12z" />
<glyph unicode="+" horiz-adv-x="486" d="M299 500l9 -6q-21 -123 -31 -203l195 6l5 -10l-14 -51l-193 -1l-23 -194l-51 -11l-8 6q15 111 26 199l-189 -1l-5 9l17 49q101 -1 184 -1l25 201z" />
<glyph unicode="," horiz-adv-x="228" d="M35 73q34 26 57 26t37.5 -20.5t14.5 -65t-42 -91t-98 -79.5l-18 15v10q35 24 57 57t22 68.5t-32 65.5z" />
<glyph unicode="-" horiz-adv-x="311" d="M279 299l6 -9l-11 -54l-234 -26l-6 8l13 52l168 20z" />
<glyph unicode="." horiz-adv-x="229" d="M133 8.5q-20 -20.5 -47 -20.5t-39.5 14.5t-12.5 39t20 45t46.5 20.5t39.5 -14t13 -39t-20 -45.5z" />
<glyph unicode="/" horiz-adv-x="316" d="M333 675l6 -10q-131 -340 -293 -775h-48l-6 8q73 176 129 328l165 449h47z" />
<glyph unicode="0" horiz-adv-x="510" d="M214 -12q-83 0 -131 57.5t-48 152.5q0 130 78.5 218.5t190.5 88.5q81 0 129.5 -57.5t48.5 -150.5q0 -130 -78 -219.5t-190 -89.5zM133 108.5q40 -44.5 113 -44.5t125 55t52 134.5t-41 125t-114.5 45.5t-124 -55.5t-50.5 -135.5t40 -124.5z" />
<glyph unicode="1" horiz-adv-x="340" d="M68 472q26 0 209 33l4 -17q-21 -17 -30 -33.5t-16 -50.5q-44 -272 -44 -306t9 -44t32 -10l51 3l1 -4l-14 -46q-81 3 -116 3q-56 0 -136 -12l11 46q54 5 73.5 26.5t26.5 87.5q30 241 30 254q0 31 -46 31l-52 -6l-2 3z" />
<glyph unicode="2" horiz-adv-x="456" d="M275 377q0 29 -16.5 45t-47.5 16t-66 -24t-61 -65h-9l-6 45q31 48 81.5 79.5t100.5 31.5t82.5 -28.5t32.5 -77.5t-47.5 -114t-195.5 -217l3 -7h143q53 0 75 17t43 74l41 5q-30 -84 -47 -157l-12 -7q-226 7 -309 7l-54 -12l-7 18l86 88q190 194 190 283z" />
<glyph unicode="3" horiz-adv-x="400" d="M70 -35q76 0 130.5 42t54.5 102q0 89 -158 90l-5 5v35l64 16q44 21 72.5 55.5t28.5 66t-18.5 48.5t-47.5 17q-59 0 -115 -51h-10l-5 42q106 72 163.5 72t88 -27t30.5 -71.5t-34 -86t-90 -69.5l-1 -5q116 -29 116 -112q0 -53 -46 -109.5t-115 -93t-132 -36.5 q-33 0 -43.5 15t-10.5 31.5t1 26.5l6 6q39 -9 76 -9z" />
<glyph unicode="4" horiz-adv-x="431" d="M307 504l4 1l32 -10l-43 -352h89l5 -8l-15 -55q-35 1 -86 3l-14 -169l-6 -7l-72 -12l-5 9q17 103 28 181q-148 4 -236 4q1 6 4 18.5t4 18.5zM250 367l-180 -224h161l28 224h-9z" />
<glyph unicode="5" horiz-adv-x="413" d="M340 141q0 -60 -50.5 -118.5t-121.5 -93t-132 -34.5q-30 0 -41.5 13.5t-11.5 31.5t1 28l6 6q39 -9 77 -9q81 0 137 40.5t56 103.5q0 44 -41.5 70t-143.5 45l-7 11l46 244l9 8l183 8q28 2 41.5 9.5t23.5 29.5l34 4l-38 -118l-7 -6q-97 8 -208 8l-22 -129 q99 -21 154.5 -56.5t55.5 -95.5z" />
<glyph unicode="6" horiz-adv-x="437" d="M253 344q70 0 108.5 -44.5t38.5 -103.5q0 -84 -63 -146t-154 -62q-70 0 -110 50t-40 122.5t20.5 131.5t53 101.5t72 78t79.5 58.5q84 48 126 62l20 6l6 -5l7 -30q-32 -12 -74 -37t-75.5 -53t-71 -76t-58.5 -103l3 -2q85 52 112 52zM295.5 251.5q-27.5 33.5 -73 33.5 t-99.5 -37q-11 -46 -11 -77q0 -62 25 -98.5t73.5 -36.5t80.5 37t32 91t-27.5 87.5z" />
<glyph unicode="7" horiz-adv-x="404" d="M210 493h203l19 -28q-88 -147 -273 -484l-35 -86h-7l-57 18l-7 22l298 490l-164 -7q-48 -2 -66 -20t-34 -73l-39 -6q25 97 39 173l7 5q57 -4 116 -4z" />
<glyph unicode="8" horiz-adv-x="466" d="M40 110q0 111 144 179q-89 54 -89 127t57.5 127.5t137.5 54.5q57 0 96.5 -31t39.5 -88q0 -101 -114 -160q97 -59 97 -137.5t-65 -136t-155 -57.5q-64 0 -106.5 32.5t-42.5 89.5zM143.5 62q28.5 -31 74 -31t82 34t36.5 82q0 42 -35 71q-30 24 -55.5 37.5t-28.5 15.5 q-102 -43 -102 -135q0 -43 28.5 -74zM278 337q71 41 71 123q0 44 -22.5 68t-61.5 24t-67.5 -29t-28.5 -68.5t31 -64.5t78 -53z" />
<glyph unicode="9" horiz-adv-x="437" d="M191 149q-71 0 -109 44.5t-38 103.5q0 84 63 146t154 62q70 0 110 -50t40 -122.5t-20.5 -131.5t-53 -101.5t-72 -78t-79.5 -58.5q-84 -48 -126 -61l-20 -7l-6 5l-8 30q32 12 74 36.5t76 52.5t71.5 76t57.5 103l-3 3q-83 -52 -111 -52zM148 240.5q27 -32.5 71.5 -32.5 t101.5 37q10 43 10 76q0 62 -25 99t-73 37t-80 -37.5t-32 -92t27 -87z" />
<glyph unicode=":" horiz-adv-x="228" d="M129 8.5q-20 -20.5 -47 -20.5t-39.5 14.5t-12.5 39t20 45t46.5 20.5t39.5 -14t13 -39t-20 -45.5zM163 288.5q-20 -20.5 -47 -20.5t-39.5 14.5t-12.5 39t20 45t46.5 20.5t39.5 -14t13 -39t-20 -45.5z" />
<glyph unicode=";" horiz-adv-x="228" d="M30 73q34 26 57 26t37.5 -20.5t14.5 -65t-42 -91t-98 -79.5l-18 15v10q35 24 57 57t22 68.5t-32 65.5zM163 288.5q-20 -20.5 -47 -20.5t-39.5 14.5t-12.5 39t20 45t46.5 20.5t39.5 -14t13 -39t-20 -45.5z" />
<glyph unicode="&#x3c;" horiz-adv-x="484" d="M40 239l-7 11l8 47l205 86l201 81l8 -5l2 -50q-112 -39 -195 -73l-153 -60l-1 -6l151 -70l163 -79v-11l-35 -40q-94 50 -168 85z" />
<glyph unicode="=" horiz-adv-x="486" d="M463 220l4 -10l-14 -51l-438 -2l-4 9l16 49q144 -1 229 -1zM482 377l5 -10l-14 -51l-438 -2l-5 9l17 49q143 -1 229 -1z" />
<glyph unicode="&#x3e;" horiz-adv-x="484" d="M456 295l6 -11l-8 -47l-204 -86l-202 -81l-8 5l-2 50q112 39 195 73l153 60l1 6l-151 70l-163 79v11l35 40q94 -50 168 -85z" />
<glyph unicode="?" horiz-adv-x="346" d="M286 511q0 103 -179 115l-1 11l39 53l14 4q84 -3 141 -46t57 -106q0 -70 -41 -112q-23 -22 -39.5 -35t-53 -35t-51.5 -32l-4 -9l8 -95l-4 -8l-63 -17l-8 4l-8 120l4 14l123 76q66 42 66 98zM159.5 8q-19.5 -20 -46.5 -20t-39.5 14.5t-12.5 39t19.5 45t46 20.5t39.5 -14 t13 -39.5t-19.5 -45.5z" />
<glyph unicode="@" horiz-adv-x="801" d="M468 -12q-36 0 -36 29q0 11 43 208l-6 2q-90 -171 -187 -239q-39 0 -59.5 37t-20.5 109t35 151t88 127t106 48l100 -16l9 25l5 1l31 -15l8 -12q-58 -199 -84 -385l4 -4q106 0 161.5 61t55.5 165q0 130 -80 203.5t-221.5 73.5t-233 -102.5t-91.5 -253t88.5 -254 t264.5 -113.5v-7l-26 -36q-188 9 -293 121t-105 276q0 82 30.5 158.5t84.5 136t135.5 95t176.5 35.5q149 0 244 -88.5t95 -219.5t-85.5 -224t-236.5 -93zM301 69q27 0 85.5 87t114.5 217q-54 33 -101.5 33t-87.5 -71t-40 -162q0 -42 8.5 -73t20.5 -31z" />
<glyph unicode="A" horiz-adv-x="552" d="M287 -10l-2 7l8 36q55 4 73.5 14t18.5 36q0 13 -22 151q-24 1 -83.5 1t-123.5 -8l-49 -108q-14 -29 -14 -46q0 -36 53 -36h56v-3l-10 -41q-68 7 -132 7l-105 -3l13 45q29 3 47.5 19.5t38.5 58.5l248 511l56 17l8 1q44 -307 90 -538q7 -38 24.5 -52.5t59.5 -19.5l2 -3 l-11 -39q-69 3 -117.5 3t-126.5 -10zM264 271q47 0 91 6l-44 267h-7l-125 -273h85z" />
<glyph unicode="B" horiz-adv-x="571" d="M275 -10l-137 10q-43 0 -109 -12l10 43q47 9 64.5 26.5t22.5 60.5q54 438 54 449.5t-4.5 20t-26.5 8.5l-32 -2l-2 4l12 41q68 -3 104 -3l102 4q84 0 132.5 -34.5t48.5 -94.5t-35.5 -105t-97.5 -71q63 -14 98 -51t35 -88q0 -81 -72.5 -143.5t-166.5 -62.5zM187 97 q0 -30 21.5 -45t84 -15t101.5 39t39 104q0 101 -117 122l-100 -2q-29 -196 -29 -203zM437 491q0 111 -156 111q-10 0 -14 -4.5t-7 -18.5q-30 -184 -37 -230q92 -8 100.5 -7.5t16 3t26.5 13.5t33 26t26 43.5t12 63.5z" />
<glyph unicode="C" horiz-adv-x="604" d="M499 28q-77 -40 -193.5 -40t-188.5 72t-72 193q0 168 107 281.5t265 113.5q66 0 173 -23l3 -6q-28 -74 -45 -164l-43 -4q9 39 9 59q0 84 -131 84q-111 0 -181 -86.5t-70 -225.5q0 -114 51 -181.5t139 -67.5q130 0 186 160l43 4q-31 -90 -46 -160z" />
<glyph unicode="D" horiz-adv-x="675" d="M286 -12q-98 12 -132 12q-56 0 -126 -12l11 43q46 9 64 26.5t23 59.5q54 439 54 450.5t-4.5 20t-25.5 8.5l-34 -2l-1 4l11 41q63 -3 100 -3l136 4q129 0 210 -73.5t81 -184t-49.5 -200t-134 -142t-183.5 -52.5zM298 596q-20 0 -27 -4.5t-9 -17.5q-71 -444 -71 -467 q0 -42 24.5 -57t89.5 -15q118 0 190 89t72 232q0 115 -69 177.5t-200 62.5z" />
<glyph unicode="E" horiz-adv-x="567" d="M225 352l99 -1l118 11l3 -4l-20 -56q-82 3 -127 3t-82 -7q-6 -41 -14 -94q-17 -104 -17 -126.5t14 -29.5t67 -7t84 3t54.5 17.5t33 36t21.5 66.5l41 5l2 -5q-28 -82 -47 -166l-5 -5q-199 7 -260 7q-93 0 -161 -10l11 43q44 6 62 23.5t23 60.5q55 439 55 450.5t-4.5 20 t-26.5 8.5l-33 -2l-1 3l11 42q74 -3 204.5 -3t215.5 12l2 -5q-25 -72 -42 -164l-44 -4q9 39 9 68.5t-25.5 38t-95 8.5t-80 -5.5t-14.5 -33.5z" />
<glyph unicode="F" horiz-adv-x="490" d="M213 280q-27 -186 -27 -200t6 -27t30 -13l69 3l1 -4l-13 -43q-91 4 -127 4q-57 0 -123 -12l10 43q46 9 63.5 26.5t22.5 59.5q55 439 55 450.5t-4.5 20t-26.5 8.5l-33 -2l-1 3l11 42q74 -3 196.5 -3t205.5 12l2 -5q-26 -75 -43 -167l-43 -4q9 42 9 72t-23 38t-86 8 t-73.5 -5.5t-14.5 -33.5l-33 -216l99 -1l102 11l2 -4l-19 -57q-74 3 -114 3t-80 -7z" />
<glyph unicode="G" horiz-adv-x="640" d="M374 303l93 -4h25l83 5l1 -20q-30 -20 -42 -96.5t-12 -114.5l1 -30l-6 -8q-38 -19 -97 -33t-113 -14q-118 0 -190 72t-72 193q0 168 107 281.5t265 113.5q66 0 173 -23l3 -6q-28 -74 -45 -164l-43 -4q9 39 9 59q0 84 -131 84q-111 0 -181 -86.5t-70 -225.5 q0 -114 51 -181.5t139 -67.5q35 0 69 9.5t50 19.5l16 10q16 136 16 149.5t-7.5 22t-40.5 8.5h-67l-1 4l14 47h3z" />
<glyph unicode="H" horiz-adv-x="723" d="M224 347l163 -1q62 0 145 10q26 203 26 213t-5 18.5t-26 8.5l-33 -2l-2 3l13 43q60 -4 85 -4q45 0 121 10l-8 -43q-37 -5 -51 -16.5t-19 -40.5q-68 -415 -68 -450.5t8 -45t28 -9.5l44 3q1 -1 -13 -47q-77 3 -119 3h-31q-33 0 -75 -2l13 43q45 1 62 21.5t25 86.5l18 154 q-103 1 -148 1l-162 -11q-27 -193 -27 -208.5t1 -24.5q2 -18 34 -18l44 3l1 -4l-14 -44q0 3 -60.5 3t-112.5 -4t-53 -8l11 43q53 11 69 33t22 87q50 405 50 416.5t-4.5 20t-26.5 8.5l-32 -2l-2 3l12 43q69 -4 97 -4q45 0 109 10l-8 -43q-43 -7 -55 -22t-20 -70z" />
<glyph unicode="I" horiz-adv-x="346" d="M123 640l91 -4h18q40 0 110 10l-10 -43q-41 -5 -56.5 -17t-19.5 -40q-70 -406 -70 -461q0 -24 8.5 -33.5t28.5 -9.5l51 3l2 -4l-14 -44q-79 3 -112 3q-56 0 -124 -12l12 43q46 9 64.5 27t23.5 60q54 437 54 448.5t-5 20.5t-26 9l-41 -2q-1 2 -1 3l12 43h4z" />
<glyph unicode="J" horiz-adv-x="313" d="M114 114q56 441 56 452.5t-5 20t-26 8.5l-47 -4v3l11 42h103l110 9l-8 -42q-35 -5 -46.5 -15.5t-16.5 -41.5q-31 -184 -65 -428q-13 -102 -56.5 -164t-127.5 -97l-12 32l3 8q63 36 89.5 82t37.5 135z" />
<glyph unicode="K" horiz-adv-x="601" d="M126 118q54 438 54 449.5t-4.5 20t-26.5 8.5l-32 -2l-2 3l12 43q68 -4 95 -4q47 0 111 10l-8 -43q-37 -5 -52 -18t-20 -42l-65 -434q-3 -17 -3 -31t6 -25t32 -11l44 3l2 -4l-15 -44q-74 3 -117 3l-109 -1l15 43q46 5 62 19t21 57zM478 571q0 24 -57 28l-2 4l12 41 q68 -8 104 -8l87 4l2 -6l-10 -39q-26 -5 -49 -20.5t-72 -61.5l-178 -174l136 -221q30 -47 55 -66t58 -19l3 -3l-9 -32q-69 -12 -79 -12q-47 0 -97 86l-140 243l2 13l198 189q36 35 36 54z" />
<glyph unicode="L" horiz-adv-x="485" d="M477 186l1 -4q-28 -89 -51 -186l-5 -5q-166 9 -226 9q-94 0 -158 -10l12 43q38 6 54 24t21 60q55 438 55 449.5t-5 20.5t-26 9l-33 -2q-1 2 -1 3l12 43q72 -4 98 -4q44 0 108 10l-8 -42q-42 -7 -52.5 -20.5t-24.5 -87.5t-37 -227.5t-23 -181t14.5 -37t61.5 -9.5 q85 0 115 24.5t56 116.5z" />
<glyph unicode="M" horiz-adv-x="813" d="M789 642l1 -4l-9 -34q-43 -5 -61.5 -17.5t-21 -39t-10.5 -171.5q-10 -182 -10 -241t6.5 -76.5t29.5 -17.5l27 2q0 -1 1 -3l-14 -43q-55 3 -82 3q-46 0 -106 -8l9 43q57 7 63 50l21 444h-5q-94 -206 -254 -542l-21 -6q-76 338 -122 548h-4q-89 -443 -89 -465.5t26 -22.5 l40 1q1 -2 1 -3l-14 -43q-60 4 -85 4q-41 0 -89 -8l11 43q30 5 45.5 21.5t22 46.5t31.5 147q62 288 62 305q0 44 -78 50l-2 4l11 32q73 -5 103 -5l63 4q48 -266 110 -506h4q99 210 224 505q2 1 11 0q27 -3 49 -3z" />
<glyph unicode="N" horiz-adv-x="689" d="M102 602l-1 5l11 34q55 -5 81 -5l62 4q125 -252 265 -506h4q52 422 52 427q0 34 -27 34h-11l-18 -1h-7l-2 4l14 42q57 -4 82 -4q48 0 102 9l-10 -44q-66 -9 -74 -63l-82 -566l-25 -14q-145 294 -293 564h-4l-60 -441q-3 -22 2.5 -30.5t22.5 -8.5h49l2 -3l-14 -43 q-58 4 -100 4l-89 -8l11 43q59 7 67 63q68 448 68 462q0 34 -78 42z" />
<glyph unicode="O" horiz-adv-x="665" d="M311 35q106 0 176 87.5t70 210.5t-51.5 191.5t-137.5 68.5q-103 0 -172 -88.5t-69 -210.5t50.5 -190.5t133.5 -68.5zM286 -12q-107 0 -174 74t-67 192q0 162 103.5 278t248.5 116q109 0 178 -74.5t69 -191.5q0 -163 -105.5 -278.5t-252.5 -115.5z" />
<glyph unicode="P" horiz-adv-x="528" d="M275 45l1 -4l-14 -44q0 3 -62.5 3t-113 -3t-52.5 -5l12 43q44 8 59.5 24t20.5 58q54 438 54 449.5t-5 20.5t-26 9l-32 -2l-2 4l12 42h3q4 0 10.5 -0.5t15.5 -1t19 -1l20 -1t20 -0.5h17l110 4q91 0 142 -39t51 -112q0 -94 -72 -168.5t-164 -74.5h-92q-24 -163 -24 -174 q0 -31 39 -31zM421 344q36 47 36 118.5t-40.5 102.5t-126.5 31q-19 0 -22 -2t-15.5 -64.5t-35.5 -228.5l100 -15q68 11 104 58z" />
<glyph unicode="Q" horiz-adv-x="670" d="M529 -110.5q64 -30.5 113 -30.5t87 10l4 -2l3 -15q-78 -66 -96 -66q-70 0 -135 37t-218 165h-1q-107 0 -174 74t-67 192q0 162 103.5 278t248.5 116q109 0 178 -74.5t69 -201.5t-77.5 -233.5t-195.5 -138.5v-6q94 -74 158 -104.5zM311 35q106 0 176 87.5t70 210.5 t-51.5 191.5t-137.5 68.5q-103 0 -172 -88.5t-69 -210.5t50.5 -190.5t133.5 -68.5z" />
<glyph unicode="R" horiz-adv-x="585" d="M212 276q-25 -178 -25 -196.5t5 -26.5q11 -14 57 -14l1 -3l-13 -40q-55 2 -100 3l-109 -3l14 43q46 5 62.5 20t21.5 58q54 437 54 449t-5 21t-26 9l-32 -2l-2 4l12 42q69 -4 105 -4l107 4q82 0 132.5 -37.5t50.5 -102t-40 -119t-117 -88.5l85 -178q24 -48 47.5 -66.5 t62.5 -18.5l3 -3l-9 -32l-81 -11q-24 0 -48 26t-42 69l-80 197h-91zM281 602q-9 0 -13 -4q-15 -18 -47 -270l98 -10q-319 -318 30 12q91 53 94 156q0 116 -162 116z" />
<glyph unicode="S" horiz-adv-x="507" d="M192 -12q-40 0 -79 8t-77 25l-4 10q22 75 34 174l41 5q-5 -46 -5 -85.5t11 -59.5q19 -33 91.5 -33t114.5 34t42 88q0 36 -27 63.5t-95.5 68t-93.5 64.5q-48 46 -49 100q0 82 67 140t165 58q76 0 152 -24l2 -5q-24 -77 -41 -169l-36 -4l-5 5q11 44 11 79.5t-23.5 52 t-81 16.5t-97 -30.5t-39.5 -78.5t73 -100q17 -11 50.5 -31t55 -34t45.5 -34q48 -40 48 -96q0 -89 -70 -148t-180 -59z" />
<glyph unicode="T" horiz-adv-x="523" d="M549 641q-6 -69 -6 -107v-57l-44 -4q-1 35 -1.5 51t-7 33.5t-12.5 22.5t-26.5 11.5t-39.5 7.5t-61 3q-15 -71 -46.5 -276.5t-31.5 -233t11 -39.5t36 -12l55 3l2 -4l-14 -43q-94 3 -140 3l-129 -4l12 40q68 7 85 26t27 100l53 440q-46 -2 -66 -3t-44 -7t-31 -11t-18 -22.5 t-15 -32t-13 -49.5l-44 -4q22 85 35 168l10 7l76 -11h298l82 11z" />
<glyph unicode="U" horiz-adv-x="655" d="M175 202q0 -78 35.5 -119.5t110 -41.5t122 44.5t57.5 129.5q36 332 36 348.5t-4.5 24.5t-25.5 8l-43 -2v4l11 41q71 -3 98 -3q45 0 103 10l-10 -43q-43 -5 -56 -15.5t-17 -41.5l-42 -340q-13 -103 -82 -160.5t-182 -57.5q-90 0 -137.5 47t-47.5 131q0 23 3 44 q43 345 43 357t-5 20.5t-27 8.5l-33 -2l-1 4l12 41q70 -3 97 -3q46 0 110 10l-9 -43q-36 -5 -50 -16.5t-19 -40.5l-44 -294q-3 -27 -3 -50z" />
<glyph unicode="V" horiz-adv-x="584" d="M50 639q77 -3 104 -3q50 0 150 12l2 -7l-9 -37q-58 -4 -74.5 -12.5t-16.5 -29.5q0 -43 66 -469h8q14 30 48 98.5t59.5 121.5t52.5 111q59 123 59 139q0 36 -62 36h-51l-2 4l11 41q73 -8 136 -8l106 4l-13 -45q-30 -1 -43 -10t-28 -38l-268 -542l-58 -22q-54 287 -105 555 q-10 56 -83 57l-1 4z" />
<glyph unicode="W" horiz-adv-x="893" d="M271 93q3 7 185 387q-4 10 -11 56q-12 56 -81 59l-1 4l12 40q75 -3 103 -3q53 0 143 12l1 -7l-8 -37q-58 -4 -74 -12.5t-16 -30.5q0 -44 64 -468h6q12 26 46 97.5t58.5 123.5t52.5 112q58 124 58 142q0 31 -62 31h-48l-2 4l12 41q71 -8 132 -8l101 4l-12 -45 q-28 -2 -41 -10.5t-27 -37.5l-270 -542l-57 -22l-68 432h-6l-189 -410l-59 -22q-43 288 -92 555q-10 56 -79 57l-2 4l11 40q76 -3 106 -3q60 0 140 12l2 -7l-7 -37q-57 -4 -73.5 -12.5t-16.5 -33.5q0 -42 63 -465h6z" />
<glyph unicode="X" horiz-adv-x="627" d="M444 603l-1 4l9 37q72 -8 105 -8l92 4l3 -6l-10 -35q-41 -7 -66 -26.5t-77 -76.5l-137 -154l116 -218q21 -40 49 -59.5t73 -23.5l-11 -44q-74 3 -118 3l-148 -8l-2 7l8 36q81 4 81 39q0 12 -14 42l-83 168l-108 -125q-38 -44 -49.5 -62t-11.5 -33q0 -23 52 -27l2 -3 l-12 -41q-68 7 -104 7l-93 -4l-3 7l10 38q42 12 79 43.5t95 95.5l123 136l-103 201q-37 72 -122 83v4l9 36q95 -4 133 -4q78 0 134 9l2 -7l-7 -33q-81 -6 -81 -37q0 -23 84 -194q11 14 59 69q96 110 96 133q0 21 -53 27z" />
<glyph unicode="Y" horiz-adv-x="512" d="M210 593q-15 -8 -15 -25q0 -35 77 -264h4l139 218q21 32 21 53q0 24 -57 28l-2 4l11 37q72 -8 104 -8l89 4l3 -6l-11 -35q-45 -8 -65 -26.5t-46 -57.5q-157 -234 -159.5 -239t-6 -16t-6 -18t-5 -24.5t-3.5 -27.5q-14 -92 -14 -109.5t3 -24.5q6 -15 32 -15l47 3l2 -4 l-14 -43q-78 3 -109 3q-53 0 -119 -12l11 43q51 11 66.5 31.5t21.5 78.5q6 57 6 87.5t-15 72.5q-75 217 -77.5 223.5t-7 19t-7 15.5t-7.5 11t-9 10t-10.5 7t-14 6.5t-16.5 3.5t-21 3l-2 4l11 36q59 -4 93 -4q68 0 147 9l2 -7l-8 -33q-48 -4 -63 -12z" />
<glyph unicode="Z" horiz-adv-x="544" d="M447 13l-16 -16l-344 6l-69 -6l-8 31l429 568l-170 -6q-66 -1 -98 -31.5t-49 -107.5l-44 -4q28 101 41 192l11 9l167 -11l244 -7l7 -28q-213 -252 -442 -566l199 7q50 1 85.5 41t62.5 126l43 5q-33 -107 -49 -202z" />
<glyph unicode="[" horiz-adv-x="297" d="M224 -137l-175 11q44 276 57 376l36 379l179 11l4 -6l-10 -31l-112 -24l-80 -655l108 -24l3 -7z" />
<glyph unicode="\" horiz-adv-x="316" d="M89 665l9 10h46l55 -449l48 -328l-7 -8h-49q-36 289 -102 775z" />
<glyph unicode="]" horiz-adv-x="297" d="M81 640l175 -11q-44 -276 -57 -376l-36 -379l-180 -11l-3 6l10 31l112 24l80 655l-108 24l-3 7z" />
<glyph unicode="^" horiz-adv-x="485" d="M292 481l10 -8q38 -139 114 -386l-43 -30l-11 1q-53 180 -99 349h-6l-170 -348l-49 7l-3 9q53 110 102 201l107 203z" />
<glyph unicode="_" horiz-adv-x="439" d="M393 -142l-438 -2l-5 9l17 49h57l116 -1h57q68 0 136.5 2.5t69.5 3.5l4 -10z" />
<glyph unicode="`" d="M115 660l-1 11l38 41l10 2q78 -94 150 -172l-20 -19l-9 -2q-67 62 -168 139z" />
<glyph unicode="a" horiz-adv-x="485" d="M312 176l-80 1q-33 0 -84 -6l-36 -77q-11 -21 -11 -33q0 -26 41 -26h43v-3l-8 -37q-58 5 -110 5l-89 -2l11 40q22 2 37 14.5t30 43.5l197 397l67 14l7 -1q38 -249 74 -414q6 -30 19.5 -41.5t45.5 -14.5l2 -3l-9 -35q-58 2 -86 2q-45 0 -122 -7l-2 5l7 34q44 3 58 10.5 t14 23.5q0 13 -16 110zM235 215q34 0 70 4l-34 197h-7l-95 -201h66z" />
<glyph unicode="b" horiz-adv-x="498" d="M244 -8l-115 8q-42 0 -96 -9l9 39q37 7 51 20.5t18 46.5q41 332 41 340.5t-3.5 15.5t-20.5 7l-26 -1l-3 4l11 37q62 -3 91 -3l92 4q71 0 111.5 -27.5t40.5 -77.5q0 -87 -106 -134q50 -12 78.5 -40.5t28.5 -67.5q0 -67 -59.5 -114.5t-142.5 -47.5zM175 82q0 -22 17 -33 t65.5 -11t78.5 28t30 75q0 74 -90 90l-80 -2q-21 -142 -21 -147zM369 380q0 81 -121 81q-9 0 -12 -3q-6 -7 -33 -181q71 -7 78.5 -6.5t13.5 2.5t20 10.5t25 19.5q29 29 29 77z" />
<glyph unicode="c" horiz-adv-x="515" d="M423 22q-65 -31 -161.5 -31t-155.5 56.5t-59 152.5q0 134 85.5 220.5t217.5 86.5q62 0 146 -19l3 -6q-23 -60 -37 -134l-46 -4q7 33 7 48q0 63 -101 63q-85 0 -137.5 -64t-52.5 -160t38.5 -145t106.5 -49q100 0 142 120l46 4q-24 -74 -36 -131z" />
<glyph unicode="d" horiz-adv-x="574" d="M248 -9q-80 9 -110 9q-53 0 -105 -9l9 40q38 7 52 20t18 46q40 331 40 340.5t-3.5 16t-19.5 6.5l-28 -1l-1 4l10 37q56 -3 86 -3l114 4q106 0 172.5 -56.5t66.5 -149.5q0 -127 -88 -215.5t-213 -88.5zM260 457q-15 0 -20.5 -3.5t-7.5 -14.5q-55 -318 -55 -349.5t18.5 -42 t67.5 -10.5q91 0 146 67t55 177q0 86 -52 131t-152 45z" />
<glyph unicode="e" horiz-adv-x="488" d="M204 279l79 -1l96 8l3 -4l-17 -51q-66 2 -101 2t-68 -5q-4 -30 -10 -67q-13 -71 -13 -90t11 -24.5t45 -5.5q89 0 115 15.5t43 78.5l42 4l2 -5q-22 -66 -38 -134l-5 -5q-159 5 -213 5q-82 0 -142 -8l10 40q35 4 49 18t19 48q41 330 41 339.5t-3.5 16t-20.5 6.5l-26 -1 l-2 4l10 37q67 -3 174 -3t181 10l2 -5q-20 -61 -34 -133l-45 -3q7 29 7 51.5t-20.5 29t-73.5 6.5t-61.5 -4.5t-11.5 -24.5z" />
<glyph unicode="f" horiz-adv-x="429" d="M174 71q0 -31 30 -31l55 3l2 -5l-11 -41q-77 3 -108 3q-57 0 -109 -9l9 39q37 7 50.5 20.5t18.5 47.5q41 330 41 339.5t-3.5 16t-20.5 6.5l-26 -1l-2 4l10 37q67 -3 168 -3t171 10l3 -5q-21 -63 -35 -135l-44 -3q7 31 7 53.5t-18 29t-66 6.5t-56.5 -4.5t-11.5 -24.5 l-25 -159h79l84 8l2 -5l-16 -51q-60 2 -91.5 2t-66.5 -5q-20 -137 -20 -143z" />
<glyph unicode="g" horiz-adv-x="545" d="M354 240l40 -1h20q70 0 70 4l1 -20q-26 -16 -35.5 -77t-9.5 -89l1 -24l-6 -7q-72 -35 -172 -35t-158.5 56t-58.5 151q0 133 86.5 221t217.5 88q62 0 146 -19l3 -6q-23 -58 -38 -131l-44 -4q7 31 7 47q0 62 -102 62q-86 0 -139.5 -64.5t-53.5 -172.5q0 -85 39 -134.5 t107 -49.5q27 0 53 7t51 21q12 100 12 110t-6 16.5t-31 6.5h-52l-2 4l13 41h3l22 -1h16z" />
<glyph unicode="h" horiz-adv-x="614" d="M203 276l126 -1q52 0 112 7q20 151 20 158t-4 13.5t-22 6.5l-26 -1l-2 4l10 37q0 -3 84 -3l98 8l-7 -39q-31 -4 -42 -13t-15 -31q-52 -310 -52 -339.5t6.5 -37t22.5 -7.5l34 2q1 -2 1 -3l-11 -39q-61 2 -98 2h-27l-59 -1h-11l11 38q36 1 49.5 16.5t19.5 64.5l14 114h-112 l-128 -8q-20 -141 -20 -163.5t28 -22.5l35 2q1 -2 1 -3l-12 -39q-44 2 -76 2t-75 -3t-44 -6l10 39q42 8 54.5 24.5t17.5 64.5q38 310 38 319t-3.5 15.5t-21.5 6.5l-25 -1l-3 4l11 37q58 -3 88 -3l92 8l-7 -40q-34 -4 -43.5 -15.5t-16.5 -51.5z" />
<glyph unicode="i" horiz-adv-x="307" d="M104 500l97 -3l96 8l-9 -40q-32 -4 -44 -12.5t-16 -30.5q-54 -305 -54 -351q0 -33 29 -33l40 2l2 -3l-12 -39q-69 2 -97 2q-51 0 -105 -9l10 39q37 7 51.5 21t18.5 46q41 332 41 340.5t-3.5 15.5t-21.5 7l-32 -1q-1 3 -1 4z" />
<glyph unicode="j" horiz-adv-x="280" d="M102 91q42 338 42 347t-3.5 15.5t-20.5 6.5l-38 -3l-1 4l10 36l88 1l98 6l-8 -39q-28 -4 -37 -11.5t-13 -31.5q-31 -181 -51 -334q-10 -79 -48 -127t-112 -75l-12 27l2 7q52 29 73.5 64.5t30.5 106.5z" />
<glyph unicode="k" horiz-adv-x="522" d="M111 97q41 332 41 341t-3.5 15.5t-21.5 6.5l-25 -1l-3 4l11 37q63 -3 91 -3l90 8l-8 -40q-30 -4 -42 -14t-16 -32l-50 -328q-2 -12 -2 -23.5t5 -20.5t25 -9l35 2l2 -3l-12 -39q-66 2 -101 2l-95 -1l13 38q37 5 49.5 16t16.5 44zM372 398q29 27 29 44t-45 20l-2 4l10 37 q59 -6 89 -6l77 4l2 -6l-9 -35q-22 -6 -42 -19.5t-59 -49.5l-133 -125l105 -167q23 -36 43 -51t47 -16l3 -4l-8 -30q-62 -9 -72 -9q-41 0 -80 66l-111 191l2 12z" />
<glyph unicode="l" horiz-adv-x="426" d="M109 500l93 -3l92 8l-8 -40q-36 -5 -45 -15t-20 -66t-28.5 -171.5t-17.5 -136t11.5 -28t62 -7.5t74.5 20t44 92l43 5q0 -3 2 -5q-23 -74 -42 -155l-5 -5q-134 7 -187 7q-81 0 -139 -8l11 40q31 5 44 18.5t17 47.5q41 330 41 339.5t-4 16t-21 6.5l-26 -1l-2 4z" />
<glyph unicode="m" horiz-adv-x="688" d="M626 39l1 -3l-12 -38q-45 2 -64.5 2t-32 -0.5t-23.5 -1.5t-21.5 -2t-23.5 -2l9 39q45 6 51 39l15 321h-5q-135 -277 -195 -402l-27 -5q-32 137 -96 407h-5q-65 -321 -65 -338t22 -17h31l2 -2l-13 -39q-54 3 -80 3l-70 -6l9 39q25 3 37.5 15.5t18 37t23.5 109.5 q49 223 49 235q0 32 -62 36l-2 4l9 31q63 -4 89 -4l60 4q33 -175 85 -373h4q77 159 171 371q5 1 14 1q27 -2 47 -2l85 4q1 -2 1 -3l-8 -33q-34 -4 -48.5 -13t-16.5 -29q-11 -94 -15 -312v-27t5 -33.5t25 -13.5z" />
<glyph unicode="n" horiz-adv-x="590" d="M478 434q0 26 -23 26l-29 -1l-2 4l12 38q52 -4 80 -4l82 7l-8 -40q-53 -7 -60 -49l-64 -433l-36 -11q-109 208 -229 411h-5l-43 -312q-2 -18 3 -25t19 -7h38l3 -3l-12 -38q-53 3 -87 3l-80 -6l10 39q49 6 54 49q53 338 53 349q0 27 -63 33q-2 4 -2 5l9 32q47 -4 73 -4 l57 4q95 -181 208 -373h4q38 302 38 306z" />
<glyph unicode="o" horiz-adv-x="564" d="M269 37q81 0 133 65.5t52 170.5q0 82 -39.5 131.5t-104.5 49.5q-79 0 -130.5 -66t-51.5 -159.5t38.5 -142.5t102.5 -49zM248 -9q-90 0 -145.5 57.5t-55.5 151.5q0 130 83 218.5t204 88.5q92 0 148.5 -57.5t56.5 -151.5q0 -130 -84.5 -218.5t-206.5 -88.5z" />
<glyph unicode="p" horiz-adv-x="461" d="M246 40q1 -2 1 -3l-12 -39q-52 2 -80.5 2t-72.5 -2t-45 -4l10 39q35 6 47.5 18.5t16.5 45.5q41 331 41 340t-3.5 16t-20.5 7l-26 -1l-3 4l11 37q48 -3 89 -3l96 4q79 0 122 -33t43 -89q0 -75 -59.5 -133.5t-136.5 -58.5h-75q-17 -117 -17 -126q0 -23 32 -23zM383 363 q0 94 -129 94q-15 0 -18 -1q-8 -6 -38 -218l78 -11q107 18 107 136z" />
<glyph unicode="q" horiz-adv-x="568" d="M326 -2q133 -100 215 -100q40 0 72 8l4 -3l3 -18q-70 -55 -87 -55q-56 0 -108 29.5t-177 131.5q-90 0 -145.5 57.5t-55.5 151.5q0 130 83 218.5t204 88.5q92 0 148.5 -57.5t56.5 -158t-59.5 -181.5t-153.5 -108v-4zM269 37q81 0 133 65.5t52 170.5q0 82 -39.5 131.5 t-104.5 49.5q-79 0 -130.5 -66t-51.5 -159.5t38.5 -142.5t102.5 -49z" />
<glyph unicode="r" horiz-adv-x="509" d="M193 210q-18 -127 -18 -141.5t6.5 -23t44.5 -9.5l1 -3l-11 -36q-52 2 -88 2l-96 -3l12 40q37 4 50 15.5t17 45.5q41 332 41 341t-3.5 15.5t-20.5 6.5l-26 -1l-3 4l11 37q59 -3 89 -3l94 4q72 0 115.5 -30t43.5 -81q0 -109 -126 -163l66 -130q19 -37 38.5 -52t49.5 -15 l3 -4l-8 -30l-73 -8q-44 0 -76 73l-62 149h-71zM374 375q0 86 -127 86q-7 0 -11 -3q-10 -11 -35 -199l78 -8q42 17 55 31t22 26q18 26 18 67z" />
<glyph unicode="s" horiz-adv-x="440" d="M169 -9q-68 0 -116 19l-16 7l-3 9q18 61 28 135l41 4q-4 -33 -4 -62t9 -44q16 -25 72 -25t88.5 24t32.5 57t-22 53.5t-81 53t-86 60.5t-27 66q0 67 57 113t141 46q64 0 128 -20l2 -5q-20 -61 -34 -133l-36 -3l-5 4q8 32 8 58t-18.5 38.5t-63.5 12.5t-75.5 -22t-30.5 -57 t60 -74q13 -8 41 -23t45 -26t37 -27q39 -31 39 -76q0 -71 -59 -117t-152 -46z" />
<glyph unicode="t" horiz-adv-x="456" d="M247 78q0 -40 39 -40l44 2l2 -3l-12 -40q-81 3 -120 3l-113 -4l10 38q56 5 69.5 19.5t21.5 73.5l41 333q-78 -2 -96 -10q-27 -13 -47 -88l-44 -4q18 74 28 142l9 7l66 -9h245l71 9l7 -7l-6 -138l-44 -4q-1 73 -18 86.5t-94 15.5q-11 -53 -35 -205.5t-24 -176.5z" />
<glyph unicode="u" horiz-adv-x="554" d="M164 156q0 -56 27.5 -85.5t79.5 -29.5q126 0 140 125q29 258 29 269.5t-4 18t-20 6.5l-33 -1l-1 3l10 38q59 -3 89 -3l82 7l-9 -39q-34 -5 -44.5 -12.5t-13.5 -30.5l-32 -258q-10 -83 -66.5 -128t-141.5 -45q-167 0 -165 140q-1 14 2 31q33 261 33 272.5t-4 18.5t-21 7 l-27 -1l-1 3l11 38q60 -3 93 -3l86 7l-8 -39q-29 -4 -40 -13t-15 -31l-34 -228q-2 -13 -2 -37z" />
<glyph unicode="v" horiz-adv-x="505" d="M189 431q0 -42 51 -350h8q167 334 167 357.5t-47 23.5h-39l-2 4l9 37q62 -6 113 -6l88 3l-11 -40q-23 -1 -33 -8t-22 -30l-210 -418l-70 -17q-44 237 -83 427q-9 45 -65 46l-1 4l10 36q64 -3 92 -3l123 9l2 -6l-8 -34q-45 -3 -58.5 -10t-13.5 -25z" />
<glyph unicode="w" horiz-adv-x="762" d="M53 500q62 -3 89 -3q43 0 119 9l2 -6l-7 -34q-44 -3 -57.5 -10t-13.5 -26q0 -41 48 -349h7l142 296l-7 40q-8 42 -64 43l-1 4l10 36q64 -3 90 -3q38 0 121 9l2 -6l-8 -34q-45 -4 -58 -10.5t-13 -24.5q0 -42 49 -350h7q9 19 35.5 74t44.5 93.5t40 83.5q44 95 44 108 q0 22 -47 22h-37l-2 4l10 37q60 -6 109 -6l85 3l-10 -40q-22 -2 -32.5 -9t-21.5 -29l-210 -418l-68 -17l-52 320h-5l-143 -303l-69 -17q-37 237 -74 427q-9 45 -62 46l-2 4z" />
<glyph unicode="x" horiz-adv-x="543" d="M382 503l91 -6l79 3l2 -5l-8 -33q-34 -7 -55 -22.5t-61 -58.5l-109 -119l91 -159q35 -60 100 -65l-10 -40q-63 2 -98 2l-127 -6l-2 6l7 33q62 3 62 29q0 9 -12 31l-65 121q-109 -121 -118 -134t-9 -24q0 -18 41 -21l2 -3l-10 -37q-60 5 -89 5l-80 -3l-3 6l9 35 q32 9 62 33.5t76 73.5l98 105l-82 147q-29 55 -98 65l-1 4l9 34q75 -3 108 -3q67 0 118 7l2 -6l-7 -31q-62 -4 -62 -28q0 -17 66 -141q8 10 45 50q73 82 73 98t-42 19l-1 4z" />
<glyph unicode="y" horiz-adv-x="455" d="M333 503l90 -6l75 3l3 -5l-10 -33q-43 -8 -72 -44q-16 -19 -78 -109t-65 -96t-5.5 -10.5t-4.5 -13t-3 -13t-3 -16.5l-3 -18q-9 -61 -9 -74t4.5 -21.5t25.5 -8.5l39 2l1 -3l-11 -40q-71 3 -97 3q-52 0 -108 -9l10 39q43 8 56 23.5t18 58.5q4 44 4 65.5t-13 53.5l-54 144 q-21 55 -34.5 68.5t-51.5 18.5l-2 4l10 34q54 -3 89 -3l116 7l2 -6l-7 -31q-37 -3 -49 -9t-12 -17.5t10 -42.5q10 -34 50 -151h5l104 158q17 25 17 41t-45 19l-2 4z" />
<glyph unicode="z" horiz-adv-x="471" d="M389 11l-14 -13l-290 4l-57 -5l-9 28l343 433l-129 -5q-53 -1 -77.5 -24t-38.5 -81l-44 -4q23 84 33 156l9 7l138 -9l208 -4l7 -25q-148 -167 -354 -432l154 6q40 1 68 31.5t49 95.5l43 5q-27 -89 -39 -164z" />
<glyph unicode="{" horiz-adv-x="297" d="M206 524l7 -136q0 -96 -84 -123l-1 -6q59 -24 59 -90q0 -31 -25.5 -108t-25.5 -101.5t13 -40.5t39 -16l48 6l3 -6l-11 -28q-25 -8 -55 -8q-50 0 -78 29.5t-28 69t31.5 110.5t31.5 92q0 60 -83 79l7 21q99 28 99 93q0 19 -9.5 74.5t-9.5 81.5q0 55 37.5 93.5t100.5 38.5 l55 -6l2 -5l-11 -30q-27 5 -44 5q-34 0 -51 -25t-17 -64z" />
<glyph unicode="|" horiz-adv-x="355" d="M277 807l10 -6q-48 -344 -68 -510l-67 -549l-59 -11l-8 6l131 1059z" />
<glyph unicode="}" horiz-adv-x="297" d="M100 -8l-6 136q0 96 84 123v6q-58 24 -58 90q0 31 25 108t25 101q0 57 -51 57l-49 -6l-2 6l11 28q25 8 55 8q50 0 78 -29.5t28 -69t-31.5 -110.5t-31.5 -92q0 -59 82 -79l-6 -21q-99 -28 -99 -93q0 -19 9.5 -74.5t9.5 -81.5q0 -55 -38 -93.5t-100 -38.5l-55 6l-2 5l11 30 q27 -5 43 -5q34 0 51 25t17 64z" />
<glyph unicode="~" horiz-adv-x="486" d="M257 299.5q88 -21.5 103 -21.5q25 0 62 42l12 13h6l19 -21v-5l-85 -89l-16 -4q-27 0 -115 21.5t-103 21.5q-27 0 -62 -41l-12 -14h-6l-19 21v5l85 89l16 4q27 0 115 -21.5z" />
<glyph unicode="&#xa1;" horiz-adv-x="273" d="M140.5 444q19.5 20 46.5 20t39.5 -14.5t12.5 -39t-19.5 -45t-46 -20.5t-39.5 14t-13 39.5t19.5 45.5zM175 242l-47 -456l-9 -10l-84 -18l-8 11l109 474l29 7z" />
<glyph unicode="&#xa2;" horiz-adv-x="344" d="M34 153q0 110 62 203t143 106l41 192l28 4l4 -9l-40 -185q45 -3 73 -21l5 -11l-34 -67l-14 -3q-19 26 -44 37l-75 -352q28 5 55.5 28.5t43.5 58.5l14 -1l15 -24q-25 -47 -63.5 -79t-77.5 -40l-30 -141l-27 -3l-4 7l29 136q-49 4 -76.5 48t-27.5 116zM104 183 q0 -107 47 -131l76 353q-47 -2 -85 -70.5t-38 -151.5z" />
<glyph unicode="&#xa3;" horiz-adv-x="504" d="M437 95q0 -45 -25.5 -76t-59.5 -31t-115.5 22.5t-122 22.5t-83.5 -30l-7 4l-10 34q107 69 119 163l6 48q1 23 -9.5 31t-46.5 10l-3 6l11 34l59 11l2 17q13 107 73.5 172t145.5 65q67 0 97 -15l4 -11l-31 -63l-18 -3q-55 33 -96 33q-82 0 -101 -124l-12 -78l154 3l3 -3 l-17 -53q-74 3 -148 3l-12 -79q-14 -80 -76 -130l54 11q29 0 83.5 -11t76.5 -11q65 0 81 75l17 -2q7 -21 7 -45z" />
<glyph unicode="&#xa4;" horiz-adv-x="426" d="M100 277q-14 28 -14 74t37 93l-59 69l3 12l43 26q27 -34 56 -69q37 24 79.5 24t74.5 -24l75 75l12 -3l23 -40l-76 -69q17 -29 17 -73t-33 -91l60 -66l-4 -11l-44 -30l-55 66q-40 -27 -85 -27t-78 27l-73 -67l-10 3l-19 39q2 0 70 62zM166 425.5q-32 -32.5 -32 -73t23 -66 t62 -25.5t71.5 32.5t32.5 73t-23.5 66t-62.5 25.5t-71 -32.5z" />
<glyph unicode="&#xa5;" horiz-adv-x="528" d="M192 279l-126 -1l-4 7l8 29h107q-6 16 -15.5 42t-14 37t-13.5 27t-18 22q-23 16 -56 18v9q3 12 11 36q56 -3 85 -3q35 0 126 7l3 -10l-7 -34q-38 -4 -50.5 -10t-12.5 -16t8 -34h-1l56 -157l107 159q17 26 17 40.5t-48 16.5v7l9 37q84 -6 95 -6l77 3l4 -7l-10 -37 q-37 -6 -54 -19.5t-48 -57.5l-48 -68l110 2l5 -9l-7 -30h-135l-40 -57q-11 -18 -14 -39l175 4l4 -9l-6 -30h-179q-10 -60 -10 -77t7 -22.5t26 -5.5l38 1l1 -8l-13 -38q-71 2 -97 2q-44 0 -110 -10l10 43q49 8 59.5 26.5t18.5 88.5l-172 -1l-4 7l8 29h169q-3 29 -13 53z" />
<glyph unicode="&#xa6;" horiz-adv-x="355" d="M137 166l64 12l3 -3l-52 -433l-60 -11l-8 6zM229 376l-62 -9l-4 3q36 284 53 426l61 11l10 -6q-35 -249 -58 -425z" />
<glyph unicode="&#xa7;" horiz-adv-x="490" d="M70 256q-22 37 -22 81.5t35 91.5t95 82q8 56 55 97t105 41q37 0 64 -14t27 -30.5t-10.5 -45.5t-18.5 -37h-14q-9 34 -33.5 56t-51.5 22t-45 -20.5t-18 -51t22.5 -60.5t55 -56t64.5 -53t54.5 -62.5t22.5 -81.5t-38 -98.5t-95 -81.5q-8 -49 -61.5 -94.5t-116.5 -45.5 q-46 0 -75 21t-29 53q0 18 9 50t17 41h15q3 -53 29.5 -85.5t64 -32.5t62 23.5t24.5 56t-22 62t-53.5 55.5t-63.5 53t-54 64zM180 258l62 -54q74 -67 83 -130q69 43 69 106q0 49 -72 114q-30 27 -60 55q-75 68 -84 127q-69 -41 -69 -98t71 -120z" />
<glyph unicode="&#xa8;" d="M348 582.5q-16 -16.5 -36 -16.5t-29.5 11.5t-9.5 30t16.5 35t36.5 16.5q38 0 38 -38q0 -22 -16 -38.5zM188 582.5q-16 -16.5 -36 -16.5t-29.5 11.5t-9.5 30t16.5 35t36.5 16.5q38 0 38 -38q0 -22 -16 -38.5z" />
<glyph unicode="&#xa9;" horiz-adv-x="665" d="M47 261q0 136 100 236.5t232 100.5q111 0 184 -79t73 -194q0 -136 -100 -236.5t-232 -100.5q-111 0 -184 79t-73 194zM88 265q0 -100 63 -168.5t158 -68.5q113 0 199.5 87.5t86.5 205.5q0 100 -63 168.5t-158 68.5q-113 0 -199.5 -87.5t-86.5 -205.5zM447 146 q-42 -21 -106 -21t-102.5 37.5t-38.5 100.5q0 88 56 145t143 57q38 0 96 -12l2 -4q-15 -40 -24 -88l-30 -3q4 22 4 32q0 41 -61.5 41t-95.5 -42t-34 -105.5t25 -96t70 -32.5q66 0 94 80l30 2q-16 -49 -24 -86z" />
<glyph unicode="&#xaa;" horiz-adv-x="324" d="M210 343q-26 0 -26 22q0 4 24 116l-4 1q-58 -102 -110 -139q-30 0 -47 23.5t-17 66.5q0 77 48 143.5t103 66.5l59 -11l5 15l6 3l37 -9l5 -10q-33 -116 -49 -224l2 -2q6 0 46 34l10 -1l9 -19q-75 -76 -101 -76zM110 407q16 0 49 51.5t62 121.5q-31 20 -58 20t-48 -41.5 t-21 -96.5t16 -55z" />
<glyph unicode="&#xab;" horiz-adv-x="411" d="M387 400l20 -15v-10l-120 -149l83 -155l-3 -10l-24 -15l-144 166l2 15zM227 400l20 -15v-10l-120 -149l83 -155l-3 -10l-24 -15l-144 166l2 15z" />
<glyph unicode="&#xac;" horiz-adv-x="486" d="M443 297l5 -10q-15 -63 -21 -110l-16 -136l-51 -11l-8 6q15 112 26 200l-353 -2l-5 9l17 49q143 -1 229 -1z" />
<glyph unicode="&#xae;" horiz-adv-x="449" d="M111.5 356q-49.5 53 -49.5 137t67 151t148.5 67t130.5 -52.5t49 -137t-66.5 -151.5t-148 -67t-131 53zM152.5 620.5q-55.5 -55.5 -55.5 -125.5t40.5 -113.5t107.5 -43.5t122.5 55.5t55.5 125.5t-40.5 113.5t-107.5 43.5t-122.5 -55.5zM196 620l33 -1h11l30 2q34 0 53 -13 t19 -36q0 -45 -54 -69l22 -43q17 -32 35 -32l3 -4q-1 -12 -9.5 -14.5t-29 -2.5t-33.5 32l-20 55h-24q-7 -33 -7 -44t4.5 -14t16.5 -3l2 -4l-4 -17q-18 1 -31 1h-12l-43 -2l4 21q16 1 21 8t8 30l13 111q1 11 -0.5 14.5t-8.5 3.5h-10l-2 4l5 17h8zM236 520l27 -3 q35 13 35 46.5t-45 33.5q-6 0 -7 -8z" />
<glyph unicode="&#xaf;" d="M383 653l4 -10l-13 -47l-274 -2l-5 9l15 45q91 -1 148 -1z" />
<glyph unicode="&#xb0;" horiz-adv-x="290" d="M90.5 429.5q-30.5 32.5 -30.5 85t41.5 93.5t92 41t80.5 -32.5t30 -84.5t-41 -93.5t-91.5 -41.5t-81 32.5zM127.5 579.5q-25.5 -27.5 -25.5 -62t21.5 -56.5t54.5 -22t59 27.5t26 62t-22 56.5t-55 22t-58.5 -27.5z" />
<glyph unicode="&#xb1;" horiz-adv-x="486" d="M464 249l-192 -1l-22 -184l-51 -11l-8 6q14 103 24 189l-189 -1l-4 9l16 49q101 -1 184 -1l25 191l52 8l9 -6q-20 -113 -30 -193l196 6l4 -10zM424 -73l-437 -2l-4 9l16 49h16l96 -1h122t132 2.5t69 3.5l4 -10z" />
<glyph unicode="&#xb2;" horiz-adv-x="318" d="M202 631q0 38 -48 38t-91 -62h-8l-4 41q24 35 60 57.5t74.5 22.5t65.5 -21t27 -57.5t-35.5 -89t-130.5 -153.5l2 -5h76q31 0 44.5 11t25.5 46l39 4q-22 -62 -32 -111l-9 -6q-145 5 -201 5l-41 -7l-4 25l77 77q113 125 113 185z" />
<glyph unicode="&#xb3;" horiz-adv-x="284" d="M30 407q26 -8 59 -8t61.5 20.5t28.5 51.5q0 52 -91 52l-5 5v32l42 9q25 12 41.5 32t16.5 38t-10 27.5t-26 9.5q-37 0 -73 -28h-7l-6 37q74 43 111 43t60 -18.5t23 -47.5t-21.5 -55t-57.5 -42l-1 -5q74 -22 74 -79q0 -49 -61 -93.5t-127 -44.5q-24 0 -31.5 11.5t-7.5 24.5 t1 21z" />
<glyph unicode="&#xb4;" d="M366 672l-1 -11q-84 -64 -168 -140l-9 2l-20 19q73 79 150 173l10 -2z" />
<glyph unicode="&#xb6;" horiz-adv-x="539" d="M294 641l125 -4l121 3l-13 -46h-26t-34.5 -8.5t-20.5 -36.5q-17 -62 -60 -395q-8 -66 -20.5 -110t-35.5 -80q-44 -69 -154 -69q-50 0 -84 21.5t-34 63.5q0 22 14.5 50t33.5 48h15q-2 -19 -2 -47.5t15 -53.5q20 -35 62 -35q58 0 82.5 41.5t37.5 150.5l55 444q0 10 -3.5 12 t-21.5 2q-56 0 -85.5 -54t-29.5 -145.5t44 -165.5l-2 -15q-91 8 -149.5 60t-58.5 145.5t64.5 158.5t164.5 65z" />
<glyph unicode="&#xb7;" horiz-adv-x="229" d="M155 188.5q-20 -20.5 -47 -20.5t-39 14.5t-12 39t19.5 45t46 20.5t39.5 -14t13 -39t-20 -45.5z" />
<glyph unicode="&#xb8;" horiz-adv-x="383" d="M233 -135q0 -38 -42 -68t-86 -30q-23 0 -42.5 9.5t-19.5 25t32 57.5h8v-16.5t11.5 -26.5t33.5 -14t37 11.5t15 28.5q0 26 -73 73l45 108h42l-33 -73q21 -14 38 -30t21 -22q13 -19 13 -33z" />
<glyph unicode="&#xb9;" horiz-adv-x="240" d="M149 415q0 -29 24 -29l32 2l1 -3l-11 -36q-55 2 -86 2l-90 -7l9 35q30 2 44 13t17 38l26 209q2 22 -4 28.5t-24 6.5l-32 -3l-2 3l7 32q37 5 150 22l4 -15q-23 -19 -31 -58t-21 -130.5t-13 -109.5z" />
<glyph unicode="&#xba;" horiz-adv-x="291" d="M97 478q0 -91 48 -91q24 0 41 35t17 93q0 84 -44 84q-27 0 -44.5 -34t-17.5 -87zM116 343q-38 0 -60.5 29.5t-22.5 80.5q0 80 44.5 137t107.5 57q40 0 62 -26.5t22 -74.5q0 -85 -44.5 -144t-108.5 -59z" />
<glyph unicode="&#xbb;" horiz-adv-x="411" d="M228 46l-21 15l1 10l119 149l-82 155l2 10l24 15l145 -166l-2 -15zM68 46l-21 15l1 10l119 149l-82 155l2 10l24 15l145 -166l-2 -15z" />
<glyph unicode="&#xbc;" horiz-adv-x="685" d="M556 659l5 -14q-174 -259 -262 -400l-215 -340l-38 19l-5 12q133 202 476 742zM149 331q0 -29 24 -29l32 2l1 -3l-11 -36q-55 2 -86 2l-90 -7l9 35q30 2 44 13t17 38l26 209q2 22 -4 28.5t-24 6.5l-32 -3l-2 3l7 32q37 5 150 22l4 -15q-23 -19 -31 -58t-21 -130.5 t-13 -109.5zM384 107l6 34l192 235l4 1l39 -6l-25 -219h52l4 -7l-11 -44l-51 2l-8 -97l-5 -6l-62 -7l-4 6q11 58 17 105zM547 277l-100 -125h91l15 125h-6z" />
<glyph unicode="&#xbd;" horiz-adv-x="713" d="M556 659l5 -14q-174 -259 -262 -400l-215 -340l-38 19l-5 12q133 202 476 742zM149 331q0 -29 24 -29l32 2l1 -3l-11 -36q-55 2 -86 2l-90 -7l9 35q30 2 44 13t17 38l26 209q2 22 -4 28.5t-24 6.5l-32 -3l-2 3l7 32q37 5 150 22l4 -15q-23 -19 -31 -58t-21 -130.5 t-13 -109.5zM586 280q0 38 -48 38t-91 -62h-8l-4 41q24 35 60 57.5t74.5 22.5t65.5 -21t27 -57.5t-35.5 -89t-130.5 -153.5l2 -5h76q31 0 44.5 11t25.5 46l39 4q-22 -62 -32 -111l-9 -6q-145 5 -201 5l-41 -7l-4 25l77 77q113 125 113 185z" />
<glyph unicode="&#xbe;" horiz-adv-x="689" d="M560 659l5 -14q-174 -259 -262 -400l-215 -340l-38 19l-5 12q133 202 476 742zM388 107l6 34l192 235l4 1l39 -6l-25 -219h52l4 -7l-11 -44l-51 2l-8 -97l-5 -6l-62 -7l-4 6q11 58 17 105zM551 277l-100 -125h91l15 125h-6zM30 323q26 -8 59 -8t61.5 20.5t28.5 51.5 q0 52 -91 52l-5 5v32l42 9q25 12 41.5 32t16.5 38t-10 27.5t-26 9.5q-37 0 -73 -28h-7l-6 37q74 43 111 43t60 -18.5t23 -47.5t-21.5 -55t-57.5 -42l-1 -5q74 -22 74 -79q0 -49 -61 -93.5t-127 -44.5q-24 0 -31.5 11.5t-7.5 24.5t1 21z" />
<glyph unicode="&#xbf;" horiz-adv-x="346" d="M61 -59q0 -103 179 -115l1 -11l-38 -53l-14 -4q-84 3 -141 46t-57 106q0 70 41 112q23 22 39.5 35t53 35t51.5 32l4 9l-8 95l4 8l62 17l9 -4l8 -120l-5 -14l-123 -76q-66 -43 -66 -98zM188.5 443.5q19.5 20.5 46.5 20.5t39.5 -14.5t12.5 -39t-20 -45t-46.5 -20.5t-39 14 t-12.5 39t19.5 45.5z" />
<glyph unicode="&#xc0;" horiz-adv-x="558" d="M287 -10l-2 7l8 36q55 4 73.5 14t18.5 36q0 13 -22 151q-24 1 -83.5 1t-123.5 -8l-49 -108q-14 -29 -14 -46q0 -36 53 -36h56v-3l-10 -41q-68 7 -132 7l-105 -3l13 45q29 3 47.5 19.5t38.5 58.5l248 511l56 17l8 1q44 -307 90 -538q7 -38 24.5 -52.5t59.5 -19.5l2 -3 l-11 -39q-69 3 -117.5 3t-126.5 -10zM264 271q47 0 91 6l-44 267h-7l-125 -273h85zM209 777l-4 10l16 48l9 6q105 -60 199 -109l-6 -24l-8 -5z" />
<glyph unicode="&#xc1;" horiz-adv-x="558" d="M287 -10l-2 7l8 36q55 4 73.5 14t18.5 36q0 13 -22 151q-24 1 -83.5 1t-123.5 -8l-49 -108q-14 -29 -14 -46q0 -36 53 -36h56v-3l-10 -41q-68 7 -132 7l-105 -3l13 45q29 3 47.5 19.5t38.5 58.5l248 511l56 17l8 1q44 -307 90 -538q7 -38 24.5 -52.5t59.5 -19.5l2 -3 l-11 -39q-69 3 -117.5 3t-126.5 -10zM264 271q47 0 91 6l-44 267h-7l-125 -273h85zM512 787l-4 -10q-101 -34 -206 -74l-8 5l-6 24l199 109l9 -6z" />
<glyph unicode="&#xc2;" horiz-adv-x="558" d="M287 -10l-2 7l8 36q55 4 73.5 14t18.5 36q0 13 -22 151q-24 1 -83.5 1t-123.5 -8l-49 -108q-14 -29 -14 -46q0 -36 53 -36h56v-3l-10 -41q-68 7 -132 7l-105 -3l13 45q29 3 47.5 19.5t38.5 58.5l248 511l56 17l8 1q44 -307 90 -538q7 -38 24.5 -52.5t59.5 -19.5l2 -3 l-11 -39q-69 3 -117.5 3t-126.5 -10zM264 271q47 0 91 6l-44 267h-7l-125 -273h85zM221 713l-11 22l147 111h14l120 -111l-17 -22l-9 -1l-110 65l-125 -65z" />
<glyph unicode="&#xc3;" horiz-adv-x="558" d="M287 -10l-2 7l8 36q55 4 73.5 14t18.5 36q0 13 -22 151q-24 1 -83.5 1t-123.5 -8l-49 -108q-14 -29 -14 -46q0 -36 53 -36h56v-3l-10 -41q-68 7 -132 7l-105 -3l13 45q29 3 47.5 19.5t38.5 58.5l248 511l56 17l8 1q44 -307 90 -538q7 -38 24.5 -52.5t59.5 -19.5l2 -3 l-11 -39q-69 3 -117.5 3t-126.5 -10zM264 271q47 0 91 6l-44 267h-7l-125 -273h85zM360.5 791.5q53.5 -16.5 65.5 -16.5q20 0 67 45h6l19 -21v-5l-83 -79l-16 -4q-17 0 -70 16.5t-65 16.5q-22 0 -56 -34l-11 -11h-6l-20 21l1 5l83 79l15 4q17 0 70.5 -16.5z" />
<glyph unicode="&#xc4;" horiz-adv-x="558" d="M287 -10l-2 7l8 36q55 4 73.5 14t18.5 36q0 13 -22 151q-24 1 -83.5 1t-123.5 -8l-49 -108q-14 -29 -14 -46q0 -36 53 -36h56v-3l-10 -41q-68 7 -132 7l-105 -3l13 45q29 3 47.5 19.5t38.5 58.5l248 511l56 17l8 1q44 -307 90 -538q7 -38 24.5 -52.5t59.5 -19.5l2 -3 l-11 -39q-69 3 -117.5 3t-126.5 -10zM264 271q47 0 91 6l-44 267h-7l-125 -273h85zM463.5 741.5q-16.5 -16.5 -36.5 -16.5q-38 0 -38 38q0 22 16.5 38.5t36 16.5t29 -11t9.5 -30t-16.5 -35.5zM303.5 741.5q-16.5 -16.5 -36.5 -16.5q-38 0 -38 38q0 22 16 38.5t36 16.5 t29.5 -11t9.5 -30t-16.5 -35.5z" />
<glyph unicode="&#xc5;" horiz-adv-x="558" d="M287 -10l-2 7l8 36q55 4 73.5 14t18.5 36q0 13 -22 151q-24 1 -83.5 1t-123.5 -8l-49 -108q-14 -29 -14 -46q0 -36 53 -36h56v-3l-10 -41q-68 7 -132 7l-105 -3l13 45q29 3 47.5 19.5t38.5 58.5l248 511l56 17l8 1q44 -307 90 -538q7 -38 24.5 -52.5t59.5 -19.5l2 -3 l-11 -39q-69 3 -117.5 3t-126.5 -10zM264 271q47 0 91 6l-44 267h-7l-125 -273h85zM349 712q48 0 48 45q0 42 -44 42q-22 0 -34.5 -12t-12.5 -33t13.5 -31.5t29.5 -10.5zM405.5 703.5q-26.5 -29.5 -62.5 -29.5t-53 18.5t-17 54.5t26.5 63.5t63.5 27.5t53 -19t16 -52.5 t-26.5 -63z" />
<glyph unicode="&#xc6;" horiz-adv-x="778" d="M367 117v36l-2 124l-185 -17l-84 -140q-21 -35 -21 -51.5t11 -23t38 -6.5h54l-11 -46q-71 7 -132 7l-66 -4l-2 34q36 35 71 91l291 458q-3 16 -22 16l-33 -2l-2 4l13 43q0 -3 182.5 -3t258.5 12l2 -6q-25 -73 -42 -165l-47 -4q9 38 9 67t-26.5 38t-94.5 9t-81 -6.5 t-13 -24.5l2 -230l116 11l90 13l4 -5l-19 -52l-83 -2l-108 -9l6 -171q1 -37 17.5 -52.5t59 -15.5t67.5 2.5t45.5 8.5t31.5 21q23 29 38 90l44 5l3 -5q-28 -83 -47 -167l-5 -6q2 2 -121 4.5t-163 2.5q-72 0 -150 -10l-1 7l6 38q47 3 74 25t27 57zM213 310l151 11l-1 219h-9z " />
<glyph unicode="&#xc7;" horiz-adv-x="603" d="M45 253q0 168 107 281.5t265 113.5q66 0 173 -23l3 -6q-28 -74 -45 -164l-43 -4q9 39 9 59q0 84 -131 84q-111 0 -181 -86.5t-70 -225.5q0 -114 51 -181.5t139 -67.5q130 0 186 160l43 4q-31 -90 -46 -160l-6 -9q-69 -35 -174 -39l-17 -39q21 -14 38 -30t22 -22 q12 -19 12 -33q0 -38 -42 -68t-86 -30q-23 0 -42.5 9.5t-19.5 25t32 57.5h8v-16.5t11.5 -26.5t33.5 -14t37 11.5t15 28.5q0 26 -73 73l30 74q-109 7 -174 78t-65 186z" />
<glyph unicode="&#xc8;" horiz-adv-x="568" d="M225 352l99 -1l118 11l3 -4l-20 -56q-82 3 -127 3t-82 -7q-6 -41 -14 -94q-17 -104 -17 -126.5t14 -29.5t67 -7t84 3t54.5 17.5t33 36t21.5 66.5l41 5l2 -5q-28 -82 -47 -166l-5 -5q-199 7 -260 7q-93 0 -161 -10l11 43q44 6 62 23.5t23 60.5q55 439 55 450.5t-4.5 20 t-26.5 8.5l-33 -2l-1 3l11 42q74 -3 204.5 -3t215.5 12l2 -5q-25 -72 -42 -164l-44 -4q9 39 9 68.5t-25.5 38t-95 8.5t-80 -5.5t-14.5 -33.5zM224 777l-4 10l16 48l9 6q105 -60 199 -109l-6 -24l-8 -5z" />
<glyph unicode="&#xc9;" horiz-adv-x="568" d="M225 352l99 -1l118 11l3 -4l-20 -56q-82 3 -127 3t-82 -7q-6 -41 -14 -94q-17 -104 -17 -126.5t14 -29.5t67 -7t84 3t54.5 17.5t33 36t21.5 66.5l41 5l2 -5q-28 -82 -47 -166l-5 -5q-199 7 -260 7q-93 0 -161 -10l11 43q44 6 62 23.5t23 60.5q55 439 55 450.5t-4.5 20 t-26.5 8.5l-33 -2l-1 3l11 42q74 -3 204.5 -3t215.5 12l2 -5q-25 -72 -42 -164l-44 -4q9 39 9 68.5t-25.5 38t-95 8.5t-80 -5.5t-14.5 -33.5zM485 787l-4 -10q-101 -34 -206 -74l-8 5l-6 24l199 109l9 -6z" />
<glyph unicode="&#xca;" horiz-adv-x="568" d="M225 352l99 -1l118 11l3 -4l-20 -56q-82 3 -127 3t-82 -7q-6 -41 -14 -94q-17 -104 -17 -126.5t14 -29.5t67 -7t84 3t54.5 17.5t33 36t21.5 66.5l41 5l2 -5q-28 -82 -47 -166l-5 -5q-199 7 -260 7q-93 0 -161 -10l11 43q44 6 62 23.5t23 60.5q55 439 55 450.5t-4.5 20 t-26.5 8.5l-33 -2l-1 3l11 42q74 -3 204.5 -3t215.5 12l2 -5q-25 -72 -42 -164l-44 -4q9 39 9 68.5t-25.5 38t-95 8.5t-80 -5.5t-14.5 -33.5zM236 713l-11 22l147 111h14l120 -111l-17 -22l-9 -1l-110 65l-125 -65z" />
<glyph unicode="&#xcb;" horiz-adv-x="568" d="M225 352l99 -1l118 11l3 -4l-20 -56q-82 3 -127 3t-82 -7q-6 -41 -14 -94q-17 -104 -17 -126.5t14 -29.5t67 -7t84 3t54.5 17.5t33 36t21.5 66.5l41 5l2 -5q-28 -82 -47 -166l-5 -5q-199 7 -260 7q-93 0 -161 -10l11 43q44 6 62 23.5t23 60.5q55 439 55 450.5t-4.5 20 t-26.5 8.5l-33 -2l-1 3l11 42q74 -3 204.5 -3t215.5 12l2 -5q-25 -72 -42 -164l-44 -4q9 39 9 68.5t-25.5 38t-95 8.5t-80 -5.5t-14.5 -33.5zM478.5 741.5q-16.5 -16.5 -36.5 -16.5q-38 0 -38 38q0 22 16.5 38.5t36 16.5t29 -11t9.5 -30t-16.5 -35.5zM318.5 741.5 q-16.5 -16.5 -36.5 -16.5q-38 0 -38 38q0 22 16 38.5t36 16.5t29.5 -11t9.5 -30t-16.5 -35.5z" />
<glyph unicode="&#xcc;" horiz-adv-x="347" d="M123 640l91 -4h18q40 0 110 10l-10 -43q-41 -5 -56.5 -17t-19.5 -40q-70 -406 -70 -461q0 -24 8.5 -33.5t28.5 -9.5l51 3l2 -4l-14 -44q-79 3 -112 3q-56 0 -124 -12l12 43q46 9 64.5 27t23.5 60q54 437 54 448.5t-5 20.5t-26 9l-41 -2q-1 2 -1 3l12 43h4zM98 777l-4 10 l16 48l9 6q105 -60 199 -109l-6 -24l-8 -5z" />
<glyph unicode="&#xcd;" horiz-adv-x="347" d="M123 640l91 -4h18q40 0 110 10l-10 -43q-41 -5 -56.5 -17t-19.5 -40q-70 -406 -70 -461q0 -24 8.5 -33.5t28.5 -9.5l51 3l2 -4l-14 -44q-79 3 -112 3q-56 0 -124 -12l12 43q46 9 64.5 27t23.5 60q54 437 54 448.5t-5 20.5t-26 9l-41 -2q-1 2 -1 3l12 43h4zM391 787 l-4 -10q-101 -34 -206 -74l-8 5l-6 24l199 109l9 -6z" />
<glyph unicode="&#xce;" horiz-adv-x="347" d="M123 640l91 -4h18q40 0 110 10l-10 -43q-41 -5 -56.5 -17t-19.5 -40q-70 -406 -70 -461q0 -24 8.5 -33.5t28.5 -9.5l51 3l2 -4l-14 -44q-79 3 -112 3q-56 0 -124 -12l12 43q46 9 64.5 27t23.5 60q54 437 54 448.5t-5 20.5t-26 9l-41 -2q-1 2 -1 3l12 43h4zM110 713 l-11 22l147 111h14l120 -111l-17 -22l-9 -1l-110 65l-125 -65z" />
<glyph unicode="&#xcf;" horiz-adv-x="347" d="M123 640l91 -4h18q40 0 110 10l-10 -43q-41 -5 -56.5 -17t-19.5 -40q-70 -406 -70 -461q0 -24 8.5 -33.5t28.5 -9.5l51 3l2 -4l-14 -44q-79 3 -112 3q-56 0 -124 -12l12 43q46 9 64.5 27t23.5 60q54 437 54 448.5t-5 20.5t-26 9l-41 -2q-1 2 -1 3l12 43h4zM352.5 741.5 q-16.5 -16.5 -36.5 -16.5q-38 0 -38 38q0 22 16.5 38.5t36 16.5t29 -11t9.5 -30t-16.5 -35.5zM192.5 741.5q-16.5 -16.5 -36.5 -16.5q-38 0 -38 38q0 22 16 38.5t36 16.5t29.5 -11t9.5 -30t-16.5 -35.5z" />
<glyph unicode="&#xd0;" horiz-adv-x="684" d="M296 -12q-98 12 -132 12q-56 0 -126 -12l11 43q46 9 64 26.5t23 59.5l23 187h-133l-6 7l11 32h133q26 213 26 224.5t-4.5 20t-25.5 8.5l-34 -2l-1 4l11 41q63 -3 100 -3l136 4q129 0 210 -73.5t81 -184t-49.5 -200t-134 -142t-183.5 -52.5zM308 596q-20 0 -27 -4.5 t-9 -17.5l-38 -231h162l4 -7l-10 -32h-162q-27 -173 -27 -197q0 -42 24.5 -57t89.5 -15q118 0 190 89t72 232q0 115 -69 177.5t-200 62.5z" />
<glyph unicode="&#xd1;" horiz-adv-x="691" d="M102 602l-1 5l11 34q55 -5 81 -5l62 4q125 -252 265 -506h4q52 422 52 427q0 34 -27 34h-11l-18 -1h-7l-2 4l14 42q57 -4 82 -4q48 0 102 9l-10 -44q-66 -9 -74 -63l-82 -566l-25 -14q-145 294 -293 564h-4l-60 -441q-3 -22 2.5 -30.5t22.5 -8.5h49l2 -3l-14 -43 q-58 4 -100 4l-89 -8l11 43q59 7 67 63q68 448 68 462q0 34 -78 42zM426.5 791.5q53.5 -16.5 65.5 -16.5q20 0 67 45h6l19 -21v-5l-83 -79l-16 -4q-17 0 -70 16.5t-65 16.5q-22 0 -56 -34l-11 -11h-6l-20 21l1 5l83 79l15 4q17 0 70.5 -16.5z" />
<glyph unicode="&#xd2;" horiz-adv-x="663" d="M311 35q106 0 176 87.5t70 210.5t-51.5 191.5t-137.5 68.5q-103 0 -172 -88.5t-69 -210.5t50.5 -190.5t133.5 -68.5zM286 -12q-107 0 -174 74t-67 192q0 162 103.5 278t248.5 116q109 0 178 -74.5t69 -191.5q0 -163 -105.5 -278.5t-252.5 -115.5zM256 777l-4 10l16 48 l9 6q105 -60 199 -109l-6 -24l-8 -5z" />
<glyph unicode="&#xd3;" horiz-adv-x="663" d="M311 35q106 0 176 87.5t70 210.5t-51.5 191.5t-137.5 68.5q-103 0 -172 -88.5t-69 -210.5t50.5 -190.5t133.5 -68.5zM286 -12q-107 0 -174 74t-67 192q0 162 103.5 278t248.5 116q109 0 178 -74.5t69 -191.5q0 -163 -105.5 -278.5t-252.5 -115.5zM529 787l-4 -10 q-101 -34 -206 -74l-8 5l-6 24l199 109l9 -6z" />
<glyph unicode="&#xd4;" horiz-adv-x="663" d="M311 35q106 0 176 87.5t70 210.5t-51.5 191.5t-137.5 68.5q-103 0 -172 -88.5t-69 -210.5t50.5 -190.5t133.5 -68.5zM286 -12q-107 0 -174 74t-67 192q0 162 103.5 278t248.5 116q109 0 178 -74.5t69 -191.5q0 -163 -105.5 -278.5t-252.5 -115.5zM258 713l-11 22l147 111 h14l120 -111l-17 -22l-9 -1l-110 65l-125 -65z" />
<glyph unicode="&#xd5;" horiz-adv-x="663" d="M311 35q106 0 176 87.5t70 210.5t-51.5 191.5t-137.5 68.5q-103 0 -172 -88.5t-69 -210.5t50.5 -190.5t133.5 -68.5zM286 -12q-107 0 -174 74t-67 192q0 162 103.5 278t248.5 116q109 0 178 -74.5t69 -191.5q0 -163 -105.5 -278.5t-252.5 -115.5zM407.5 791.5 q53.5 -16.5 64.5 -16.5q21 0 68 45h6l19 -21v-5l-83 -79l-16 -4q-17 0 -70 16.5t-64 16.5q-23 0 -56 -34l-12 -11h-6l-20 21l1 5l83 79l15 4q17 0 70.5 -16.5z" />
<glyph unicode="&#xd6;" horiz-adv-x="663" d="M311 35q106 0 176 87.5t70 210.5t-51.5 191.5t-137.5 68.5q-103 0 -172 -88.5t-69 -210.5t50.5 -190.5t133.5 -68.5zM286 -12q-107 0 -174 74t-67 192q0 162 103.5 278t248.5 116q109 0 178 -74.5t69 -191.5q0 -163 -105.5 -278.5t-252.5 -115.5zM500.5 741.5 q-16.5 -16.5 -36.5 -16.5q-38 0 -38 38q0 22 16.5 38.5t36 16.5t29 -11t9.5 -30t-16.5 -35.5zM340.5 741.5q-16.5 -16.5 -36.5 -16.5q-38 0 -38 38q0 22 16 38.5t36 16.5t29.5 -11t9.5 -30t-16.5 -35.5z" />
<glyph unicode="&#xd7;" horiz-adv-x="486" d="M404 449l10 -3l26 -42l-153 -143l122 -135l-5 -12l-45 -30l-116 138l-151 -142l-10 3l-22 42q81 74 148 136l-121 144l3 11l47 26q64 -79 116 -141z" />
<glyph unicode="&#xd8;" horiz-adv-x="663" d="M45 254q0 162 103.5 278t248.5 116q45 0 85 -14l39 74l29 -7l3 -12l-38 -70q60 -32 94.5 -94.5t34.5 -142.5q0 -163 -105.5 -278.5t-252.5 -115.5q-47 0 -94 18l-55 -104l-27 6l-2 10l53 103q-55 33 -85.5 94t-30.5 139zM311 35q106 0 176 87.5t70 224.5t-78 205 l-258 -491q40 -26 90 -26zM196 504.5q-69 -88.5 -69 -220t67 -200.5l256 488q-39 21 -82 21q-103 0 -172 -88.5z" />
<glyph unicode="&#xd9;" horiz-adv-x="652" d="M175 202q0 -78 35.5 -119.5t110 -41.5t122 44.5t57.5 129.5q36 332 36 348.5t-4.5 24.5t-25.5 8l-43 -2v4l11 41q71 -3 98 -3q45 0 103 10l-10 -43q-43 -5 -56 -15.5t-17 -41.5l-42 -340q-13 -103 -82 -160.5t-182 -57.5q-90 0 -137.5 47t-47.5 131q0 23 3 44 q43 345 43 357t-5 20.5t-27 8.5l-33 -2l-1 4l12 41q70 -3 97 -3q46 0 110 10l-9 -43q-36 -5 -50 -16.5t-19 -40.5l-44 -294q-3 -27 -3 -50zM261 777l-4 10l16 48l9 6q105 -60 199 -109l-6 -24l-8 -5z" />
<glyph unicode="&#xda;" horiz-adv-x="652" d="M175 202q0 -78 35.5 -119.5t110 -41.5t122 44.5t57.5 129.5q36 332 36 348.5t-4.5 24.5t-25.5 8l-43 -2v4l11 41q71 -3 98 -3q45 0 103 10l-10 -43q-43 -5 -56 -15.5t-17 -41.5l-42 -340q-13 -103 -82 -160.5t-182 -57.5q-90 0 -137.5 47t-47.5 131q0 23 3 44 q43 345 43 357t-5 20.5t-27 8.5l-33 -2l-1 4l12 41q70 -3 97 -3q46 0 110 10l-9 -43q-36 -5 -50 -16.5t-19 -40.5l-44 -294q-3 -27 -3 -50zM564 787l-4 -10q-101 -34 -206 -74l-8 5l-6 24l199 109l9 -6z" />
<glyph unicode="&#xdb;" horiz-adv-x="652" d="M175 202q0 -78 35.5 -119.5t110 -41.5t122 44.5t57.5 129.5q36 332 36 348.5t-4.5 24.5t-25.5 8l-43 -2v4l11 41q71 -3 98 -3q45 0 103 10l-10 -43q-43 -5 -56 -15.5t-17 -41.5l-42 -340q-13 -103 -82 -160.5t-182 -57.5q-90 0 -137.5 47t-47.5 131q0 23 3 44 q43 345 43 357t-5 20.5t-27 8.5l-33 -2l-1 4l12 41q70 -3 97 -3q46 0 110 10l-9 -43q-36 -5 -50 -16.5t-19 -40.5l-44 -294q-3 -27 -3 -50zM273 713l-11 22l147 111h14l120 -111l-17 -22l-9 -1l-110 65l-125 -65z" />
<glyph unicode="&#xdc;" horiz-adv-x="652" d="M175 202q0 -78 35.5 -119.5t110 -41.5t122 44.5t57.5 129.5q36 332 36 348.5t-4.5 24.5t-25.5 8l-43 -2v4l11 41q71 -3 98 -3q45 0 103 10l-10 -43q-43 -5 -56 -15.5t-17 -41.5l-42 -340q-13 -103 -82 -160.5t-182 -57.5q-90 0 -137.5 47t-47.5 131q0 23 3 44 q43 345 43 357t-5 20.5t-27 8.5l-33 -2l-1 4l12 41q70 -3 97 -3q46 0 110 10l-9 -43q-36 -5 -50 -16.5t-19 -40.5l-44 -294q-3 -27 -3 -50zM515.5 741.5q-16.5 -16.5 -36.5 -16.5q-38 0 -38 38q0 22 16.5 38.5t36 16.5t29 -11t9.5 -30t-16.5 -35.5zM355.5 741.5 q-16.5 -16.5 -36.5 -16.5q-38 0 -38 38q0 22 16 38.5t36 16.5t29.5 -11t9.5 -30t-16.5 -35.5z" />
<glyph unicode="&#xdd;" horiz-adv-x="520" d="M210 593q-15 -8 -15 -25q0 -35 77 -264h4l139 218q21 32 21 53q0 24 -57 28l-2 4l11 37q72 -8 104 -8l89 4l3 -6l-11 -35q-45 -8 -65 -26.5t-46 -57.5q-157 -234 -159.5 -239t-6 -16t-6 -18t-5 -24.5t-3.5 -27.5q-14 -92 -14 -109.5t3 -24.5q6 -15 32 -15l47 3l2 -4 l-14 -43q-78 3 -109 3q-53 0 -119 -12l11 43q51 11 66.5 31.5t21.5 78.5q6 57 6 87.5t-15 72.5q-75 217 -77.5 223.5t-7 19t-7 15.5t-7.5 11t-9 10t-10.5 7t-14 6.5t-16.5 3.5t-21 3l-2 4l11 36q59 -4 93 -4q68 0 147 9l2 -7l-8 -33q-48 -4 -63 -12zM502 787l-4 -10 q-101 -34 -206 -74l-8 5l-6 24l199 109l9 -6z" />
<glyph unicode="&#xde;" horiz-adv-x="523" d="M174 638l58 -1q30 0 113 9l-10 -45q-40 -5 -55 -16.5t-20 -40.5l-7 -41h78q91 0 139.5 -37t48.5 -106q0 -85 -77.5 -148.5t-175.5 -63.5h-68q-7 -51 -7 -67t5.5 -26.5t30.5 -10.5l51 3l1 -4l-14 -46q-82 3 -115 3q-56 0 -126 -12l12 46q46 9 64 26.5t23 59.5 q54 433 54 444.5t-5 20.5t-26 9l-40 -2l-2 4l13 44q34 -2 57 -2zM432 341q0 58 -39.5 85.5t-123.5 27.5q-24 0 -26 -8q-26 -160 -37 -237q41 -15 95 -17q131 17 131 149z" />
<glyph unicode="&#xdf;" horiz-adv-x="882" d="M169 -9q-68 0 -116 19l-16 7l-3 9q18 61 28 135l41 4q-4 -33 -4 -62t9 -44q16 -25 72 -25t88.5 24t32.5 57t-22 53.5t-81 53t-86 60.5t-27 66q0 67 57 113t141 46q64 0 128 -20l2 -5q-20 -61 -34 -133l-36 -3l-5 4q8 32 8 58t-18.5 38.5t-63.5 12.5t-75.5 -22t-30.5 -57 t60 -74q13 -8 41 -23t45 -26t37 -27q39 -31 39 -76q0 -71 -59 -117t-152 -46zM610 -9q-68 0 -116 19l-16 7l-3 9q18 61 28 135l41 4q-4 -33 -4 -62t9 -44q16 -25 72 -25t88.5 24t32.5 57t-22 53.5t-81 53t-86 60.5t-27 66q0 67 57 113t141 46q64 0 128 -20l2 -5 q-20 -61 -34 -133l-36 -3l-5 4q8 32 8 58t-18.5 38.5t-63.5 12.5t-75.5 -22t-30.5 -57t60 -74q13 -8 41 -23t45 -26t37 -27q39 -31 39 -76q0 -71 -59 -117t-152 -46z" />
<glyph unicode="&#xe0;" horiz-adv-x="490" d="M312 176l-80 1q-33 0 -84 -6l-36 -77q-11 -21 -11 -33q0 -26 41 -26h43v-3l-8 -37q-58 5 -110 5l-89 -2l11 40q22 2 37 14.5t30 43.5l197 397l67 14l7 -1q38 -249 74 -414q6 -30 19.5 -41.5t45.5 -14.5l2 -3l-9 -35q-58 2 -86 2q-45 0 -122 -7l-2 5l7 34q44 3 58 10.5 t14 23.5q0 13 -16 110zM235 215q34 0 70 4l-34 197h-7l-95 -201h66zM171 637l-4 10l16 48l9 6q105 -60 199 -109l-6 -24l-8 -5z" />
<glyph unicode="&#xe1;" horiz-adv-x="490" d="M312 176l-80 1q-33 0 -84 -6l-36 -77q-11 -21 -11 -33q0 -26 41 -26h43v-3l-8 -37q-58 5 -110 5l-89 -2l11 40q22 2 37 14.5t30 43.5l197 397l67 14l7 -1q38 -249 74 -414q6 -30 19.5 -41.5t45.5 -14.5l2 -3l-9 -35q-58 2 -86 2q-45 0 -122 -7l-2 5l7 34q44 3 58 10.5 t14 23.5q0 13 -16 110zM235 215q34 0 70 4l-34 197h-7l-95 -201h66zM448 647l-4 -10q-101 -34 -206 -74l-8 5l-6 24l199 109l9 -6z" />
<glyph unicode="&#xe2;" horiz-adv-x="490" d="M312 176l-80 1q-33 0 -84 -6l-36 -77q-11 -21 -11 -33q0 -26 41 -26h43v-3l-8 -37q-58 5 -110 5l-89 -2l11 40q22 2 37 14.5t30 43.5l197 397l67 14l7 -1q38 -249 74 -414q6 -30 19.5 -41.5t45.5 -14.5l2 -3l-9 -35q-58 2 -86 2q-45 0 -122 -7l-2 5l7 34q44 3 58 10.5 t14 23.5q0 13 -16 110zM235 215q34 0 70 4l-34 197h-7l-95 -201h66zM172 573l-11 22l147 111h14l120 -111l-17 -22l-9 -1l-110 65l-125 -65z" />
<glyph unicode="&#xe3;" horiz-adv-x="490" d="M312 176l-80 1q-33 0 -84 -6l-36 -77q-11 -21 -11 -33q0 -26 41 -26h43v-3l-8 -37q-58 5 -110 5l-89 -2l11 40q22 2 37 14.5t30 43.5l197 397l67 14l7 -1q38 -249 74 -414q6 -30 19.5 -41.5t45.5 -14.5l2 -3l-9 -35q-58 2 -86 2q-45 0 -122 -7l-2 5l7 34q44 3 58 10.5 t14 23.5q0 13 -16 110zM235 215q34 0 70 4l-34 197h-7l-95 -201h66zM310.5 651.5q53.5 -16.5 65.5 -16.5q20 0 67 45h6l19 -21v-5l-83 -79l-16 -4q-17 0 -70 16.5t-65 16.5q-22 0 -56 -34l-11 -11h-6l-20 21l1 5l83 79l15 4q17 0 70.5 -16.5z" />
<glyph unicode="&#xe4;" horiz-adv-x="490" d="M312 176l-80 1q-33 0 -84 -6l-36 -77q-11 -21 -11 -33q0 -26 41 -26h43v-3l-8 -37q-58 5 -110 5l-89 -2l11 40q22 2 37 14.5t30 43.5l197 397l67 14l7 -1q38 -249 74 -414q6 -30 19.5 -41.5t45.5 -14.5l2 -3l-9 -35q-58 2 -86 2q-45 0 -122 -7l-2 5l7 34q44 3 58 10.5 t14 23.5q0 13 -16 110zM235 215q34 0 70 4l-34 197h-7l-95 -201h66zM414.5 601.5q-16.5 -16.5 -36.5 -16.5q-38 0 -38 38q0 22 16.5 38.5t36 16.5t29 -11t9.5 -30t-16.5 -35.5zM254.5 601.5q-16.5 -16.5 -36.5 -16.5q-38 0 -38 38q0 22 16 38.5t36 16.5t29.5 -11t9.5 -30 t-16.5 -35.5z" />
<glyph unicode="&#xe5;" horiz-adv-x="490" d="M312 176l-80 1q-33 0 -84 -6l-36 -77q-11 -21 -11 -33q0 -26 41 -26h43v-3l-8 -37q-58 5 -110 5l-89 -2l11 40q22 2 37 14.5t30 43.5l197 397l67 14l7 -1q38 -249 74 -414q6 -30 19.5 -41.5t45.5 -14.5l2 -3l-9 -35q-58 2 -86 2q-45 0 -122 -7l-2 5l7 34q44 3 58 10.5 t14 23.5q0 13 -16 110zM235 215q34 0 70 4l-34 197h-7l-95 -201h66zM300 572q48 0 48 45q0 42 -44 42q-22 0 -34.5 -12t-12.5 -33t13.5 -31.5t29.5 -10.5zM356.5 563.5q-26.5 -29.5 -62.5 -29.5t-53 18.5t-17 54.5t26.5 63.5t63.5 27.5t53 -19t16 -52.5t-26.5 -63z" />
<glyph unicode="&#xe6;" horiz-adv-x="676" d="M316 93l1 27l-2 88l-77 -6l-71 -10l-61 -97q-16 -27 -16 -38t9 -15.5t32 -4.5l39 -1l-10 -41q-66 5 -115 5l-55 -3l-1 34q6 0 25.5 24t31.5 42l226 348q-3 14 -18 14l-26 -1l-3 4l11 38q77 -2 198.5 -2t189.5 9l2 -5q-20 -62 -34 -134l-49 -4q7 29 7 51t-20 29t-72 7 t-62 -5.5t-10 -18.5l3 -166l88 9l75 12l5 -6l-16 -49l-70 -3l-81 -7l5 -121q1 -29 13.5 -41t42.5 -12q79 0 102.5 15.5t40.5 78.5l45 4l3 -5q-23 -66 -38 -136l-5 -5q2 2 -100.5 3.5t-138.5 1.5q-52 0 -127 -7l-2 5l6 36q79 6 79 59zM197 243l117 9l-1 161h-9z" />
<glyph unicode="&#xe7;" horiz-adv-x="515" d="M47 200q0 134 85.5 220.5t217.5 86.5q62 0 146 -19l3 -6q-23 -60 -37 -134l-46 -4q7 33 7 48q0 63 -101 63q-85 0 -137.5 -64t-52.5 -160t38.5 -145t106.5 -49q100 0 142 120l46 4q-24 -74 -36 -131l-6 -8q-54 -25 -134 -30l-19 -42q21 -14 38 -30t22 -22q12 -19 12 -33 q0 -38 -42 -68t-86 -30q-23 0 -42.5 9.5t-19.5 25t32 57.5h8v-16.5t11.5 -26.5t33.5 -14t37 11.5t15 28.5q0 26 -73 73l32 77q-92 5 -146.5 60.5t-54.5 147.5z" />
<glyph unicode="&#xe8;" horiz-adv-x="488" d="M204 279l79 -1l96 8l3 -4l-17 -51q-66 2 -101 2t-68 -5q-4 -30 -10 -67q-13 -71 -13 -90t11 -24.5t45 -5.5q89 0 115 15.5t43 78.5l42 4l2 -5q-22 -66 -38 -134l-5 -5q-159 5 -213 5q-82 0 -142 -8l10 40q35 4 49 18t19 48q41 330 41 339.5t-3.5 16t-20.5 6.5l-26 -1 l-2 4l10 37q67 -3 174 -3t181 10l2 -5q-20 -61 -34 -133l-45 -3q7 29 7 51.5t-20.5 29t-73.5 6.5t-61.5 -4.5t-11.5 -24.5zM179 637l-4 10l16 48l9 6q105 -60 199 -109l-6 -24l-8 -5z" />
<glyph unicode="&#xe9;" horiz-adv-x="488" d="M204 279l79 -1l96 8l3 -4l-17 -51q-66 2 -101 2t-68 -5q-4 -30 -10 -67q-13 -71 -13 -90t11 -24.5t45 -5.5q89 0 115 15.5t43 78.5l42 4l2 -5q-22 -66 -38 -134l-5 -5q-159 5 -213 5q-82 0 -142 -8l10 40q35 4 49 18t19 48q41 330 41 339.5t-3.5 16t-20.5 6.5l-26 -1 l-2 4l10 37q67 -3 174 -3t181 10l2 -5q-20 -61 -34 -133l-45 -3q7 29 7 51.5t-20.5 29t-73.5 6.5t-61.5 -4.5t-11.5 -24.5zM425 647l-4 -10q-101 -34 -206 -74l-8 5l-6 24l199 109l9 -6z" />
<glyph unicode="&#xea;" horiz-adv-x="488" d="M204 279l79 -1l96 8l3 -4l-17 -51q-66 2 -101 2t-68 -5q-4 -30 -10 -67q-13 -71 -13 -90t11 -24.5t45 -5.5q89 0 115 15.5t43 78.5l42 4l2 -5q-22 -66 -38 -134l-5 -5q-159 5 -213 5q-82 0 -142 -8l10 40q35 4 49 18t19 48q41 330 41 339.5t-3.5 16t-20.5 6.5l-26 -1 l-2 4l10 37q67 -3 174 -3t181 10l2 -5q-20 -61 -34 -133l-45 -3q7 29 7 51.5t-20.5 29t-73.5 6.5t-61.5 -4.5t-11.5 -24.5zM181 573l-11 22l147 111h14l120 -111l-17 -22l-9 -1l-110 65l-125 -65z" />
<glyph unicode="&#xeb;" horiz-adv-x="488" d="M204 279l79 -1l96 8l3 -4l-17 -51q-66 2 -101 2t-68 -5q-4 -30 -10 -67q-13 -71 -13 -90t11 -24.5t45 -5.5q89 0 115 15.5t43 78.5l42 4l2 -5q-22 -66 -38 -134l-5 -5q-159 5 -213 5q-82 0 -142 -8l10 40q35 4 49 18t19 48q41 330 41 339.5t-3.5 16t-20.5 6.5l-26 -1 l-2 4l10 37q67 -3 174 -3t181 10l2 -5q-20 -61 -34 -133l-45 -3q7 29 7 51.5t-20.5 29t-73.5 6.5t-61.5 -4.5t-11.5 -24.5zM423.5 601.5q-16.5 -16.5 -36.5 -16.5q-38 0 -38 38q0 22 16.5 38.5t36 16.5t29 -11t9.5 -30t-16.5 -35.5zM263.5 601.5q-16.5 -16.5 -36.5 -16.5 q-38 0 -38 38q0 22 16 38.5t36 16.5t29.5 -11t9.5 -30t-16.5 -35.5z" />
<glyph unicode="&#xec;" horiz-adv-x="307" d="M104 500l97 -3l96 8l-9 -40q-32 -4 -44 -12.5t-16 -30.5q-54 -305 -54 -351q0 -33 29 -33l40 2l2 -3l-12 -39q-69 2 -97 2q-51 0 -105 -9l10 39q37 7 51.5 21t18.5 46q41 332 41 340.5t-3.5 15.5t-21.5 7l-32 -1q-1 3 -1 4zM85 637l-4 10l16 48l9 6q105 -60 199 -109 l-6 -24l-8 -5z" />
<glyph unicode="&#xed;" horiz-adv-x="307" d="M104 500l97 -3l96 8l-9 -40q-32 -4 -44 -12.5t-16 -30.5q-54 -305 -54 -351q0 -33 29 -33l40 2l2 -3l-12 -39q-69 2 -97 2q-51 0 -105 -9l10 39q37 7 51.5 21t18.5 46q41 332 41 340.5t-3.5 15.5t-21.5 7l-32 -1q-1 3 -1 4zM335 647l-4 -10q-101 -34 -206 -74l-8 5l-6 24 l199 109l9 -6z" />
<glyph unicode="&#xee;" horiz-adv-x="307" d="M104 500l97 -3l96 8l-9 -40q-32 -4 -44 -12.5t-16 -30.5q-54 -305 -54 -351q0 -33 29 -33l40 2l2 -3l-12 -39q-69 2 -97 2q-51 0 -105 -9l10 39q37 7 51.5 21t18.5 46q41 332 41 340.5t-3.5 15.5t-21.5 7l-32 -1q-1 3 -1 4zM77 573l-11 22l147 111h14l120 -111l-17 -22 l-9 -1l-110 65l-125 -65z" />
<glyph unicode="&#xef;" horiz-adv-x="307" d="M104 500l97 -3l96 8l-9 -40q-32 -4 -44 -12.5t-16 -30.5q-54 -305 -54 -351q0 -33 29 -33l40 2l2 -3l-12 -39q-69 2 -97 2q-51 0 -105 -9l10 39q37 7 51.5 21t18.5 46q41 332 41 340.5t-3.5 15.5t-21.5 7l-32 -1q-1 3 -1 4zM319.5 601.5q-16.5 -16.5 -36.5 -16.5 q-38 0 -38 38q0 22 16.5 38.5t36 16.5t29 -11t9.5 -30t-16.5 -35.5zM159.5 601.5q-16.5 -16.5 -36.5 -16.5q-38 0 -38 38q0 22 16 38.5t36 16.5t29.5 -11t9.5 -30t-16.5 -35.5z" />
<glyph unicode="&#xf0;" horiz-adv-x="582" d="M258 -9q-80 9 -110 9q-53 0 -105 -9l9 40q38 7 52 20t18 46l16 136h-105l-5 5l10 32h105q19 158 19 167.5t-3.5 16t-19.5 6.5l-28 -1l-1 4l10 37q56 -3 86 -3l114 4q106 0 172.5 -56.5t66.5 -149.5q0 -127 -88 -215.5t-213 -88.5zM270 457q-15 0 -20.5 -3.5t-7.5 -14.5 l-29 -169h123l4 -5l-9 -32h-124q-20 -118 -20 -146.5t18.5 -39t67.5 -10.5q91 0 146 67t55 177q0 86 -52 131t-152 45z" />
<glyph unicode="&#xf1;" horiz-adv-x="590" d="M478 434q0 26 -23 26l-29 -1l-2 4l12 38q52 -4 80 -4l82 7l-8 -40q-53 -7 -60 -49l-64 -433l-36 -11q-109 208 -229 411h-5l-43 -312q-2 -18 3 -25t19 -7h38l3 -3l-12 -38q-53 3 -87 3l-80 -6l10 39q49 6 54 49q53 338 53 349q0 27 -63 33q-2 4 -2 5l9 32q47 -4 73 -4 l57 4q95 -181 208 -373h4q38 302 38 306zM361.5 651.5q53.5 -16.5 64.5 -16.5q21 0 68 45h6l19 -21v-5l-83 -79l-16 -4q-17 0 -70 16.5t-64 16.5q-23 0 -56 -34l-12 -11h-6l-20 21l1 5l83 79l15 4q17 0 70.5 -16.5z" />
<glyph unicode="&#xf2;" horiz-adv-x="564" d="M269 37q81 0 133 65.5t52 170.5q0 82 -39.5 131.5t-104.5 49.5q-79 0 -130.5 -66t-51.5 -159.5t38.5 -142.5t102.5 -49zM248 -9q-90 0 -145.5 57.5t-55.5 151.5q0 130 83 218.5t204 88.5q92 0 148.5 -57.5t56.5 -151.5q0 -130 -84.5 -218.5t-206.5 -88.5zM203 637l-4 10 l16 48l9 6q105 -60 199 -109l-6 -24l-8 -5z" />
<glyph unicode="&#xf3;" horiz-adv-x="564" d="M269 37q81 0 133 65.5t52 170.5q0 82 -39.5 131.5t-104.5 49.5q-79 0 -130.5 -66t-51.5 -159.5t38.5 -142.5t102.5 -49zM248 -9q-90 0 -145.5 57.5t-55.5 151.5q0 130 83 218.5t204 88.5q92 0 148.5 -57.5t56.5 -151.5q0 -130 -84.5 -218.5t-206.5 -88.5zM458 647l-4 -10 q-101 -34 -206 -74l-8 5l-6 24l199 109l9 -6z" />
<glyph unicode="&#xf4;" horiz-adv-x="564" d="M269 37q81 0 133 65.5t52 170.5q0 82 -39.5 131.5t-104.5 49.5q-79 0 -130.5 -66t-51.5 -159.5t38.5 -142.5t102.5 -49zM248 -9q-90 0 -145.5 57.5t-55.5 151.5q0 130 83 218.5t204 88.5q92 0 148.5 -57.5t56.5 -151.5q0 -130 -84.5 -218.5t-206.5 -88.5zM197 573l-11 22 l147 111h14l120 -111l-17 -22l-9 -1l-110 65l-125 -65z" />
<glyph unicode="&#xf5;" horiz-adv-x="564" d="M269 37q81 0 133 65.5t52 170.5q0 82 -39.5 131.5t-104.5 49.5q-79 0 -130.5 -66t-51.5 -159.5t38.5 -142.5t102.5 -49zM248 -9q-90 0 -145.5 57.5t-55.5 151.5q0 130 83 218.5t204 88.5q92 0 148.5 -57.5t56.5 -151.5q0 -130 -84.5 -218.5t-206.5 -88.5zM343.5 651.5 q53.5 -16.5 64.5 -16.5q21 0 68 45h6l19 -21v-5l-83 -79l-16 -4q-17 0 -70 16.5t-64 16.5q-23 0 -56 -34l-12 -11h-6l-20 21l1 5l83 79l15 4q17 0 70.5 -16.5z" />
<glyph unicode="&#xf6;" horiz-adv-x="564" d="M269 37q81 0 133 65.5t52 170.5q0 82 -39.5 131.5t-104.5 49.5q-79 0 -130.5 -66t-51.5 -159.5t38.5 -142.5t102.5 -49zM248 -9q-90 0 -145.5 57.5t-55.5 151.5q0 130 83 218.5t204 88.5q92 0 148.5 -57.5t56.5 -151.5q0 -130 -84.5 -218.5t-206.5 -88.5zM439.5 601.5 q-16.5 -16.5 -36.5 -16.5q-38 0 -38 38q0 22 16.5 38.5t36 16.5t29 -11t9.5 -30t-16.5 -35.5zM279.5 601.5q-16.5 -16.5 -36.5 -16.5q-38 0 -38 38q0 22 16 38.5t36 16.5t29.5 -11t9.5 -30t-16.5 -35.5z" />
<glyph unicode="&#xf7;" horiz-adv-x="486" d="M472 297l5 -10l-14 -51l-438 -2l-5 9l17 49q143 -1 229 -1zM261.5 49.5q-19.5 -20.5 -46 -20.5t-39 14.5t-12.5 39t19.5 45t46 20.5t39 -14t12.5 -39t-19.5 -45.5zM304.5 398.5q-19.5 -20.5 -46.5 -20.5t-39 14.5t-12 39t19.5 45t46 20.5t39 -14t12.5 -39t-19.5 -45.5z " />
<glyph unicode="&#xf8;" horiz-adv-x="564" d="M137 21q-90 56 -90 182.5t83 215t204 88.5q37 0 72 -11l32 57l27 -8l2 -10l-30 -52q48 -26 75 -74t27 -111q0 -130 -84.5 -218.5t-206.5 -88.5q-41 0 -83 15l-48 -83l-25 7l-2 8zM269 37q81 0 133 65.5t52 167t-54 150.5l-205 -362q31 -21 74 -21zM179.5 388 q-51.5 -66 -51.5 -162t43 -145l202 358q-30 15 -63 15q-79 0 -130.5 -66z" />
<glyph unicode="&#xf9;" horiz-adv-x="554" d="M164 156q0 -56 27.5 -85.5t79.5 -29.5q126 0 140 125q29 258 29 269.5t-4 18t-20 6.5l-33 -1l-1 3l10 38q59 -3 89 -3l82 7l-9 -39q-34 -5 -44.5 -12.5t-13.5 -30.5l-32 -258q-10 -83 -66.5 -128t-141.5 -45q-167 0 -165 140q-1 14 2 31q33 261 33 272.5t-4 18.5t-21 7 l-27 -1l-1 3l11 38q60 -3 93 -3l86 7l-8 -39q-29 -4 -40 -13t-15 -31l-34 -228q-2 -13 -2 -37zM206 637l-4 10l16 48l9 6q105 -60 199 -109l-6 -24l-8 -5z" />
<glyph unicode="&#xfa;" horiz-adv-x="554" d="M164 156q0 -56 27.5 -85.5t79.5 -29.5q126 0 140 125q29 258 29 269.5t-4 18t-20 6.5l-33 -1l-1 3l10 38q59 -3 89 -3l82 7l-9 -39q-34 -5 -44.5 -12.5t-13.5 -30.5l-32 -258q-10 -83 -66.5 -128t-141.5 -45q-167 0 -165 140q-1 14 2 31q33 261 33 272.5t-4 18.5t-21 7 l-27 -1l-1 3l11 38q60 -3 93 -3l86 7l-8 -39q-29 -4 -40 -13t-15 -31l-34 -228q-2 -13 -2 -37zM483 647l-4 -10q-101 -34 -206 -74l-8 5l-6 24l199 109l9 -6z" />
<glyph unicode="&#xfb;" horiz-adv-x="554" d="M164 156q0 -56 27.5 -85.5t79.5 -29.5q126 0 140 125q29 258 29 269.5t-4 18t-20 6.5l-33 -1l-1 3l10 38q59 -3 89 -3l82 7l-9 -39q-34 -5 -44.5 -12.5t-13.5 -30.5l-32 -258q-10 -83 -66.5 -128t-141.5 -45q-167 0 -165 140q-1 14 2 31q33 261 33 272.5t-4 18.5t-21 7 l-27 -1l-1 3l11 38q60 -3 93 -3l86 7l-8 -39q-29 -4 -40 -13t-15 -31l-34 -228q-2 -13 -2 -37zM209 573l-11 22l147 111h14l120 -111l-17 -22l-9 -1l-110 65l-125 -65z" />
<glyph unicode="&#xfc;" horiz-adv-x="554" d="M164 156q0 -56 27.5 -85.5t79.5 -29.5q126 0 140 125q29 258 29 269.5t-4 18t-20 6.5l-33 -1l-1 3l10 38q59 -3 89 -3l82 7l-9 -39q-34 -5 -44.5 -12.5t-13.5 -30.5l-32 -258q-10 -83 -66.5 -128t-141.5 -45q-167 0 -165 140q-1 14 2 31q33 261 33 272.5t-4 18.5t-21 7 l-27 -1l-1 3l11 38q60 -3 93 -3l86 7l-8 -39q-29 -4 -40 -13t-15 -31l-34 -228q-2 -13 -2 -37zM450.5 601.5q-16.5 -16.5 -36.5 -16.5q-38 0 -38 38q0 22 16.5 38.5t36 16.5t29 -11t9.5 -30t-16.5 -35.5zM290.5 601.5q-16.5 -16.5 -36.5 -16.5q-38 0 -38 38q0 22 16 38.5 t36 16.5t29.5 -11t9.5 -30t-16.5 -35.5z" />
<glyph unicode="&#xfd;" horiz-adv-x="461" d="M333 503l90 -6l75 3l3 -5l-10 -33q-43 -8 -72 -44q-16 -19 -78 -109t-65 -96t-5.5 -10.5t-4.5 -13t-3 -13t-3 -16.5l-3 -18q-9 -61 -9 -74t4.5 -21.5t25.5 -8.5l39 2l1 -3l-11 -40q-71 3 -97 3q-52 0 -108 -9l10 39q43 8 56 23.5t18 58.5q4 44 4 65.5t-13 53.5l-54 144 q-21 55 -34.5 68.5t-51.5 18.5l-2 4l10 34q54 -3 89 -3l116 7l2 -6l-7 -31q-37 -3 -49 -9t-12 -17.5t10 -42.5q10 -34 50 -151h5l104 158q17 25 17 41t-45 19l-2 4zM441 647l-4 -10q-101 -34 -206 -74l-8 5l-6 24l199 109l9 -6z" />
<glyph unicode="&#xfe;" horiz-adv-x="453" d="M102 500l98 -2l96 7l-9 -40q-33 -5 -45 -13t-15 -29l-5 -29h64q76 0 116 -29.5t40 -90.5t-63.5 -110.5t-144.5 -49.5h-56q-5 -41 -5 -50.5t4.5 -17.5t24.5 -8l42 3v-4l-10 -39q-71 2 -98 2q-52 0 -106 -9l10 40q37 7 51 20.5t18 46.5q42 329 42 338.5t-3.5 16.5t-21.5 7 l-32 -1l-2 4zM363 265q0 86 -128 86q-20 0 -21 -8q-6 -33 -29 -175q32 -12 76 -14q102 14 102 111z" />
<glyph unicode="&#xff;" horiz-adv-x="461" d="M333 503l90 -6l75 3l3 -5l-10 -33q-43 -8 -72 -44q-16 -19 -78 -109t-65 -96t-5.5 -10.5t-4.5 -13t-3 -13t-3 -16.5l-3 -18q-9 -61 -9 -74t4.5 -21.5t25.5 -8.5l39 2l1 -3l-11 -40q-71 3 -97 3q-52 0 -108 -9l10 39q43 8 56 23.5t18 58.5q4 44 4 65.5t-13 53.5l-54 144 q-21 55 -34.5 68.5t-51.5 18.5l-2 4l10 34q54 -3 89 -3l116 7l2 -6l-7 -31q-37 -3 -49 -9t-12 -17.5t10 -42.5q10 -34 50 -151h5l104 158q17 25 17 41t-45 19l-2 4zM408.5 601.5q-16.5 -16.5 -36.5 -16.5q-38 0 -38 38q0 22 16.5 38.5t36 16.5t29 -11t9.5 -30t-16.5 -35.5z M248.5 601.5q-16.5 -16.5 -36.5 -16.5q-38 0 -38 38q0 22 16 38.5t36 16.5t29.5 -11t9.5 -30t-16.5 -35.5z" />
<glyph unicode="&#x100;" horiz-adv-x="558" d="M287 -10l-2 7l8 36q55 4 73.5 14t18.5 36q0 13 -22 151q-24 1 -83.5 1t-123.5 -8l-49 -108q-14 -29 -14 -46q0 -36 53 -36h56v-3l-10 -41q-68 7 -132 7l-105 -3l13 45q29 3 47.5 19.5t38.5 58.5l248 511l56 17l8 1q44 -307 90 -538q7 -38 24.5 -52.5t59.5 -19.5l2 -3 l-11 -39q-69 3 -117.5 3t-126.5 -10zM264 271q47 0 91 6l-44 267h-7l-125 -273h85zM493 788l5 -10l-13 -47l-275 -2l-5 9l16 45q91 -1 147 -1z" />
<glyph unicode="&#x101;" horiz-adv-x="490" d="M312 176l-80 1q-33 0 -84 -6l-36 -77q-11 -21 -11 -33q0 -26 41 -26h43v-3l-8 -37q-58 5 -110 5l-89 -2l11 40q22 2 37 14.5t30 43.5l197 397l67 14l7 -1q38 -249 74 -414q6 -30 19.5 -41.5t45.5 -14.5l2 -3l-9 -35q-58 2 -86 2q-45 0 -122 -7l-2 5l7 34q44 3 58 10.5 t14 23.5q0 13 -16 110zM235 215q34 0 70 4l-34 197h-7l-95 -201h66zM444 648l5 -10l-13 -47l-275 -2l-5 9l16 45q91 -1 147 -1z" />
<glyph unicode="&#x102;" horiz-adv-x="558" d="M287 -10l-2 7l8 36q55 4 73.5 14t18.5 36q0 13 -22 151q-24 1 -83.5 1t-123.5 -8l-49 -108q-14 -29 -14 -46q0 -36 53 -36h56v-3l-10 -41q-68 7 -132 7l-105 -3l13 45q29 3 47.5 19.5t38.5 58.5l248 511l56 17l8 1q44 -307 90 -538q7 -38 24.5 -52.5t59.5 -19.5l2 -3 l-11 -39q-69 3 -117.5 3t-126.5 -10zM264 271q47 0 91 6l-44 267h-7l-125 -273h85zM267 818q18 -50 86.5 -50t98.5 50h8l15 -10q-17 -42 -50 -70t-79 -28t-72 28t-33 70l18 10h8z" />
<glyph unicode="&#x103;" horiz-adv-x="490" d="M312 176l-80 1q-33 0 -84 -6l-36 -77q-11 -21 -11 -33q0 -26 41 -26h43v-3l-8 -37q-58 5 -110 5l-89 -2l11 40q22 2 37 14.5t30 43.5l197 397l67 14l7 -1q38 -249 74 -414q6 -30 19.5 -41.5t45.5 -14.5l2 -3l-9 -35q-58 2 -86 2q-45 0 -122 -7l-2 5l7 34q44 3 58 10.5 t14 23.5q0 13 -16 110zM235 215q34 0 70 4l-34 197h-7l-95 -201h66zM217 678q18 -50 86.5 -50t98.5 50h8l15 -10q-17 -42 -50 -70t-79 -28t-72 28t-33 70l18 10h8z" />
<glyph unicode="&#x104;" horiz-adv-x="558" d="M355 -220q-26 22 -26 59.5t27.5 74.5t82.5 86h-9q-65 0 -143 -10l-2 7l8 36q55 4 73.5 14t18.5 36q0 13 -22 151q-24 1 -83.5 1t-123.5 -8l-49 -108q-14 -29 -14 -46q0 -36 53 -36h56v-3l-10 -41q-68 7 -132 7l-105 -3l13 45q29 3 47.5 19.5t38.5 58.5l248 511l56 17l8 1 q44 -307 90 -538q7 -38 24.5 -52.5t59.5 -19.5l2 -3l-11 -39l-50 2q-51 -48 -69.5 -75.5t-18.5 -53.5t13.5 -39.5t32.5 -13.5q38 0 80 23l10 -19q-53 -46 -104 -63q-44 0 -70 22zM264 271q47 0 91 6l-44 267h-7l-125 -273h85z" />
<glyph unicode="&#x105;" horiz-adv-x="490" d="M312 176l-80 1q-33 0 -84 -6l-36 -77q-11 -21 -11 -33q0 -26 41 -26h43v-3l-8 -37q-58 5 -110 5l-89 -2l11 40q22 2 37 14.5t30 43.5l197 397l67 14l7 -1q38 -249 74 -414q8 -42 37 -51h25l-5 -4q3 -1 8 -1l2 -3l-9 -35l-40 2q-51 -49 -69.5 -77t-18.5 -53.5t13.5 -39 t32.5 -13.5q38 0 80 23l10 -19q-53 -46 -104 -63q-44 0 -70 22t-26 59.5t27.5 74.5t82.5 86h-5q-44 0 -121 -7l-2 5l7 34q44 3 58 10.5t14 23.5q0 13 -16 110zM235 215q34 0 70 4l-34 197h-7l-95 -201h66z" />
<glyph unicode="&#x106;" horiz-adv-x="603" d="M499 28q-77 -40 -193.5 -40t-188.5 72t-72 193q0 168 107 281.5t265 113.5q66 0 173 -23l3 -6q-28 -74 -45 -164l-43 -4q9 39 9 59q0 84 -131 84q-111 0 -181 -86.5t-70 -225.5q0 -114 51 -181.5t139 -67.5q130 0 186 160l43 4q-31 -90 -46 -160zM556 787l-4 -10 q-101 -34 -206 -74l-8 5l-6 24l199 109l9 -6z" />
<glyph unicode="&#x107;" horiz-adv-x="515" d="M423 22q-65 -31 -161.5 -31t-155.5 56.5t-59 152.5q0 134 85.5 220.5t217.5 86.5q62 0 146 -19l3 -6q-23 -60 -37 -134l-46 -4q7 33 7 48q0 63 -101 63q-85 0 -137.5 -64t-52.5 -160t38.5 -145t106.5 -49q100 0 142 120l46 4q-24 -74 -36 -131zM476 647l-4 -10 q-101 -34 -206 -74l-8 5l-6 24l199 109l9 -6z" />
<glyph unicode="&#x108;" horiz-adv-x="603" d="M499 28q-77 -40 -193.5 -40t-188.5 72t-72 193q0 168 107 281.5t265 113.5q66 0 173 -23l3 -6q-28 -74 -45 -164l-43 -4q9 39 9 59q0 84 -131 84q-111 0 -181 -86.5t-70 -225.5q0 -114 51 -181.5t139 -67.5q130 0 186 160l43 4q-31 -90 -46 -160zM265 702l-12 22l152 153 h14l115 -153l-17 -22l-9 -1l-105 97l-129 -97z" />
<glyph unicode="&#x109;" horiz-adv-x="515" d="M423 22q-65 -31 -161.5 -31t-155.5 56.5t-59 152.5q0 134 85.5 220.5t217.5 86.5q62 0 146 -19l3 -6q-23 -60 -37 -134l-46 -4q7 33 7 48q0 63 -101 63q-85 0 -137.5 -64t-52.5 -160t38.5 -145t106.5 -49q100 0 142 120l46 4q-24 -74 -36 -131zM201 562l-12 22l152 153 h14l115 -153l-17 -22l-9 -1l-105 97l-129 -97z" />
<glyph unicode="&#x10a;" horiz-adv-x="603" d="M499 28q-77 -40 -193.5 -40t-188.5 72t-72 193q0 168 107 281.5t265 113.5q66 0 173 -23l3 -6q-28 -74 -45 -164l-43 -4q9 39 9 59q0 84 -131 84q-111 0 -181 -86.5t-70 -225.5q0 -114 51 -181.5t139 -67.5q130 0 186 160l43 4q-31 -90 -46 -160zM454 738.5 q-19 -19.5 -43 -19.5t-35 13t-11 35.5t19.5 42t43 19.5t34.5 -13t11 -35.5t-19 -42z" />
<glyph unicode="&#x10b;" horiz-adv-x="515" d="M423 22q-65 -31 -161.5 -31t-155.5 56.5t-59 152.5q0 134 85.5 220.5t217.5 86.5q62 0 146 -19l3 -6q-23 -60 -37 -134l-46 -4q7 33 7 48q0 63 -101 63q-85 0 -137.5 -64t-52.5 -160t38.5 -145t106.5 -49q100 0 142 120l46 4q-24 -74 -36 -131zM386 598.5 q-19 -19.5 -43 -19.5t-35 13t-11 35.5t19.5 42t43 19.5t34.5 -13t11 -35.5t-19 -42z" />
<glyph unicode="&#x10c;" horiz-adv-x="603" d="M499 28q-77 -40 -193.5 -40t-188.5 72t-72 193q0 168 107 281.5t265 113.5q66 0 173 -23l3 -6q-28 -74 -45 -164l-43 -4q9 39 9 59q0 84 -131 84q-111 0 -181 -86.5t-70 -225.5q0 -114 51 -181.5t139 -67.5q130 0 186 160l43 4q-31 -90 -46 -160zM553 837l12 -22 l-148 -111h-13l-120 111l16 22l10 1l109 -65l125 65z" />
<glyph unicode="&#x10d;" horiz-adv-x="515" d="M423 22q-65 -31 -161.5 -31t-155.5 56.5t-59 152.5q0 134 85.5 220.5t217.5 86.5q62 0 146 -19l3 -6q-23 -60 -37 -134l-46 -4q7 33 7 48q0 63 -101 63q-85 0 -137.5 -64t-52.5 -160t38.5 -145t106.5 -49q100 0 142 120l46 4q-24 -74 -36 -131zM483 697l12 -22l-148 -111 h-13l-120 111l16 22l10 1l109 -65l125 65z" />
<glyph unicode="&#x10e;" horiz-adv-x="674" d="M286 -12q-98 12 -132 12q-56 0 -126 -12l11 43q46 9 64 26.5t23 59.5q54 439 54 450.5t-4.5 20t-25.5 8.5l-34 -2l-1 4l11 41q63 -3 100 -3l136 4q129 0 210 -73.5t81 -184t-49.5 -200t-134 -142t-183.5 -52.5zM298 596q-20 0 -27 -4.5t-9 -17.5q-71 -444 -71 -467 q0 -42 24.5 -57t89.5 -15q118 0 190 89t72 232q0 115 -69 177.5t-200 62.5zM525 837l12 -22l-148 -111h-13l-120 111l16 22l10 1l109 -65l125 65z" />
<glyph unicode="&#x10f;" horiz-adv-x="574" d="M248 -9q-80 9 -110 9q-53 0 -105 -9l9 40q38 7 52 20t18 46q40 331 40 340.5t-3.5 16t-19.5 6.5l-28 -1l-1 4l10 37q56 -3 86 -3l114 4q106 0 172.5 -56.5t66.5 -149.5q0 -127 -88 -215.5t-213 -88.5zM260 457q-15 0 -20.5 -3.5t-7.5 -14.5q-55 -318 -55 -349.5t18.5 -42 t67.5 -10.5q91 0 146 67t55 177q0 86 -52 131t-152 45zM463 697l12 -22l-148 -111h-13l-120 111l16 22l10 1l109 -65l125 65z" />
<glyph unicode="&#x110;" horiz-adv-x="684" d="M296 -12q-98 12 -132 12q-56 0 -126 -12l11 43q46 9 64 26.5t23 59.5l23 187h-133l-6 7l11 32h133q26 213 26 224.5t-4.5 20t-25.5 8.5l-34 -2l-1 4l11 41q63 -3 100 -3l136 4q129 0 210 -73.5t81 -184t-49.5 -200t-134 -142t-183.5 -52.5zM308 596q-20 0 -27 -4.5 t-9 -17.5l-38 -231h162l4 -7l-10 -32h-162q-27 -173 -27 -197q0 -42 24.5 -57t89.5 -15q118 0 190 89t72 232q0 115 -69 177.5t-200 62.5z" />
<glyph unicode="&#x111;" horiz-adv-x="582" d="M258 -9q-80 9 -110 9q-53 0 -105 -9l9 40q38 7 52 20t18 46l16 136h-105l-5 5l10 32h105q19 158 19 167.5t-3.5 16t-19.5 6.5l-28 -1l-1 4l10 37q56 -3 86 -3l114 4q106 0 172.5 -56.5t66.5 -149.5q0 -127 -88 -215.5t-213 -88.5zM270 457q-15 0 -20.5 -3.5t-7.5 -14.5 l-29 -169h123l4 -5l-9 -32h-124q-20 -118 -20 -146.5t18.5 -39t67.5 -10.5q91 0 146 67t55 177q0 86 -52 131t-152 45z" />
<glyph unicode="&#x112;" horiz-adv-x="568" d="M225 352l99 -1l118 11l3 -4l-20 -56q-82 3 -127 3t-82 -7q-6 -41 -14 -94q-17 -104 -17 -126.5t14 -29.5t67 -7t84 3t54.5 17.5t33 36t21.5 66.5l41 5l2 -5q-28 -82 -47 -166l-5 -5q-199 7 -260 7q-93 0 -161 -10l11 43q44 6 62 23.5t23 60.5q55 439 55 450.5t-4.5 20 t-26.5 8.5l-33 -2l-1 3l11 42q74 -3 204.5 -3t215.5 12l2 -5q-25 -72 -42 -164l-44 -4q9 39 9 68.5t-25.5 38t-95 8.5t-80 -5.5t-14.5 -33.5zM508 788l5 -10l-13 -47l-275 -2l-5 9l16 45q91 -1 147 -1z" />
<glyph unicode="&#x113;" horiz-adv-x="488" d="M204 279l79 -1l96 8l3 -4l-17 -51q-66 2 -101 2t-68 -5q-4 -30 -10 -67q-13 -71 -13 -90t11 -24.5t45 -5.5q89 0 115 15.5t43 78.5l42 4l2 -5q-22 -66 -38 -134l-5 -5q-159 5 -213 5q-82 0 -142 -8l10 40q35 4 49 18t19 48q41 330 41 339.5t-3.5 16t-20.5 6.5l-26 -1 l-2 4l10 37q67 -3 174 -3t181 10l2 -5q-20 -61 -34 -133l-45 -3q7 29 7 51.5t-20.5 29t-73.5 6.5t-61.5 -4.5t-11.5 -24.5zM454 648l5 -10l-13 -47l-275 -2l-5 9l16 45q91 -1 147 -1z" />
<glyph unicode="&#x114;" horiz-adv-x="568" d="M225 352l99 -1l118 11l3 -4l-20 -56q-82 3 -127 3t-82 -7q-6 -41 -14 -94q-17 -104 -17 -126.5t14 -29.5t67 -7t84 3t54.5 17.5t33 36t21.5 66.5l41 5l2 -5q-28 -82 -47 -166l-5 -5q-199 7 -260 7q-93 0 -161 -10l11 43q44 6 62 23.5t23 60.5q55 439 55 450.5t-4.5 20 t-26.5 8.5l-33 -2l-1 3l11 42q74 -3 204.5 -3t215.5 12l2 -5q-25 -72 -42 -164l-44 -4q9 39 9 68.5t-25.5 38t-95 8.5t-80 -5.5t-14.5 -33.5zM368 781q68 0 100 66h9l14 -10q-17 -48 -50 -81t-80 -33t-72.5 33t-30.5 81l17 10h8q17 -66 85 -66z" />
<glyph unicode="&#x115;" horiz-adv-x="488" d="M204 279l79 -1l96 8l3 -4l-17 -51q-66 2 -101 2t-68 -5q-4 -30 -10 -67q-13 -71 -13 -90t11 -24.5t45 -5.5q89 0 115 15.5t43 78.5l42 4l2 -5q-22 -66 -38 -134l-5 -5q-159 5 -213 5q-82 0 -142 -8l10 40q35 4 49 18t19 48q41 330 41 339.5t-3.5 16t-20.5 6.5l-26 -1 l-2 4l10 37q67 -3 174 -3t181 10l2 -5q-20 -61 -34 -133l-45 -3q7 29 7 51.5t-20.5 29t-73.5 6.5t-61.5 -4.5t-11.5 -24.5zM227 678q18 -50 86.5 -50t98.5 50h8l15 -10q-17 -42 -50 -70t-79.5 -28t-72 28t-32.5 70l18 10h8z" />
<glyph unicode="&#x116;" horiz-adv-x="568" d="M225 352l99 -1l118 11l3 -4l-20 -56q-82 3 -127 3t-82 -7q-6 -41 -14 -94q-17 -104 -17 -126.5t14 -29.5t67 -7t84 3t54.5 17.5t33 36t21.5 66.5l41 5l2 -5q-28 -82 -47 -166l-5 -5q-199 7 -260 7q-93 0 -161 -10l11 43q44 6 62 23.5t23 60.5q55 439 55 450.5t-4.5 20 t-26.5 8.5l-33 -2l-1 3l11 42q74 -3 204.5 -3t215.5 12l2 -5q-25 -72 -42 -164l-44 -4q9 39 9 68.5t-25.5 38t-95 8.5t-80 -5.5t-14.5 -33.5zM405 738.5q-19 -19.5 -43 -19.5t-35 13t-11 35.5t19 42t43 19.5t35 -13t11 -35.5t-19 -42z" />
<glyph unicode="&#x117;" horiz-adv-x="488" d="M204 279l79 -1l96 8l3 -4l-17 -51q-66 2 -101 2t-68 -5q-4 -30 -10 -67q-13 -71 -13 -90t11 -24.5t45 -5.5q89 0 115 15.5t43 78.5l42 4l2 -5q-22 -66 -38 -134l-5 -5q-159 5 -213 5q-82 0 -142 -8l10 40q35 4 49 18t19 48q41 330 41 339.5t-3.5 16t-20.5 6.5l-26 -1 l-2 4l10 37q67 -3 174 -3t181 10l2 -5q-20 -61 -34 -133l-45 -3q7 29 7 51.5t-20.5 29t-73.5 6.5t-61.5 -4.5t-11.5 -24.5zM350 598.5q-19 -19.5 -43 -19.5t-35 13t-11 35.5t19.5 42t43 19.5t34.5 -13t11 -35.5t-19 -42z" />
<glyph unicode="&#x118;" horiz-adv-x="568" d="M225 352l99 -1l118 11l3 -4l-20 -56q-82 3 -127 3t-82 -7q-6 -41 -14 -94q-17 -104 -17 -126.5t14 -29.5t67 -7t84 3t54.5 17.5t33 36t21.5 66.5l41 5l2 -5q-28 -82 -47 -166l-5 -5q-19 1 -47 2q-47 -46 -64.5 -72.5t-17.5 -52t13.5 -39t32.5 -13.5q34 0 80 23l10 -19 q-53 -46 -104 -63q-44 0 -70 22t-26 59t26 72.5t78 83.5q-130 4 -181 4q-83 0 -151 -10l11 43q44 6 62 23.5t23 60.5q55 439 55 450.5t-4.5 20t-26.5 8.5l-33 -2l-1 3l11 42q74 -3 204.5 -3t215.5 12l2 -5q-25 -72 -42 -164l-44 -4q9 39 9 68.5t-25.5 38t-95 8.5t-80 -5.5 t-14.5 -33.5z" />
<glyph unicode="&#x119;" horiz-adv-x="488" d="M204 279l79 -1l96 8l3 -4l-17 -51q-66 2 -101 2t-68 -5q-4 -30 -10 -67q-13 -71 -13 -90t11 -24.5t45 -5.5q89 0 115 15.5t43 78.5l42 4l2 -5q-22 -66 -38 -134l-5 -5q-14 1 -35 1q-48 -46 -66 -73t-18 -52.5t13.5 -39t32.5 -13.5q34 0 80 23l10 -19q-53 -46 -104 -63 q-44 0 -70 22t-26 59t26.5 73.5t79.5 84.5q-104 2 -147 2q-71 0 -131 -8l10 40q35 4 49 18t19 48q41 330 41 339.5t-3.5 16t-20.5 6.5l-26 -1l-2 4l10 37q67 -3 174 -3t181 10l2 -5q-20 -61 -34 -133l-45 -3q7 29 7 51.5t-20.5 29t-73.5 6.5t-61.5 -4.5t-11.5 -24.5z" />
<glyph unicode="&#x11a;" horiz-adv-x="568" d="M225 352l99 -1l118 11l3 -4l-20 -56q-82 3 -127 3t-82 -7q-6 -41 -14 -94q-17 -104 -17 -126.5t14 -29.5t67 -7t84 3t54.5 17.5t33 36t21.5 66.5l41 5l2 -5q-28 -82 -47 -166l-5 -5q-199 7 -260 7q-93 0 -161 -10l11 43q44 6 62 23.5t23 60.5q55 439 55 450.5t-4.5 20 t-26.5 8.5l-33 -2l-1 3l11 42q74 -3 204.5 -3t215.5 12l2 -5q-25 -72 -42 -164l-44 -4q9 39 9 68.5t-25.5 38t-95 8.5t-80 -5.5t-14.5 -33.5zM504 837l12 -22l-148 -111h-13l-120 111l16 22l10 1l109 -65l125 65z" />
<glyph unicode="&#x11b;" horiz-adv-x="488" d="M204 279l79 -1l96 8l3 -4l-17 -51q-66 2 -101 2t-68 -5q-4 -30 -10 -67q-13 -71 -13 -90t11 -24.5t45 -5.5q89 0 115 15.5t43 78.5l42 4l2 -5q-22 -66 -38 -134l-5 -5q-159 5 -213 5q-82 0 -142 -8l10 40q35 4 49 18t19 48q41 330 41 339.5t-3.5 16t-20.5 6.5l-26 -1 l-2 4l10 37q67 -3 174 -3t181 10l2 -5q-20 -61 -34 -133l-45 -3q7 29 7 51.5t-20.5 29t-73.5 6.5t-61.5 -4.5t-11.5 -24.5zM448 697l12 -22l-148 -111h-13l-120 111l16 22l10 1l109 -65l125 65z" />
<glyph unicode="&#x11c;" horiz-adv-x="640" d="M374 303l93 -4h25l83 5l1 -20q-30 -20 -42 -96.5t-12 -114.5l1 -30l-6 -8q-38 -19 -97 -33t-113 -14q-118 0 -190 72t-72 193q0 168 107 281.5t265 113.5q66 0 173 -23l3 -6q-28 -74 -45 -164l-43 -4q9 39 9 59q0 84 -131 84q-111 0 -181 -86.5t-70 -225.5 q0 -114 51 -181.5t139 -67.5q35 0 69 9.5t50 19.5l16 10q16 136 16 149.5t-7.5 22t-40.5 8.5h-67l-1 4l14 47h3zM252 702l-12 22l152 153h14l115 -153l-17 -22l-9 -1l-105 97l-129 -97z" />
<glyph unicode="&#x11d;" horiz-adv-x="545" d="M354 240l40 -1h20q70 0 70 4l1 -20q-26 -16 -35.5 -77t-9.5 -89l1 -24l-6 -7q-72 -35 -172 -35t-158.5 56t-58.5 151q0 133 86.5 221t217.5 88q62 0 146 -19l3 -6q-23 -58 -38 -131l-44 -4q7 31 7 47q0 62 -102 62q-86 0 -139.5 -64.5t-53.5 -172.5q0 -85 39 -134.5 t107 -49.5q27 0 53 7t51 21q12 100 12 110t-6 16.5t-31 6.5h-52l-2 4l13 41h3l22 -1h16zM193 562l-12 22l152 153h14l115 -153l-17 -22l-9 -1l-105 97l-129 -97z" />
<glyph unicode="&#x11e;" horiz-adv-x="640" d="M374 303l93 -4h25l83 5l1 -20q-30 -20 -42 -96.5t-12 -114.5l1 -30l-6 -8q-38 -19 -97 -33t-113 -14q-118 0 -190 72t-72 193q0 168 107 281.5t265 113.5q66 0 173 -23l3 -6q-28 -74 -45 -164l-43 -4q9 39 9 59q0 84 -131 84q-111 0 -181 -86.5t-70 -225.5 q0 -114 51 -181.5t139 -67.5q35 0 69 9.5t50 19.5l16 10q16 136 16 149.5t-7.5 22t-40.5 8.5h-67l-1 4l14 47h3zM318 838q18 -50 86.5 -50t98.5 50h8l15 -10q-17 -42 -49.5 -70t-79.5 -28t-72.5 28t-32.5 70l18 10h8z" />
<glyph unicode="&#x11f;" horiz-adv-x="545" d="M354 240l40 -1h20q70 0 70 4l1 -20q-26 -16 -35.5 -77t-9.5 -89l1 -24l-6 -7q-72 -35 -172 -35t-158.5 56t-58.5 151q0 133 86.5 221t217.5 88q62 0 146 -19l3 -6q-23 -58 -38 -131l-44 -4q7 31 7 47q0 62 -102 62q-86 0 -139.5 -64.5t-53.5 -172.5q0 -85 39 -134.5 t107 -49.5q27 0 53 7t51 21q12 100 12 110t-6 16.5t-31 6.5h-52l-2 4l13 41h3l22 -1h16zM253 678q18 -50 86.5 -50t98.5 50h8l15 -10q-17 -42 -50 -70t-79 -28t-72 28t-33 70l18 10h8z" />
<glyph unicode="&#x120;" horiz-adv-x="640" d="M374 303l93 -4h25l83 5l1 -20q-30 -20 -42 -96.5t-12 -114.5l1 -30l-6 -8q-38 -19 -97 -33t-113 -14q-118 0 -190 72t-72 193q0 168 107 281.5t265 113.5q66 0 173 -23l3 -6q-28 -74 -45 -164l-43 -4q9 39 9 59q0 84 -131 84q-111 0 -181 -86.5t-70 -225.5 q0 -114 51 -181.5t139 -67.5q35 0 69 9.5t50 19.5l16 10q16 136 16 149.5t-7.5 22t-40.5 8.5h-67l-1 4l14 47h3zM441 738.5q-19 -19.5 -43 -19.5t-35 13t-11 35.5t19 42t43 19.5t35 -13t11 -35.5t-19 -42z" />
<glyph unicode="&#x121;" horiz-adv-x="545" d="M354 240l40 -1h20q70 0 70 4l1 -20q-26 -16 -35.5 -77t-9.5 -89l1 -24l-6 -7q-72 -35 -172 -35t-158.5 56t-58.5 151q0 133 86.5 221t217.5 88q62 0 146 -19l3 -6q-23 -58 -38 -131l-44 -4q7 31 7 47q0 62 -102 62q-86 0 -139.5 -64.5t-53.5 -172.5q0 -85 39 -134.5 t107 -49.5q27 0 53 7t51 21q12 100 12 110t-6 16.5t-31 6.5h-52l-2 4l13 41h3l22 -1h16zM378 598.5q-19 -19.5 -43 -19.5t-35 13t-11 35.5t19.5 42t43 19.5t34.5 -13t11 -35.5t-19 -42z" />
<glyph unicode="&#x122;" horiz-adv-x="640" d="M374 303l93 -4h25l83 5l1 -20q-30 -20 -42 -96.5t-12 -114.5l1 -30l-6 -8q-38 -19 -97 -33t-113 -14q-118 0 -190 72t-72 193q0 168 107 281.5t265 113.5q66 0 173 -23l3 -6q-28 -74 -45 -164l-43 -4q9 39 9 59q0 84 -131 84q-111 0 -181 -86.5t-70 -225.5 q0 -114 51 -181.5t139 -67.5q35 0 69 9.5t50 19.5l16 10q16 136 16 149.5t-7.5 22t-40.5 8.5h-67l-1 4l14 47h3zM233 -93q34 26 57.5 26t39 -19.5t15.5 -51.5q0 -49 -38 -88.5t-90 -66.5l-18 15v10q31 19 51.5 46.5t20.5 52.5q0 38 -40 62z" />
<glyph unicode="&#x123;" horiz-adv-x="545" d="M354 240l40 -1h20q70 0 70 4l1 -20q-26 -16 -35.5 -77t-9.5 -89l1 -24l-6 -7q-72 -35 -172 -35t-158.5 56t-58.5 151q0 133 86.5 221t217.5 88q62 0 146 -19l3 -6q-23 -58 -38 -131l-44 -4q7 31 7 47q0 62 -102 62q-86 0 -139.5 -64.5t-53.5 -172.5q0 -85 39 -134.5 t107 -49.5q27 0 53 7t51 21q12 100 12 110t-6 16.5t-31 6.5h-52l-2 4l13 41h3l22 -1h16zM199 -93q34 26 57.5 26t39 -19.5t15.5 -51.5q0 -49 -38 -88.5t-90 -66.5l-18 15v10q31 19 51.5 46.5t20.5 52.5q0 38 -40 62z" />
<glyph unicode="&#x124;" horiz-adv-x="723" d="M224 347l163 -1q62 0 145 10q26 203 26 213t-5 18.5t-26 8.5l-33 -2l-2 3l13 43q60 -4 85 -4q45 0 121 10l-8 -43q-37 -5 -51 -16.5t-19 -40.5q-68 -415 -68 -450.5t8 -45t28 -9.5l44 3q1 -1 -13 -47q-77 3 -119 3h-31q-33 0 -75 -2l13 43q45 1 62 21.5t25 86.5l18 154 q-103 1 -148 1l-162 -11q-27 -193 -27 -208.5t1 -24.5q2 -18 34 -18l44 3l1 -4l-14 -44q0 3 -60.5 3t-112.5 -4t-53 -8l11 43q53 11 69 33t22 87q50 405 50 416.5t-4.5 20t-26.5 8.5l-32 -2l-2 3l12 43q69 -4 97 -4q45 0 109 10l-8 -43q-43 -7 -55 -22t-20 -70zM301 728 l-12 22l152 153h14l115 -153l-17 -22l-9 -1l-105 97l-129 -97z" />
<glyph unicode="&#x125;" horiz-adv-x="614" d="M203 276l126 -1q52 0 112 7q20 151 20 158t-4 13.5t-22 6.5l-26 -1l-2 4l10 37q0 -3 84 -3l98 8l-7 -39q-31 -4 -42 -13t-15 -31q-52 -310 -52 -339.5t6.5 -37t22.5 -7.5l34 2q1 -2 1 -3l-11 -39q-61 2 -98 2h-27l-59 -1h-11l11 38q36 1 49.5 16.5t19.5 64.5l14 114h-112 l-128 -8q-20 -141 -20 -163.5t28 -22.5l35 2q1 -2 1 -3l-12 -39q-44 2 -76 2t-75 -3t-44 -6l10 39q42 8 54.5 24.5t17.5 64.5q38 310 38 319t-3.5 15.5t-21.5 6.5l-25 -1l-3 4l11 37q58 -3 88 -3l92 8l-7 -40q-34 -4 -43.5 -15.5t-16.5 -51.5zM231 588l-12 22l152 153h14 l115 -153l-17 -22l-9 -1l-105 97l-129 -97z" />
<glyph unicode="&#x126;" horiz-adv-x="723" d="M267 45l1 -4l-14 -44q0 3 -60.5 3t-112.5 -4t-53 -8l11 43q53 11 69 33t22 87l36 297h-97l-9 9l7 39q46 -1 105 -1q8 60 8 72t-4.5 20.5t-26.5 8.5l-32 -2l-2 3l12 43q69 -4 97 -4q45 0 109 10l-8 -43q-43 -7 -55 -22t-20 -70l-3 -16h167q90 0 136 1q8 63 8 73t-5 18.5 t-26 8.5l-33 -2l-2 3l13 43q60 -4 85 -4q45 0 121 10l-8 -43q-37 -5 -51 -16.5t-19.5 -42t-7.5 -47.5l87 3l13 -13l-4 -37l-104 -1q-52 -322 -52 -355.5t8 -43t28 -9.5l44 3q1 -1 -13 -47q-77 3 -119 3h-31q-33 0 -75 -2l13 43q45 1 62 21.5t25 86.5l18 154q-103 1 -148 1 l-162 -11q-27 -193 -27 -208.5t1 -24.5q2 -18 34 -18zM224 347l163 -1q62 0 145 10l12 93h-304z" />
<glyph unicode="&#x127;" horiz-adv-x="614" d="M238 40q1 -2 1 -3l-12 -39q-44 2 -76 2t-75 -3t-44 -6l10 39q42 8 54.5 24.5t17.5 64.5l28 229h-78l-8 7l6 33q37 -1 85 -1q5 42 5 51t-3.5 15.5t-21.5 6.5l-25 -1l-3 4l11 37q58 -3 88 -3l92 8l-7 -40q-34 -4 -43 -15q-10 -12 -19 -63h131q68 0 103 1q6 45 6 52t-4 13.5 t-22 6.5l-26 -1l-2 4l10 37q0 -3 84 -3l98 8l-7 -39q-31 -4 -42 -13t-15 -31l-6 -33l70 2l11 -10l-3 -31l-84 -1q-40 -238 -40 -267t6.5 -36.5t22.5 -7.5l34 2q1 -2 1 -3l-11 -39q-61 2 -98 2h-27l-59 -1h-11l11 38q36 1 49.5 16.5t19.5 64.5l14 114h-112l-128 -8 q-20 -141 -20 -163.5t28 -22.5zM203 276l126 -1q52 0 112 7l9 67h-235z" />
<glyph unicode="&#x128;" horiz-adv-x="347" d="M123 640l91 -4h18q40 0 110 10l-10 -43q-41 -5 -56.5 -17t-19.5 -40q-70 -406 -70 -461q0 -24 8.5 -33.5t28.5 -9.5l51 3l2 -4l-14 -44q-79 3 -112 3q-56 0 -124 -12l12 43q46 9 64.5 27t23.5 60q54 437 54 448.5t-5 20.5t-26 9l-41 -2q-1 2 -1 3l12 43h4zM247.5 828.5 q53.5 -16.5 64.5 -16.5q20 0 57 42l12 13h6l20 -21l-1 -5l-84 -89l-16 -4q-17 0 -70 16.5t-64.5 16.5t-28.5 -13.5t-40 -41.5h-7l-19 21l1 5l84 89l15 4q17 0 70.5 -16.5z" />
<glyph unicode="&#x129;" horiz-adv-x="307" d="M104 500l97 -3l96 8l-9 -40q-32 -4 -44 -12.5t-16 -30.5q-54 -305 -54 -351q0 -33 29 -33l40 2l2 -3l-12 -39q-69 2 -97 2q-51 0 -105 -9l10 39q37 7 51.5 21t18.5 46q41 332 41 340.5t-3.5 15.5t-21.5 7l-32 -1q-1 3 -1 4zM214.5 688.5q53.5 -16.5 65.5 -16.5 q19 0 56 42l12 13h6l20 -21l-1 -5l-84 -89l-16 -4q-17 0 -70 16.5t-64.5 16.5t-28.5 -13.5t-40 -41.5h-7l-19 21l1 5l84 89l15 4q17 0 70.5 -16.5z" />
<glyph unicode="&#x12a;" horiz-adv-x="347" d="M123 640l91 -4h18q40 0 110 10l-10 -43q-41 -5 -56.5 -17t-19.5 -40q-70 -406 -70 -461q0 -24 8.5 -33.5t28.5 -9.5l51 3l2 -4l-14 -44q-79 3 -112 3q-56 0 -124 -12l12 43q46 9 64.5 27t23.5 60q54 437 54 448.5t-5 20.5t-26 9l-41 -2q-1 2 -1 3l12 43h4zM382 788l5 -10 l-13 -47l-275 -2l-5 9l16 45q91 -1 147 -1z" />
<glyph unicode="&#x12b;" horiz-adv-x="307" d="M104 500l97 -3l96 8l-9 -40q-32 -4 -44 -12.5t-16 -30.5q-54 -305 -54 -351q0 -33 29 -33l40 2l2 -3l-12 -39q-69 2 -97 2q-51 0 -105 -9l10 39q37 7 51.5 21t18.5 46q41 332 41 340.5t-3.5 15.5t-21.5 7l-32 -1q-1 3 -1 4zM349 648l5 -10l-13 -47l-275 -2l-5 9l16 45 q91 -1 147 -1z" />
<glyph unicode="&#x12c;" horiz-adv-x="347" d="M123 640l91 -4h18q40 0 110 10l-10 -43q-41 -5 -56.5 -17t-19.5 -40q-70 -406 -70 -461q0 -24 8.5 -33.5t28.5 -9.5l51 3l2 -4l-14 -44q-79 3 -112 3q-56 0 -124 -12l12 43q46 9 64.5 27t23.5 60q54 437 54 448.5t-5 20.5t-26 9l-41 -2q-1 2 -1 3l12 43h4zM151 828 q18 -50 86.5 -50t98.5 50h8l15 -10q-17 -42 -50 -70t-79 -28t-72 28t-33 70l18 10h8z" />
<glyph unicode="&#x12d;" horiz-adv-x="307" d="M104 500l97 -3l96 8l-9 -40q-32 -4 -44 -12.5t-16 -30.5q-54 -305 -54 -351q0 -33 29 -33l40 2l2 -3l-12 -39q-69 2 -97 2q-51 0 -105 -9l10 39q37 7 51.5 21t18.5 46q41 332 41 340.5t-3.5 15.5t-21.5 7l-32 -1q-1 3 -1 4zM122 678q18 -50 86.5 -50t98.5 50h8l15 -10 q-17 -42 -49.5 -70t-79.5 -28t-72.5 28t-32.5 70l18 10h8z" />
<glyph unicode="&#x12e;" horiz-adv-x="347" d="M123 640l91 -4h18q40 0 110 10l-10 -43q-41 -5 -56.5 -17t-19.5 -40q-70 -406 -70 -461q0 -24 8.5 -33.5t28.5 -9.5l51 3l2 -4l-14 -44q-20 1 -43 2q-50 -48 -68.5 -76t-18.5 -53.5t13.5 -39t32.5 -13.5q38 0 80 23l10 -19q-53 -46 -104 -63q-44 0 -70 22t-26 59.5 t27.5 74t81.5 86.5h-40q-43 0 -111 -12l12 43q46 9 64.5 27t23.5 60q54 437 54 448.5t-5 20.5t-26 9l-41 -2q-1 2 -1 3l12 43h4z" />
<glyph unicode="&#x12f;" horiz-adv-x="307" d="M174 71q0 -33 29 -33l40 2l2 -3l-12 -39q-14 1 -31 1q-54 -51 -73.5 -79t-19.5 -53.5t13 -38.5t32 -13q35 0 77 22l10 -18q-52 -45 -101 -61q-42 0 -67 21t-25 58t28 73.5t86 89.5h-35q-42 0 -96 -9l10 39q37 7 51.5 21t18.5 46q41 332 41 340.5t-3.5 15.5t-21.5 7 l-32 -1q-1 3 -1 4l10 37l97 -3l96 8l-9 -40q-32 -4 -44 -12.5t-16 -30.5q-54 -305 -54 -351z" />
<glyph unicode="&#x130;" horiz-adv-x="347" d="M123 640l91 -4h18q40 0 110 10l-10 -43q-41 -5 -56.5 -17t-19.5 -40q-70 -406 -70 -461q0 -24 8.5 -33.5t28.5 -9.5l51 3l2 -4l-14 -44q-79 3 -112 3q-56 0 -124 -12l12 43q46 9 64.5 27t23.5 60q54 437 54 448.5t-5 20.5t-26 9l-41 -2q-1 2 -1 3l12 43h4zM279 738.5 q-19 -19.5 -43 -19.5t-35 13t-11 35.5t19 42t43 19.5t35 -13t11 -35.5t-19 -42z" />
<glyph unicode="&#x131;" horiz-adv-x="307" d="M104 500l97 -3l96 8l-9 -40q-32 -4 -44 -12.5t-16 -30.5q-54 -305 -54 -351q0 -33 29 -33l40 2l2 -3l-12 -39q-69 2 -97 2q-51 0 -105 -9l10 39q37 7 51.5 21t18.5 46q41 332 41 340.5t-3.5 15.5t-21.5 7l-32 -1q-1 3 -1 4z" />
<glyph unicode="&#x132;" horiz-adv-x="660" d="M123 640l91 -4h18q40 0 110 10l-10 -43q-41 -5 -56.5 -17t-19.5 -40q-70 -406 -70 -461q0 -24 8.5 -33.5t28.5 -9.5l51 3l2 -4l-14 -44q-79 3 -112 3q-56 0 -124 -12l12 43q46 9 64.5 27t23.5 60q54 437 54 448.5t-5 20.5t-26 9l-41 -2q-1 2 -1 3l12 43h4zM461 114 q56 441 56 452.5t-5 20t-26 8.5l-47 -4v3l11 42h103l110 9l-8 -42q-35 -5 -46.5 -15.5t-16.5 -41.5q-31 -184 -65 -428q-13 -102 -56.5 -164t-127.5 -97l-12 32l3 8q63 36 89.5 82t37.5 135z" />
<glyph unicode="&#x133;" horiz-adv-x="566" d="M104 500l97 -3l96 8l-9 -40q-32 -4 -44 -12.5t-16 -30.5q-54 -305 -54 -351q0 -33 29 -33l40 2l2 -3l-12 -39q-69 2 -97 2q-51 0 -105 -9l10 39q37 7 51.5 21t18.5 46q41 332 41 340.5t-3.5 15.5t-21.5 7l-32 -1q-1 3 -1 4zM449 91q42 338 42 347t-3.5 15.5t-20.5 6.5 l-38 -3l-1 4l10 36l88 1l98 6l-8 -39q-28 -4 -37 -11.5t-13 -31.5q-31 -181 -51 -334q-10 -79 -48 -127t-112 -75l-12 27l2 7q52 29 73.5 64.5t30.5 106.5z" />
<glyph unicode="&#x134;" horiz-adv-x="314" d="M114 114q56 441 56 452.5t-5 20t-26 8.5l-47 -4v3l11 42h103l110 9l-8 -42q-35 -5 -46.5 -15.5t-16.5 -41.5q-31 -184 -65 -428q-13 -102 -56.5 -164t-127.5 -97l-12 32l3 8q63 36 89.5 82t37.5 135zM103 702l-12 22l152 153h14l115 -153l-17 -22l-9 -1l-105 97l-129 -97 z" />
<glyph unicode="&#x135;" horiz-adv-x="280" d="M102 91q42 338 42 347t-3.5 15.5t-20.5 6.5l-38 -3l-1 4l10 36l88 1l98 6l-8 -39q-28 -4 -37 -11.5t-13 -31.5q-31 -181 -51 -334q-10 -79 -48 -127t-112 -75l-12 27l2 7q52 29 73.5 64.5t30.5 106.5zM71 562l-12 22l152 153h14l115 -153l-17 -22l-9 -1l-105 97l-129 -97 z" />
<glyph unicode="&#x136;" horiz-adv-x="605" d="M126 118q54 438 54 449.5t-4.5 20t-26.5 8.5l-32 -2l-2 3l12 43q68 -4 95 -4q47 0 111 10l-8 -43q-37 -5 -52 -18t-20 -42l-65 -434q-3 -17 -3 -31t6 -25t32 -11l44 3l2 -4l-15 -44q-74 3 -117 3l-109 -1l15 43q46 5 62 19t21 57zM478 571q0 24 -57 28l-2 4l12 41 q68 -8 104 -8l87 4l2 -6l-10 -39q-26 -5 -49 -20.5t-72 -61.5l-178 -174l136 -221q30 -47 55 -66t58 -19l3 -3l-9 -32q-69 -12 -79 -12q-47 0 -97 86l-140 243l2 13l198 189q36 35 36 54zM222 -93q34 26 57.5 26t39 -19.5t15.5 -51.5q0 -49 -38 -88.5t-90 -66.5l-18 15v10 q31 19 51.5 46.5t20.5 52.5q0 38 -40 62z" />
<glyph unicode="&#x137;" horiz-adv-x="522" d="M111 97q41 332 41 341t-3.5 15.5t-21.5 6.5l-25 -1l-3 4l11 37q63 -3 91 -3l90 8l-8 -40q-30 -4 -42 -14t-16 -32l-50 -328q-2 -12 -2 -23.5t5 -20.5t25 -9l35 2l2 -3l-12 -39q-66 2 -101 2l-95 -1l13 38q37 5 49.5 16t16.5 44zM372 398q29 27 29 44t-45 20l-2 4l10 37 q59 -6 89 -6l77 4l2 -6l-9 -35q-22 -6 -42 -19.5t-59 -49.5l-133 -125l105 -167q23 -36 43 -51t47 -16l3 -4l-8 -30q-62 -9 -72 -9q-41 0 -80 66l-111 191l2 12zM195 -93q34 26 57.5 26t39 -19.5t15.5 -51.5q0 -49 -38 -88.5t-90 -66.5l-18 15v10q31 19 51.5 46.5t20.5 52.5 q0 38 -40 62z" />
<glyph unicode="&#x138;" horiz-adv-x="522" d="M111 97q41 332 41 341t-3.5 15.5t-21.5 6.5l-25 -1l-3 4l11 37q63 -3 91 -3l90 8l-8 -40q-30 -4 -42 -14t-16 -32l-50 -328q-2 -12 -2 -23.5t5 -20.5t25 -9l35 2l2 -3l-12 -39q-66 2 -101 2l-95 -1l13 38q37 5 49.5 16t16.5 44zM372 398q29 27 29 44t-45 20l-2 4l10 37 q59 -6 89 -6l77 4l2 -6l-9 -35q-22 -6 -42 -19.5t-59 -49.5l-133 -125l105 -167q23 -36 43 -51t47 -16l3 -4l-8 -30q-62 -9 -72 -9q-41 0 -80 66l-111 191l2 12z" />
<glyph unicode="&#x139;" horiz-adv-x="488" d="M477 186l1 -4q-28 -89 -51 -186l-5 -5q-166 9 -226 9q-94 0 -158 -10l12 43q38 6 54 24t21 60q55 438 55 449.5t-5 20.5t-26 9l-33 -2q-1 2 -1 3l12 43q72 -4 98 -4q44 0 108 10l-8 -42q-42 -7 -52.5 -20.5t-24.5 -87.5t-37 -227.5t-23 -181t14.5 -37t61.5 -9.5 q85 0 115 24.5t56 116.5zM407 787l-4 -10q-101 -34 -206 -74l-8 5l-6 24l199 109l9 -6z" />
<glyph unicode="&#x13a;" horiz-adv-x="426" d="M109 500l93 -3l92 8l-8 -40q-36 -5 -45 -15t-20 -66t-28.5 -171.5t-17.5 -136t11.5 -28t62 -7.5t74.5 20t44 92l43 5q0 -3 2 -5q-23 -74 -42 -155l-5 -5q-134 7 -187 7q-81 0 -139 -8l11 40q31 5 44 18.5t17 47.5q41 330 41 339.5t-4 16t-21 6.5l-26 -1l-2 4zM357 647 l-4 -10q-101 -34 -206 -74l-8 5l-6 24l199 109l9 -6z" />
<glyph unicode="&#x13b;" horiz-adv-x="488" d="M477 186l1 -4q-28 -89 -51 -186l-5 -5q-166 9 -226 9q-94 0 -158 -10l12 43q38 6 54 24t21 60q55 438 55 449.5t-5 20.5t-26 9l-33 -2q-1 2 -1 3l12 43q72 -4 98 -4q44 0 108 10l-8 -42q-42 -7 -52.5 -20.5t-24.5 -87.5t-37 -227.5t-23 -181t14.5 -37t61.5 -9.5 q85 0 115 24.5t56 116.5zM192 -93q34 26 57.5 26t39 -19.5t15.5 -51.5q0 -49 -38 -88.5t-90 -66.5l-18 15v10q31 19 51.5 46.5t20.5 52.5q0 38 -40 62z" />
<glyph unicode="&#x13c;" horiz-adv-x="426" d="M109 500l93 -3l92 8l-8 -40q-36 -5 -45 -15t-20 -66t-28.5 -171.5t-17.5 -136t11.5 -28t62 -7.5t74.5 20t44 92l43 5q0 -3 2 -5q-23 -74 -42 -155l-5 -5q-134 7 -187 7q-81 0 -139 -8l11 40q31 5 44 18.5t17 47.5q41 330 41 339.5t-4 16t-21 6.5l-26 -1l-2 4zM165 -93 q34 26 57.5 26t39 -19.5t15.5 -51.5q0 -49 -38 -88.5t-90 -66.5l-18 15v10q31 19 51.5 46.5t20.5 52.5q0 38 -40 62z" />
<glyph unicode="&#x13d;" horiz-adv-x="488" d="M432 402q1 33 1 59q0 68 -7 159l70 14l7 -8q-14 -110 -35 -212l-25 -14zM477 186l1 -4q-28 -89 -51 -186l-5 -5q-166 9 -226 9q-94 0 -158 -10l12 43q38 6 54 24t21 60q55 438 55 449.5t-5 20.5t-26 9l-33 -2q-1 2 -1 3l12 43q72 -4 98 -4q44 0 108 10l-8 -42 q-42 -7 -52.5 -20.5t-24.5 -87.5t-37 -227.5t-23 -181t14.5 -37t61.5 -9.5q85 0 115 24.5t56 116.5z" />
<glyph unicode="&#x13e;" horiz-adv-x="441" d="M371 313v33q0 53 -7 139l64 11l6 -7q-11 -85 -28 -166l-26 -12zM109 500l93 -3l92 8l-8 -40q-36 -5 -45 -15t-20 -66t-28.5 -171.5t-17.5 -136t11.5 -28t62 -7.5t74.5 20t44 92l43 5q0 -3 2 -5q-23 -74 -42 -155l-5 -5q-134 7 -187 7q-81 0 -139 -8l11 40q31 5 44 18.5 t17 47.5q41 330 41 339.5t-4 16t-21 6.5l-26 -1l-2 4z" />
<glyph unicode="&#x13f;" horiz-adv-x="488" d="M477 186l1 -4q-28 -89 -51 -186l-5 -5q-166 9 -226 9q-94 0 -158 -10l12 43q38 6 54 24t21 60q55 438 55 449.5t-5 20.5t-26 9l-33 -2q-1 2 -1 3l12 43q72 -4 98 -4q44 0 108 10l-8 -42q-42 -7 -52.5 -20.5t-24.5 -87.5t-37 -227.5t-23 -181t14.5 -37t61.5 -9.5 q85 0 115 24.5t56 116.5zM485 433.5q-20 -20.5 -47 -20.5t-39 14.5t-12 39t19.5 45t46 20.5t39.5 -14t13 -39t-20 -45.5z" />
<glyph unicode="&#x140;" horiz-adv-x="459" d="M109 500l93 -3l92 8l-8 -40q-36 -5 -45 -15t-20 -66t-28.5 -171.5t-17.5 -136t11.5 -28t62 -7.5t74.5 20t44 92l43 5q0 -3 2 -5q-23 -74 -42 -155l-5 -5q-134 7 -187 7q-81 0 -139 -8l11 40q31 5 44 18.5t17 47.5q41 330 41 339.5t-4 16t-21 6.5l-26 -1l-2 4zM423 293.5 q-20 -20.5 -47 -20.5t-39 14.5t-12 39t19.5 45t46 20.5t39.5 -14t13 -39t-20 -45.5z" />
<glyph unicode="&#x141;" horiz-adv-x="488" d="M477 186l1 -4q-28 -89 -51 -186l-5 -5q-166 9 -226 9q-94 0 -158 -10l12 43q38 6 54 24t21 60l24 191l-101 -50l-9 3l-5 32l120 60q26 202 26 213.5t-5 20.5t-26 9l-33 -2q-1 2 -1 3l12 43q72 -4 98 -4q44 0 108 10l-8 -42q-42 -7 -52.5 -20.5t-22.5 -75.5l-22 -125 l143 71l8 -5l5 -31l-163 -80q-33 -215 -33 -246.5t14.5 -41t61.5 -9.5q85 0 115 24.5t56 116.5z" />
<glyph unicode="&#x142;" horiz-adv-x="426" d="M109 500l93 -3l92 8l-8 -40q-36 -5 -45 -15t-16.5 -47.5t-18.5 -102.5l120 57l7 -4l7 -32l-141 -66q-24 -150 -24 -174.5t11.5 -32t62 -7.5t74.5 20t44 92l43 5q0 -3 2 -5q-23 -74 -42 -155l-5 -5q-134 7 -187 7q-81 0 -139 -8l11 40q31 5 44 18.5t17 47.5l16 129 l-66 -31l-8 2l-7 32l86 41q20 157 20 166.5t-4 16t-21 6.5l-26 -1l-2 4z" />
<glyph unicode="&#x143;" horiz-adv-x="691" d="M102 602l-1 5l11 34q55 -5 81 -5l62 4q125 -252 265 -506h4q52 422 52 427q0 34 -27 34h-11l-18 -1h-7l-2 4l14 42q57 -4 82 -4q48 0 102 9l-10 -44q-66 -9 -74 -63l-82 -566l-25 -14q-145 294 -293 564h-4l-60 -441q-3 -22 2.5 -30.5t22.5 -8.5h49l2 -3l-14 -43 q-58 4 -100 4l-89 -8l11 43q59 7 67 63q68 448 68 462q0 34 -78 42zM578 787l-4 -10q-101 -34 -206 -74l-8 5l-6 24l199 109l9 -6z" />
<glyph unicode="&#x144;" horiz-adv-x="590" d="M478 434q0 26 -23 26l-29 -1l-2 4l12 38q52 -4 80 -4l82 7l-8 -40q-53 -7 -60 -49l-64 -433l-36 -11q-109 208 -229 411h-5l-43 -312q-2 -18 3 -25t19 -7h38l3 -3l-12 -38q-53 3 -87 3l-80 -6l10 39q49 6 54 49q53 338 53 349q0 27 -63 33q-2 4 -2 5l9 32q47 -4 73 -4 l57 4q95 -181 208 -373h4q38 302 38 306zM496 647l-4 -10q-101 -34 -206 -74l-8 5l-6 24l199 109l9 -6z" />
<glyph unicode="&#x145;" horiz-adv-x="691" d="M102 602l-1 5l11 34q55 -5 81 -5l62 4q125 -252 265 -506h4q52 422 52 427q0 34 -27 34h-11l-18 -1h-7l-2 4l14 42q57 -4 82 -4q48 0 102 9l-10 -44q-66 -9 -74 -63l-82 -566l-25 -14q-145 294 -293 564h-4l-60 -441q-3 -22 2.5 -30.5t22.5 -8.5h49l2 -3l-14 -43 q-58 4 -100 4l-89 -8l11 43q59 7 67 63q68 448 68 462q0 34 -78 42zM258 -93q34 26 57.5 26t39 -19.5t15.5 -51.5q0 -49 -38 -88.5t-90 -66.5l-18 15v10q31 19 51.5 46.5t20.5 52.5q0 38 -40 62z" />
<glyph unicode="&#x146;" horiz-adv-x="590" d="M478 434q0 26 -23 26l-29 -1l-2 4l12 38q52 -4 80 -4l82 7l-8 -40q-53 -7 -60 -49l-64 -433l-36 -11q-109 208 -229 411h-5l-43 -312q-2 -18 3 -25t19 -7h38l3 -3l-12 -38q-53 3 -87 3l-80 -6l10 39q49 6 54 49q53 338 53 349q0 27 -63 33q-2 4 -2 5l9 32q47 -4 73 -4 l57 4q95 -181 208 -373h4q38 302 38 306zM222 -93q34 26 57.5 26t39 -19.5t15.5 -51.5q0 -49 -38 -88.5t-90 -66.5l-18 15v10q31 19 51.5 46.5t20.5 52.5q0 38 -40 62z" />
<glyph unicode="&#x147;" horiz-adv-x="691" d="M102 602l-1 5l11 34q55 -5 81 -5l62 4q125 -252 265 -506h4q52 422 52 427q0 34 -27 34h-11l-18 -1h-7l-2 4l14 42q57 -4 82 -4q48 0 102 9l-10 -44q-66 -9 -74 -63l-82 -566l-25 -14q-145 294 -293 564h-4l-60 -441q-3 -22 2.5 -30.5t22.5 -8.5h49l2 -3l-14 -43 q-58 4 -100 4l-89 -8l11 43q59 7 67 63q68 448 68 462q0 34 -78 42zM555 837l12 -22l-148 -111h-13l-120 111l16 22l10 1l109 -65l125 65z" />
<glyph unicode="&#x148;" horiz-adv-x="590" d="M478 434q0 26 -23 26l-29 -1l-2 4l12 38q52 -4 80 -4l82 7l-8 -40q-53 -7 -60 -49l-64 -433l-36 -11q-109 208 -229 411h-5l-43 -312q-2 -18 3 -25t19 -7h38l3 -3l-12 -38q-53 3 -87 3l-80 -6l10 39q49 6 54 49q53 338 53 349q0 27 -63 33q-2 4 -2 5l9 32q47 -4 73 -4 l57 4q95 -181 208 -373h4q38 302 38 306zM490 697l12 -22l-148 -111h-13l-120 111l16 22l10 1l109 -65l125 65z" />
<glyph unicode="&#x14a;" horiz-adv-x="691" d="M573 559q0 34 -27 34l-36 -1l-2 4l15 45q61 -4 85 -4q44 0 104 8l-10 -46q-35 -4 -51.5 -19t-21.5 -44l-64 -450q-16 -97 -62 -153t-136 -87l-13 33l4 8q98 40 132 121q-118 239 -262 503h-5q-58 -435 -58 -444t4.5 -16t21.5 -7l48 2l2 -4l-14 -46q-63 4 -95 4 q-48 0 -100 -8l11 46q33 3 48 20.5t23 65.5q63 420 63 433t-13.5 24.5t-62.5 18.5l-3 5l12 37q58 -5 79 -5l71 4q96 -198 258 -496h5q50 409 50 414z" />
<glyph unicode="&#x14b;" horiz-adv-x="591" d="M476 432q0 27 -23 27l-28 -1l-2 4l12 39q57 -3 82 -3l83 6l-9 -41q-29 -4 -42 -15t-16 -34l-50 -347q-13 -76 -52 -120t-117 -69l-13 27l3 7q79 32 105 93q-98 184 -206 372h-5l-42 -306q-2 -18 2.5 -25t19.5 -7l38 2l2 -4l-12 -40q-55 3 -96 3l-74 -6l10 40 q27 3 39 16.5t18 48.5q49 320 49 330.5t-11 19.5t-51 14l-3 5l10 34q51 -4 71 -4l63 3q72 -139 204 -367h5q36 294 36 298z" />
<glyph unicode="&#x14c;" horiz-adv-x="663" d="M311 35q106 0 176 87.5t70 210.5t-51.5 191.5t-137.5 68.5q-103 0 -172 -88.5t-69 -210.5t50.5 -190.5t133.5 -68.5zM286 -12q-107 0 -174 74t-67 192q0 162 103.5 278t248.5 116q109 0 178 -74.5t69 -191.5q0 -163 -105.5 -278.5t-252.5 -115.5zM540 788l5 -10l-13 -47 l-275 -2l-5 9l16 45q91 -1 147 -1z" />
<glyph unicode="&#x14d;" horiz-adv-x="564" d="M269 37q81 0 133 65.5t52 170.5q0 82 -39.5 131.5t-104.5 49.5q-79 0 -130.5 -66t-51.5 -159.5t38.5 -142.5t102.5 -49zM248 -9q-90 0 -145.5 57.5t-55.5 151.5q0 130 83 218.5t204 88.5q92 0 148.5 -57.5t56.5 -151.5q0 -130 -84.5 -218.5t-206.5 -88.5zM477 648l5 -10 l-13 -47l-275 -2l-5 9l16 45q91 -1 147 -1z" />
<glyph unicode="&#x14e;" horiz-adv-x="663" d="M311 35q106 0 176 87.5t70 210.5t-51.5 191.5t-137.5 68.5q-103 0 -172 -88.5t-69 -210.5t50.5 -190.5t133.5 -68.5zM286 -12q-107 0 -174 74t-67 192q0 162 103.5 278t248.5 116q109 0 178 -74.5t69 -191.5q0 -163 -105.5 -278.5t-252.5 -115.5zM386 791q68 0 100 66h9 l14 -10q-17 -48 -50 -81t-80 -33t-72.5 33t-30.5 81l17 10h8q17 -66 85 -66z" />
<glyph unicode="&#x14f;" horiz-adv-x="564" d="M269 37q81 0 133 65.5t52 170.5q0 82 -39.5 131.5t-104.5 49.5q-79 0 -130.5 -66t-51.5 -159.5t38.5 -142.5t102.5 -49zM248 -9q-90 0 -145.5 57.5t-55.5 151.5q0 130 83 218.5t204 88.5q92 0 148.5 -57.5t56.5 -151.5q0 -130 -84.5 -218.5t-206.5 -88.5zM257 678 q18 -50 86.5 -50t98.5 50h8l15 -10q-17 -42 -50 -70t-79 -28t-72 28t-33 70l18 10h8z" />
<glyph unicode="&#x150;" horiz-adv-x="663" d="M311 35q106 0 176 87.5t70 210.5t-51.5 191.5t-137.5 68.5q-103 0 -172 -88.5t-69 -210.5t50.5 -190.5t133.5 -68.5zM286 -12q-107 0 -174 74t-67 192q0 162 103.5 278t248.5 116q109 0 178 -74.5t69 -191.5q0 -163 -105.5 -278.5t-252.5 -115.5zM445 790l-3 -9 q-80 -40 -164 -87l-8 5l-9 21l153 117l9 -4zM585 781l-3 -9q-80 -40 -164 -87l-7 4l-10 21l153 118l9 -5z" />
<glyph unicode="&#x151;" horiz-adv-x="564" d="M269 37q81 0 133 65.5t52 170.5q0 82 -39.5 131.5t-104.5 49.5q-79 0 -130.5 -66t-51.5 -159.5t38.5 -142.5t102.5 -49zM248 -9q-90 0 -145.5 57.5t-55.5 151.5q0 130 83 218.5t204 88.5q92 0 148.5 -57.5t56.5 -151.5q0 -130 -84.5 -218.5t-206.5 -88.5zM372 650l-3 -9 q-80 -40 -164 -87l-8 5l-9 21l153 117l9 -4zM512 641l-3 -9q-80 -40 -164 -87l-7 4l-10 21l153 118l9 -5z" />
<glyph unicode="&#x152;" horiz-adv-x="923" d="M546 105q-2 -13 -2 -28.5t9 -23.5t65 -8t86 3t53 17t33 36t22 66l45 5l2 -5q-27 -83 -46 -168l-6 -6q-199 8 -272 8t-149 -6.5t-106 -6.5q-104 0 -169.5 74t-65.5 191q0 165 101 280.5t244 115.5q31 0 104.5 -7t114.5 -7q196 0 294 14l3 -6q-26 -74 -43 -166l-49 -4 q9 38 9 67.5t-25.5 38t-92.5 8.5t-77 -5.5t-15 -33.5l-32 -194l99 -1l119 11l3 -5l-21 -59q-82 3 -133 3l-76 -7zM181 106q46 -66 131 -66t127 38t55 130q35 275 35 289q0 50 -28 72t-129.5 22t-169 -87.5t-67.5 -223.5q0 -108 46 -174z" />
<glyph unicode="&#x153;" horiz-adv-x="753" d="M472 228q-22 -148 -22 -161t7.5 -19.5t72 -6.5t90 15.5t43.5 78.5l42 4l1 -4q-20 -66 -36 -135l-6 -5q-160 6 -221.5 6t-123 -5t-86.5 -5q-87 0 -141.5 58t-54.5 151q0 130 81 218t200 88q26 0 86 -5t157 -5t180 11l2 -5q-21 -61 -35 -133l-46 -4q7 29 7 51.5t-20.5 29.5 t-73 7t-60.5 -4.5t-11 -24.5l-25 -145l80 -1l96 8l3 -5l-17 -50q-66 2 -107 2zM155 85.5q36 -48.5 102.5 -48.5t99 28t43.5 96q27 213 27 223q0 37 -22.5 54t-101.5 17t-131.5 -66.5t-52.5 -172.5q0 -82 36 -130.5z" />
<glyph unicode="&#x154;" horiz-adv-x="589" d="M212 276q-25 -178 -25 -196.5t5 -26.5q11 -14 57 -14l1 -3l-13 -40q-55 2 -100 3l-109 -3l14 43q46 5 62.5 20t21.5 58q54 437 54 449t-5 21t-26 9l-32 -2l-2 4l12 42q69 -4 105 -4l107 4q82 0 132.5 -37.5t50.5 -102t-40 -119t-117 -88.5l85 -178q24 -48 47.5 -66.5 t62.5 -18.5l3 -3l-9 -32l-81 -11q-24 0 -48 26t-42 69l-80 197h-91zM281 602q-9 0 -13 -4q-15 -18 -47 -270l98 -10q-319 -318 30 12q91 53 94 156q0 116 -162 116zM512 787l-4 -10q-101 -34 -206 -74l-8 5l-6 24l199 109l9 -6z" />
<glyph unicode="&#x155;" horiz-adv-x="509" d="M193 210q-18 -127 -18 -141.5t6.5 -23t44.5 -9.5l1 -3l-11 -36q-52 2 -88 2l-96 -3l12 40q37 4 50 15.5t17 45.5q41 332 41 341t-3.5 15.5t-20.5 6.5l-26 -1l-3 4l11 37q59 -3 89 -3l94 4q72 0 115.5 -30t43.5 -81q0 -109 -126 -163l66 -130q19 -37 38.5 -52t49.5 -15 l3 -4l-8 -30l-73 -8q-44 0 -76 73l-62 149h-71zM374 375q0 86 -127 86q-7 0 -11 -3q-10 -11 -35 -199l78 -8q42 17 55 31t22 26q18 26 18 67zM444 647l-4 -10q-101 -34 -206 -74l-8 5l-6 24l199 109l9 -6z" />
<glyph unicode="&#x156;" horiz-adv-x="589" d="M212 276q-25 -178 -25 -196.5t5 -26.5q11 -14 57 -14l1 -3l-13 -40q-55 2 -100 3l-109 -3l14 43q46 5 62.5 20t21.5 58q54 437 54 449t-5 21t-26 9l-32 -2l-2 4l12 42q69 -4 105 -4l107 4q82 0 132.5 -37.5t50.5 -102t-40 -119t-117 -88.5l85 -178q24 -48 47.5 -66.5 t62.5 -18.5l3 -3l-9 -32l-81 -11q-24 0 -48 26t-42 69l-80 197h-91zM281 602q-9 0 -13 -4q-15 -18 -47 -270l98 -10q-319 -318 30 12q91 53 94 156q0 116 -162 116zM212 -93q34 26 57.5 26t39 -19.5t15.5 -51.5q0 -49 -38 -88.5t-90 -66.5l-18 15v10q31 19 51.5 46.5 t20.5 52.5q0 38 -40 62z" />
<glyph unicode="&#x157;" horiz-adv-x="509" d="M193 210q-18 -127 -18 -141.5t6.5 -23t44.5 -9.5l1 -3l-11 -36q-52 2 -88 2l-96 -3l12 40q37 4 50 15.5t17 45.5q41 332 41 341t-3.5 15.5t-20.5 6.5l-26 -1l-3 4l11 37q59 -3 89 -3l94 4q72 0 115.5 -30t43.5 -81q0 -109 -126 -163l66 -130q19 -37 38.5 -52t49.5 -15 l3 -4l-8 -30l-73 -8q-44 0 -76 73l-62 149h-71zM374 375q0 86 -127 86q-7 0 -11 -3q-10 -11 -35 -199l78 -8q42 17 55 31t22 26q18 26 18 67zM185 -93q34 26 57.5 26t39 -19.5t15.5 -51.5q0 -49 -38 -88.5t-90 -66.5l-18 15v10q31 19 51.5 46.5t20.5 52.5q0 38 -40 62z" />
<glyph unicode="&#x158;" horiz-adv-x="589" d="M212 276q-25 -178 -25 -196.5t5 -26.5q11 -14 57 -14l1 -3l-13 -40q-55 2 -100 3l-109 -3l14 43q46 5 62.5 20t21.5 58q54 437 54 449t-5 21t-26 9l-32 -2l-2 4l12 42q69 -4 105 -4l107 4q82 0 132.5 -37.5t50.5 -102t-40 -119t-117 -88.5l85 -178q24 -48 47.5 -66.5 t62.5 -18.5l3 -3l-9 -32l-81 -11q-24 0 -48 26t-42 69l-80 197h-91zM281 602q-9 0 -13 -4q-15 -18 -47 -270l98 -10q-319 -318 30 12q91 53 94 156q0 116 -162 116zM489 837l12 -22l-148 -111h-13l-120 111l16 22l10 1l109 -65l125 65z" />
<glyph unicode="&#x159;" horiz-adv-x="509" d="M193 210q-18 -127 -18 -141.5t6.5 -23t44.5 -9.5l1 -3l-11 -36q-52 2 -88 2l-96 -3l12 40q37 4 50 15.5t17 45.5q41 332 41 341t-3.5 15.5t-20.5 6.5l-26 -1l-3 4l11 37q59 -3 89 -3l94 4q72 0 115.5 -30t43.5 -81q0 -109 -126 -163l66 -130q19 -37 38.5 -52t49.5 -15 l3 -4l-8 -30l-73 -8q-44 0 -76 73l-62 149h-71zM374 375q0 86 -127 86q-7 0 -11 -3q-10 -11 -35 -199l78 -8q42 17 55 31t22 26q18 26 18 67zM438 697l12 -22l-148 -111h-13l-120 111l16 22l10 1l109 -65l125 65z" />
<glyph unicode="&#x15a;" horiz-adv-x="509" d="M192 -12q-40 0 -79 8t-77 25l-4 10q22 75 34 174l41 5q-5 -46 -5 -85.5t11 -59.5q19 -33 91.5 -33t114.5 34t42 88q0 36 -27 63.5t-95.5 68t-93.5 64.5q-48 46 -49 100q0 82 67 140t165 58q76 0 152 -24l2 -5q-24 -77 -41 -169l-36 -4l-5 5q11 44 11 79.5t-23.5 52 t-81 16.5t-97 -30.5t-39.5 -78.5t73 -100q17 -11 50.5 -31t55 -34t45.5 -34q48 -40 48 -96q0 -89 -70 -148t-180 -59zM479 787l-4 -10q-101 -34 -206 -74l-8 5l-6 24l199 109l9 -6z" />
<glyph unicode="&#x15b;" horiz-adv-x="441" d="M169 -9q-68 0 -116 19l-16 7l-3 9q18 61 28 135l41 4q-4 -33 -4 -62t9 -44q16 -25 72 -25t88.5 24t32.5 57t-22 53.5t-81 53t-86 60.5t-27 66q0 67 57 113t141 46q64 0 128 -20l2 -5q-20 -61 -34 -133l-36 -3l-5 4q8 32 8 58t-18.5 38.5t-63.5 12.5t-75.5 -22t-30.5 -57 t60 -74q13 -8 41 -23t45 -26t37 -27q39 -31 39 -76q0 -71 -59 -117t-152 -46zM418 647l-4 -10q-101 -34 -206 -74l-8 5l-6 24l199 109l9 -6z" />
<glyph unicode="&#x15c;" horiz-adv-x="509" d="M192 -12q-40 0 -79 8t-77 25l-4 10q22 75 34 174l41 5q-5 -46 -5 -85.5t11 -59.5q19 -33 91.5 -33t114.5 34t42 88q0 36 -27 63.5t-95.5 68t-93.5 64.5q-48 46 -49 100q0 82 67 140t165 58q76 0 152 -24l2 -5q-24 -77 -41 -169l-36 -4l-5 5q11 44 11 79.5t-23.5 52 t-81 16.5t-97 -30.5t-39.5 -78.5t73 -100q17 -11 50.5 -31t55 -34t45.5 -34q48 -40 48 -96q0 -89 -70 -148t-180 -59zM197 702l-12 22l152 153h14l115 -153l-17 -22l-9 -1l-105 97l-129 -97z" />
<glyph unicode="&#x15d;" horiz-adv-x="441" d="M169 -9q-68 0 -116 19l-16 7l-3 9q18 61 28 135l41 4q-4 -33 -4 -62t9 -44q16 -25 72 -25t88.5 24t32.5 57t-22 53.5t-81 53t-86 60.5t-27 66q0 67 57 113t141 46q64 0 128 -20l2 -5q-20 -61 -34 -133l-36 -3l-5 4q8 32 8 58t-18.5 38.5t-63.5 12.5t-75.5 -22t-30.5 -57 t60 -74q13 -8 41 -23t45 -26t37 -27q39 -31 39 -76q0 -71 -59 -117t-152 -46zM149 562l-12 22l152 153h14l115 -153l-17 -22l-9 -1l-105 97l-129 -97z" />
<glyph unicode="&#x15e;" horiz-adv-x="509" d="M107 210q-5 -46 -5 -85.5t11 -59.5q19 -33 91.5 -33t114.5 34t42 88q0 36 -27 63.5t-95.5 68t-93.5 64.5q-48 46 -49 100q0 82 67 140t165 58q76 0 152 -24l2 -5q-24 -77 -41 -169l-36 -4l-5 5q11 44 11 79.5t-23.5 52t-81 16.5t-97 -30.5t-39.5 -78.5t73 -100 q17 -11 50.5 -31t55 -34t45.5 -34q48 -40 48 -96q0 -80 -58 -137t-151 -67l-18 -41q21 -14 38 -30t21 -22q13 -19 13 -33q0 -38 -42 -68t-86 -30q-23 0 -42.5 9.5t-19.5 25t32 57.5h8v-16.5t11.5 -26.5t33.5 -14t37 11.5t15 28.5q0 26 -73 73l30 73q-40 0 -78.5 8t-76.5 25 l-4 10q22 75 34 174z" />
<glyph unicode="&#x15f;" horiz-adv-x="441" d="M169 -9q-68 0 -116 19l-16 7l-3 9q18 61 28 135l41 4q-4 -33 -4 -62t9 -44q16 -25 72 -25t88.5 24t32.5 57t-22 53.5t-81 53t-86 60.5t-27 66q0 67 57 113t141 46q64 0 128 -20l2 -5q-20 -61 -34 -133l-36 -3l-5 4q8 32 8 58t-18.5 38.5t-63.5 12.5t-75.5 -22t-30.5 -57 t60 -74q13 -8 41 -23t45 -26t37 -27q39 -31 39 -76q0 -61 -44.5 -104.5t-118.5 -54.5l-20 -45q21 -14 38 -30t21 -22q13 -19 13 -33q0 -38 -42 -68t-86 -30q-23 0 -42.5 9.5t-19.5 25t32 57.5h8v-16.5t11.5 -26.5t33.5 -14t37 11.5t15 28.5q0 26 -73 73l31 76h-5z" />
<glyph unicode="&#x160;" horiz-adv-x="509" d="M192 -12q-40 0 -79 8t-77 25l-4 10q22 75 34 174l41 5q-5 -46 -5 -85.5t11 -59.5q19 -33 91.5 -33t114.5 34t42 88q0 36 -27 63.5t-95.5 68t-93.5 64.5q-48 46 -49 100q0 82 67 140t165 58q76 0 152 -24l2 -5q-24 -77 -41 -169l-36 -4l-5 5q11 44 11 79.5t-23.5 52 t-81 16.5t-97 -30.5t-39.5 -78.5t73 -100q17 -11 50.5 -31t55 -34t45.5 -34q48 -40 48 -96q0 -89 -70 -148t-180 -59zM466 837l12 -22l-148 -111h-13l-120 111l16 22l10 1l109 -65l125 65z" />
<glyph unicode="&#x161;" horiz-adv-x="441" d="M169 -9q-68 0 -116 19l-16 7l-3 9q18 61 28 135l41 4q-4 -33 -4 -62t9 -44q16 -25 72 -25t88.5 24t32.5 57t-22 53.5t-81 53t-86 60.5t-27 66q0 67 57 113t141 46q64 0 128 -20l2 -5q-20 -61 -34 -133l-36 -3l-5 4q8 32 8 58t-18.5 38.5t-63.5 12.5t-75.5 -22t-30.5 -57 t60 -74q13 -8 41 -23t45 -26t37 -27q39 -31 39 -76q0 -71 -59 -117t-152 -46zM418 697l12 -22l-148 -111h-13l-120 111l16 22l10 1l109 -65l125 65z" />
<glyph unicode="&#x162;" horiz-adv-x="526" d="M549 641q-6 -69 -6 -107v-57l-44 -4q-1 35 -1.5 51t-7 33.5t-12.5 22.5t-26.5 11.5t-39.5 7.5t-61 3q-15 -71 -46.5 -276.5t-31.5 -233t11 -39.5t36 -12l55 3l2 -4l-14 -43q-57 2 -104 3l-22 -50q21 -14 38 -30t21 -22q13 -19 13 -33q0 -38 -42 -68t-86 -30 q-23 0 -42.5 9.5t-19.5 25t32 57.5h8v-16.5t11.5 -26.5t33.5 -14t37 11.5t15 28.5q0 26 -73 73l35 85l-124 -4l12 40q68 7 85 26t27 100l53 440q-46 -2 -66 -3t-44 -7t-31 -11t-18 -22.5t-15 -32t-13 -49.5l-44 -4q22 85 35 168l10 7l76 -11h298l82 11z" />
<glyph unicode="&#x163;" horiz-adv-x="456" d="M247 78q0 -40 39 -40l44 2l2 -3l-12 -40q-44 2 -82 3l-22 -50q21 -14 38 -30t22 -22q12 -19 12 -33q0 -38 -42 -68t-86 -30q-23 0 -42.5 9.5t-19.5 25t32 57.5h8v-16.5t11.5 -26.5t33.5 -14t37 11.5t15 28.5q0 26 -73 73l35 85l-110 -4l10 38q56 5 69.5 19.5t21.5 73.5 l41 333q-78 -2 -96 -10q-27 -13 -47 -88l-44 -4q18 74 28 142l9 7l66 -9h245l71 9l7 -7l-6 -138l-44 -4q-1 73 -18 86.5t-94 15.5q-11 -53 -35 -205.5t-24 -176.5z" />
<glyph unicode="&#x164;" horiz-adv-x="526" d="M549 641q-6 -69 -6 -107v-57l-44 -4q-1 35 -1.5 51t-7 33.5t-12.5 22.5t-26.5 11.5t-39.5 7.5t-61 3q-15 -71 -46.5 -276.5t-31.5 -233t11 -39.5t36 -12l55 3l2 -4l-14 -43q-94 3 -140 3l-129 -4l12 40q68 7 85 26t27 100l53 440q-46 -2 -66 -3t-44 -7t-31 -11t-18 -22.5 t-15 -32t-13 -49.5l-44 -4q22 85 35 168l10 7l76 -11h298l82 11zM470 837l12 -22l-148 -111h-13l-120 111l16 22l10 1l109 -65l125 65z" />
<glyph unicode="&#x165;" horiz-adv-x="456" d="M247 78q0 -40 39 -40l44 2l2 -3l-12 -40q-81 3 -120 3l-113 -4l10 38q56 5 69.5 19.5t21.5 73.5l41 333q-78 -2 -96 -10q-27 -13 -47 -88l-44 -4q18 74 28 142l9 7l66 -9h245l71 9l7 -7l-6 -138l-44 -4q-1 73 -18 86.5t-94 15.5q-11 -53 -35 -205.5t-24 -176.5zM421 697 l12 -22l-148 -111h-13l-120 111l16 22l10 1l109 -65l125 65z" />
<glyph unicode="&#x166;" horiz-adv-x="526" d="M549 641q-6 -69 -6 -107v-57l-44 -4q-1 35 -1.5 51t-7 33.5t-12.5 22.5t-26.5 11.5t-39.5 7.5t-61 3q-14 -65 -42 -246l80 4l13 -13l-4 -37l-96 -1q-29 -188 -29 -216t11 -40t36 -12l55 3l2 -4l-14 -43q-94 3 -140 3l-129 -4l12 40q68 7 85 26t27 100l17 147l-89 -1l-9 9 l7 39l97 -1l30 247q-46 -2 -66 -3t-44 -7t-31 -11t-18 -22.5t-15 -32t-13 -49.5l-44 -4q22 85 35 168l10 7l76 -11h298l82 11z" />
<glyph unicode="&#x167;" horiz-adv-x="456" d="M247 78q0 -40 39 -40l44 2l2 -3l-12 -40q-81 3 -120 3l-113 -4l10 38q56 5 69.5 19.5t21.5 73.5l10 82l-92 -1l-9 9l7 39l99 -1l26 205q-78 -2 -96 -10q-27 -13 -47 -88l-44 -4q18 74 28 142l9 7l66 -9h245l71 9l7 -7l-6 -138l-44 -4q-1 73 -18 86.5t-94 15.5 q-12 -54 -35 -204l78 4l13 -13l-4 -37l-94 -1q-17 -109 -17 -131z" />
<glyph unicode="&#x168;" horiz-adv-x="652" d="M175 202q0 -78 35.5 -119.5t110 -41.5t122 44.5t57.5 129.5q36 332 36 348.5t-4.5 24.5t-25.5 8l-43 -2v4l11 41q71 -3 98 -3q45 0 103 10l-10 -43q-43 -5 -56 -15.5t-17 -41.5l-42 -340q-13 -103 -82 -160.5t-182 -57.5q-90 0 -137.5 47t-47.5 131q0 23 3 44 q43 345 43 357t-5 20.5t-27 8.5l-33 -2l-1 4l12 41q70 -3 97 -3q46 0 110 10l-9 -43q-36 -5 -50 -16.5t-19 -40.5l-44 -294q-3 -27 -3 -50zM398.5 828.5q53.5 -16.5 65.5 -16.5q19 0 56 42l12 13h6l20 -21l-1 -5l-84 -89l-16 -4q-17 0 -70 16.5t-64.5 16.5t-28.5 -13.5 t-40 -41.5h-7l-19 21l1 5l84 89l15 4q17 0 70.5 -16.5z" />
<glyph unicode="&#x169;" horiz-adv-x="554" d="M164 156q0 -56 27.5 -85.5t79.5 -29.5q126 0 140 125q29 258 29 269.5t-4 18t-20 6.5l-33 -1l-1 3l10 38q59 -3 89 -3l82 7l-9 -39q-34 -5 -44.5 -12.5t-13.5 -30.5l-32 -258q-10 -83 -66.5 -128t-141.5 -45q-167 0 -165 140q-1 14 2 31q33 261 33 272.5t-4 18.5t-21 7 l-27 -1l-1 3l11 38q60 -3 93 -3l86 7l-8 -39q-29 -4 -40 -13t-15 -31l-34 -228q-2 -13 -2 -37zM337.5 688.5q53.5 -16.5 64.5 -16.5q20 0 57 42l12 13h6l20 -21l-1 -5l-84 -89l-16 -4q-17 0 -70 16.5t-64.5 16.5t-28.5 -13.5t-40 -41.5h-7l-19 21l1 5l84 89l15 4 q17 0 70.5 -16.5z" />
<glyph unicode="&#x16a;" horiz-adv-x="652" d="M175 202q0 -78 35.5 -119.5t110 -41.5t122 44.5t57.5 129.5q36 332 36 348.5t-4.5 24.5t-25.5 8l-43 -2v4l11 41q71 -3 98 -3q45 0 103 10l-10 -43q-43 -5 -56 -15.5t-17 -41.5l-42 -340q-13 -103 -82 -160.5t-182 -57.5q-90 0 -137.5 47t-47.5 131q0 23 3 44 q43 345 43 357t-5 20.5t-27 8.5l-33 -2l-1 4l12 41q70 -3 97 -3q46 0 110 10l-9 -43q-36 -5 -50 -16.5t-19 -40.5l-44 -294q-3 -27 -3 -50zM545 788l5 -10l-13 -47l-275 -2l-5 9l16 45q91 -1 147 -1z" />
<glyph unicode="&#x16b;" horiz-adv-x="554" d="M164 156q0 -56 27.5 -85.5t79.5 -29.5q126 0 140 125q29 258 29 269.5t-4 18t-20 6.5l-33 -1l-1 3l10 38q59 -3 89 -3l82 7l-9 -39q-34 -5 -44.5 -12.5t-13.5 -30.5l-32 -258q-10 -83 -66.5 -128t-141.5 -45q-167 0 -165 140q-1 14 2 31q33 261 33 272.5t-4 18.5t-21 7 l-27 -1l-1 3l11 38q60 -3 93 -3l86 7l-8 -39q-29 -4 -40 -13t-15 -31l-34 -228q-2 -13 -2 -37zM481 648l5 -10l-13 -47l-275 -2l-5 9l16 45q91 -1 147 -1z" />
<glyph unicode="&#x16c;" horiz-adv-x="652" d="M175 202q0 -78 35.5 -119.5t110 -41.5t122 44.5t57.5 129.5q36 332 36 348.5t-4.5 24.5t-25.5 8l-43 -2v4l11 41q71 -3 98 -3q45 0 103 10l-10 -43q-43 -5 -56 -15.5t-17 -41.5l-42 -340q-13 -103 -82 -160.5t-182 -57.5q-90 0 -137.5 47t-47.5 131q0 23 3 44 q43 345 43 357t-5 20.5t-27 8.5l-33 -2l-1 4l12 41q70 -3 97 -3q46 0 110 10l-9 -43q-36 -5 -50 -16.5t-19 -40.5l-44 -294q-3 -27 -3 -50zM394 791q68 0 100 66h9l14 -10q-17 -48 -50 -81t-80 -33t-72.5 33t-30.5 81l17 10h8q17 -66 85 -66z" />
<glyph unicode="&#x16d;" horiz-adv-x="554" d="M164 156q0 -56 27.5 -85.5t79.5 -29.5q126 0 140 125q29 258 29 269.5t-4 18t-20 6.5l-33 -1l-1 3l10 38q59 -3 89 -3l82 7l-9 -39q-34 -5 -44.5 -12.5t-13.5 -30.5l-32 -258q-10 -83 -66.5 -128t-141.5 -45q-167 0 -165 140q-1 14 2 31q33 261 33 272.5t-4 18.5t-21 7 l-27 -1l-1 3l11 38q60 -3 93 -3l86 7l-8 -39q-29 -4 -40 -13t-15 -31l-34 -228q-2 -13 -2 -37zM237 678q18 -50 86.5 -50t98.5 50h8l15 -10q-17 -42 -50 -70t-79 -28t-72 28t-33 70l18 10h8z" />
<glyph unicode="&#x16e;" horiz-adv-x="652" d="M175 202q0 -78 35.5 -119.5t110 -41.5t122 44.5t57.5 129.5q36 332 36 348.5t-4.5 24.5t-25.5 8l-43 -2v4l11 41q71 -3 98 -3q45 0 103 10l-10 -43q-43 -5 -56 -15.5t-17 -41.5l-42 -340q-13 -103 -82 -160.5t-182 -57.5q-90 0 -137.5 47t-47.5 131q0 23 3 44 q43 345 43 357t-5 20.5t-27 8.5l-33 -2l-1 4l12 41q70 -3 97 -3q46 0 110 10l-9 -43q-36 -5 -50 -16.5t-19 -40.5l-44 -294q-3 -27 -3 -50zM401 712q48 0 48 45q0 42 -44 42q-22 0 -34.5 -12t-12.5 -33t13.5 -31.5t29.5 -10.5zM457.5 703.5q-26.5 -29.5 -62.5 -29.5 t-53 18.5t-17 54.5t26.5 63.5t63.5 27.5t53 -19t16 -52.5t-26.5 -63z" />
<glyph unicode="&#x16f;" horiz-adv-x="554" d="M164 156q0 -56 27.5 -85.5t79.5 -29.5q126 0 140 125q29 258 29 269.5t-4 18t-20 6.5l-33 -1l-1 3l10 38q59 -3 89 -3l82 7l-9 -39q-34 -5 -44.5 -12.5t-13.5 -30.5l-32 -258q-10 -83 -66.5 -128t-141.5 -45q-167 0 -165 140q-1 14 2 31q33 261 33 272.5t-4 18.5t-21 7 l-27 -1l-1 3l11 38q60 -3 93 -3l86 7l-8 -39q-29 -4 -40 -13t-15 -31l-34 -228q-2 -13 -2 -37zM337 572q48 0 48 45q0 42 -44 42q-22 0 -34.5 -12t-12.5 -33t13.5 -31.5t29.5 -10.5zM393.5 563.5q-26.5 -29.5 -62.5 -29.5t-53 18.5t-17 54.5t26.5 63.5t63.5 27.5t53 -19 t16 -52.5t-26.5 -63z" />
<glyph unicode="&#x170;" horiz-adv-x="652" d="M175 202q0 -78 35.5 -119.5t110 -41.5t122 44.5t57.5 129.5q36 332 36 348.5t-4.5 24.5t-25.5 8l-43 -2v4l11 41q71 -3 98 -3q45 0 103 10l-10 -43q-43 -5 -56 -15.5t-17 -41.5l-42 -340q-13 -103 -82 -160.5t-182 -57.5q-90 0 -137.5 47t-47.5 131q0 23 3 44 q43 345 43 357t-5 20.5t-27 8.5l-33 -2l-1 4l12 41q70 -3 97 -3q46 0 110 10l-9 -43q-36 -5 -50 -16.5t-19 -40.5l-44 -294q-3 -27 -3 -50zM480 790l-3 -9q-80 -40 -164 -87l-8 5l-9 21l153 117l9 -4zM620 781l-3 -9q-80 -40 -164 -87l-7 4l-10 21l153 118l9 -5z" />
<glyph unicode="&#x171;" horiz-adv-x="554" d="M164 156q0 -56 27.5 -85.5t79.5 -29.5q126 0 140 125q29 258 29 269.5t-4 18t-20 6.5l-33 -1l-1 3l10 38q59 -3 89 -3l82 7l-9 -39q-34 -5 -44.5 -12.5t-13.5 -30.5l-32 -258q-10 -83 -66.5 -128t-141.5 -45q-167 0 -165 140q-1 14 2 31q33 261 33 272.5t-4 18.5t-21 7 l-27 -1l-1 3l11 38q60 -3 93 -3l86 7l-8 -39q-29 -4 -40 -13t-15 -31l-34 -228q-2 -13 -2 -37zM398 650l-3 -9q-80 -40 -164 -87l-8 5l-9 21l153 117l9 -4zM538 641l-3 -9q-80 -40 -164 -87l-7 4l-10 21l153 118l9 -5z" />
<glyph unicode="&#x172;" horiz-adv-x="652" d="M277 -158q0 57 102 158q-42 -12 -93 -12q-90 0 -137.5 46.5t-47.5 131.5q0 23 3 44q43 345 43 357t-5 20.5t-27 8.5l-33 -2l-1 4l12 41q70 -3 97 -3q46 0 110 10l-9 -43q-37 -5 -50.5 -16.5t-18.5 -40.5l-44 -294q-3 -27 -3 -50q0 -79 36 -120t110 -41t121.5 44.5 t57.5 129.5q36 332 36 348.5t-4.5 24.5t-25.5 8l-43 -2v4l11 41q71 -3 98 -3q45 0 103 10l-10 -43q-45 -7 -58 -17t-15 -40l-42 -340q-12 -96 -77 -161q-83 -84 -107.5 -117.5t-24.5 -58.5t13.5 -38t32.5 -13q34 0 80 23l10 -19q-53 -46 -104 -63q-44 0 -70 22.5t-26 60.5z " />
<glyph unicode="&#x173;" horiz-adv-x="554" d="M240 -123q0 45 81 122q-35 -8 -74 -8q-76 0 -116 36t-40 104q0 21 2 31q33 265 33 275t-4 16.5t-21 6.5l-27 -1l-1 3l11 38q60 -3 93 -3l86 7l-8 -39q-29 -4 -40 -13t-15 -31l-34 -228q-2 -13 -2 -37q0 -56 27.5 -85.5t79.5 -29.5q124 0 141 125q28 258 28 269.5t-4 18 t-20 6.5l-33 -1l-1 3l10 38q59 -3 89 -3l82 7l-9 -39q-35 -5 -45.5 -13t-12.5 -30l-32 -258q-9 -77 -68.5 -135t-79.5 -84.5t-20 -45t11 -28.5t26 -10q28 0 64 18l9 -17q-44 -37 -85 -50q-37 0 -59 17.5t-22 47.5z" />
<glyph unicode="&#x174;" horiz-adv-x="897" d="M271 93q3 7 185 387q-4 10 -11 56q-12 56 -81 59l-1 4l12 40q75 -3 103 -3q53 0 143 12l1 -7l-8 -37q-58 -4 -74 -12.5t-16 -30.5q0 -44 64 -468h6q12 26 46 97.5t58.5 123.5t52.5 112q58 124 58 142q0 31 -62 31h-48l-2 4l12 41q71 -8 132 -8l101 4l-12 -45 q-28 -2 -41 -10.5t-27 -37.5l-270 -542l-57 -22l-68 432h-6l-189 -410l-59 -22q-43 288 -92 555q-10 56 -79 57l-2 4l11 40q76 -3 106 -3q60 0 140 12l2 -7l-7 -37q-57 -4 -73.5 -12.5t-16.5 -33.5q0 -42 63 -465h6zM392 713l-11 22l147 111h14l120 -111l-17 -22l-9 -1 l-110 65l-125 -65z" />
<glyph unicode="&#x175;" horiz-adv-x="762" d="M53 500q62 -3 89 -3q43 0 119 9l2 -6l-7 -34q-44 -3 -57.5 -10t-13.5 -26q0 -41 48 -349h7l142 296l-7 40q-8 42 -64 43l-1 4l10 36q64 -3 90 -3q38 0 121 9l2 -6l-8 -34q-45 -4 -58 -10.5t-13 -24.5q0 -42 49 -350h7q9 19 35.5 74t44.5 93.5t40 83.5q44 95 44 108 q0 22 -47 22h-37l-2 4l10 37q60 -6 109 -6l85 3l-10 -40q-22 -2 -32.5 -9t-21.5 -29l-210 -418l-68 -17l-52 320h-5l-143 -303l-69 -17q-37 237 -74 427q-9 45 -62 46l-2 4zM313 573l-11 22l147 111h14l120 -111l-17 -22l-9 -1l-110 65l-125 -65z" />
<glyph unicode="&#x176;" horiz-adv-x="520" d="M210 593q-15 -8 -15 -25q0 -35 77 -264h4l139 218q21 32 21 53q0 24 -57 28l-2 4l11 37q72 -8 104 -8l89 4l3 -6l-11 -35q-45 -8 -65 -26.5t-46 -57.5q-157 -234 -159.5 -239t-6 -16t-6 -18t-5 -24.5t-3.5 -27.5q-14 -92 -14 -109.5t3 -24.5q6 -15 32 -15l47 3l2 -4 l-14 -43q-78 3 -109 3q-53 0 -119 -12l11 43q51 11 66.5 31.5t21.5 78.5q6 57 6 87.5t-15 72.5q-75 217 -77.5 223.5t-7 19t-7 15.5t-7.5 11t-9 10t-10.5 7t-14 6.5t-16.5 3.5t-21 3l-2 4l11 36q59 -4 93 -4q68 0 147 9l2 -7l-8 -33q-48 -4 -63 -12zM211 713l-11 22l147 111 h14l120 -111l-17 -22l-9 -1l-110 65l-125 -65z" />
<glyph unicode="&#x177;" horiz-adv-x="461" d="M333 503l90 -6l75 3l3 -5l-10 -33q-43 -8 -72 -44q-16 -19 -78 -109t-65 -96t-5.5 -10.5t-4.5 -13t-3 -13t-3 -16.5l-3 -18q-9 -61 -9 -74t4.5 -21.5t25.5 -8.5l39 2l1 -3l-11 -40q-71 3 -97 3q-52 0 -108 -9l10 39q43 8 56 23.5t18 58.5q4 44 4 65.5t-13 53.5l-54 144 q-21 55 -34.5 68.5t-51.5 18.5l-2 4l10 34q54 -3 89 -3l116 7l2 -6l-7 -31q-37 -3 -49 -9t-12 -17.5t10 -42.5q10 -34 50 -151h5l104 158q17 25 17 41t-45 19l-2 4zM166 573l-11 22l147 111h14l120 -111l-17 -22l-9 -1l-110 65l-125 -65z" />
<glyph unicode="&#x178;" horiz-adv-x="520" d="M210 593q-15 -8 -15 -25q0 -35 77 -264h4l139 218q21 32 21 53q0 24 -57 28l-2 4l11 37q72 -8 104 -8l89 4l3 -6l-11 -35q-45 -8 -65 -26.5t-46 -57.5q-157 -234 -159.5 -239t-6 -16t-6 -18t-5 -24.5t-3.5 -27.5q-14 -92 -14 -109.5t3 -24.5q6 -15 32 -15l47 3l2 -4 l-14 -43q-78 3 -109 3q-53 0 -119 -12l11 43q51 11 66.5 31.5t21.5 78.5q6 57 6 87.5t-15 72.5q-75 217 -77.5 223.5t-7 19t-7 15.5t-7.5 11t-9 10t-10.5 7t-14 6.5t-16.5 3.5t-21 3l-2 4l11 36q59 -4 93 -4q68 0 147 9l2 -7l-8 -33q-48 -4 -63 -12zM453.5 741.5 q-16.5 -16.5 -36.5 -16.5q-38 0 -38 38q0 22 16.5 38.5t36 16.5t29 -11t9.5 -30t-16.5 -35.5zM293.5 741.5q-16.5 -16.5 -36.5 -16.5q-38 0 -38 38q0 22 16 38.5t36 16.5t29.5 -11t9.5 -30t-16.5 -35.5z" />
<glyph unicode="&#x179;" horiz-adv-x="546" d="M447 13l-16 -16l-344 6l-69 -6l-8 31l429 568l-170 -6q-66 -1 -98 -31.5t-49 -107.5l-44 -4q28 101 41 192l11 9l167 -11l244 -7l7 -28q-213 -252 -442 -566l199 7q50 1 85.5 41t62.5 126l43 5q-33 -107 -49 -202zM509 787l-4 -10q-101 -34 -206 -74l-8 5l-6 24l199 109 l9 -6z" />
<glyph unicode="&#x17a;" horiz-adv-x="471" d="M389 11l-14 -13l-290 4l-57 -5l-9 28l343 433l-129 -5q-53 -1 -77.5 -24t-38.5 -81l-44 -4q23 84 33 156l9 7l138 -9l208 -4l7 -25q-148 -167 -354 -432l154 6q40 1 68 31.5t49 95.5l43 5q-27 -89 -39 -164zM443 647l-4 -10q-101 -34 -206 -74l-8 5l-6 24l199 109l9 -6z " />
<glyph unicode="&#x17b;" horiz-adv-x="546" d="M447 13l-16 -16l-344 6l-69 -6l-8 31l429 568l-170 -6q-66 -1 -98 -31.5t-49 -107.5l-44 -4q28 101 41 192l11 9l167 -11l244 -7l7 -28q-213 -252 -442 -566l199 7q50 1 85.5 41t62.5 126l43 5q-33 -107 -49 -202zM387 738.5q-19 -19.5 -43 -19.5t-35 13t-11 35.5t19 42 t43 19.5t35 -13t11 -35.5t-19 -42z" />
<glyph unicode="&#x17c;" horiz-adv-x="471" d="M389 11l-14 -13l-290 4l-57 -5l-9 28l343 433l-129 -5q-53 -1 -77.5 -24t-38.5 -81l-44 -4q23 84 33 156l9 7l138 -9l208 -4l7 -25q-148 -167 -354 -432l154 6q40 1 68 31.5t49 95.5l43 5q-27 -89 -39 -164zM338 598.5q-19 -19.5 -43 -19.5t-35 13t-11 35.5t19.5 42 t43 19.5t34.5 -13t11 -35.5t-19 -42z" />
<glyph unicode="&#x17d;" horiz-adv-x="546" d="M447 13l-16 -16l-344 6l-69 -6l-8 31l429 568l-170 -6q-66 -1 -98 -31.5t-49 -107.5l-44 -4q28 101 41 192l11 9l167 -11l244 -7l7 -28q-213 -252 -442 -566l199 7q50 1 85.5 41t62.5 126l43 5q-33 -107 -49 -202zM486 837l12 -22l-148 -111h-13l-120 111l16 22l10 1 l109 -65l125 65z" />
<glyph unicode="&#x17e;" horiz-adv-x="471" d="M389 11l-14 -13l-290 4l-57 -5l-9 28l343 433l-129 -5q-53 -1 -77.5 -24t-38.5 -81l-44 -4q23 84 33 156l9 7l138 -9l208 -4l7 -25q-148 -167 -354 -432l154 6q40 1 68 31.5t49 95.5l43 5q-27 -89 -39 -164zM436 697l12 -22l-148 -111h-13l-120 111l16 22l10 1l109 -65 l125 65z" />
<glyph unicode="&#x192;" horiz-adv-x="369" d="M218 434l-7 -77l130 3l3 -3l-10 -53l-128 3l-30 -328q-6 -60 -53 -99t-104 -39q-30 0 -54.5 10t-24.5 24.5t6 39t12 30.5h11q11 -26 34 -44.5t49 -18.5q50 0 57 75l32 319q0 24 -9.5 28.5t-55.5 5.5l-4 6l7 34l70 10l10 97q6 62 48 101.5t100 39.5q36 0 66.5 -10.5 t30.5 -26t-6 -41t-12 -32.5h-13q-13 27 -39.5 47t-50 20t-35.5 -8.5t-18 -28.5q-12 -42 -12 -84z" />
<glyph unicode="&#x1fa;" horiz-adv-x="558" d="M287 -10l-2 7l8 36q55 4 73.5 14t18.5 36q0 13 -22 151q-24 1 -83.5 1t-123.5 -8l-49 -108q-14 -29 -14 -46q0 -36 53 -36h56v-3l-10 -41q-68 7 -132 7l-105 -3l13 45q29 3 47.5 19.5t38.5 58.5l248 511l56 17l8 1q44 -307 90 -538q7 -38 24.5 -52.5t59.5 -19.5l2 -3 l-11 -39q-69 3 -117.5 3t-126.5 -10zM264 271q47 0 91 6l-44 267h-7l-125 -273h85zM355 704q43 0 43 40q0 38 -41 38t-41 -41q0 -18 12.5 -27.5t26.5 -9.5zM406 696q-24 -27 -56.5 -27t-48 17t-15.5 49.5t24 57t57 24.5t48 -17t15 -47t-24 -57zM474 893l-3 -9 q-91 -30 -186 -66l-7 4l-5 22l179 98l8 -6z" />
<glyph unicode="&#x1fb;" horiz-adv-x="490" d="M312 176l-80 1q-33 0 -84 -6l-36 -77q-11 -21 -11 -33q0 -26 41 -26h43v-3l-8 -37q-58 5 -110 5l-89 -2l11 40q22 2 37 14.5t30 43.5l197 397l67 14l7 -1q38 -249 74 -414q6 -30 19.5 -41.5t45.5 -14.5l2 -3l-9 -35q-58 2 -86 2q-45 0 -122 -7l-2 5l7 34q44 3 58 10.5 t14 23.5q0 13 -16 110zM235 215q34 0 70 4l-34 197h-7l-95 -201h66zM299 564q43 0 43 40q0 38 -41 38t-41 -41q0 -18 12.5 -27.5t26.5 -9.5zM350 556q-24 -27 -56.5 -27t-48 17t-15.5 49.5t24 57t57 24.5t48 -17t15 -47t-24 -57zM411 753l-3 -9q-91 -30 -186 -66l-7 4l-5 22 l179 98l8 -6z" />
<glyph unicode="&#x1fc;" horiz-adv-x="781" d="M367 117v36l-2 124l-185 -17l-84 -140q-21 -35 -21 -51.5t11 -23t38 -6.5h54l-11 -46q-71 7 -132 7l-66 -4l-2 34q36 35 71 91l291 458q-3 16 -22 16l-33 -2l-2 4l13 43q0 -3 182.5 -3t258.5 12l2 -6q-25 -73 -42 -165l-47 -4q9 38 9 67t-26.5 38t-94.5 9t-81 -6.5 t-13 -24.5l2 -230l116 11l90 13l4 -5l-19 -52l-83 -2l-108 -9l6 -171q1 -37 17.5 -52.5t59 -15.5t67.5 2.5t45.5 8.5t31.5 21q23 29 38 90l44 5l3 -5q-28 -83 -47 -167l-5 -6q2 2 -121 4.5t-163 2.5q-72 0 -150 -10l-1 7l6 38q47 3 74 25t27 57zM213 310l151 11l-1 219h-9z M639 847l-1 -11q-84 -64 -168 -140l-9 2l-20 19q73 79 150 173l10 -2z" />
<glyph unicode="&#x1fd;" horiz-adv-x="676" d="M316 93l1 27l-2 88l-77 -6l-71 -10l-61 -97q-16 -27 -16 -38t9 -15.5t32 -4.5l39 -1l-10 -41q-66 5 -115 5l-55 -3l-1 34q6 0 25.5 24t31.5 42l226 348q-3 14 -18 14l-26 -1l-3 4l11 38q77 -2 198.5 -2t189.5 9l2 -5q-20 -62 -34 -134l-49 -4q7 29 7 51t-20 29t-72 7 t-62 -5.5t-10 -18.5l3 -166l88 9l75 12l5 -6l-16 -49l-70 -3l-81 -7l5 -121q1 -29 13.5 -41t42.5 -12q79 0 102.5 15.5t40.5 78.5l45 4l3 -5q-23 -66 -38 -136l-5 -5q2 2 -100.5 3.5t-138.5 1.5q-52 0 -127 -7l-2 5l6 36q79 6 79 59zM197 243l117 9l-1 161h-9zM550 707 l-1 -11q-84 -64 -168 -140l-9 2l-20 19q73 79 150 173l10 -2z" />
<glyph unicode="&#x1fe;" horiz-adv-x="663" d="M45 254q0 162 103.5 278t248.5 116q45 0 85 -14l39 74l29 -7l3 -12l-38 -70q60 -32 94.5 -94.5t34.5 -142.5q0 -163 -105.5 -278.5t-252.5 -115.5q-47 0 -94 18l-55 -104l-27 6l-2 10l53 103q-55 33 -85.5 94t-30.5 139zM311 35q106 0 176 87.5t70 224.5t-78 205 l-258 -491q40 -26 90 -26zM196 504.5q-69 -88.5 -69 -220t67 -200.5l256 488q-39 21 -82 21q-103 0 -172 -88.5zM526 787l-4 -10q-101 -34 -206 -74l-8 5l-6 24l199 109l9 -6z" />
<glyph unicode="&#x1ff;" horiz-adv-x="564" d="M137 21q-90 56 -90 182.5t83 215t204 88.5q37 0 72 -11l32 57l27 -8l2 -10l-30 -52q48 -26 75 -74t27 -111q0 -130 -84.5 -218.5t-206.5 -88.5q-41 0 -83 15l-48 -83l-25 7l-2 8zM269 37q81 0 133 65.5t52 167t-54 150.5l-205 -362q31 -21 74 -21zM179.5 388 q-51.5 -66 -51.5 -162t43 -145l202 358q-30 15 -63 15q-79 0 -130.5 -66zM457 672l-4 -10q-101 -34 -206 -74l-8 5l-6 24l199 109l9 -6z" />
<glyph unicode="&#x218;" horiz-adv-x="509" d="M192 -12q-40 0 -79 8t-77 25l-4 10q22 75 34 174l41 5q-5 -46 -5 -85.5t11 -59.5q19 -33 91.5 -33t114.5 34t42 88q0 36 -27 63.5t-95.5 68t-93.5 64.5q-48 46 -49 100q0 82 67 140t165 58q76 0 152 -24l2 -5q-24 -77 -41 -169l-36 -4l-5 5q11 44 11 79.5t-23.5 52 t-81 16.5t-97 -30.5t-39.5 -78.5t73 -100q17 -11 50.5 -31t55 -34t45.5 -34q48 -40 48 -96q0 -89 -70 -148t-180 -59zM145 -93q34 26 57.5 26t39 -19.5t15.5 -51.5q0 -49 -38 -88.5t-90 -66.5l-18 15v10q31 19 51.5 46.5t20.5 52.5q0 38 -40 62z" />
<glyph unicode="&#x219;" horiz-adv-x="441" d="M169 -9q-68 0 -116 19l-16 7l-3 9q18 61 28 135l41 4q-4 -33 -4 -62t9 -44q16 -25 72 -25t88.5 24t32.5 57t-22 53.5t-81 53t-86 60.5t-27 66q0 67 57 113t141 46q64 0 128 -20l2 -5q-20 -61 -34 -133l-36 -3l-5 4q8 32 8 58t-18.5 38.5t-63.5 12.5t-75.5 -22t-30.5 -57 t60 -74q13 -8 41 -23t45 -26t37 -27q39 -31 39 -76q0 -71 -59 -117t-152 -46zM129 -93q34 26 57.5 26t39 -19.5t15.5 -51.5q0 -49 -38 -88.5t-90 -66.5l-18 15v10q31 19 51.5 46.5t20.5 52.5q0 38 -40 62z" />
<glyph unicode="&#x21a;" horiz-adv-x="526" d="M549 641q-6 -69 -6 -107v-57l-44 -4q-1 35 -1.5 51t-7 33.5t-12.5 22.5t-26.5 11.5t-39.5 7.5t-61 3q-15 -71 -46.5 -276.5t-31.5 -233t11 -39.5t36 -12l55 3l2 -4l-14 -43q-94 3 -140 3l-129 -4l12 40q68 7 85 26t27 100l53 440q-46 -2 -66 -3t-44 -7t-31 -11t-18 -22.5 t-15 -32t-13 -49.5l-44 -4q22 85 35 168l10 7l76 -11h298l82 11zM167 -93q34 26 57.5 26t39 -19.5t15.5 -51.5q0 -49 -38 -88.5t-90 -66.5l-18 15v10q31 19 51.5 46.5t20.5 52.5q0 38 -40 62z" />
<glyph unicode="&#x21b;" horiz-adv-x="456" d="M247 78q0 -40 39 -40l44 2l2 -3l-12 -40q-81 3 -120 3l-113 -4l10 38q56 5 69.5 19.5t21.5 73.5l41 333q-78 -2 -96 -10q-27 -13 -47 -88l-44 -4q18 74 28 142l9 7l66 -9h245l71 9l7 -7l-6 -138l-44 -4q-1 73 -18 86.5t-94 15.5q-11 -53 -35 -205.5t-24 -176.5zM147 -93 q34 26 57.5 26t39 -19.5t15.5 -51.5q0 -49 -38 -88.5t-90 -66.5l-18 15v10q31 19 51.5 46.5t20.5 52.5q0 38 -40 62z" />
<glyph unicode="&#x237;" horiz-adv-x="280" d="M102 91q42 338 42 347t-3.5 15.5t-20.5 6.5l-38 -3l-1 4l10 36l88 1l98 6l-8 -39q-28 -4 -37 -11.5t-13 -31.5q-31 -181 -51 -334q-10 -79 -48 -127t-112 -75l-12 27l2 7q52 29 73.5 64.5t30.5 106.5z" />
<glyph unicode="&#x2c6;" d="M103 528l-12 22l152 153h14l115 -153l-17 -22l-9 -1l-105 97l-129 -97z" />
<glyph unicode="&#x2c7;" d="M102 686l19 23l8 1q47 -48 110 -101q98 71 135 101l8 -1l13 -23q-66 -64 -160 -160h-13q-63 89 -120 160z" />
<glyph unicode="&#x2d8;" d="M240 616q68 0 100 66h9l14 -10q-17 -48 -50 -81t-80 -33t-72.5 33t-30.5 81l17 10h8q17 -66 85 -66z" />
<glyph unicode="&#x2d9;" d="M279.5 621.5q-19.5 -19.5 -43 -19.5t-34.5 13t-11 35.5t19 42t43 19.5t35 -13t11 -35.5t-19.5 -42z" />
<glyph unicode="&#x2da;" d="M237 582q48 0 48 45q0 42 -44 42q-22 0 -34.5 -12t-12.5 -33t13.5 -31.5t29.5 -10.5zM293.5 573.5q-26.5 -29.5 -62.5 -29.5t-53 18.5t-17 54.5t26.5 63.5t63.5 27.5t53 -19t16 -52.5t-26.5 -63z" />
<glyph unicode="&#x2db;" d="M68 -219q-26 22 -26 55.5t20.5 65.5t45.5 56q47 48 89 84h41q-81 -77 -106.5 -109t-25.5 -60t13.5 -41.5t32.5 -13.5q34 0 80 23l10 -19q-53 -46 -104 -63q-44 0 -70 22z" />
<glyph unicode="&#x2dc;" d="M246.5 653.5q53.5 -16.5 65.5 -16.5q21 0 56 41l12 14h6l20 -21l-1 -5l-84 -89l-16 -4q-17 0 -70 16.5t-64.5 16.5t-28.5 -14t-40 -41h-7l-19 21l1 5l84 89l15 4q17 0 70.5 -16.5z" />
<glyph unicode="&#x2dd;" d="M295 664l-2 -9q-76 -55 -155 -121l-9 2l-16 18l140 151l9 -3zM423 664l-2 -9q-76 -55 -155 -121l-9 2l-16 18l140 151l9 -3z" />
<glyph unicode="&#x323;" horiz-adv-x="378" d="M185.5 -172q-19.5 -20 -46.5 -20t-39.5 14.5t-12.5 39t19.5 45t46 20.5t39.5 -14t13 -39.5t-19.5 -45.5z" />
<glyph unicode="&#x394;" horiz-adv-x="520" d="M-10 0l-8 13l299 619l68 17h8q62 -417 107 -642l-8 -7h-466zM297 540h-7l-226 -483h309z" />
<glyph unicode="&#x3a9;" horiz-adv-x="816" d="M31 10q4 39 4 79t-2 80l39 5q1 -68 18.5 -93t64.5 -25h87q-56 51 -87 121.5t-31 143.5q0 136 98.5 232t236.5 96q114 0 186.5 -68.5t72.5 -172.5t-55.5 -197.5t-147.5 -154.5h101q46 0 69 23.5t42 89.5l41 5q-30 -92 -40 -164l-17 -16l-244 14l-41 -6l-4 21 q113 93 158.5 173.5t45.5 178.5t-47.5 156t-127.5 58q-105 0 -173 -74.5t-68 -195.5q0 -85 32 -164t90 -131l-10 -23l-40 7l-237 -14z" />
<glyph unicode="&#x3bc;" horiz-adv-x="500" d="M126 135q0 -78 69 -78q26 0 51 14q40 23 62 42l28 233l5 93l5 7l88 18l5 -12q-11 -21 -38 -171.5t-27 -186t34 -35.5q25 0 60 25l12 -16q-26 -33 -53 -56.5t-42 -23.5q-38 0 -57.5 18.5t-19.5 51.5v7l-5 2q-88 -69 -132 -79q-40 0 -68 26l-5 -3q-24 -142 -24 -207v-24 l-6 -7l-68 -15l-5 12q28 142 51 303l38 255q6 46 6 94v16l6 7l89 19l4 -12q-13 -28 -38 -160.5t-25 -156.5z" />
<glyph unicode="&#x3c0;" horiz-adv-x="577" d="M406 131q0 -41 18.5 -60t59.5 -19l5 -7q-1 -8 -23.5 -32.5t-28.5 -24.5q-100 0 -100 97q0 16 3 34q40 280 40 294.5t-9.5 21.5t-61 7t-63.5 -7.5t-18 -42.5q-34 -186 -57 -370l-9 -101l-5 -7l-74 -16l-5 12q7 12 42.5 236.5t35.5 252.5t-8 35.5t-24 7.5t-32.5 -16.5 t-36.5 -49.5l-7 -1l-23 18v7l71 98l15 7q61 0 184 -5t147 -5q48 0 140 10l5 -7l-16 -46l-7 -7q-64 0 -84.5 -10t-27.5 -44.5t-15.5 -78t-13 -66t-9.5 -48.5q-8 -48 -8 -67z" />
<glyph unicode="&#x1e80;" horiz-adv-x="897" d="M271 93q3 7 185 387q-4 10 -11 56q-12 56 -81 59l-1 4l12 40q75 -3 103 -3q53 0 143 12l1 -7l-8 -37q-58 -4 -74 -12.5t-16 -30.5q0 -44 64 -468h6q12 26 46 97.5t58.5 123.5t52.5 112q58 124 58 142q0 31 -62 31h-48l-2 4l12 41q71 -8 132 -8l101 4l-12 -45 q-28 -2 -41 -10.5t-27 -37.5l-270 -542l-57 -22l-68 432h-6l-189 -410l-59 -22q-43 288 -92 555q-10 56 -79 57l-2 4l11 40q76 -3 106 -3q60 0 140 12l2 -7l-7 -37q-57 -4 -73.5 -12.5t-16.5 -33.5q0 -42 63 -465h6zM380 777l-4 10l16 48l9 6q105 -60 199 -109l-6 -24l-8 -5 z" />
<glyph unicode="&#x1e81;" horiz-adv-x="762" d="M53 500q62 -3 89 -3q43 0 119 9l2 -6l-7 -34q-44 -3 -57.5 -10t-13.5 -26q0 -41 48 -349h7l142 296l-7 40q-8 42 -64 43l-1 4l10 36q64 -3 90 -3q38 0 121 9l2 -6l-8 -34q-45 -4 -58 -10.5t-13 -24.5q0 -42 49 -350h7q9 19 35.5 74t44.5 93.5t40 83.5q44 95 44 108 q0 22 -47 22h-37l-2 4l10 37q60 -6 109 -6l85 3l-10 -40q-22 -2 -32.5 -9t-21.5 -29l-210 -418l-68 -17l-52 320h-5l-143 -303l-69 -17q-37 237 -74 427q-9 45 -62 46l-2 4zM310 637l-4 10l16 48l9 6q105 -60 199 -109l-6 -24l-8 -5z" />
<glyph unicode="&#x1e82;" horiz-adv-x="897" d="M271 93q3 7 185 387q-4 10 -11 56q-12 56 -81 59l-1 4l12 40q75 -3 103 -3q53 0 143 12l1 -7l-8 -37q-58 -4 -74 -12.5t-16 -30.5q0 -44 64 -468h6q12 26 46 97.5t58.5 123.5t52.5 112q58 124 58 142q0 31 -62 31h-48l-2 4l12 41q71 -8 132 -8l101 4l-12 -45 q-28 -2 -41 -10.5t-27 -37.5l-270 -542l-57 -22l-68 432h-6l-189 -410l-59 -22q-43 288 -92 555q-10 56 -79 57l-2 4l11 40q76 -3 106 -3q60 0 140 12l2 -7l-7 -37q-57 -4 -73.5 -12.5t-16.5 -33.5q0 -42 63 -465h6zM683 787l-4 -10q-101 -34 -206 -74l-8 5l-6 24l199 109 l9 -6z" />
<glyph unicode="&#x1e83;" horiz-adv-x="762" d="M53 500q62 -3 89 -3q43 0 119 9l2 -6l-7 -34q-44 -3 -57.5 -10t-13.5 -26q0 -41 48 -349h7l142 296l-7 40q-8 42 -64 43l-1 4l10 36q64 -3 90 -3q38 0 121 9l2 -6l-8 -34q-45 -4 -58 -10.5t-13 -24.5q0 -42 49 -350h7q9 19 35.5 74t44.5 93.5t40 83.5q44 95 44 108 q0 22 -47 22h-37l-2 4l10 37q60 -6 109 -6l85 3l-10 -40q-22 -2 -32.5 -9t-21.5 -29l-210 -418l-68 -17l-52 320h-5l-143 -303l-69 -17q-37 237 -74 427q-9 45 -62 46l-2 4zM588 647l-4 -10q-101 -34 -206 -74l-8 5l-6 24l199 109l9 -6z" />
<glyph unicode="&#x1e84;" horiz-adv-x="897" d="M271 93q3 7 185 387q-4 10 -11 56q-12 56 -81 59l-1 4l12 40q75 -3 103 -3q53 0 143 12l1 -7l-8 -37q-58 -4 -74 -12.5t-16 -30.5q0 -44 64 -468h6q12 26 46 97.5t58.5 123.5t52.5 112q58 124 58 142q0 31 -62 31h-48l-2 4l12 41q71 -8 132 -8l101 4l-12 -45 q-28 -2 -41 -10.5t-27 -37.5l-270 -542l-57 -22l-68 432h-6l-189 -410l-59 -22q-43 288 -92 555q-10 56 -79 57l-2 4l11 40q76 -3 106 -3q60 0 140 12l2 -7l-7 -37q-57 -4 -73.5 -12.5t-16.5 -33.5q0 -42 63 -465h6zM634.5 741.5q-16.5 -16.5 -36.5 -16.5q-38 0 -38 38 q0 22 16.5 38.5t36 16.5t29 -11t9.5 -30t-16.5 -35.5zM474.5 741.5q-16.5 -16.5 -36.5 -16.5q-38 0 -38 38q0 22 16 38.5t36 16.5t29.5 -11t9.5 -30t-16.5 -35.5z" />
<glyph unicode="&#x1e85;" horiz-adv-x="762" d="M53 500q62 -3 89 -3q43 0 119 9l2 -6l-7 -34q-44 -3 -57.5 -10t-13.5 -26q0 -41 48 -349h7l142 296l-7 40q-8 42 -64 43l-1 4l10 36q64 -3 90 -3q38 0 121 9l2 -6l-8 -34q-45 -4 -58 -10.5t-13 -24.5q0 -42 49 -350h7q9 19 35.5 74t44.5 93.5t40 83.5q44 95 44 108 q0 22 -47 22h-37l-2 4l10 37q60 -6 109 -6l85 3l-10 -40q-22 -2 -32.5 -9t-21.5 -29l-210 -418l-68 -17l-52 320h-5l-143 -303l-69 -17q-37 237 -74 427q-9 45 -62 46l-2 4zM395.5 601.5q-16.5 -16.5 -36.5 -16.5q-38 0 -38 38q0 22 16 38.5t36 16.5t29.5 -11t9.5 -30 t-16.5 -35.5zM555.5 601.5q-16.5 -16.5 -36.5 -16.5q-38 0 -38 38q0 22 16.5 38.5t36 16.5t29 -11t9.5 -30t-16.5 -35.5z" />
<glyph unicode="&#x1ef2;" horiz-adv-x="520" d="M210 593q-15 -8 -15 -25q0 -35 77 -264h4l139 218q21 32 21 53q0 24 -57 28l-2 4l11 37q72 -8 104 -8l89 4l3 -6l-11 -35q-45 -8 -65 -26.5t-46 -57.5q-157 -234 -159.5 -239t-6 -16t-6 -18t-5 -24.5t-3.5 -27.5q-14 -92 -14 -109.5t3 -24.5q6 -15 32 -15l47 3l2 -4 l-14 -43q-78 3 -109 3q-53 0 -119 -12l11 43q51 11 66.5 31.5t21.5 78.5q6 57 6 87.5t-15 72.5q-75 217 -77.5 223.5t-7 19t-7 15.5t-7.5 11t-9 10t-10.5 7t-14 6.5t-16.5 3.5t-21 3l-2 4l11 36q59 -4 93 -4q68 0 147 9l2 -7l-8 -33q-48 -4 -63 -12zM199 777l-4 10l16 48 l9 6q105 -60 199 -109l-6 -24l-8 -5z" />
<glyph unicode="&#x1ef3;" horiz-adv-x="461" d="M333 503l90 -6l75 3l3 -5l-10 -33q-43 -8 -72 -44q-16 -19 -78 -109t-65 -96t-5.5 -10.5t-4.5 -13t-3 -13t-3 -16.5l-3 -18q-9 -61 -9 -74t4.5 -21.5t25.5 -8.5l39 2l1 -3l-11 -40q-71 3 -97 3q-52 0 -108 -9l10 39q43 8 56 23.5t18 58.5q4 44 4 65.5t-13 53.5l-54 144 q-21 55 -34.5 68.5t-51.5 18.5l-2 4l10 34q54 -3 89 -3l116 7l2 -6l-7 -31q-37 -3 -49 -9t-12 -17.5t10 -42.5q10 -34 50 -151h5l104 158q17 25 17 41t-45 19l-2 4zM163 637l-4 10l16 48l9 6q105 -60 199 -109l-6 -24l-8 -5z" />
<glyph unicode="&#x2013;" horiz-adv-x="439" d="M438 226l-438 -2l-4 9l16 49q144 -1 269.5 -1t166.5 6l4 -10z" />
<glyph unicode="&#x2014;" horiz-adv-x="879" d="M878 226l-878 -2l-4 9l16 49h113l227 -1h109l426 6l5 -10z" />
<glyph unicode="&#x2018;" horiz-adv-x="171" d="M175 449q-34 -26 -57.5 -26t-39 19.5t-15.5 51.5q0 49 38 88.5t90 66.5l18 -15v-10q-31 -19 -51.5 -46.5t-20.5 -52.5q0 -38 40 -62z" />
<glyph unicode="&#x2019;" horiz-adv-x="171" d="M75 623q34 26 57.5 26t39 -19.5t15.5 -51.5q0 -49 -38 -88.5t-90 -66.5l-18 15v10q31 19 51.5 46.5t20.5 52.5q0 38 -40 62z" />
<glyph unicode="&#x201a;" horiz-adv-x="228" d="M30 73q34 26 57 26t37.5 -20.5t14.5 -65t-42 -91t-98 -79.5l-18 15v10q35 24 57 57t22 68.5t-32 65.5z" />
<glyph unicode="&#x201c;" horiz-adv-x="322" d="M387 449q-34 -26 -57.5 -26t-39 19.5t-15.5 51.5q0 49 38 88.5t90 66.5l18 -15v-10q-31 -19 -51.5 -46.5t-20.5 -52.5q0 -38 40 -62zM237 449q-34 -26 -57.5 -26t-39 19.5t-15.5 51.5q0 49 38 88.5t90 66.5l18 -15v-10q-31 -19 -51.5 -46.5t-20.5 -52.5q0 -38 40 -62z " />
<glyph unicode="&#x201d;" horiz-adv-x="322" d="M290 623q34 26 57.5 26t39 -19.5t15.5 -51.5q0 -49 -38 -88.5t-90 -66.5l-18 15v10q31 19 51.5 46.5t20.5 52.5q0 38 -40 62zM140 623q34 26 57.5 26t39 -19.5t15.5 -51.5q0 -49 -38 -88.5t-90 -66.5l-18 15v10q31 19 51.5 46.5t20.5 52.5q0 38 -40 62z" />
<glyph unicode="&#x201e;" horiz-adv-x="383" d="M31 73q34 26 57.5 26t39 -19.5t15.5 -51.5q0 -49 -38 -88.5t-90 -66.5l-18 15v10q31 19 51.5 46.5t20.5 52.5q0 38 -40 62zM186 73q34 26 57.5 26t39 -19.5t15.5 -51.5q0 -49 -38 -88.5t-90 -66.5l-18 15v10q31 19 51.5 46.5t20.5 52.5q0 38 -40 62z" />
<glyph unicode="&#x2020;" horiz-adv-x="454" d="M218 308l51 3l-43 -395l-61 -9l-10 8zM281 404l-51 -3l18 188l60 9l10 -8zM289 333l9 53l159 13l6 -9l-16 -62zM214 386l-9 -53l-157 -15l-6 11l16 62z" />
<glyph unicode="&#x2021;" horiz-adv-x="454" d="M191 90l52 3l-17 -177l-61 -9l-10 8zM263 116l8 53l159 13l7 -9l-17 -62zM188 169l-10 -53l-156 -15l-7 11l17 62zM221 335l54 4l-19 -150l-53 -4zM284 431l-51 -3l15 161l60 9l10 -8zM293 361l8 53l159 13l7 -9l-16 -62zM218 414l-10 -53l-156 -15l-6 11l16 62z" />
<glyph unicode="&#x2022;" horiz-adv-x="326" d="M236.5 153.5q-35.5 -36.5 -83 -36.5t-72 27.5t-24.5 73.5t35.5 83t82.5 37t72 -28t25 -74t-35.5 -82.5z" />
<glyph unicode="&#x2024;" horiz-adv-x="229" d="M133 8.5q-20 -20.5 -47 -20.5t-39.5 14.5t-12.5 39t20 45t46.5 20.5t39.5 -14t13 -39t-20 -45.5z" />
<glyph unicode="&#x2025;" horiz-adv-x="431" d="M139 8.5q-20 -20.5 -47 -20.5t-39.5 14.5t-12.5 39t20 45t46.5 20.5t39.5 -14t13 -39t-20 -45.5zM328 8.5q-20 -20.5 -47 -20.5t-39.5 14.5t-12.5 39t20 45t46.5 20.5t39.5 -14t13 -39t-20 -45.5z" />
<glyph unicode="&#x2026;" horiz-adv-x="633" d="M334 8.5q-20 -20.5 -47 -20.5t-39.5 14.5t-12.5 39t20 45t46.5 20.5t39.5 -14t13 -39t-20 -45.5zM537 8.5q-20 -20.5 -47 -20.5t-39.5 14.5t-12.5 39t20 45t46.5 20.5t39.5 -14t13 -39t-20 -45.5zM132 8.5q-20 -20.5 -47 -20.5t-39.5 14.5t-12.5 39t20 45t46.5 20.5 t39.5 -14t13 -39t-20 -45.5z" />
<glyph unicode="&#x2030;" horiz-adv-x="966" d="M136.5 413q25.5 -23 62 -23t66 22.5t29.5 70.5t-23.5 74t-65.5 26t-68 -28.5t-26 -73.5t25.5 -68zM183 326q-54 0 -87 37.5t-33 95.5q0 81 45.5 135.5t108.5 54.5t94.5 -38t31.5 -91q0 -78 -43.5 -136t-116.5 -58zM423.5 75q25.5 -23 61.5 -23t65.5 22.5t29.5 71t-23 74 t-65 25.5t-68 -28.5t-26 -73.5t25.5 -68zM470 -12q-54 0 -87 37.5t-33 95.5q0 81 45.5 135.5t108.5 54.5t94.5 -38t31.5 -91q0 -78 -43.5 -136t-116.5 -58zM743 75q25 -23 61.5 -23t66 22.5t29.5 71t-23 74t-65 25.5t-68 -28.5t-26 -73.5t25 -68zM789 -12q-53 0 -86 37.5 t-33 95.5q0 81 45 135.5t108.5 54.5t95 -38t31.5 -91q0 -77 -44 -135.5t-117 -58.5zM582 659l5 -14q-174 -259 -262 -400l-215 -340l-38 19l-5 12q133 202 476 742z" />
<glyph unicode="&#x2039;" horiz-adv-x="251" d="M206 400l20 -15v-10l-120 -149l83 -155l-3 -10l-24 -15l-144 166l2 15z" />
<glyph unicode="&#x203a;" horiz-adv-x="251" d="M46 46l-21 15l1 10l119 149l-82 155l2 10l24 15l145 -166l-2 -15z" />
<glyph unicode="&#x2044;" horiz-adv-x="125" d="M277 659l5 -14q-174 -259 -262 -400l-215 -340l-38 19l-5 12q133 202 476 742z" />
<glyph unicode="&#x2070;" horiz-adv-x="338" d="M148 343q-53 0 -82 40.5t-29 111.5q0 101 50 167t125 66q51 0 80.5 -40.5t29.5 -109.5q0 -102 -49.5 -168.5t-124.5 -66.5zM106.5 437.5q21.5 -28.5 64.5 -28.5t72.5 39t29.5 96t-22 86t-65 29t-72 -39.5t-29 -96.5t21.5 -85.5z" />
<glyph unicode="&#x2074;" horiz-adv-x="301" d="M10 458l6 34l192 235l4 1l39 -6l-25 -219h52l4 -7l-11 -44l-51 2l-8 -97l-5 -6l-62 -7l-4 6q11 58 17 105zM173 628l-100 -125h91l15 125h-6z" />
<glyph unicode="&#x2075;" horiz-adv-x="280" d="M245 491q0 -54 -61 -101t-127 -47q-23 0 -32 12.5t-9 27v17.5l8 7q26 -8 59.5 -8t62 21.5t28.5 53.5q0 55 -114 61l-4 7l31 168l6 5l120 4q31 1 42 25l30 3l-27 -85l-7 -6q-60 5 -128 5l-15 -77q71 -8 104 -30.5t33 -62.5z" />
<glyph unicode="&#x2076;" horiz-adv-x="302" d="M278 480q0 -57 -40.5 -97t-95 -40t-83 32.5t-28.5 86.5t25 102.5t60 77.5q73 59 132 78l25 8l5 -4l7 -27q-5 -2 -13 -5t-30.5 -16t-42.5 -28q-54 -42 -78 -98l1 -4q41 27 63 28q44 0 68.5 -27.5t24.5 -66.5zM197.5 508q-14.5 18 -40.5 18t-55 -20q-6 -26 -6 -46 q0 -74 52 -74q30 0 47 21t17 52t-14.5 49z" />
<glyph unicode="&#x2077;" horiz-adv-x="279" d="M151 720h132l17 -25q-57 -94 -163 -287l-25 -64h-8l-47 14l-5 15l180 292l-93 -5q-29 -2 -40 -12.5t-21 -44.5l-33 -4q17 68 27 121l4 3q36 -3 75 -3z" />
<glyph unicode="&#x2078;" horiz-adv-x="315" d="M33 423q0 68 86 106q-53 35 -53 82.5t37.5 82t84.5 34.5t75 -21t28 -57q0 -61 -69 -97q57 -34 57 -85t-41.5 -88t-93.5 -37t-81.5 22t-29.5 58zM110 399q16 -17 41.5 -17t45 18t19.5 37t-5 28.5t-19 18.5q-23 17 -46 29q-52 -26 -52 -73q0 -24 16 -41zM145 671.5 q-16 -15.5 -16 -33t10.5 -31t20.5 -20t32 -18.5q37 24 37 68q0 24 -12 37t-34 13t-38 -15.5z" />
<glyph unicode="&#x2079;" horiz-adv-x="301" d="M44 592q0 57 40 96.5t95 39.5t83.5 -32t28.5 -86t-25 -103t-60 -77q-74 -59 -132 -78l-25 -8l-5 3l-7 28q5 2 13 5t30.5 16t42 28t42 41.5t36.5 56.5l-2 3q-41 -26 -62 -27q-44 0 -68.5 27.5t-24.5 66.5zM123.5 563.5q14.5 -17.5 39 -17.5t56.5 19q7 25 7 53t-13.5 48 t-41.5 20t-45 -21t-17 -52.5t14.5 -49z" />
<glyph unicode="&#x207f;" horiz-adv-x="346" d="M323 419q-74 -75 -100.5 -75t-26.5 23q0 18 23 92t23 95.5t-20 21.5q-17 0 -46.5 -45.5t-59.5 -117.5l-6 -48q-1 -5 -20 -12t-34 -7l-7 8q33 199 34 218t-5 25t-21 6h-24l6 32l114 4l6 -9q-23 -68 -34 -135l4 -1q59 119 115 153q27 0 44 -17.5t17 -42.5t-23 -95.5 t-26 -83.5l2 -2q8 0 46 34l9 -2z" />
<glyph unicode="&#x2080;" horiz-adv-x="338" d="M148 -128q-53 0 -82 40.5t-29 111.5q0 101 50 167t125 66q51 0 80.5 -40.5t29.5 -109.5q0 -102 -49.5 -168.5t-124.5 -66.5zM106.5 -33.5q21.5 -28.5 64.5 -28.5t72.5 39t29.5 96t-22 86t-65 29t-72 -39.5t-29 -96.5t21.5 -85.5z" />
<glyph unicode="&#x2081;" horiz-adv-x="240" d="M149 -56q0 -29 24 -29l32 2l1 -3l-11 -36q-55 2 -86 2l-90 -7l9 35q30 2 44 13t17 38l26 209q2 22 -4 28.5t-24 6.5l-32 -3l-2 3l7 32q37 5 150 22l4 -15q-23 -19 -31 -58t-21 -130.5t-13 -109.5z" />
<glyph unicode="&#x2082;" horiz-adv-x="318" d="M202 160q0 38 -48 38t-91 -62h-8l-4 41q24 35 60 57.5t74.5 22.5t65.5 -21t27 -57.5t-35.5 -89t-130.5 -153.5l2 -5h76q31 0 44.5 11t25.5 46l39 4q-22 -62 -32 -111l-9 -6q-145 5 -201 5l-41 -7l-4 25l77 77q113 125 113 185z" />
<glyph unicode="&#x2083;" horiz-adv-x="284" d="M30 -64q26 -8 59 -8t61.5 20.5t28.5 51.5q0 52 -91 52l-5 5v32l42 9q25 12 41.5 32t16.5 38t-10 27.5t-26 9.5q-37 0 -73 -28h-7l-6 37q74 43 111 43t60 -18.5t23 -47.5t-21.5 -55t-57.5 -42l-1 -5q74 -22 74 -79q0 -49 -61 -93.5t-127 -44.5q-24 0 -31.5 11.5t-7.5 24.5 t1 21z" />
<glyph unicode="&#x2084;" horiz-adv-x="301" d="M10 -13l6 34l192 235l4 1l39 -6l-25 -219h52l4 -7l-11 -44l-51 2l-8 -97l-5 -6l-62 -7l-4 6q11 58 17 105zM173 157l-100 -125h91l15 125h-6z" />
<glyph unicode="&#x2085;" horiz-adv-x="280" d="M245 20q0 -54 -61 -101t-127 -47q-23 0 -32 12.5t-9 27v17.5l8 7q26 -8 59.5 -8t62 21.5t28.5 53.5q0 55 -114 61l-4 7l31 168l6 5l120 4q31 1 42 25l30 3l-27 -85l-7 -6q-60 5 -128 5l-15 -77q71 -8 104 -30.5t33 -62.5z" />
<glyph unicode="&#x2086;" horiz-adv-x="302" d="M278 9q0 -57 -40.5 -97t-95 -40t-83 32.5t-28.5 86.5t25 102.5t60 77.5q73 59 132 78l25 8l5 -4l7 -27q-5 -2 -13 -5t-30.5 -16t-42.5 -29q-54 -41 -78 -97l1 -4q41 27 63 28q44 0 68.5 -27.5t24.5 -66.5zM197.5 37q-14.5 18 -40.5 18t-55 -20q-6 -26 -6 -46 q0 -74 52 -74q30 0 47 21t17 52t-14.5 49z" />
<glyph unicode="&#x2087;" horiz-adv-x="279" d="M151 249h132l17 -25q-57 -94 -163 -287l-25 -64h-8l-47 14l-5 15l180 292l-93 -5q-29 -2 -40 -12.5t-21 -44.5l-33 -4q17 68 27 121l4 3q36 -3 75 -3z" />
<glyph unicode="&#x2088;" horiz-adv-x="315" d="M33 -48q0 68 86 106q-53 35 -53 82.5t37.5 82t84.5 34.5t75 -21t28 -57q0 -61 -69 -97q57 -34 57 -85t-41.5 -88t-93.5 -37t-81.5 22t-29.5 58zM110 -72q16 -17 41.5 -17t45 18t19.5 37t-5 28.5t-19 19.5q-23 16 -46 28q-52 -26 -52 -73q0 -24 16 -41zM145 200.5 q-16 -15.5 -16 -33t10.5 -31t20.5 -20t32 -18.5q37 24 37 68q0 24 -12 37t-34 13t-38 -15.5z" />
<glyph unicode="&#x2089;" horiz-adv-x="301" d="M44 121q0 57 40 96.5t95 39.5t83.5 -32t28.5 -86t-25 -103t-60 -78q-74 -58 -132 -77l-25 -8l-5 3l-7 28q5 2 13 5t30.5 16t42 28t42 41.5t36.5 56.5l-2 3q-41 -26 -62 -27q-44 0 -68.5 27.5t-24.5 66.5zM123.5 92.5q14.5 -17.5 39 -17.5t56.5 19q7 25 7 53t-13.5 48 t-41.5 20t-45 -21t-17 -52.5t14.5 -49z" />
<glyph unicode="&#x20a3;" horiz-adv-x="431" d="M231 -2l-107 2q-35 0 -97 -10l10 43q45 8 56.5 24.5t18.5 71.5h-64l-5 7l9 30h64l33 258q2 23 -1.5 30t-19.5 7l-32 -1l-1 8l11 37q68 -3 117 -3h48q68 0 182 11l4 -7q-21 -63 -35 -136l-50 -3q7 35 7 55.5t-18 27t-58 6.5t-50.5 -1.5t-15.5 -8.5t-8 -19t-5 -21.5 t-3.5 -25t-15.5 -100.5q21 -1 77 -1l88 10l5 -8l-20 -51q-22 1 -42 2t-35 1l-81 -5l-11 -62h91l4 -7l-8 -30h-91q-7 -46 -7 -58.5t4 -20.5t20.5 -8t54.5 2l1 -8l-13 -38h-11z" />
<glyph unicode="&#x20ac;" horiz-adv-x="564" d="M316 37q100 0 142 120l46 4q-24 -74 -36 -131l-6 -8q-65 -31 -157.5 -31t-150 48t-67.5 131h-79l-4 7l8 29h74q0 37 10 79h-74l-4 7l8 29h82q33 85 107.5 135.5t173.5 50.5q62 0 146 -19l3 -6q-23 -60 -37 -134l-46 -4q7 33 7 48q0 63 -101 63q-63 0 -109 -35.5 t-66 -98.5h5l175 4l5 -9l-7 -30l-187 -1q-6 -30 -6 -65v-14h6l175 4l5 -9l-7 -30l-175 -1q11 -63 47.5 -98t93.5 -35z" />
<glyph unicode="&#x2122;" horiz-adv-x="543" d="M453 638l45 -1l39 2q1 0 1 -0.5t1 -0.5l-5 -22q-17 -1 -23 -5t-8.5 -22.5t-4.5 -85t1 -73.5t12 -7l11 1l2 -2l-7 -23q-23 1 -55 1t-38 -3l5 24q23 3 24 18l8 128h-3q-38 -73 -82 -170l-26 -3q-20 98 -40 173h-3q-25 -128 -25 -136t11 -8l14 1l1 -2l-7 -23q-32 1 -44 1 l-39 -3l6 24q21 3 26 27q33 139 33 153q0 12 -28 15l-1 2l5 21q35 -2 48 -2l41 2q12 -73 32 -155h3q33 70 70 154zM151 610q-25 -138 -25 -162t18 -24l22 1l1 -2l-7 -25q-45 2 -65 2l-64 -2l6 23q26 3 33 9.5t10 30.5l19 149q-31 -1 -40 -8t-17 -40l-31 -3q8 43 14 79l4 3 l37 -4h121l39 4l4 -3l-5 -76l-31 -3q-1 35 -7.5 42.5t-35.5 8.5z" />
<glyph unicode="&#x212e;" horiz-adv-x="797" d="M180 311q-5 0 -5 -4v-181q0 -10 9 -21q91 -97 230.5 -97t232.5 109h54q-51 -60 -128 -94.5t-164 -34.5q-152 0 -260.5 97t-108.5 234.5t108 234.5t260.5 97t260.5 -97t108 -235v-8h-597zM643 516q0 12 -10 22q-93 93 -224 93t-224 -96q-10 -10 -10 -23v-178q0 -5 5 -5 h458q5 0 5 5v182z" />
<glyph unicode="&#x2202;" horiz-adv-x="488" d="M454 292q0 -128 -73 -216t-176 -88q-83 0 -125.5 55t-42.5 135q0 112 72.5 193.5t167.5 81.5q26 0 72 -26l2 2q-48 175 -242 275l20 33l10 4q140 -65 227.5 -181t87.5 -268zM369 277q0 47 -3 75q-33 47 -102 47t-106.5 -52t-37.5 -134.5t31 -129t87.5 -46.5t93.5 62 t37 178z" />
<glyph unicode="&#x220f;" horiz-adv-x="680" d="M592 538q-68 -404 -68 -439.5t8 -45t28 -9.5l51 3l1 -4l-14 -46q-81 3 -114 3q-56 0 -126 -12l11 46q46 9 64 26t23.5 64t19.5 153q32 242 32 268t-22 32.5t-98.5 6.5t-100 -8t-28.5 -38q-68 -392 -68 -436.5t10.5 -51t25.5 -6.5l50 3l2 -4l-14 -46q-26 1 -48.5 2 t-51.5 1t-84 -4t-57 -8l12 46q45 9 63 26t24 64.5t20 154.5q33 252 33 273t-7 28.5t-24 7.5l-40 -2l-1 4l13 50q75 -3 115 -3h296q32 0 90 3t60 6l-10 -51q-41 -5 -56 -16.5t-20 -40.5z" />
<glyph unicode="&#x2211;" horiz-adv-x="513" d="M439 461q0 64 -21.5 93.5t-89.5 32.5l-159 7l146 -262l-2 -16l-230 -271l179 7q54 2 88 42t58 119l48 5q-35 -109 -49 -205l-17 -16l-341 6l-52 -8l-17 13l259 296l-168 295l17 32l2 -1q0 1 1 1q310 10 393 18l9 -9q-8 -82 -10 -183l-44 -8v12z" />
<glyph unicode="&#x2212;" horiz-adv-x="486" d="M472 297l5 -10l-14 -51l-438 -2l-5 9l17 49q143 -1 229 -1z" />
<glyph unicode="&#x221a;" horiz-adv-x="486" d="M34 412h-4l-3 4l9 33q44 2 123 6l6 -8q0 -67 60 -359h6l257 641l17 13h45l-303 -734l-67 -20q-67 294 -89 378q-11 46 -57 46z" />
<glyph unicode="&#x221e;" horiz-adv-x="486" d="M159 400q70 0 106 -87q52 87 119 87q43 0 68 -33.5t25 -80.5q0 -72 -42.5 -120.5t-97.5 -48.5q-72 0 -107 89q-51 -89 -118 -89q-44 0 -69 33.5t-25 80.5q0 71 43 120t98 49zM130 177q55 0 90 58q-12 35 -20.5 54.5t-26.5 37t-43.5 17.5t-48.5 -26t-23 -62.5t19 -57.5 t53 -21zM364 340q-52 0 -89 -56q13 -37 21.5 -56.5t26 -37t43 -17.5t48.5 26t23 62.5t-19 57.5t-54 21z" />
<glyph unicode="&#x222b;" horiz-adv-x="386" d="M327 599q32 0 59.5 -10.5t27.5 -25.5t-6 -41t-12 -33h-13q-11 27 -35 47t-48 20t-39.5 -15.5t-16.5 -43.5l-31 -513q-4 -62 -50.5 -102t-104.5 -40q-30 0 -54.5 10t-24.5 24.5t6 39t12 30.5h11q11 -26 34 -44.5t47.5 -18.5t40.5 18.5t18 56.5l32 507q3 54 46.5 94 t100.5 40z" />
<glyph unicode="&#x2248;" horiz-adv-x="486" d="M267 381.5q87 -21.5 102 -21.5q24 0 61 42l12 13h6l20 -21l-1 -5l-85 -89l-16 -4q-26 0 -112.5 21.5t-101.5 21.5q-27 0 -62 -41l-12 -14h-6l-19 21v5l85 89l16 4q26 0 113 -21.5zM247 219.5q87 -21.5 103 -21.5q23 0 60 42l12 13h6l20 -21l-1 -5l-85 -89l-16 -4 q-26 0 -112.5 21.5t-101.5 21.5q-27 0 -62 -41l-12 -14h-6l-19 21v5l85 89l16 4q26 0 113 -21.5z" />
<glyph unicode="&#x2260;" horiz-adv-x="486" d="M453 159l-216 -1h-20l-50 -134h-28l-5 8l46 126l-165 -1l-5 9l17 49q94 -1 175 -1l37 101l-204 -1l-5 9l17 49q127 -1 213 -1l51 135h27l7 -10l-48 -125l185 6l5 -10l-15 -51l-196 -1l-38 -101q33 0 88 1.5t96 2.5t41 2l4 -10z" />
<glyph unicode="&#x2264;" horiz-adv-x="484" d="M422 116v-6l-34 -40q-97 51 -348 169l-6 11l7 47l205 86l202 81l8 -5l1 -50q-75 -27 -347 -133l-1 -6l151 -70l163 -79q-1 -2 -1 -5zM423 -73l-436 -2l-4 9l16 49h16l96 -1h105.5t96.5 1.5t84.5 2.5t35.5 2l4 -10z" />
<glyph unicode="&#x2265;" horiz-adv-x="485" d="M456 295l6 -11l-7 -47l-205 -86l-201 -81l-9 5l-1 50q112 39 194 73l154 60v6l-150 70l-163 79v11l34 40q83 -44 214.5 -107.5t133.5 -61.5zM423 -73l-436 -2l-5 9l17 49h16l96 -1h105.5t96.5 1.5t84.5 2.5t35.5 2l4 -10z" />
<glyph unicode="&#x25ca;" horiz-adv-x="487" d="M63 262l2 21l95 177l107 189l48 2l10 -7l59 -185l55 -162l-2 -26l-94 -174l-107 -189l-48 -2l-10 7l-58 185zM205 439l-83 -163l47 -145l48 -156h6l159 305l-48 146l-48 156h-6z" />
<glyph unicode="&#x25fc;" horiz-adv-x="505" d="M0 505h505v-505h-505v505z" />
<glyph unicode="&#xfb01;" horiz-adv-x="736" d="M174 71q0 -31 30 -31l55 3l2 -5l-11 -41q-77 3 -108 3q-57 0 -109 -9l9 39q37 7 50.5 20.5t18.5 47.5q41 330 41 339.5t-3.5 16t-20.5 6.5l-26 -1l-2 4l10 37q67 -3 168 -3t171 10l3 -5q-21 -63 -35 -135l-44 -3q7 31 7 53.5t-18 29t-66 6.5t-56.5 -4.5t-11.5 -24.5 l-25 -159h79l84 8l2 -5l-16 -51q-60 2 -91.5 2t-66.5 -5q-20 -137 -20 -143zM533 500l97 -3l96 8l-9 -40q-32 -4 -44 -12.5t-16 -30.5q-54 -305 -54 -351q0 -33 29 -33l40 2l2 -3l-12 -39q-69 2 -96 2q-52 0 -106 -9l10 39q37 7 51.5 21t18.5 46q41 332 41 340.5t-3.5 15.5 t-21.5 7l-32 -1q-1 3 -1 4z" />
<glyph unicode="&#xfb02;" horiz-adv-x="855" d="M174 71q0 -31 30 -31l55 3l2 -5l-11 -41q-77 3 -108 3q-57 0 -109 -9l9 39q37 7 50.5 20.5t18.5 47.5q41 330 41 339.5t-3.5 16t-20.5 6.5l-26 -1l-2 4l10 37q67 -3 168 -3t171 10l3 -5q-21 -63 -35 -135l-44 -3q7 31 7 53.5t-18 29t-66 6.5t-56.5 -4.5t-11.5 -24.5 l-25 -159h79l84 8l2 -5l-16 -51q-60 2 -91.5 2t-66.5 -5q-20 -137 -20 -143zM538 500l93 -3l92 8l-8 -40q-36 -5 -45 -15t-20 -66t-28.5 -171.5t-17.5 -136t11.5 -28t62 -7.5t74.5 20t44 92l43 5q0 -3 2 -5q-23 -74 -42 -155l-5 -5q-134 7 -187 7q-81 0 -139 -8l11 40 q31 5 44 18.5t17 47.5q41 330 41 339.5t-4 16t-21 6.5l-26 -1l-2 4z" />
<glyph d="M406 787l-4 -10q-101 -34 -206 -74l-8 5l-6 24l199 109l9 -6z" />
<glyph d="M172 818q18 -50 86.5 -50t98.5 50h8l15 -10q-17 -42 -49.5 -70t-79.5 -28t-72.5 28t-32.5 70l18 10h8z" />
<glyph d="M125 713l-11 22l147 111h14l120 -111l-17 -22l-9 -1l-110 65l-125 -65z" />
<glyph d="M367.5 741.5q-16.5 -16.5 -36.5 -16.5q-38 0 -38 38q0 22 16.5 38.5t36 16.5t29 -11t9.5 -30t-16.5 -35.5zM207.5 741.5q-16.5 -16.5 -36.5 -16.5q-38 0 -38 38q0 22 16 38.5t36 16.5t29.5 -11t9.5 -30t-16.5 -35.5z" />
<glyph horiz-adv-x="383" d="M116 777l-4 10l16 48l9 6q105 -60 199 -109l-6 -24l-8 -5z" />
<glyph d="M398 788l5 -10l-13 -47l-275 -2l-5 9l16 45q91 -1 147 -1z" />
<glyph d="M253 712q48 0 48 45q0 42 -44 42q-22 0 -34.5 -12t-12.5 -33t13.5 -31.5t29.5 -10.5zM309.5 703.5q-26.5 -29.5 -62.5 -29.5t-53 18.5t-17 54.5t26.5 63.5t63.5 27.5t53 -19t16 -52.5t-26.5 -63z" />
<glyph d="M263.5 791.5q53.5 -16.5 64.5 -16.5q21 0 68 45h6l19 -21v-5l-83 -79l-16 -4q-17 0 -70 16.5t-64 16.5q-23 0 -56 -34l-12 -11h-6l-20 21l1 5l83 79l15 4q17 0 70.5 -16.5z" />
<glyph d="M393 837l12 -22l-148 -111h-13l-120 111l16 22l10 1l109 -65l125 65z" />
<glyph d="M294 738.5q-19 -19.5 -43 -19.5t-35 13t-11 35.5t19.5 42t43 19.5t34.5 -13t11 -35.5t-19 -42z" />
<glyph d="M85 -93q34 26 57.5 26t39 -19.5t15.5 -51.5q0 -49 -38 -88.5t-90 -66.5l-18 15v10q31 19 51.5 46.5t20.5 52.5q0 38 -40 62z" />
<glyph d="M328 790l-3 -9q-80 -40 -164 -87l-8 5l-9 21l153 117l9 -4zM468 781l-3 -9q-80 -40 -164 -87l-7 4l-10 21l153 118l9 -5z" />
<glyph horiz-adv-x="510" d="M214 -12q-81 0 -127.5 66t-46.5 177q0 155 81 261t195 106q79 0 126 -66.5t47 -173.5q0 -155 -80.5 -262.5t-194.5 -107.5zM240 61q81 0 134.5 73.5t53.5 187.5q0 89 -38.5 143.5t-103.5 54.5q-82 0 -134 -74t-52 -190q0 -89 37.5 -142t102.5 -53z" />
<glyph horiz-adv-x="340" d="M80 565q37 0 211 33l4 -17q-21 -17 -30.5 -34t-20.5 -78t-31.5 -208t-20.5 -172t9 -35t32 -10l51 3l1 -4l-14 -46q-81 3 -115 3q-58 0 -138 -12l12 46q47 4 69 22t28 64q44 358 44 373t-9 24t-37 9l-51 -6l-3 3z" />
<glyph horiz-adv-x="458" d="M311 464q0 67 -77 67q-90 0 -159 -109h-9l-5 45q31 55 89.5 93t117 38t96 -31.5t37.5 -87.5t-58.5 -143t-218.5 -266l3 -7h144q52 0 74 17t44 74l41 5q-33 -86 -49 -159l-13 -7q-225 7 -308 7l-54 -12l-8 18l110 113q203 231 203 345z" />
<glyph horiz-adv-x="408" d="M103 58q72 0 122.5 38t50.5 91t-38 76.5t-119 23.5l-5 5l-1 35l65 16q44 22 72.5 57t28.5 67t-17 50t-46 18q-62 0 -117 -46h-10l-5 42q105 67 161.5 67t88 -29t31.5 -73.5t-34 -86.5t-90 -70l-1 -7q114 -32 114 -122q0 -77 -93 -149.5t-187 -72.5q-33 0 -43.5 15 t-10.5 31.5t1 26.5l6 6q39 -9 76 -9z" />
<glyph horiz-adv-x="429" d="M-3 183l9 37l310 378l4 1l33 -10l-43 -352h88l5 -8l-14 -55l-87 3l-14 -169l-6 -7l-72 -12l-5 9q18 103 28 181zM259 461l-180 -224h161l28 224h-9z" />
<glyph horiz-adv-x="404" d="M348 223q0 -54 -45 -109.5t-112 -90.5t-129 -35q-31 0 -42 15.5t-11 46.5v11l7 6q39 -9 76 -9q76 0 126.5 40t50.5 101q0 104 -188 108l-7 11l47 254l9 8l183 8q29 2 42 9.5t23 29.5l34 4l-38 -118l-7 -6q-97 8 -208 8l-27 -149q216 -16 216 -143z" />
<glyph horiz-adv-x="437" d="M253 344q70 0 108.5 -44.5t38.5 -103.5q0 -84 -63 -146t-154 -62q-70 0 -110 50t-40 122.5t20.5 131.5t53 101.5t72 78t79.5 58.5q84 48 126 62l20 6l6 -5l7 -30q-130 -49 -221 -165q-37 -48 -57 -103l2 -3q75 52 112 52zM224 285q-44 0 -101 -37q-11 -47 -11 -77 q0 -62 25 -98.5t73.5 -36.5t80.5 37t32 91t-27.5 87.5t-71.5 33.5z" />
<glyph horiz-adv-x="404" d="M222 586h203l18 -28q-82 -138 -272 -484l-35 -86h-8l-57 18l-7 22l299 490l-165 -7q-47 -2 -65 -20t-34 -73l-40 -6q26 97 40 173l6 5q57 -4 117 -4z" />
<glyph horiz-adv-x="466" d="M40 110q0 111 144 179q-89 54 -89 127.5t55 127.5t135 54q57 0 99 -31t42 -88q0 -101 -114 -160q97 -59 97 -138t-63 -136t-152 -57q-64 0 -109 32.5t-45 89.5zM143.5 62q28.5 -31 74 -31t82 34t36.5 82q0 42 -35 71q-30 24 -55.5 37.5t-28.5 15.5q-102 -43 -102 -135 q0 -43 28.5 -74zM278 337q71 41 71 123q0 44 -22.5 68t-61.5 24t-67.5 -29t-28.5 -68.5t31 -64.5t78 -53z" />
<glyph horiz-adv-x="437" d="M203 243q-71 0 -109 44.5t-38 103.5q0 84 63 146t154 62q70 0 110 -50t40 -122.5t-20.5 -131.5t-53 -101.5t-72 -78t-79.5 -58.5q-84 -48 -126 -61l-20 -7l-7 5l-7 30q32 12 74 36.5t75.5 52.5t71 76t58.5 103l-3 3q-73 -52 -111 -52zM159.5 335q27.5 -33 71.5 -33 t101 37q11 41 11 90t-25 85.5t-73.5 36.5t-80.5 -37t-32 -91.5t27.5 -87.5z" />
<glyph horiz-adv-x="450" d="M187 -12q-74 0 -116.5 65t-42.5 174q0 157 76 264t183 107q72 0 115 -65t43 -171q0 -157 -75.5 -265.5t-182.5 -108.5zM212 61q75 0 124 74.5t49 189.5q0 88 -34 141.5t-93 53.5q-76 0 -124 -75t-48 -192q0 -87 34 -139.5t92 -52.5z" />
<glyph horiz-adv-x="450" d="M264 263.5q-21 -145.5 -21 -172.5t11 -37t39 -10l61 3l1 -4l-14 -46q-94 3 -134 3q-65 0 -155 -12l12 46q55 4 81 22t32 64q45 356 45 371q0 35 -56 35l-61 -6l-3 3l9 42q25 0 126.5 14.5t111.5 18.5l4 -17q-24 -17 -35 -34t-22 -77.5t-32 -206z" />
<glyph horiz-adv-x="450" d="M306 464q0 67 -76 67q-89 0 -156 -109h-9l-5 45q32 55 89.5 93t115 38t94.5 -31.5t37 -87.5t-58 -143.5t-216 -265.5l3 -7h142q50 0 72 17t44 74l41 5q-33 -86 -49 -159l-13 -7q-222 7 -304 7l-53 -12l-8 18l109 113q200 231 200 345z" />
<glyph horiz-adv-x="450" d="M118 58q77 0 131 37.5t54 91t-41 77t-129 23.5l-5 5l-1 35l69 16q47 21 77.5 56.5t30.5 67.5t-19 50t-49 18t-65 -13t-60 -33h-11l-5 42q32 23 87.5 45t99 22t76.5 -29.5t33 -74t-36 -86t-95 -69.5l-1 -7q122 -32 122 -123q0 -76 -97.5 -148.5t-196.5 -72.5q-34 0 -45 15 t-11 32t1 26l5 6q42 -9 81 -9z" />
<glyph horiz-adv-x="450" d="M1 183l9 37l318 378l5 1l32 -10l-43 -352h91l5 -8l-14 -55l-90 3l-14 -169l-6 -7l-73 -12l-5 9q18 103 28 181zM270 461l-186 -224h167l29 224h-10z" />
<glyph horiz-adv-x="450" d="M145 366q232 -16 232 -138q0 -60 -47 -115.5t-117.5 -90t-136.5 -34.5q-33 0 -44.5 15.5t-11.5 46.5v11l6 6q42 -9 81 -9q81 0 136 40t55 100q0 105 -203 109l-8 11l48 254l10 8l194 8q31 2 44.5 9.5t24.5 29.5l35 4l-40 -118l-6 -6q-105 8 -224 8z" />
<glyph horiz-adv-x="450" d="M259 344q72 0 111 -44.5t39 -103.5q0 -84 -64 -146t-156 -62q-72 0 -112.5 50t-40.5 123t21 132t54 101t73 77.5t80 58.5q86 48 128 62l21 6l6 -5l7 -30q-28 -9 -73 -35t-79.5 -54t-72.5 -76t-59 -103l2 -3q78 52 115 52zM304 251.5q-28 33.5 -72.5 33.5t-105.5 -37 q-11 -47 -11 -77q0 -62 26 -98.5t76 -36.5t82.5 37t32.5 91t-28 87.5z" />
<glyph horiz-adv-x="450" d="M243 586h216l18 -28q-130 -207 -289 -484l-36 -86h-7l-59 18l-8 22l318 490l-179 -7q-51 -2 -69.5 -19.5t-35.5 -73.5l-41 -6q27 97 41 173l6 5q61 -4 125 -4z" />
<glyph horiz-adv-x="450" d="M36 110q0 111 141 179q-86 53 -86 127t54 128t133 54q56 0 97 -31.5t41 -87.5q0 -100 -112 -160q94 -59 94 -138t-61.5 -136t-149.5 -57q-63 0 -107 32.5t-44 89.5zM137.5 62q27.5 -31 72 -31t80 34t35.5 82q0 22 -8 39t-30 34q-28 23 -77 51q-100 -43 -100 -135 q0 -43 27.5 -74zM199 386q24 -19 71 -49q69 41 69 123q0 44 -21.5 68t-59.5 24t-66 -29t-28 -68.5t35 -68.5z" />
<glyph horiz-adv-x="450" d="M209 243q-72 0 -111 44.5t-39 103.5q0 84 63.5 146t156.5 62q71 0 112 -50.5t41 -123t-21 -131.5t-54 -101t-73 -77.5t-80 -58.5q-86 -48 -128 -61l-21 -7l-7 5l-7 30q28 9 73 35t80 54t73 76t59 103l-3 3q-75 -52 -114 -52zM163.5 335q28.5 -33 72.5 -33t105 37 q11 41 11 77q0 62 -25.5 98.5t-75.5 36.5t-83 -37t-33 -91.5t28.5 -87.5z" />
<glyph horiz-adv-x="440" d="M182 -12q-75 0 -118 56.5t-43 150.5q0 131 72.5 220.5t176.5 89.5q74 0 117.5 -56.5t43.5 -148.5q0 -131 -72.5 -221.5t-176.5 -90.5zM112.5 108q35.5 -44 101.5 -44t113 55.5t47 135t-36.5 124.5t-102.5 45t-112 -56t-46 -136t35.5 -124z" />
<glyph horiz-adv-x="440" d="M281 404q-44 -258 -44 -299t11 -51t38 -10l60 3l1 -4l-14 -46q-92 3 -131 3q-65 0 -153 -12l11 46q62 5 84.5 26.5t29.5 87.5q30 239 30 252q0 33 -54 33l-61 -6l-2 3l9 42q12 0 113.5 14t110 16.5t9.5 2.5l4 -17q-24 -16 -34 -32.5t-18 -51.5z" />
<glyph horiz-adv-x="440" d="M266 377q0 29 -16 45t-46 16t-64 -24t-60 -65h-9l-6 45q31 48 80 79.5t98.5 31.5t81.5 -28.5t32 -77.5t-47 -114t-191 -217l3 -7h138q51 0 73 17t42 74l41 5q-29 -84 -46 -157l-12 -7q-221 7 -302 7l-54 -12l-6 18l84 88q186 195 186 283z" />
<glyph horiz-adv-x="440" d="M82 -35q81 0 139.5 41.5t58.5 101.5q0 90 -170 91l-5 5l-1 35l68 16q47 21 77.5 55.5t30.5 66t-20 48.5t-52 17q-62 0 -122 -51h-10l-5 42q37 27 90 49.5t97 22.5t76.5 -27t32.5 -71.5t-35.5 -86t-94.5 -69.5l-1 -5q123 -28 123 -113q0 -53 -48 -109t-120.5 -92.5 t-138.5 -36.5q-34 0 -45 15t-11 32t1 26l5 6q42 -9 80 -9z" />
<glyph horiz-adv-x="440" d="M313 504l4 1l31 -10l-43 -352h91l5 -8l-15 -55q-36 1 -88 3l-14 -169l-6 -7l-72 -12l-5 9q17 103 28 181q-150 4 -240 4q1 6 4 18.5t4 18.5zM255 367l-184 -224h165l28 224h-9z" />
<glyph horiz-adv-x="440" d="M299 236.5q58 -35.5 58 -96t-52.5 -119t-125.5 -92.5t-136 -34q-31 0 -43 13.5t-12 31.5t1 28l6 6q41 -9 80 -9q85 0 143.5 40.5t58.5 103.5q0 44 -43.5 70t-150.5 45l-7 11l46 244l9 8l191 8q29 2 43 9.5t24 29.5l34 4l-38 -118l-7 -6q-102 8 -218 8l-22 -129 q103 -21 161 -56.5z" />
<glyph horiz-adv-x="440" d="M254 344q71 0 109.5 -44.5t38.5 -103.5q0 -84 -63 -146t-155 -62q-70 0 -110.5 50t-40.5 122.5t20.5 131.5t53.5 101.5t72.5 78t79.5 58.5q83 48 127 62l20 6l6 -5l7 -30q-74 -28 -151 -90q-34 -28 -71.5 -76t-58.5 -103l3 -2q85 52 113 52zM225 285q-45 0 -102 -37 q-11 -46 -11 -77q0 -62 25.5 -98.5t74.5 -36.5t81 37t32 91t-27.5 87.5t-72.5 33.5z" />
<glyph horiz-adv-x="440" d="M226 493h214l19 -28q-149 -239 -287 -484l-35 -86h-7l-58 18l-8 22l313 490l-175 -7q-51 -2 -70 -20t-35 -73l-40 -6q26 97 40 173l7 5q60 -4 122 -4z" />
<glyph horiz-adv-x="440" d="M34 109q0 112 138 180q-84 54 -84 127t56 127.5t134 54.5q55 0 93 -31t38 -87q0 -101 -110 -161q92 -59 92 -137.5t-63 -136t-151 -57.5q-61 0 -102 32.5t-41 88.5zM135 62q27 -31 70.5 -31t78 34t34.5 82q0 43 -38 73q-29 25 -75 51q-97 -43 -97 -135q0 -43 27 -74z M161 456q0 -52 72 -98q7 -5 32 -21q68 41 68 124q0 43 -21 67t-58.5 24t-65 -29t-27.5 -67z" />
<glyph horiz-adv-x="440" d="M192 149q-71 0 -109.5 44.5t-38.5 103.5q0 84 63 146t155 62q71 0 111 -50t40 -122.5t-20.5 -131.5t-53.5 -101.5t-72.5 -78t-79.5 -58.5q-83 -48 -127 -61l-20 -7l-6 5l-8 30q4 2 12 5t31 14t45 25t51.5 37t54.5 49q58 60 87 138l-3 3q-83 -52 -112 -52zM221 208 q45 0 102 37q10 43 10 76q0 63 -25 99.5t-73.5 36.5t-81 -37.5t-32.5 -91.5t27.5 -87t72.5 -33z" />
<glyph d="M285 709l5 -8q-27 -110 -59 -212l-28 -14l-10 2q15 89 21 218z" />
<glyph horiz-adv-x="338" d="M148 259q-53 0 -82 40.5t-29 111.5q0 101 50 167t125 66q51 0 80.5 -40.5t29.5 -109.5q0 -102 -49.5 -168.5t-124.5 -66.5zM106.5 353.5q21.5 -28.5 64.5 -28.5t72.5 39t29.5 96t-22 86t-65 29t-72 -39.5t-29 -96.5t21.5 -85.5z" />
<glyph horiz-adv-x="240" d="M149 331q0 -29 24 -29l32 2l1 -3l-11 -36q-55 2 -86 2l-90 -7l9 35q30 2 44 13t17 38l26 209q2 22 -4 28.5t-24 6.5l-32 -3l-2 3l7 32q37 5 150 22l4 -15q-23 -19 -31 -58t-21 -130.5t-13 -109.5z" />
<glyph horiz-adv-x="318" d="M202 547q0 38 -48 38t-91 -62h-8l-4 41q24 35 60 57.5t74.5 22.5t65.5 -21t27 -57.5t-35.5 -89t-130.5 -153.5l2 -5h76q31 0 44.5 11t25.5 46l39 4q-22 -62 -32 -111l-9 -6q-145 5 -201 5l-41 -7l-4 25l77 77q113 125 113 185z" />
<glyph horiz-adv-x="284" d="M30 323q26 -8 59 -8t61.5 20.5t28.5 51.5q0 52 -91 52l-5 5v32l42 9q25 12 41.5 32t16.5 38t-10 27.5t-26 9.5q-37 0 -73 -28h-7l-6 37q74 43 111 43t60 -18.5t23 -47.5t-21.5 -55t-57.5 -42l-1 -5q74 -22 74 -79q0 -49 -61 -93.5t-127 -44.5q-24 0 -31.5 11.5t-7.5 24.5 t1 21z" />
<glyph horiz-adv-x="301" d="M10 374l6 34l192 235l4 1l39 -6l-25 -219h52l4 -7l-11 -44l-51 2l-8 -97l-5 -6l-62 -7l-4 6q11 58 17 105zM173 544l-100 -125h91l15 125h-6z" />
<glyph horiz-adv-x="280" d="M245 407q0 -54 -61 -101t-127 -47q-23 0 -32 12.5t-9 27v17.5l8 7q26 -8 59.5 -8t62 21.5t28.5 53.5q0 55 -114 61l-4 7l31 168l6 5l120 4q31 1 42 25l30 3l-27 -85l-7 -6q-60 5 -128 5l-15 -77q71 -8 104 -30.5t33 -62.5z" />
<glyph horiz-adv-x="302" d="M278 396q0 -57 -40.5 -97t-95 -40t-83 32.5t-28.5 86.5t25 102.5t60 77.5q73 59 132 78l25 8l5 -4l7 -27q-5 -2 -13 -5t-30.5 -16t-42.5 -28q-54 -42 -78 -98l1 -4q41 27 63 28q44 0 68.5 -27.5t24.5 -66.5zM197.5 424q-14.5 18 -40.5 18t-55 -20q-6 -26 -6 -46 q0 -74 52 -74q30 0 47 21t17 52t-14.5 49z" />
<glyph horiz-adv-x="279" d="M151 636h132l17 -25q-57 -94 -163 -287l-25 -64h-8l-47 14l-5 15l180 292l-93 -5q-29 -2 -40 -12.5t-21 -44.5l-33 -4q17 68 27 121l4 3q36 -3 75 -3z" />
<glyph horiz-adv-x="315" d="M33 339q0 68 86 106q-53 35 -53 82.5t37.5 82t84.5 34.5t75 -21t28 -57q0 -61 -69 -97q57 -34 57 -85t-41.5 -88t-93.5 -37t-81.5 22t-29.5 58zM110 315q16 -17 41.5 -17t45 18t19.5 37t-5 28.5t-19 18.5q-23 17 -46 29q-52 -26 -52 -73q0 -24 16 -41zM145 587.5 q-16 -15.5 -16 -33t10.5 -31t20.5 -20t32 -18.5q37 24 37 68q0 24 -12 37t-34 13t-38 -15.5z" />
<glyph horiz-adv-x="301" d="M44 508q0 57 40 96.5t95 39.5t83.5 -32t28.5 -86t-25 -103t-60 -77q-74 -59 -132 -78l-25 -8l-5 3l-7 28q5 2 13 5t30.5 16t42 28t42 41.5t36.5 56.5l-2 3q-41 -26 -62 -27q-44 0 -68.5 27.5t-24.5 66.5zM123.5 479.5q14.5 -17.5 39 -17.5t56.5 19q7 25 7 53t-13.5 48 t-41.5 20t-45 -21t-17 -52.5t14.5 -49z" />
<glyph horiz-adv-x="338" d="M148 -8q-53 0 -82 40.5t-29 111.5q0 101 50 167t125 66q51 0 80.5 -40.5t29.5 -109.5q0 -102 -49.5 -168.5t-124.5 -66.5zM106.5 86.5q21.5 -28.5 64.5 -28.5t72.5 39t29.5 96t-22 86t-65 29t-72 -39.5t-29 -96.5t21.5 -85.5z" />
<glyph horiz-adv-x="240" d="M149 64q0 -29 24 -29l32 2l1 -3l-11 -36q-55 2 -86 2l-90 -7l9 35q30 2 44 13t17 38l26 209q2 22 -4 28.5t-24 6.5l-32 -3l-2 3l7 32q37 5 150 22l4 -15q-23 -19 -31 -58t-21 -130.5t-13 -109.5z" />
<glyph horiz-adv-x="318" d="M202 280q0 38 -48 38t-91 -62h-8l-4 41q24 35 60 57.5t74.5 22.5t65.5 -21t27 -57.5t-35.5 -89t-130.5 -153.5l2 -5h76q31 0 44.5 11t25.5 46l39 4q-22 -62 -32 -111l-9 -6q-145 5 -201 5l-41 -7l-4 25l77 77q113 125 113 185z" />
<glyph horiz-adv-x="284" d="M30 56q26 -8 59 -8t61.5 20.5t28.5 51.5q0 52 -91 52l-5 5v32l42 9q25 12 41.5 32t16.5 38t-10 27.5t-26 9.5q-37 0 -73 -28h-7l-6 37q74 43 111 43t60 -18.5t23 -47.5t-21.5 -55t-57.5 -42l-1 -5q74 -22 74 -79q0 -49 -61 -93.5t-127 -44.5q-24 0 -31.5 11.5t-7.5 24.5 t1 21z" />
<glyph horiz-adv-x="301" d="M10 107l6 34l192 235l4 1l39 -6l-25 -219h52l4 -7l-11 -44l-51 2l-8 -97l-5 -6l-62 -7l-4 6q11 58 17 105zM173 277l-100 -125h91l15 125h-6z" />
<glyph horiz-adv-x="280" d="M245 140q0 -54 -61 -101t-127 -47q-23 0 -32 12.5t-9 27v17.5l8 7q26 -8 59.5 -8t62 21.5t28.5 53.5q0 55 -114 61l-4 7l31 168l6 5l120 4q31 1 42 25l30 3l-27 -85l-7 -6q-60 5 -128 5l-15 -77q71 -8 104 -30.5t33 -62.5z" />
<glyph horiz-adv-x="302" d="M278 129q0 -57 -40.5 -97t-95 -40t-83 32.5t-28.5 86.5t25 102.5t60 77.5q73 59 132 78l25 8l5 -4l7 -27q-5 -2 -13 -5t-30.5 -16t-42.5 -29q-54 -41 -78 -97l1 -4q41 27 63 28q44 0 68.5 -27.5t24.5 -66.5zM197.5 157q-14.5 18 -40.5 18t-55 -20q-6 -25 -6 -46 q0 -74 52 -74q30 0 47 21t17 52t-14.5 49z" />
<glyph horiz-adv-x="279" d="M151 369h132l17 -25q-57 -94 -163 -287l-25 -64h-8l-47 14l-5 15l180 292l-93 -5q-29 -2 -40 -12.5t-21 -44.5l-33 -4q17 68 27 121l4 3q36 -3 75 -3z" />
<glyph horiz-adv-x="315" d="M33 72q0 68 86 106q-53 35 -53 82.5t37.5 82t84.5 34.5t75 -21t28 -57q0 -61 -69 -97q57 -34 57 -85t-41.5 -88t-93.5 -37t-81.5 22t-29.5 58zM110 48q16 -17 41.5 -17t45 18t19.5 37t-5 28.5t-19 19.5q-23 16 -46 28q-52 -26 -52 -73q0 -24 16 -41zM145 320.5 q-16 -15.5 -16 -33t10.5 -31t20.5 -20t32 -18.5q37 24 37 68q0 24 -12 37t-34 13t-38 -15.5z" />
<glyph horiz-adv-x="301" d="M44 241q0 57 40 96.5t95 39.5t83.5 -32t28.5 -86t-25 -103t-60 -78q-74 -58 -132 -77l-25 -8l-5 3l-7 28q5 2 13 5t30.5 16t42 28t42 41.5t36.5 56.5l-2 3q-41 -26 -62 -27q-44 0 -68.5 27.5t-24.5 66.5zM123.5 212.5q14.5 -17.5 39 -17.5t56.5 19q7 25 7 53t-13.5 48 t-41.5 20t-45 -21t-17 -52.5t14.5 -49z" />
<glyph horiz-adv-x="324" d="M210 343q-26 0 -26 22q0 4 24 116l-4 1q-58 -102 -110 -139q-30 0 -47 23.5t-17 66.5q0 77 48 143.5t103 66.5l59 -11l5 15l6 3l37 -9l5 -10q-33 -116 -49 -224l2 -2q6 0 46 34l10 -1l9 -19q-75 -76 -101 -76zM110 407q16 0 49 51.5t62 121.5q-31 20 -58 20t-48 -41.5 t-21 -96.5t16 -55z" />
<glyph horiz-adv-x="320" d="M100 754q0 24 -25 24h-24l5 32l114 4l7 -9q-38 -164 -61 -310h3q56 111 104 150q34 0 54.5 -27.5t20.5 -73.5q0 -78 -46.5 -138.5t-105.5 -60.5q-49 0 -95 22l-8 13q57 350 57 374zM211 583q-13 0 -42 -49t-61 -128q45 -15 62 -15q26 0 45.5 37.5t19.5 75.5t-7 58.5 t-17 20.5z" />
<glyph horiz-adv-x="246" d="M209 570q-19 29 -45.5 29t-48 -39.5t-21.5 -81.5q0 -83 41 -83q17 0 35 14.5t29 37.5l10 -1l16 -21q-17 -35 -48.5 -58.5t-66 -23.5t-56.5 28.5t-22 78.5q0 76 47 136.5t106 60.5q35 0 59 -14l3 -8l-25 -53z" />
<glyph horiz-adv-x="325" d="M311 419q-76 -76 -101.5 -76t-25.5 21t24 117l-5 1q-56 -102 -109 -139q-30 0 -47 23.5t-17 66.5q0 77 48 143.5t103 66.5l45 -9q16 118 16 121q0 23 -25 23h-24l5 32l114 4l7 -9q-55 -262 -75 -398l2 -2q6 0 46 34l10 -1zM110 407q16 0 48.5 51.5t61.5 122.5 q-32 19 -58 19t-47 -42t-21 -96.5t16 -54.5z" />
<glyph horiz-adv-x="260" d="M247 591q0 -40 -35.5 -68.5t-118.5 -54.5v-19t11 -35t31 -19q40 0 67 51l11 -1l16 -21q-18 -35 -50.5 -58t-67 -23t-57 29t-22.5 79q0 75 47.5 135.5t106.5 60.5q29 0 45 -15t16 -41zM165 599q-23 0 -43 -28t-27 -70q93 30 93 73q0 25 -23 25z" />
<glyph horiz-adv-x="194" d="M141.5 778.5q43.5 39.5 91.5 39.5t72 -9l3 -7l-24 -51l-13 -2q-35 22 -61 22q-47 0 -56 -66l-8 -69h89l3 -2l-5 -31h-85l-6 -3l-31 -284q-6 -51 -38 -84t-76 -33q-23 0 -41.5 9t-23.5 22q10 34 28 61h10q0 -24 12 -37.5t31 -13.5t32 14t15 34q6 62 6 90l17 218l-6 4 l-45 2l-2 3l4 24l52 8l5 45q7 57 50.5 96.5z" />
<glyph horiz-adv-x="312" d="M128 415q13 0 40.5 45.5t60.5 121.5q-36 18 -59.5 18t-43 -38.5t-19.5 -74.5q0 -72 21 -72zM28 290q0 -15 22 -29t54 -14t58.5 26.5t32.5 72.5l15 125l-6 1q-53 -93 -90 -119l-36 -24q-50 -32 -50 -39zM185 251q-58 -52 -108 -52t-81.5 24.5t-31.5 53.5q0 4 1 10 q36 25 115 69l1 5q-37 19 -37 87t46.5 131.5t98.5 63.5l60 -11l6 15l6 3l37 -9l6 -9q-38 -72 -44 -124q-2 -19 -5.5 -78.5t-4.5 -72.5q-7 -54 -65 -106z" />
<glyph horiz-adv-x="338" d="M315 419q-74 -75 -100.5 -75t-26.5 23q0 18 23 92t23 95.5t-20 21.5q-17 0 -46.5 -45t-59.5 -117l-6 -49q-1 -5 -20 -12t-34 -7l-7 8q60 379 60 401.5t-25 22.5h-24l5 32l114 4l7 -9q-39 -164 -61 -310l4 -1q59 119 115 153q27 0 44.5 -18t17.5 -42.5t-23.5 -94.5 t-26.5 -84l2 -2q8 0 46 34l9 -2z" />
<glyph horiz-adv-x="194" d="M77 343q-6 0 -6.5 3.5t2 19.5t3.5 32q7 67 7 143v37q0 25 -26 25h-24l5 32l114 4l7 -9q-33 -112 -48 -223l2 -2q6 0 46 34l9 -1l10 -19q-72 -76 -101 -76zM128 716q-33 0 -33 34q0 21 14 35.5t32 14.5q36 0 36 -33q0 -22 -14 -36.5t-35 -14.5z" />
<glyph horiz-adv-x="184" d="M54 374q32 182 32 205.5t-27 23.5h-24l6 32l113 4l7 -9q-37 -144 -53.5 -263t-119.5 -169l-14 16l2 6q37 27 53.5 59t24.5 95zM130 716q-33 0 -33 34q0 22 14 36t32 14q36 0 36 -33q0 -22 -14.5 -36.5t-34.5 -14.5z" />
<glyph horiz-adv-x="304" d="M235 555q0 21 -18 21t-48.5 -45.5t-60.5 -117.5l-6 -48q-1 -5 -20 -12t-34 -7l-7 8q60 376 60 400t-25 24h-24l5 32l114 4l7 -9q-39 -164 -61 -310l4 -1q60 120 115 153q28 0 45.5 -17.5t17.5 -43.5q0 -61 -92 -116q26 -40 72 -105v-9l-56 -18l-8 4l-60 125l3 10 q77 39 77 78z" />
<glyph horiz-adv-x="185" d="M170 419q-72 -76 -99.5 -76t-27.5 25q0 6 29 189.5t29 196.5q0 24 -25 24h-24l5 32l114 4l7 -9q-56 -254 -75 -398l2 -2q6 0 46 34l9 -1z" />
<glyph horiz-adv-x="499" d="M476 419q-74 -75 -101 -75t-27 23q0 17 24.5 91.5t24.5 96t-18.5 21.5t-50.5 -48.5t-64 -124.5l-6 -38q-1 -5 -20 -12t-34 -7l-7 8q42 175 42 198.5t-18 23.5t-47 -45t-58 -117l-6 -49q-1 -5 -20 -12t-34 -7l-7 8q33 199 34 218t-5 25t-21 6h-24l6 32l114 4l6 -9 q-23 -68 -34 -135l3 -1q60 121 113 153q26 0 43.5 -17.5t17.5 -43.5q0 -20 -21 -91l2 -1q59 117 117 153q27 0 44 -17t17 -42t-24.5 -96.5t-27.5 -83.5l2 -2q7 0 46 34l10 -2z" />
<glyph horiz-adv-x="291" d="M97 478q0 -91 48 -91q24 0 41 35t17 93q0 84 -44 84q-27 0 -44.5 -34t-17.5 -87zM116 343q-38 0 -60.5 29.5t-22.5 80.5q0 80 44.5 137t107.5 57q40 0 62 -26.5t22 -74.5q0 -85 -44.5 -144t-108.5 -59z" />
<glyph horiz-adv-x="328" d="M83 579q0 24 -26 24h-24l6 32l114 4l6 -8q-23 -66 -34 -132l3 -1q58 114 103 149q34 0 54.5 -27.5t20.5 -72.5q0 -73 -45.5 -136.5t-96.5 -63.5l-61 10l-13 -87q-2 -18 3.5 -24t23.5 -6h28v-4l-5 -29l-145 -4l6 30q15 2 22.5 10.5t14 35.5t26 155t19.5 145zM219 585 q-13 0 -42 -49t-60 -125q41 -18 65.5 -18t43 40t18.5 76t-7.5 56t-17.5 20z" />
<glyph horiz-adv-x="312" d="M31 440q0 74 47.5 138.5t102.5 64.5l58 -11l12 32l7 3l38 -7l4 -10q-12 -21 -43.5 -178.5t-31.5 -206.5q0 -25 18 -25h24l1 -3l-5 -30q-82 0 -147 -7l6 32q27 3 35.5 11t13.5 35l37 203l-5 1q-55 -100 -102 -139q-32 0 -51 26.5t-19 70.5zM115 407q13 0 42 48t63 126 q-36 19 -60 19t-45 -40t-21 -77t6.5 -56.5t14.5 -19.5z" />
<glyph horiz-adv-x="251" d="M49 354q34 199 34 218t-5.5 25t-20.5 6h-24l6 32l114 4l6 -9q-19 -61 -30 -117h3q23 54 54.5 93t51.5 39q24 -19 24 -54q0 -10 -5 -28l-7 -3q-9 6 -22 6q-27 0 -56 -36.5t-54 -100.5l-8 -64q-1 -5 -20 -12t-34 -7z" />
<glyph horiz-adv-x="246" d="M70.5 401q15.5 -16 37.5 -16t33.5 9.5t11.5 27t-41 47.5q-20 15 -29.5 23t-20 24.5t-10.5 34.5q0 40 32.5 68t80.5 28t72 -26q-12 -29 -27 -58h-11q-14 41 -51 41q-14 0 -23 -8.5t-9 -23.5t13 -26t30.5 -24.5t27.5 -22.5q29 -26 29 -61.5t-35 -65t-75 -29.5q-79 0 -90 37 q10 42 27 65h11q1 -28 16.5 -44z" />
<glyph horiz-adv-x="208" d="M196 423q-68 -80 -95.5 -80t-40 13t-12.5 24.5t1 16.5l33 200l-4 3l-42 2l-2 3l3 24l50 8l10 74l71 22l5 -7q-13 -43 -24 -90h73l3 -2l-5 -31h-72l-7 -4l-35 -174q-2 -21 14 -21t57 40l10 -2z" />
<glyph horiz-adv-x="336" d="M61.5 359.5q-17.5 15.5 -17.5 37.5t22 96t22 88q0 22 -26 22h-24l6 32l114 4l7 -9q-59 -168 -59 -201q0 -20 16.5 -20t48 47.5t64.5 122.5l10 59l7 3l46 -4l7 -8q-33 -114 -49 -222l2 -2q7 0 46 34l10 -1l9 -19q-76 -76 -101.5 -76t-25.5 22q0 2 25 119l-5 1 q-54 -104 -106 -141q-31 0 -48.5 15.5z" />
<glyph horiz-adv-x="298" d="M142 403h7q75 117 75 165q0 19 -11.5 32t-20.5 16l4 16l70 15q21 -16 21 -52q0 -68 -127 -249l-57 -2l-10 9q-6 123 -24 224q-4 24 -24 24l-30 -3l2 31l105 14l7 -6q13 -98 13 -234z" />
<glyph horiz-adv-x="443" d="M142 403h7q52 85 70 136l-13 87l5 7l52 14q22 -16 22 -51q0 -17 -11 -46l15 -147h7q73 117 73 165q0 19 -11.5 32t-19.5 16l4 16l69 15q21 -18 21 -53q0 -68 -125 -248l-51 -2l-10 9l-13 114h-5q-23 -47 -70 -121l-55 -2l-10 9q-5 113 -24 224q-4 24 -24 24l-30 -3l2 31 l105 14l7 -6q13 -100 13 -234z" />
<glyph horiz-adv-x="320" d="M230 623q24 24 52 24t45 -21q-16 -39 -27 -61h-11q-9 35 -27 35q-14 0 -29 -21t-38 -72q17 -64 25.5 -86t17 -22t50.5 33h8l10 -21q-39 -39 -60 -53.5t-38 -14.5t-29 22t-31 86q-26 -57 -50.5 -82.5t-56 -25.5t-41.5 24q11 35 28 64h11q0 -43 22 -43q30 0 72 101 q-19 66 -27 84t-16.5 18t-44.5 -33h-8l-10 21q64 68 99 68q16 0 27 -20.5t28 -81.5q25 54 49 78z" />
<glyph horiz-adv-x="307" d="M296 595q0 -63 -118 -234q-61 -87 -104 -125t-80 -38q-21 0 -37 8t-20 20q4 27 20 61h11q12 -33 44 -33q42 0 94 68q-12 147 -29 255q-2 14 -7 19t-17 5l-29 -3l2 31l105 14l7 -6q11 -102 11 -241h7q77 124 77 172q0 30 -32 48l4 16l70 15q21 -16 21 -52z" />
<glyph horiz-adv-x="282" d="M115 418l83 -11q37 0 46 44l13 -1q7 -18 7 -41t-19 -44.5t-41.5 -21.5t-59.5 14.5t-63 14.5t-61 -21l-10 16l179 217h-55q-26 0 -39 -9t-21 -32l-30 -4q16 56 23 101l14 7q76 -18 129 -18q17 0 26 11l12 14l32 -14l3 -12q-107 -118 -185 -214z" />
<glyph horiz-adv-x="783" d="M265 321v116h-74v-344h74v180q0 12 24 12q43 0 43 -56v-136h74v178q0 32 -22 52.5t-56 20.5q-55 -32 -59 -32t-4 9zM435 302h26q10 0 10 -10v-132q0 -32 22 -52.5t56 -20.5l63 37v25q-12 -4 -26 -4q-41 0 -41 57v90q0 10 10 10h58v36h-58q-10 0 -10 10v28h-21l-89 -56 v-18zM180 -59q-80 0 -80 80v423q0 80 80 80h423q80 0 80 -80v-423q0 -80 -80 -80h-423z" />
<glyph horiz-adv-x="434" d="M-26 0l56 452h434l-55 -452h-435z" />
<glyph horiz-adv-x="612" d="M-26 0l78 637h612l-78 -637h-612z" />
<glyph horiz-adv-x="307" d="M104 500l97 -3l96 8l-9 -40q-32 -4 -44 -12.5t-16 -30.5q-54 -305 -54 -351q0 -33 29 -33l40 2l2 -3l-12 -39q-69 2 -97 2q-51 0 -105 -9l10 39q37 7 51.5 21t18.5 46q41 332 41 340.5t-3.5 15.5t-21.5 7l-32 -1q-1 3 -1 4zM246 598.5q-19 -19.5 -43 -19.5t-35 13 t-11 35.5t19.5 42t43 19.5t34.5 -13t11 -35.5t-19 -42z" />
</font>
</defs>
</svg>
