<?xml version="1.0" standalone="no"?>
<!DOCTYPE svg PUBLIC "-//W3C//DTD SVG 1.1//EN" "http://www.w3.org/Graphics/SVG/1.1/DTD/svg11.dtd" >
<svg xmlns="http://www.w3.org/2000/svg" xmlns:xlink="http://www.w3.org/1999/xlink" version="1.1">
<metadata></metadata>
<defs>
<font id="alegreya_scbold" horiz-adv-x="398" >
<font-face units-per-em="1000" ascent="800" descent="-200" />
<missing-glyph horiz-adv-x="174" />
<glyph unicode="&#xd;" horiz-adv-x="333" />
<glyph unicode=" "  horiz-adv-x="174" />
<glyph unicode="&#x09;" horiz-adv-x="174" />
<glyph unicode="&#xa0;" horiz-adv-x="174" />
<glyph unicode="!" horiz-adv-x="285" d="M183 12q-22 -23 -58.5 -23t-55.5 20.5t-19 56t22 58.5t58 23t55.5 -20.5t19.5 -56t-22 -58.5zM93 236l-21 430l12 17l134 22l16 -18l-62 -453l-64 -11z" />
<glyph unicode="&#x22;" horiz-adv-x="321" d="M50 412v47q0 88 -7 181l100 14l8 -10q-15 -110 -38 -216l-48 -20zM195 412v47q0 88 -7 181l100 14l8 -10q-15 -110 -38 -216l-48 -20z" />
<glyph unicode="#" horiz-adv-x="526" d="M49 351l-6 11l15 70l99 -1l27 139l73 7l11 -6l-31 -140h47l47 -1l27 140l73 7l11 -6l-31 -140l97 2l5 -12l-14 -70h-104l-18 -93l97 1l5 -12l-14 -69h-102l-26 -134l-71 -11l-10 8l28 137l-56 1l-38 -1l-26 -134l-71 -11l-10 8l28 137l-96 -1l-6 12l15 69l101 -1l19 94 h-95zM222 352l-19 -95h44l52 -1l18 96h-95z" />
<glyph unicode="$" horiz-adv-x="466" d="M145 92.5q19 -21.5 61 -21.5t63 14t21 37q0 18 -11 27.5t-16.5 14.5t-20 12t-21.5 10q-9 5 -61 28t-86 54.5t-34 87.5t49 98t130 53l16 142l69 9l6 -9l-15 -140q63 -2 119 -20l7 -12q-15 -64 -21 -134l-70 -6l-8 6q1 11 1 22q0 32 -18 46.5t-53.5 14.5t-56 -13.5 t-20.5 -31t7.5 -28.5t27.5 -23q23 -13 64 -31t61.5 -28.5t44.5 -28.5q48 -36 48 -96.5t-51 -102t-139 -49.5l-16 -145l-68 -8l-6 7l15 144q-62 4 -121 29l-8 12q13 71 15 131l77 6q0 -56 19 -77.5z" />
<glyph unicode="%" horiz-adv-x="713" d="M172 408q82 0 82 66q0 35 -24 56t-69 21q-80 0 -80 -65q0 -39 25.5 -58.5t65.5 -19.5zM275 360q-42 -51 -112 -51t-107.5 44.5t-37.5 123t43 128t113.5 49.5t106.5 -44.5t36 -121.5t-42 -128zM562 88q81 0 81 65q0 35 -24 56.5t-66 21.5t-62.5 -17.5t-20.5 -52.5 t25.5 -54t66.5 -19zM665 39q-42 -51 -112 -51t-107.5 44.5t-37.5 123.5t43 128t113 49t106.5 -44.5t36.5 -121.5t-42 -128zM607 653l7 -19q-176 -267 -266 -407l-202 -320l-65 27l-5 14q121 180 207 316l262 414z" />
<glyph unicode="&#x26;" horiz-adv-x="650" d="M288 -12q-117 0 -187.5 71.5t-70.5 188.5q0 91 56.5 158t133.5 67q40 0 65.5 -20.5t25.5 -52.5l-5 -23l5 -3q68 64 100.5 122.5t36.5 129.5l10 10h34q48 -78 48 -98.5t-27 -55.5q-57 -88 -140 -160t-226 -155q50 -89 164 -89q72 0 116.5 38t53.5 107l-36 4q-9 0 -23 -9.5 t-32 -29.5h-6l-34 39v4l73 80l15 5q19 0 95 -9.5t89 -9.5q22 0 55 30l11 10h7l31 -38l1 -5l-71 -80l-17 -6l-71 7q-25 -99 -104 -163t-176 -64zM137 347q-21 -28 -21 -64.5t6 -63.5q63 39 85 62.5t22 52.5q0 41 -38 41q-33 0 -54 -28z" />
<glyph unicode="'" horiz-adv-x="176" d="M50 412v47q0 88 -7 181l100 14l8 -10q-15 -110 -38 -216l-48 -20z" />
<glyph unicode="(" horiz-adv-x="309" d="M70 163v173q0 69 18.5 126.5t44.5 90.5q53 68 97 87l18 9h11l31 -46l-1 -6q-14 -7 -35.5 -29t-35.5 -47t-26 -70.5t-12 -99.5v-173q0 -59 11.5 -108.5t28.5 -78.5q35 -60 62 -79l12 -8v-8l-41 -42h-8q-27 11 -59 37.5t-55 58t-42 88.5t-19 125z" />
<glyph unicode=")" horiz-adv-x="309" d="M239 340v-173q0 -69 -18.5 -126.5t-44.5 -90.5q-53 -68 -96 -88l-19 -8h-11l-31 46l1 6q14 7 35.5 29t35.5 47t26 70.5t12 99.5v173q0 59 -11.5 108.5t-28.5 78.5q-35 60 -63 79l-11 8v8l41 42h8q27 -11 59 -37.5t55 -58t42 -88.5t19 -125z" />
<glyph unicode="*" horiz-adv-x="412" d="M62 673q50 -26 103 -66l-8 -41l-7 -6l-109 30q0 45 12 80zM62 469q40 39 95 77l36 -20l3 -8l-61 -95q-43 14 -73 36v10zM256 406q-25 50 -44 114l30 29h10l70 -88q-26 -37 -56 -58zM376 571q-42 -7 -122 -7l-18 37l3 10l105 40q27 -37 38 -72zM257 736q-11 -55 -32 -118 l-42 -5l-7 4l-6 113q44 14 80 14z" />
<glyph unicode="+" horiz-adv-x="506" d="M292 497l13 -7q-5 -106 -6 -184l183 6l7 -12l-10 -92l-180 -1l1 -168l-88 -15l-11 8q0 93 1 175l-178 -1l-7 11l14 90q90 -1 171 -1l1 180z" />
<glyph unicode="," horiz-adv-x="238" d="M48 108q45 34 77 34t50.5 -24t18.5 -70.5t-44 -98.5t-109 -89l-37 30v17q32 22 52 53t20 66t-31 68z" />
<glyph unicode="-" horiz-adv-x="324" d="M280 313l9 -13l-8 -80l-237 -26l-9 12l7 78z" />
<glyph unicode="." horiz-adv-x="238" d="M116 -11q-37 0 -56 20.5t-19 56t22 58.5t58 23t56 -20.5t20 -56t-22 -58.5t-59 -23z" />
<glyph unicode="/" horiz-adv-x="329" d="M306 675l13 -15q-79 -283 -122 -445l-83 -325h-85l-9 11q51 173 90 325l115 449h81z" />
<glyph unicode="0" horiz-adv-x="501" d="M410 63.5q-65 -75.5 -167.5 -75.5t-159.5 66.5t-57 186t65.5 194.5t168 75t159 -66t56.5 -185.5t-65 -195zM147 155q40 -36 107 -36t103.5 32t36.5 91.5t-40 95.5t-107 36t-103.5 -32.5t-36.5 -91.5t40 -95z" />
<glyph unicode="1" horiz-adv-x="365" d="M246 132q0 -37 9.5 -52t34.5 -15l49 3l2 -5l-11 -67q-93 4 -132 4q-57 0 -167 -11l8 63q51 5 70 24t19 68v215q0 35 -11 46t-40 11l-50 -5l-6 7l6 57q79 8 257 35l10 -30q-32 -26 -38 -78q-10 -113 -10 -270z" />
<glyph unicode="2" horiz-adv-x="484" d="M238 343q0 61 -62 61q-29 0 -59.5 -20.5t-52.5 -56.5h-14l-17 74q39 51 90.5 80t113 29t104.5 -35.5t43 -88t-38 -109t-149 -176.5l4 -8h96q47 0 66.5 18.5t29.5 72.5l76 7q-21 -107 -28 -188l-14 -12q-246 9 -340 9l-64 -9l-8 33l75 83q80 92 114 146.5t34 89.5z" />
<glyph unicode="3" horiz-adv-x="431" d="M61 365l-12 -1l-21 71q30 23 85.5 49t111.5 26t96.5 -32t40.5 -79t-30 -84t-80 -58v-8q139 -37 139 -132q0 -79 -95 -148t-204 -69q-42 0 -59.5 23t-21.5 79l14 14q38 -13 93 -13t96.5 27t41.5 68t-36 60.5t-112 19.5l-9 10l-7 62l65 14q34 15 54.5 41.5t20.5 52.5 t-17.5 41t-43.5 15q-53 0 -110 -49z" />
<glyph unicode="4" horiz-adv-x="468" d="M270 508q1 0 6 2l84 -11v-342h82l8 -11l-9 -83q-32 1 -80 3l6 -145l-8 -9l-115 -12l-8 10q4 87 6 159q-158 4 -240 4l3 67zM242 157v178h-10l-125 -178h135z" />
<glyph unicode="5" horiz-adv-x="427" d="M383 130q0 -87 -96.5 -158.5t-205.5 -71.5q-40 0 -58 22.5t-22 79.5l13 14q39 -13 95 -13t99 27t43 67.5t-42 63t-147 37.5l-9 11l20 270l8 8l193 7q29 2 42 10t21 30l55 4l-26 -147l-13 -13q-91 8 -199 8l-8 -89q120 -24 178.5 -62t58.5 -105z" />
<glyph unicode="6" horiz-adv-x="464" d="M439 191q0 -89 -59.5 -146t-152.5 -57t-146 60t-53 156q0 62 19 117t49.5 93.5t68 71t74.5 52.5q82 44 117 54l19 6l10 -5l20 -55q-18 -5 -55.5 -26.5t-64.5 -43.5t-57.5 -59t-47.5 -79l5 -6q3 1 19 10q47 24 66 27q78 0 123.5 -49.5t45.5 -120.5zM296 243 q-24 30 -64.5 30t-79.5 -28q-2 -28 -2 -42q0 -63 23.5 -98.5t64 -35.5t61.5 25t21 72t-24 77z" />
<glyph unicode="7" horiz-adv-x="427" d="M172 498h217l39 -48q-109 -226 -196 -437l-31 -113h-17l-91 27l-11 25l224 442l-134 -8q-47 -4 -62.5 -20t-24.5 -68l-60 -6q14 114 19 205l6 5q60 -4 122 -4z" />
<glyph unicode="8" horiz-adv-x="479" d="M38 130q0 98 112 148q-99 62 -99 151q0 69 57.5 119t136 50t129.5 -39t51 -101q0 -88 -90 -135q48 -28 76 -63t28 -86q0 -79 -61.5 -132.5t-147 -53.5t-139 39t-53.5 103zM173.5 89.5q26.5 -27.5 65 -27.5t62 22t23.5 55t-27 54.5t-58 36.5t-35 17q-57 -35 -57 -91 q0 -39 26.5 -66.5zM187.5 500q-19.5 -19 -19.5 -44.5t17 -44.5t34.5 -29t55.5 -29q39 33 39 77.5t-21 66.5t-53.5 22t-52 -19z" />
<glyph unicode="9" horiz-adv-x="464" d="M279 174q-71 -36 -86 -37q-78 0 -123.5 49t-45.5 121q0 89 60 146t152.5 57t146 -60t53.5 -156q0 -62 -19 -117t-49.5 -93.5t-68 -71.5t-74.5 -53q-76 -41 -136 -60l-10 6l-20 55q16 5 54 26.5t65.5 43t57.5 58.5t47 79zM167.5 254.5q23.5 -29.5 62.5 -29.5t81 27 q3 21 3 43q0 62 -24 98t-64 36t-61 -25t-21 -72.5t23.5 -77z" />
<glyph unicode=":" horiz-adv-x="238" d="M114 -11q-37 0 -56 20.5t-19 56t22 58.5t58 23t56 -20.5t20 -56t-22 -58.5t-59 -23zM114 262q-37 0 -56 20.5t-19 56t22 58.5t58 23t56 -20.5t20 -56t-22 -58.5t-59 -23z" />
<glyph unicode=";" horiz-adv-x="238" d="M48 108q45 34 77 34t50.5 -24t18.5 -70.5t-44 -98.5t-109 -89l-37 30v17q32 22 52 53t20 66t-31 68zM114 262q-37 0 -56 20.5t-19 56t22 58.5t58 23t56 -20.5t20 -56t-22 -58.5t-59 -23z" />
<glyph unicode="&#x3c;" horiz-adv-x="470" d="M36 213l-8 13l1 97l368 158l13 -8l20 -76q-64 -24 -303 -121v-7l300 -132l4 -15l-42 -65q-197 89 -353 156z" />
<glyph unicode="=" horiz-adv-x="506" d="M482 224l7 -12l-10 -92l-455 -2l-7 11l14 90q145 -1 234 -1zM482 402l7 -12l-10 -92l-455 -2l-7 11l14 90q145 -1 234 -1z" />
<glyph unicode="&#x3e;" horiz-adv-x="470" d="M434 325l8 -13l-1 -98l-368 -157l-13 7l-20 77q72 26 303 120v7l-300 132l-4 16l42 65q87 -40 164 -75z" />
<glyph unicode="?" horiz-adv-x="370" d="M240 496q0 94 -183 104l-8 14l37 84l15 7q110 -3 184.5 -52.5t74.5 -121.5q0 -61 -40 -101q-22 -23 -44 -40q-30 -22 -81 -56l-3 -7l15 -83l-6 -11l-88 -18l-12 6l-24 126l3 14l108 63q52 32 52 72zM211 12q-22 -23 -58.5 -23t-56 20.5t-19.5 56t22.5 58.5t58.5 23 t55.5 -20.5t19.5 -56t-22 -58.5z" />
<glyph unicode="@" horiz-adv-x="863" d="M493 -158l-1 -16l-31 -50q-205 4 -321 115t-116 288q0 90 35.5 174.5t95.5 148t145.5 102t180.5 38.5q162 0 260 -88t98 -231.5t-92.5 -239t-253.5 -95.5q-21 0 -32.5 11t-11.5 36t34 158l-8 1q-83 -151 -161 -206q-55 0 -85 39t-30 107q0 122 77.5 227t163.5 105l87 -18 l7 22l12 7l80 -14l8 -17q-53 -204 -77 -362l6 -6q88 0 138.5 59.5t50.5 156.5q0 126 -80.5 197t-224 71t-239 -103.5t-95.5 -260t96.5 -254t283.5 -102.5zM346 105q21 0 67 75.5t85 177.5q-51 29 -88 29q-32 0 -59 -62t-27 -136q0 -35 6 -59.5t16 -24.5z" />
<glyph unicode="A" horiz-adv-x="625" d="M627 -3q-79 3 -120 3q-80 0 -172 -8l-6 8l5 60q49 4 63 11t14 21.5t-5 37.5l-20 76q-26 1 -78 1t-108 -7l-25 -75q-6 -21 -6 -34.5t10 -20t36 -6.5h43l4 -7l-7 -63q-82 6 -146 6l-121 -3l8 67q24 4 38.5 18.5t26.5 47.5l178 507l159 16l11 -5q90 -347 143 -516 q11 -36 28 -51t50 -18l4 -7zM294 286q32 0 74 4l-58 220h-14l-72 -224h70z" />
<glyph unicode="B" horiz-adv-x="629" d="M331 -10l-148 10q-51 0 -147 -10l8 68q43 8 58 24t15 55l1 390q0 28 -7 39t-26 11l-34 -2l-6 8l9 61q104 -2 139 -2l153 5q104 0 158 -39.5t54 -115.5q0 -97 -107 -153q64 -17 102.5 -54t38.5 -95q0 -91 -71.5 -145.5t-189.5 -54.5zM268.5 89.5q21.5 -13.5 71.5 -13.5 t77 26.5t27 73.5q0 82 -101 105l-92 -1l-4 -145q0 -32 21.5 -45.5zM417 466q0 98 -138 98q-10 0 -13 -4q-9 -10 -13 -191q76 -9 95 -9q43 14 62 64q7 19 7 42z" />
<glyph unicode="C" horiz-adv-x="617" d="M545 28q-96 -40 -227 -40t-210.5 84.5t-79.5 238t95 248.5t255 95q79 0 191 -25l6 -13q-20 -83 -26 -189l-99 -7q2 27 2 53q0 43 -26.5 63.5t-82.5 20.5q-159 0 -159 -219q0 -122 44 -189t122 -67q54 0 84 32.5t42 105.5l99 7q-17 -104 -20 -187z" />
<glyph unicode="D" horiz-adv-x="693" d="M318 -12q-94 12 -134 12q-64 0 -146 -10l7 68q43 8 57.5 25.5t14.5 59.5l1 379q0 32 -6.5 43t-25.5 11l-33 -2l-6 9l8 62q89 -3 128 -3l159 5q152 0 237.5 -79.5t85.5 -229t-97 -250t-250 -100.5zM289 560q-16 0 -22 -5t-7 -19q-13 -273 -13 -390q0 -43 16.5 -57 t66.5 -14q178 0 178 241q0 127 -53.5 185.5t-165.5 58.5z" />
<glyph unicode="E" horiz-adv-x="597" d="M253 370l93 -1l116 8l8 -9l-14 -86q-80 3 -117.5 3t-88.5 -6q-3 -109 -3 -144.5t10.5 -45.5t56.5 -10t72 3.5t44 16.5t24.5 33.5t12.5 60.5l85 7l7 -10q-18 -90 -28 -186l-9 -11q-188 7 -270 7q-122 0 -216 -10l8 68q41 6 56.5 24.5t15.5 61.5l1 379q0 33 -6.5 43.5 t-26.5 10.5l-30 -2l-7 9l8 61q110 -3 254 -3t235 12l8 -11q-18 -89 -23 -182l-92 -6q2 26 2 40q0 41 -21 52t-80.5 11t-68 -5.5t-9.5 -27.5z" />
<glyph unicode="F" horiz-adv-x="532" d="M353 -4q-105 4 -147 4q-67 0 -170 -11l8 68q42 8 57 26t15 61l1 379q0 33 -6.5 43.5t-26.5 10.5l-30 -2l-7 9l8 61q110 -3 244.5 -3t221.5 12l7 -11q-15 -91 -20 -183l-91 -6q2 28 2 41q0 41 -18.5 52t-70.5 11t-60.5 -5.5t-9.5 -27.5l-7 -172l93 -1l105 8l8 -9l-14 -86 q-74 3 -114.5 3t-80.5 -7l-3 -119q0 -38 8.5 -51t34.5 -13l65 5l9 -10z" />
<glyph unicode="G" horiz-adv-x="654" d="M357 329l139 -2q102 0 102 5l7 -39q-26 -17 -33.5 -48t-7.5 -104t7 -100l-9 -13q-42 -17 -107 -28.5t-129 -11.5q-138 0 -218 84.5t-80 239.5t95 248.5t261 93.5q83 0 198 -25l7 -13q-20 -80 -26 -184l-99 -6q3 25 3 60.5t-24.5 53t-82.5 17.5q-90 0 -133.5 -54 t-43.5 -171t44 -183.5t124 -66.5q26 0 50 6.5t46 19.5v93q0 29 -8.5 38.5t-35.5 9.5h-51l-6 8z" />
<glyph unicode="H" horiz-adv-x="747" d="M629 133q0 -39 9 -53t33 -14l36 3l5 -8l-9 -64q-83 3 -146 3l-139 -2l8 66q42 1 57 19.5t15 72.5v127q-72 1 -108 1l-140 -10l-2 -141q0 -41 7.5 -54.5t30.5 -13.5l36 3l5 -7l-9 -64q-84 3 -117.5 3t-71.5 -2q-92 -3 -92 -7l7 65q44 9 58 25.5t14 58.5l1 385 q0 31 -7 41.5t-29 10.5l-31 -1l-5 8l8 59q79 -1 119 -1l151 7l-5 -67q-38 -6 -48 -18.5t-12 -52.5l-6 -143l128 -2q62 0 118 7v152q0 31 -7 41.5t-29 10.5l-31 -1l-5 8l8 59q85 -1 128 -1l147 7l-6 -66q-37 -5 -48.5 -15.5t-13.5 -39.5q-12 -230 -12 -395z" />
<glyph unicode="I" horiz-adv-x="365" d="M48 643l140 -1l142 7l-6 -67q-38 -5 -50 -15.5t-14 -38.5q-12 -207 -12 -395q0 -41 7.5 -54.5t30.5 -13.5l43 3l5 -7l-9 -64q-104 3 -139 3q-69 0 -150 -9l7 65q44 9 58.5 26t14.5 58l1 385q0 31 -7 41.5t-29 10.5l-35 -1l-5 8z" />
<glyph unicode="J" horiz-adv-x="333" d="M107 123v402q0 32 -6.5 42t-28.5 10l-41 -3l-6 8l8 60h124l151 8l-6 -68q-32 -6 -41 -15.5t-11 -38.5q-12 -218 -12 -427q-1 -99 -48.5 -160t-151.5 -95l-28 41l2 11q57 41 76 86.5t19 138.5z" />
<glyph unicode="K" horiz-adv-x="659" d="M257 524q-9 -396 -9 -415t7 -31.5t31 -12.5l39 3l4 -7l-9 -64q-101 3 -144 3l-139 -3l9 64q43 7 56.5 22t13.5 57l1 385q0 31 -7 41.5t-29 10.5l-31 -1l-5 8l8 60q106 -2 135 -2l138 7l-6 -67q-37 -8 -49.5 -19t-13.5 -39zM443 547q0 28 -53 31l-3 7l8 62q84 -5 125 -5 l117 4l7 -11l-8 -57q-31 -13 -59.5 -37.5t-71.5 -76.5l-103 -116l132 -202q30 -45 55.5 -65t58.5 -22l6 -9l-8 -53q-99 -12 -117 -12q-59 0 -111 84l-151 247l3 22l147 160q26 26 26 49z" />
<glyph unicode="L" horiz-adv-x="531" d="M52 643l136 -1l155 7l-8 -71q-49 -6 -61.5 -19t-14.5 -54q-11 -149 -11 -366q0 -38 11.5 -49t50.5 -11q71 0 94.5 27.5t33.5 124.5l85 9l7 -10q-17 -109 -27 -227l-9 -11q-163 8 -242 8q-118 0 -210 -10l7 68q38 6 52.5 24.5t14.5 61.5v381q0 31 -7 41.5t-29 10.5l-30 -1 l-5 8z" />
<glyph unicode="M" horiz-adv-x="841" d="M562 643l97 -2q7 0 127 7l4 -4l-6 -62q-43 -3 -58 -14t-15 -39q0 -91 24 -372q5 -54 15 -72.5t33 -18.5l29 2l4 -6l-9 -65q-61 3 -93 3t-91 -3t-64 -5l8 68q29 3 42 14.5t13 34.5l-20 336h-9q-85 -236 -152 -452l-73 -9q-85 272 -153 461h-8q-20 -323 -20 -347 q0 -33 32 -33l33 2l6 -6l-11 -65q-86 4 -119 4l-101 -8l7 67q30 4 43.5 19.5t16.5 52.5q5 36 22.5 208.5t17.5 195.5t-14.5 32t-60.5 14l-5 6l9 60q90 -5 127 -5l109 4q56 -204 124 -411h8q64 189 131 408z" />
<glyph unicode="N" horiz-adv-x="729" d="M495 577l-34 -1l-4 8l7 62q85 -4 129 -4l118 5l-5 -67q-33 -5 -47.5 -19t-15.5 -44l-13 -531l-106 -13q-148 237 -291 444h-10l-1 -308q0 -25 7.5 -35t26.5 -10l43 3l6 -7l-10 -64q-86 4 -119 4q-57 0 -133 -8l8 67q58 7 59 63l13 395q0 32 -16 44.5t-65 17.5l-8 10l7 58 q67 -5 116 -5l96 4q131 -213 267 -411h10l-2 299q-1 43 -33 43z" />
<glyph unicode="O" horiz-adv-x="674" d="M224 144q41 -69 114 -69t112.5 55.5t39.5 172.5t-42 185.5t-115.5 68.5t-111.5 -55.5t-38 -172t41 -185.5zM555 85q-91 -97 -232 -97t-218 85t-77 237t90 248t232 96t219 -83t77 -236t-91 -250z" />
<glyph unicode="P" horiz-adv-x="577" d="M53 643l126 -1l152 5q186 0 230 -121q12 -33 12 -72q0 -90 -72 -158.5t-167 -68.5h-85l-1 -74q0 -56 8 -72t38 -16l44 3l4 -6l-10 -65q-88 3 -118.5 3t-71.5 -2q-102 -5 -103 -6l8 68q41 7 55 24t14 59l1 380q0 32 -6.5 43t-25.5 11l-35 -2l-5 8zM430 440q0 63 -35 92 t-112 29q-14 0 -17 -3q-8 -5 -15 -242l88 -12q91 19 91 136z" />
<glyph unicode="Q" horiz-adv-x="679" d="M105 73q-77 85 -77 237t90 248t232 96t219 -83t77 -230q0 -114 -55 -201.5t-147 -124.5v-9q161 -112 268 -112q41 0 85 10l8 -7l11 -42q-106 -83 -134 -83q-67 0 -134 39.5t-233 176.5q-133 0 -210 85zM224 144q41 -69 114 -69t112.5 55.5t39.5 172.5t-42 185.5 t-115.5 68.5t-111.5 -55.5t-38 -172t41 -185.5z" />
<glyph unicode="R" horiz-adv-x="643" d="M569 475q0 -121 -134 -191l87 -140q28 -46 54 -66.5t57 -20.5l7 -9l-7 -53l-119 -11q-66 0 -109 93l-86 174h-70l-1 -110q0 -50 11.5 -63t59.5 -14l4 -6l-10 -62q0 3 -134 3l-143 -5l9 67q42 6 56.5 22.5t14.5 59.5l1 385q0 29 -6.5 39t-25.5 10l-35 -2l-5 8l8 61 q87 -2 126 -2l153 5q115 0 176 -44.5t61 -127.5zM427 456q0 108 -149 108q-10 0 -14 -4q-8 -9 -12 -219l90 -10q85 36 85 125z" />
<glyph unicode="S" horiz-adv-x="540" d="M220 -12q-47 0 -91 9.5t-85 28.5l-8 14q15 88 16 170l84 7q0 -82 23 -111t78.5 -29t84 21t28.5 56q0 25 -13.5 38.5t-20.5 20t-25 16.5t-26 14t-32 15q-102 50 -145.5 91t-43.5 105q0 88 75 144t192 56q85 0 151 -20l21 -7l7 -13q-17 -81 -24 -172l-76 -6l-9 7q1 16 1 35 q0 44 -22.5 62.5t-69 18.5t-73.5 -20t-27 -51q0 -48 80 -88q17 -8 55 -26t61 -31t54 -37q59 -45 59 -116q0 -92 -76 -147t-203 -55z" />
<glyph unicode="T" horiz-adv-x="569" d="M216 165v398q-43 -1 -64 -4.5t-35 -20t-18 -37t-10 -68.5l-84 -6q9 117 11 215l11 11l101 -11h311l103 11l11 -11l10 -209l-84 -6q-11 93 -28.5 113.5t-92.5 22.5q-11 -163 -11 -428q0 -37 12.5 -52.5t42.5 -15.5l53 3l4 -5l-9 -69q-122 4 -174 4l-168 -6l8 66 q66 6 83 23.5t17 81.5z" />
<glyph unicode="U" horiz-adv-x="655" d="M343 79q122 0 122 130l-4 314q-1 33 -7 43.5t-25 10.5l-33 -2l-2 4l8 66q79 -3 117 -3l119 6l-6 -67q-37 -8 -47.5 -17t-10.5 -33v-311q0 -113 -66.5 -172.5t-191.5 -59.5q-232 0 -232 216v319q0 33 -6 43.5t-26 10.5l-32 -2l-2 4l9 66q86 -3 143 -3l119 6l-7 -68 q-31 -4 -42.5 -15t-13.5 -38l-7 -291q0 -75 32 -116t92 -41z" />
<glyph unicode="V" horiz-adv-x="625" d="M0 644q83 -2 121 -2q71 0 175 8l6 -8l-5 -61q-50 -4 -63.5 -11t-13.5 -25q0 -30 91 -414h15q23 59 74.5 226.5t51.5 187t-11.5 26.5t-39.5 7h-39l-5 7l7 62q84 -5 148 -5l116 2l-7 -66q-24 -4 -34 -13.5t-20 -38.5l-184 -521l-165 -20q-89 343 -146 530q-9 31 -26.5 45.5 t-48.5 16.5l-4 7z" />
<glyph unicode="W" horiz-adv-x="964" d="M1 644q80 -2 119 -2q75 0 167 8l5 -8l-5 -61q-48 -5 -61.5 -11.5t-13.5 -25.5q0 -39 89 -413h13q32 86 110 360q-2 20 -7.5 43t-21.5 32.5t-52 10.5l-5 7l8 60q91 -2 130 -2q74 0 170 8l5 -8l-5 -61q-49 -5 -62 -11t-13 -24q0 -31 89 -415h13q22 60 72.5 228.5 t50.5 187.5t-11 25t-39 6h-38l-5 7l8 62q82 -5 143 -5l112 2l-7 -66q-23 -4 -32.5 -13.5t-19.5 -38.5l-176 -521l-159 -20q-16 92 -86 357h-10l-104 -337l-161 -20q-85 343 -141 530q-9 31 -26 45.5t-46 16.5l-4 7z" />
<glyph unicode="X" horiz-adv-x="682" d="M420 645l132 -3l112 3l4 -7l-5 -61q-45 -15 -71 -37t-61 -70l-108 -149l117 -169q30 -42 60.5 -62t71.5 -22l3 -4l-8 -66q-88 3 -130 3l-180 -8l-5 7l6 61q54 3 54 28q0 13 -15 36l-86 127l-66 -93q-35 -49 -35 -66q0 -27 49 -30l4 -7l-6 -62q-95 7 -130 7l-116 -5l-4 10 l6 60q58 21 145 134l99 131l-107 160q-27 40 -56 58t-72 26l-4 5l8 64q84 -2 159 -2l153 7l5 -9l-5 -58q-60 -3 -60 -30q0 -19 52 -97q10 -15 37 -55q16 24 39 56t34 50q25 40 25 51q0 22 -49 25l-2 5z" />
<glyph unicode="Y" horiz-adv-x="598" d="M369 645l133 -4l102 4l4 -7l-7 -61q-39 -13 -63 -39.5t-58 -88.5l-96 -179q-18 -35 -18 -138v-20.5t9.5 -31t37.5 -13.5l50 3l3 -5l-9 -69q-115 4 -153 4q-51 0 -168 -11l7 69q57 7 73.5 25t16.5 69v30q0 47 -29 102l-98 191q-24 48 -46.5 69.5t-66.5 30.5l-3 5l8 64 q89 -3 129 -3l160 8l5 -9l-5 -58q-34 -1 -47 -8t-13 -19.5t18 -56.5q40 -99 67 -152h10l79 165q14 28 14 48t-51 23l-2 5z" />
<glyph unicode="Z" horiz-adv-x="580" d="M531 16l-17 -19l-395 6l-75 -8l-25 45l351 529l-127 -8q-64 -8 -87 -33t-28 -94l-85 -6q14 124 17 216l10 10l178 -11l293 -3l18 -41q-153 -203 -361 -526l156 11q50 4 77.5 40.5t39.5 113.5l85 7q-21 -131 -25 -229z" />
<glyph unicode="[" horiz-adv-x="317" d="M296 -132l-215 11q11 276 11 376l-11 379l218 11l4 -8l-7 -57l-104 -20v-607l107 -21l4 -9z" />
<glyph unicode="\" horiz-adv-x="329" d="M12 660l12 15h81q136 -532 157 -605.5t49 -168.5l-9 -11h-85q-42 160 -84 325z" />
<glyph unicode="]" horiz-adv-x="317" d="M21 645l215 -11q-11 -276 -11 -376l11 -379l-218 -11l-4 8l7 56l104 21v607l-107 20l-4 9z" />
<glyph unicode="^" horiz-adv-x="489" d="M286 482l13 -8q51 -121 82 -192l76 -164l-65 -42l-16 5q-70 156 -133 300h-7l-50 -124l-70 -180l-77 20l-7 13q42 99 157 368z" />
<glyph unicode="_" horiz-adv-x="453" d="M2 -90l241 -1q48 0 212 4l8 -14l-11 -77l-452 -2l-9 14z" />
<glyph unicode="`" d="M66 651l-1 14l54 70l13 1q86 -90 168 -170l-30 -39l-15 -4q-77 58 -189 128z" />
<glyph unicode="a" horiz-adv-x="544" d="M336.5 62q10.5 4 10.5 14q0 13 -18 77q-21 1 -53.5 1t-93.5 -4q-22 -62 -22 -73.5t7 -16t28 -4.5h31l6 -7l-7 -53q-70 4 -122 4l-102 -2l6 57q33 6 50 49l143 393l153 13l10 -6q75 -280 114 -396q8 -27 21.5 -39t39.5 -14l3 -7l-6 -50q-66 2 -104 2l-145 -6l-5 6l4 54 q41 4 51.5 8zM257 227q23 0 57 2l-43 161h-13l-54 -163h53z" />
<glyph unicode="b" horiz-adv-x="544" d="M436 474.5q46 -31.5 46 -84t-30 -84.5t-56 -41q37 -7 75 -36t38 -79q0 -74 -59.5 -116t-161.5 -42q-120 8 -126 8l-128 -7l7 58q34 6 46 18.5t12 41.5l1 296q0 38 -25 38l-28 -1l-7 6l8 53q93 -2 121 -2l135 5q86 0 132 -31.5zM237 78.5q17 -9.5 56 -9.5q79 0 79 70 q0 59 -75 74h-73l-4 -102q0 -23 17 -32.5zM352 362q0 68 -106 68q-13 0 -14 -13q-6 -60 -6 -125q58 -7 75 -7q19 6 35 28.5t16 48.5z" />
<glyph unicode="c" horiz-adv-x="524" d="M459 22q-82 -31 -190.5 -31t-174 66t-65.5 186.5t77.5 193.5t211.5 73q62 0 162 -20l6 -11q-17 -67 -23 -154l-92 -5q1 20 1 48q0 57 -82 57q-117 0 -117 -160q0 -92 32 -140.5t91 -48.5q41 0 63.5 24t30.5 78l93 6q-13 -84 -15 -152z" />
<glyph unicode="d" horiz-adv-x="587" d="M100 117v285q0 25 -5 33.5t-19 8.5l-27 -2l-6 8l7 53q78 -2 110 -2l132 4q127 0 196.5 -61t69.5 -179.5t-79.5 -196t-207.5 -77.5q-77 9 -126 9l-108 -8l5 60q34 5 46 19t12 46zM252 428q-12 0 -16.5 -4t-5.5 -16q-10 -188 -10 -290q0 -30 12 -40.5t47 -10.5 q135 0 135 179q0 97 -38.5 139.5t-123.5 42.5z" />
<glyph unicode="e" horiz-adv-x="512" d="M226 292l74 -1l94 7l8 -9l-12 -74q-65 2 -86.5 2t-81.5 -4q-1 -24 -1 -75.5t8 -59.5t59.5 -8t72.5 15t30 72l78 6l7 -9q-15 -72 -22 -150l-10 -9q-150 5 -222 5q-104 0 -188 -8l7 59q33 4 45 18.5t12 49.5l1 284q0 25 -5 33.5t-20 8.5l-24 -1l-7 7l7 52q97 -2 218 -2 t196 9l7 -9q-14 -73 -19 -146l-85 -6q2 20 2 31q0 31 -17 39t-62.5 8t-52 -4t-6.5 -20z" />
<glyph unicode="f" horiz-adv-x="461" d="M307 -3q-89 3 -125 3q-66 0 -148 -8l7 59q34 5 45.5 19t11.5 49l1 284q0 25 -5 33.5t-20 8.5l-24 -1l-7 7l7 52q97 -2 211 -2t183 9l7 -9q-13 -75 -17 -147l-84 -5q1 21 1 31q0 30 -14.5 38.5t-53.5 8.5t-45.5 -4t-6.5 -20l-6 -124l75 -1l86 6l8 -8l-11 -74 q-61 2 -93.5 2t-67.5 -5l-1 -80q0 -30 6.5 -39.5t28.5 -9.5l52 5l8 -10z" />
<glyph unicode="g" horiz-adv-x="554" d="M300 262l117 -1l88 4l6 -35q-23 -14 -29.5 -38t-6.5 -79t5 -82l-8 -11q-73 -29 -192 -29t-185 66t-66 188t78 193.5t217 71.5q65 0 165 -20l6 -11q-18 -64 -22 -147l-92 -6q2 19 2 46t-18 40t-61 13q-68 0 -100 -38.5t-32 -126.5t32.5 -136t93.5 -48q40 0 70 16v65 q0 22 -7 29t-27 7h-38l-6 8z" />
<glyph unicode="h" horiz-adv-x="632" d="M533 109q0 -30 7 -41t27 -11l28 2l5 -7l-8 -54q-69 2 -125 2l-120 -1l7 56q33 1 45 15t12 53v93q-51 1 -78 1l-111 -8l-1 -100q0 -32 6 -42.5t25 -10.5l27 2l5 -6l-7 -54q-77 2 -104.5 2t-60 -1.5t-54.5 -2.5t-23 -2l6 56q35 6 46.5 19t11.5 46v289q0 25 -6 33t-23 8 l-24 -1l-6 8l7 50q67 -1 101 -1l134 5l-5 -58q-30 -4 -38 -13t-10 -38l-5 -105l97 -2q55 0 90 5l1 109q0 25 -6 33t-24 8l-25 -1l-5 8l7 50q0 -1 112 -1l127 5l-5 -57q-30 -4 -39.5 -12t-10.5 -31q-10 -133 -10 -297z" />
<glyph unicode="i" horiz-adv-x="320" d="M44 502l120 -1l123 5l-5 -58q-31 -4 -40.5 -11.5t-11.5 -30.5q-9 -157 -9 -297q0 -32 6 -42.5t25 -10.5l32 2l5 -6l-7 -54q-90 2 -127 2l-120 -6l6 56q35 7 46.5 19.5t11.5 45.5v289q0 25 -6 33t-23 8l-27 -1l-5 8z" />
<glyph unicode="j" horiz-adv-x="294" d="M91 98l1 306q0 25 -5.5 33t-22.5 8l-33 -2l-6 8l7 50h105l133 6l-5 -59q-26 -4 -33 -11.5t-9 -30.5q-10 -175 -10 -331q-1 -77 -42.5 -124t-131.5 -73l-25 33l2 10q45 34 60 69t15 108z" />
<glyph unicode="k" horiz-adv-x="568" d="M99 115v289q0 25 -6 33t-23 8l-24 -1l-6 8l7 50q95 -1 117 -1l120 5l-4 -58q-31 -6 -41 -14.5t-11 -29.5q-7 -301 -7 -314.5t6 -23.5t25 -10l30 2l4 -6l-7 -54q-88 2 -124 2l-120 -2l7 54q35 6 46 17.5t11 45.5zM372 421q0 23 -41 24l-3 7l7 52q72 -3 106 -3l103 3l6 -9 l-7 -49q-46 -20 -111 -97l-73 -76l101 -152q24 -35 43.5 -50.5t46.5 -18.5l7 -9l-7 -46q-88 -9 -104 -9q-51 0 -92 65l-119 193l3 19l114 119q20 18 20 37z" />
<glyph unicode="l" horiz-adv-x="461" d="M46 502l118 -1l138 5l-7 -62q-41 -4 -52 -13.5t-13 -37.5q-10 -133 -10 -280q0 -26 9.5 -34.5t37.5 -8.5q54 0 72.5 22.5t27.5 99.5l78 7l7 -9q-13 -89 -21 -186l-10 -10q-132 6 -200 6q-102 0 -184 -8l7 59q31 4 42.5 18.5t11.5 49.5l1 285q0 25 -6 33t-24 8l-23 -1 l-6 8z" />
<glyph unicode="m" horiz-adv-x="710" d="M464 501l80 -1q23 0 116 6l4 -3l-6 -55q-35 -2 -46.5 -10.5t-11.5 -30.5q0 -78 19 -280q4 -40 12 -55t27 -15l24 1l4 -5l-7 -55q-51 2 -112.5 2t-103.5 -6l7 58q24 3 34.5 11.5t10.5 27.5l-13 235h-8q-47 -110 -117 -330l-70 -7q-79 247 -117 337h-9q-13 -226 -13 -244 q0 -25 27 -25h26l5 -4l-9 -56q-76 3 -103 3l-86 -6l5 58q24 2 35.5 14.5t13.5 35.5q32 290 32 309t-10.5 25.5t-48.5 9.5l-5 6l8 53q77 -4 108 -4l100 3q38 -138 92 -296h8q49 141 98 293z" />
<glyph unicode="n" horiz-adv-x="622" d="M411 445h-27l-4 6l6 53q75 -3 145.5 -3t70.5 4l-4 -58q-28 -4 -39.5 -15t-12.5 -34l-11 -405l-103 -10q-106 158 -224 316h-9v-207q1 -21 7.5 -29t22.5 -8l33 2l6 -5l-9 -55q-76 3 -111 3l-108 -6l7 58q25 3 36 14t12 35l11 296q0 25 -13 34.5t-53 14.5l-7 8l6 51 q56 -4 102 -4l86 3q95 -147 205 -296h9l-3 203q-1 19 -7 26.5t-20 7.5z" />
<glyph unicode="o" horiz-adv-x="570" d="M288 68q52 0 80.5 39t28.5 115q0 203 -119 203q-105 0 -105 -153q0 -204 115 -204zM467 65q-74 -74 -192.5 -74t-182 65.5t-63.5 186.5t73 194t193 73t183 -64t63 -185.5t-74 -195.5z" />
<glyph unicode="p" horiz-adv-x="500" d="M47 502l108 -1l131 4q112 0 158.5 -45t46.5 -112.5t-60 -121.5t-139 -54h-71v-51q0 -39 7.5 -51.5t31.5 -12.5l35 1l3 -5l-8 -55q-80 2 -101.5 2t-40.5 -0.5t-37.5 -1.5t-35.5 -2t-39 -2l7 58q32 5 44 19t12 46v286q0 24 -5 33t-19 9l-29 -1l-6 6zM360 341q0 46 -27 67 t-85 21q-10 0 -13 -2.5t-4 -12.5q-5 -86 -8 -164l69 -9q68 15 68 100z" />
<glyph unicode="q" horiz-adv-x="574" d="M596 -74q33 0 71 8l8 -7l10 -39q-94 -70 -119 -70q-54 0 -107.5 31.5t-189.5 141.5q-113 0 -176.5 65.5t-63.5 186.5t73 194t193 73t183 -64t63 -181q0 -86 -42.5 -152t-114.5 -97v-8q122 -82 212 -82zM288 68q52 0 80.5 39t28.5 115q0 203 -119 203q-105 0 -105 -153 q0 -204 115 -204z" />
<glyph unicode="r" horiz-adv-x="555" d="M99 117v291q0 22 -5 29.5t-19 7.5l-29 -1l-6 6l8 52q74 -1 107 -1l132 4q100 0 152 -35.5t52 -102.5q0 -94 -107 -148l66 -100q44 -68 89 -68l7 -9l-7 -46l-105 -8q-58 0 -91 72l-66 130h-55l-1 -76q0 -38 9.5 -47.5t49.5 -10.5l3 -5l-8 -54q0 2 -116 2l-124 -5l7 59 q33 5 45 18t12 46zM361 352q0 78 -116 78q-8 0 -11 -4q-6 -6 -10 -157l71 -8q66 26 66 91z" />
<glyph unicode="s" horiz-adv-x="466" d="M191 -9q-40 0 -77 7.5t-72 22.5l-8 12q13 71 15 131l77 6q0 -56 19 -77.5t61 -21.5t63 14t21 37q0 18 -11 27.5t-16.5 14.5t-20 12t-21.5 10q-9 5 -61 28t-86 54.5t-34 82.5q0 70 64 114.5t165 44.5q78 0 145 -21l7 -12q-15 -64 -21 -134l-70 -6l-8 6q1 11 1 22 q0 32 -18 46.5t-53.5 14.5t-56 -13.5t-20.5 -31t7.5 -28.5t27.5 -23q23 -13 64 -31t61.5 -28.5t44.5 -28.5q48 -36 48 -93q0 -72 -64 -115t-173 -43z" />
<glyph unicode="t" horiz-adv-x="492" d="M184 129v301q-55 -1 -71 -18.5t-24 -85.5l-77 -5q7 99 9 179l9 10l87 -9h258l87 9l10 -10l7 -174l-77 -5q-9 74 -23 90.5t-66 18.5q-8 -146 -8 -319q0 -29 10 -41t35 -12l43 2l4 -4l-8 -60q-106 4 -149 4l-145 -6l6 59q54 4 68.5 17.5t14.5 58.5z" />
<glyph unicode="u" horiz-adv-x="552" d="M290 70q90 0 90 91l-2 242q-1 25 -6 33.5t-19 8.5l-26 -1l-2 3l8 56q66 -2 97 -2l103 4l-5 -58q-30 -7 -38 -13.5t-8 -24.5v-234q0 -90 -55 -137t-156.5 -47t-149 41t-47.5 126v245q0 26 -5.5 34t-21.5 8l-25 -1l-2 3l8 56q73 -2 125 -2l101 4l-6 -59q-25 -2 -34.5 -11 t-10.5 -29l-6 -227q0 -51 24 -80t69 -29z" />
<glyph unicode="v" horiz-adv-x="537" d="M210 438.5q-10 -4.5 -10 -18.5q0 -27 68 -309h14q14 31 54.5 162.5t40.5 147t-8 20t-30 4.5h-30l-4 6l5 53q72 -3 124 -3l97 1l-6 -56q-18 -3 -26 -11t-16 -30l-144 -401l-159 -16q-74 282 -115 408q-14 46 -57 49l-4 6l6 52q68 -2 106 -2l144 5l5 -6l-4 -53 q-41 -4 -51 -8.5z" />
<glyph unicode="w" horiz-adv-x="820" d="M203.5 438.5q-9.5 -4.5 -9.5 -18.5q0 -33 65 -309h12q14 31 85 274q-1 3 -2.5 13.5t-3.5 21.5q-6 25 -56 25l-4 6l7 52q77 -2 117 -2l139 5l5 -6l-4 -53q-40 -4 -49.5 -8t-9.5 -19q0 -23 65 -309h13q13 30 52.5 163t39.5 148t-8 19t-30 4h-28l-4 6l6 53q70 -3 119 -3 l94 1l-6 -56q-17 -3 -25 -10.5t-16 -30.5l-137 -401l-153 -16q-14 83 -63 261h-8l-78 -245l-154 -16q-70 282 -110 408q-14 46 -56 49q-2 4 -4 6l7 52q65 -2 102 -2l139 5l5 -6l-5 -53q-39 -4 -48.5 -8.5z" />
<glyph unicode="x" horiz-adv-x="587" d="M356 503l114 -2l96 2l3 -6l-4 -53q-38 -14 -60 -31t-49 -53l-85 -115l90 -120q47 -63 107 -66l3 -3l-7 -57q-74 2 -108 2l-154 -6l-4 6l4 53q40 1 40 19q0 9 -12 26l-66 89l-49 -64q-24 -32 -24 -46q0 -22 38 -23l4 -6l-5 -53q-83 5 -111 5l-100 -4l-3 9l4 51 q46 16 116 103l80 102l-84 114q-23 32 -45 45.5t-58 20.5l-3 4l6 56q67 -1 135 -1l130 5l4 -8l-5 -50q-44 -1 -44 -22q0 -17 68 -109q8 11 30 41q43 59 43 72q0 17 -38 18l-2 4z" />
<glyph unicode="y" horiz-adv-x="524" d="M317 503l115 -3l87 3l3 -6l-6 -53q-31 -11 -52 -33.5t-46 -65.5l-78 -140q-14 -28 -14 -97v-16t8.5 -23.5t30.5 -10.5l42 2l2 -4l-7 -60q-101 4 -145 4l-138 -8l6 59q49 5 63 18t14 52v20q0 34 -23 77l-83 150q-18 33 -37 49t-53 25l-3 4l7 56q79 -2 111 -2l136 6l5 -8 l-6 -50q-45 -1 -45 -23q0 -11 30.5 -74t33.5 -71h9l57 115q12 24 12 36q0 16 -40 17l-2 4z" />
<glyph unicode="z" horiz-adv-x="500" d="M455 13l-15 -15l-332 4l-64 -6l-22 38l283 402l-94 -7q-51 -6 -68.5 -24.5t-20.5 -70.5l-79 -5q11 101 13 174l9 8l147 -9l249 -2l17 -35q-148 -183 -292 -400l118 10q41 5 62.5 32t30.5 85l78 7q-17 -109 -20 -186z" />
<glyph unicode="{" horiz-adv-x="321" d="M129 363q0 20 -23.5 82.5t-23.5 92.5q0 50 40.5 83t108.5 33q35 0 73 -9l7 -10l-13 -56q-25 5 -46.5 5t-36 -16.5t-14.5 -39t13.5 -79.5t13.5 -86.5t-20.5 -53t-52.5 -32.5v-6q73 -24 73 -97q0 -25 -13.5 -85.5t-13.5 -84.5t15 -41.5t44 -17.5l41 6l8 -10l-11 -54 q-30 -15 -85 -15t-93 33.5t-38 82.5q0 31 23.5 92.5t23.5 79.5q0 61 -85 81l4 48q81 23 81 74z" />
<glyph unicode="|" horiz-adv-x="334" d="M204 807l16 -11q-6 -339 -6 -505l1 -549l-87 -11l-12 11q0 14 2 1054z" />
<glyph unicode="}" horiz-adv-x="321" d="M215.5 212.5q-22.5 -19.5 -22.5 -43t23.5 -85t23.5 -91.5q0 -53 -41 -87t-109 -34q-33 0 -73 9l-6 10l13 55q24 -5 46 -5t36 16.5t14 39.5t-13.5 82t-13.5 82q0 70 73 92v6q-73 25 -73 98q0 24 13.5 82.5t13.5 82t-15 41t-43 17.5l-41 -5l-8 9l11 55q30 15 85 15t93 -34 t38 -82q0 -31 -23.5 -91t-23.5 -84.5t23 -45t62 -28.5l-4 -47q-36 -10 -58.5 -29.5z" />
<glyph unicode="~" horiz-adv-x="506" d="M250.5 311.5q87.5 -19.5 104 -19.5t35.5 14t44 43h11l35 -38v-10l-91 -102l-19 -4q-26 0 -113.5 19.5t-104.5 19.5q-29 0 -66 -42l-13 -14h-11l-35 37v11l91 101l19 4q26 0 113.5 -19.5z" />
<glyph unicode="&#xa1;" horiz-adv-x="285" d="M101 451q22 23 58.5 23t56 -20.5t19.5 -56t-22.5 -58.5t-58.5 -23t-55.5 20.5t-19.5 56t22 58.5zM192 227l20 -430l-12 -17l-133 -22l-17 18l62 453l64 11z" />
<glyph unicode="&#xa2;" horiz-adv-x="432" d="M66 71.5q-41 58.5 -41 154t57 164.5t150 81l20 178l70 9l6 -9l-20 -177q44 -4 88 -19l4 -9q-17 -71 -22 -155l-65 -4v33q0 71 -62 71q-93 0 -93 -132q0 -82 28 -125t81 -43q46 0 106 29l8 -3l16 -52q-83 -67 -142 -74l-15 -140l-69 -8l-6 7l16 148q-74 17 -115 75.5z" />
<glyph unicode="&#xa3;" horiz-adv-x="518" d="M489 93q0 -46 -27.5 -75.5t-65 -29.5t-115.5 24.5t-122.5 24.5t-100.5 -36l-11 5l-20 61q92 56 92 136v41q-1 23 -13.5 30.5t-50.5 9.5l-4 6l7 52l61 10v21q0 92 68 158.5t161 66.5q74 0 112 -15l5 -11l-32 -96l-19 -3q-68 38 -109 38q-69 0 -70 -95l-3 -68l151 3l4 -5 l-11 -68q-68 3 -146 3l-2 -60q-2 -72 -47 -111l57 12q21 0 71 -9.5t69 -9.5q62 0 65 75l25 -2q21 -37 21 -83z" />
<glyph unicode="&#xa4;" horiz-adv-x="444" d="M86 278q-18 33 -18 73.5t20 74.5l-75 71l3 17l70 50q48 -52 67 -72q34 18 72.5 18t74.5 -18l68 77l18 -4l51 -71l-72 -67q21 -36 21 -76t-19 -73l74 -67l-4 -17l-71 -52l-65 70q-34 -20 -74.5 -20t-77.5 21l-68 -73l-17 4l-49 71q7 5 71 63zM140 351q0 -36 25 -61.5 t61 -25.5t62 25.5t26 61.5t-26 61.5t-62 25.5t-61 -25.5t-25 -61.5z" />
<glyph unicode="&#xa5;" horiz-adv-x="568" d="M177 267l-127 -1l-7 7l8 56h88q-56 98 -118 115v24l6 37q65 -3 91.5 -3t90 3t67.5 4l5 -10l-5 -51q-29 -2 -38 -6t-9 -14t16 -45l9 -23l47 -81l65 129q8 14 8 22.5t-5.5 10.5t-17 3t-20.5 6q1 6 1 20l5 35l116 -3l88 3l4 -6l-6 -55q-34 -11 -49 -24q-18 -16 -62 -89 q80 2 95 2l7 -9l-4 -57h-136l-26 -45q-7 -11 -10 -27q75 1 168 4l7 -10l-5 -57h-181q0 -52 7 -61.5t16.5 -10.5t23.5 -1l34 2l3 -6l-8 -58q-99 3 -142 3l-137 -9l6 60q47 6 60 20.5t15 60.5l-172 -1l-7 8l8 56h163q-9 23 -36 72z" />
<glyph unicode="&#xa6;" horiz-adv-x="334" d="M117 158l87 15l10 -10l1 -421l-87 -11l-12 11q0 254 1 416zM117 370l1 426l86 11l16 -11q-5 -246 -6 -421l-88 -12z" />
<glyph unicode="&#xa7;" horiz-adv-x="500" d="M388 52q0 -58 -56 -105t-136 -47q-55 0 -95.5 23.5t-40.5 54.5q0 68 27 105l21 -1q7 -44 37 -72.5t61 -28.5t47 13.5t16 37.5t-25 48t-60 45t-70.5 45t-60.5 59.5t-25 78.5q0 82 99 143q-12 24 -12 52q0 63 50.5 107t123.5 44q48 0 85 -15t37 -37t-10 -57t-20 -44h-19 q-12 30 -35.5 49t-45.5 19t-34.5 -12.5t-12.5 -34.5t24.5 -46.5t59.5 -46.5t70.5 -46.5t60 -59.5t24.5 -76t-26 -79.5t-70 -65.5q11 -24 11 -50zM158 408q-26 -24 -26 -55.5t23.5 -59t53.5 -46.5q101 -64 133 -96q23 25 23 55t-23 57.5t-52 46.5q-104 69 -132 98z" />
<glyph unicode="&#xa8;" d="M332.5 582q-18.5 -19 -48 -19t-45 16.5t-15.5 45t18.5 47.5t48 19t45 -16.5t15.5 -45t-18.5 -47.5zM154.5 581.5q-18.5 -18.5 -48 -18.5t-45 16.5t-15.5 45t18.5 47.5t47.5 19t45 -17t16 -45.5t-18.5 -47z" />
<glyph unicode="&#xa9;" horiz-adv-x="696" d="M456 148q-53 -19 -123 -19t-110 43.5t-40 120.5t48 124t133 47q45 0 106 -13l3 -7q-11 -43 -14 -101l-61 -3q1 13 1 26q0 41 -49 41q-69 0 -69 -101q0 -120 72 -120q26 0 40 15.5t18 49.5l59 5q-8 -56 -8 -100zM43 293q0 126 89 215.5t215.5 89.5t215.5 -89.5t89 -215.5 t-89 -215.5t-215.5 -89.5t-215.5 89.5t-89 215.5zM94 293q0 -106 74 -181t179.5 -75t180 75t74.5 181t-74.5 181t-180 75t-179.5 -75t-74 -181z" />
<glyph unicode="&#xaa;" horiz-adv-x="341" d="M295 409q11 0 29 9l10 -16q-36 -62 -67 -71q-65 0 -70 50l-7 2q-49 -49 -74 -49q-39 0 -66 29.5t-27 72.5q0 20 11 35.5t29 19.5l129 26v9q0 25 -14.5 39.5t-35.5 14.5q-40 0 -72 -22l-11 -7l-6 3l-14 44q96 52 128 52q62 0 91 -25.5t29 -65.5l-13 -125q0 -25 21 -25z M130 462q-14 -4 -14 -19.5t9 -26t26 -10.5t38 12l2 59z" />
<glyph unicode="&#xab;" horiz-adv-x="451" d="M321 229q0 -3 89 -144l-4 -16l-41 -25q-64 72 -165 171v21q92 92 165 175l41 -25l4 -16q-14 -21 -89 -141zM136 229q0 -3 89 -144l-4 -16l-41 -25q-64 72 -165 171v21q92 92 165 175l41 -25l4 -16q-14 -21 -89 -141z" />
<glyph unicode="&#xac;" horiz-adv-x="506" d="M349 222h-97l-228 -1l-7 10l14 91q145 -1 234 -1l187 6l7 -13q-9 -70 -10 -143l1 -136l-91 -14l-11 7q1 102 1 194z" />
<glyph unicode="&#xae;" horiz-adv-x="468" d="M30 507q0 85 59.5 144.5t144.5 59.5t144.5 -59.5t59.5 -144.5t-59.5 -144.5t-144.5 -59.5t-144.5 59.5t-59.5 144.5zM68 507q0 -68 49 -117t117 -49t117 49t49 117t-49 117t-117 49t-117 -49t-49 -117zM142 618l43 -1h11q22 2 35 2q86 0 86 -56q0 -38 -42 -61l24 -38 q18 -29 36 -30l2 -3q-1 -14 -6 -17.5t-26.5 -4t-30.5 5.5t-17 24l-25 51h-21v-27q0 -17 3.5 -21t19.5 -4l2 -3l-3 -22q-25 2 -39 2h-12l-45 -3l3 24q14 2 18 8.5t4 24.5v107q0 18 -10 18h-11l-2 3zM212 522l27 -2q25 9 25 36q0 32 -44 32q-5 0 -5 -8z" />
<glyph unicode="&#xaf;" d="M345 672l8 -14l-12 -76l-280 -2l-11 11l14 76q95 -1 154 -1z" />
<glyph unicode="&#xb0;" horiz-adv-x="302" d="M59 431q-38 38 -38 92.5t38 92.5t92 38t92 -38t38 -92.5t-38 -92.5t-92 -38t-92 38zM79 523q0 -31 20.5 -51.5t51.5 -20.5t51.5 20.5t20.5 51.5t-20.5 52t-51.5 21t-51.5 -21t-20.5 -52z" />
<glyph unicode="&#xb1;" horiz-adv-x="506" d="M479 225l-180 -1l1 -163l-88 -14l-11 7q0 89 1 170l-178 -1l-7 11l14 91q90 -1 171 -1l1 174l89 11l13 -7q-5 -101 -6 -178l183 6l7 -13zM470 -97l-437 -2l-9 14l11 76h232q206 0 206 4l8 -15z" />
<glyph unicode="&#xb2;" horiz-adv-x="352" d="M179 603q0 38 -44 38t-84 -54h-10l-13 63q24 35 62.5 56.5t84.5 21.5t79 -25.5t33 -67.5t-29.5 -90.5t-103.5 -128.5l3 -6h57q29 0 41.5 12.5t17.5 46.5l61 5q-14 -77 -18 -132l-11 -9q-157 6 -222 6l-55 -5l-6 48l81 87q76 90 76 134z" />
<glyph unicode="&#xb3;" horiz-adv-x="310" d="M34 419q27 -11 60.5 -11t56 14t22.5 36q0 45 -89 45l-7 8l-6 48l44 9q45 20 45 56q0 14 -10 23t-26 9q-33 0 -72 -28h-8l-17 55q23 16 61 30.5t76.5 14.5t67 -21.5t28.5 -53.5t-19.5 -55.5t-53.5 -35.5v-7q92 -29 92 -94q0 -48 -61.5 -89t-136.5 -41q-30 0 -43 17t-16 59 z" />
<glyph unicode="&#xb4;" d="M350 666l-1 -14q-96 -60 -189 -129l-15 4l-30 39q104 104 167 171l14 -1z" />
<glyph unicode="&#xb5;" horiz-adv-x="532" d="M472 92q22 0 47 17l15 -21q-18 -30 -50.5 -62.5t-53.5 -37.5q-94 0 -102 75l-8 4q-67 -72 -104 -78q-32 0 -54 17l-5 -3l-1 -59v-35l7 -122l-7 -9l-109 -20l-11 13q13 141 18 302l7 254q0 54 -9 106l7 17q93 13 133 24l9 -17q-10 -24 -18.5 -107.5t-8.5 -169.5t64 -86 q30 0 81 37v204q0 41 -10 97l7 17q92 14 138 23l10 -17q-11 -23 -19 -116t-8 -206q0 -41 35 -41z" />
<glyph unicode="&#xb6;" horiz-adv-x="567" d="M251 646l144 -4l144 3l-6 -62l-2 -4q-37 -3 -49 -11.5t-14 -34.5q-12 -87 -12 -362q0 -121 -60 -196t-171 -75q-57 0 -98.5 27t-41.5 70q0 23 12.5 55t29.5 53h16q3 -61 29.5 -95t73 -34t65.5 32t19 113v441q0 10 -4.5 12.5t-22.5 2.5q-39 0 -59 -38t-20 -104.5 t14.5 -112t49.5 -93.5v-24q-117 5 -190.5 64.5t-73.5 157.5t63 158.5t164 60.5z" />
<glyph unicode="&#xb7;" horiz-adv-x="238" d="M116 161q-37 0 -56 20.5t-19 56t22 58.5t58 23t56 -21t20 -56t-22 -58t-59 -23z" />
<glyph unicode="&#xb8;" d="M300 -141q0 -39 -40.5 -67.5t-92.5 -28.5q-28 0 -53 12t-25 31t37 63h9q1 -27 15 -41.5t34 -14.5t31.5 8.5t11.5 21.5q0 26 -86 71l32 115h52l-21 -73q27 -16 43.5 -26.5t34.5 -31t18 -39.5z" />
<glyph unicode="&#xb9;" horiz-adv-x="265" d="M182 431q0 -43 29 -43l30 1l3 -3l-9 -49q-64 2 -98 2l-112 -7l5 47q31 2 45 12.5t14 34.5v197q0 23 -6.5 30t-25.5 7l-33 -2l-4 4l4 43q80 9 120 14.5t63 8.5l9 -23q-21 -17 -26 -49q-8 -62 -8 -225z" />
<glyph unicode="&#xba;" horiz-adv-x="354" d="M287 377q-44 -46 -114.5 -46t-110 41t-39.5 114t44.5 118.5t116 45.5t109.5 -40t38 -113.5t-44 -119.5zM180 390q46 0 46 76q0 119 -53 119q-46 0 -46 -76q0 -119 53 -119z" />
<glyph unicode="&#xbb;" horiz-adv-x="451" d="M271 44l-41 25l-4 16q36 56 88 141q-66 108 -88 143l4 16l41 26q64 -72 164 -172v-20q-92 -92 -164 -175zM86 44l-41 25l-4 16q36 56 88 141q-66 108 -88 143l4 16l41 26q64 -72 164 -172v-20q-92 -92 -164 -175z" />
<glyph unicode="&#xbc;" horiz-adv-x="762" d="M182 352q0 -43 29 -43l30 2l3 -4l-9 -49q-64 3 -98 3l-112 -7l5 46q31 2 45 13t14 34v197q0 23 -6.5 30t-25.5 7l-33 -2l-4 5l4 42q80 9 120 14.5t63 8.5l9 -23q-21 -15 -26 -49q-8 -62 -8 -225zM626 653l7 -19q-176 -267 -266 -407l-202 -320l-65 27l-5 14 q121 180 207 316l262 414zM682 160h50l7 -8l-7 -62l-49 1l4 -84l-7 -7l-90 -7l-5 6q3 50 4 95l-155 2l2 53l170 238l5 2l71 -8v-221zM589 160v104h-7l-71 -104h78z" />
<glyph unicode="&#xbd;" horiz-adv-x="792" d="M182 352q0 -43 29 -43l30 2l3 -4l-9 -49q-64 3 -98 3l-112 -7l5 46q31 2 45 13t14 34v197q0 23 -6.5 30t-25.5 7l-33 -2l-4 5l4 42q80 9 120 14.5t63 8.5l9 -23q-21 -15 -26 -49q-8 -62 -8 -225zM626 653l7 -19q-176 -267 -266 -407l-202 -320l-65 27l-5 14 q121 180 207 316l262 414zM619 264q0 37 -44.5 37t-83.5 -53h-10l-13 62q24 35 62.5 57t84.5 22t79 -26t33 -67.5t-29.5 -90.5t-103.5 -129l3 -5h57q29 0 41.5 12.5t17.5 46.5l61 5q-14 -77 -18 -132l-11 -9q-157 6 -222 6l-55 -6l-6 48l81 87q76 90 76 135z" />
<glyph unicode="&#xbe;" horiz-adv-x="762" d="M34 340q27 -11 60.5 -11t56 14t22.5 36q0 45 -89 45l-7 8l-6 48l44 9q45 20 45 56q0 14 -10 23t-26 9q-32 0 -72 -27h-8l-17 54q23 16 61 30.5t76.5 14.5t67 -21.5t28.5 -53t-19.5 -55t-53.5 -36.5v-7q92 -28 92 -94q0 -48 -61.5 -88.5t-136.5 -40.5q-30 0 -43 17t-16 58 zM626 653l7 -19q-176 -267 -266 -407l-202 -320l-65 27l-5 14q121 180 207 316l262 414zM682 160h50l7 -8l-7 -62l-49 1l4 -84l-7 -7l-90 -7l-5 6q3 50 4 95l-155 2l2 53l170 238l5 2l71 -8v-221zM589 160v104h-7l-71 -104h78z" />
<glyph unicode="&#xbf;" horiz-adv-x="370" d="M182 39q-52 -32 -52 -75.5t48.5 -69.5t134.5 -31l8 -14l-37 -84l-15 -7q-110 3 -184.5 52.5t-74.5 121.5q0 61 39 100q22 23 42 38t43 31t26 18t7 5t8 5l3 7l-15 83l6 11l88 18l12 -6l24 -126l-3 -14zM159 451q22 23 58.5 23t56 -20.5t19.5 -56t-22.5 -58.5t-58.5 -23 t-55.5 20.5t-19.5 56t22 58.5z" />
<glyph unicode="&#xc0;" horiz-adv-x="625" d="M627 -3q-79 3 -120 3q-80 0 -172 -8l-6 8l5 60q49 4 63 11t14 21.5t-5 37.5l-20 76q-26 1 -78 1t-108 -7l-25 -75q-6 -21 -6 -34.5t10 -20t36 -6.5h43l4 -7l-7 -63q-82 6 -146 6l-121 -3l8 67q24 4 38.5 18.5t26.5 47.5l178 507l159 16l11 -5q90 -347 143 -516 q11 -36 28 -51t50 -18l4 -7zM294 286q32 0 74 4l-58 220h-14l-72 -224h70zM169 762l-5 13l26 77l12 5q115 -57 223 -104l-13 -47l-14 -9q-122 38 -229 65z" />
<glyph unicode="&#xc1;" horiz-adv-x="625" d="M627 -3q-79 3 -120 3q-80 0 -172 -8l-6 8l5 60q49 4 63 11t14 21.5t-5 37.5l-20 76q-26 1 -78 1t-108 -7l-25 -75q-6 -21 -6 -34.5t10 -20t36 -6.5h43l4 -7l-7 -63q-82 6 -146 6l-121 -3l8 67q24 4 38.5 18.5t26.5 47.5l178 507l159 16l11 -5q90 -347 143 -516 q11 -36 28 -51t50 -18l4 -7zM294 286q32 0 74 4l-58 220h-14l-72 -224h70zM491 775l-6 -13q-115 -29 -229 -65l-13 9l-13 47l223 104l12 -5z" />
<glyph unicode="&#xc2;" horiz-adv-x="625" d="M627 -3q-79 3 -120 3q-80 0 -172 -8l-6 8l5 60q49 4 63 11t14 21.5t-5 37.5l-20 76q-26 1 -78 1t-108 -7l-25 -75q-6 -21 -6 -34.5t10 -20t36 -6.5h43l4 -7l-7 -63q-82 6 -146 6l-121 -3l8 67q24 4 38.5 18.5t26.5 47.5l178 507l159 16l11 -5q90 -347 143 -516 q11 -36 28 -51t50 -18l4 -7zM294 286q32 0 74 4l-58 220h-14l-72 -224h70zM328 876q0 1 63 -49.5t94 -74.5l-24 -41l-16 -4q-50 25 -127 58q-48 -20 -126 -58l-16 4l-25 41q73 53 157 124h20z" />
<glyph unicode="&#xc3;" horiz-adv-x="625" d="M627 -3q-79 3 -120 3q-80 0 -172 -8l-6 8l5 60q49 4 63 11t14 21.5t-5 37.5l-20 76q-26 1 -78 1t-108 -7l-25 -75q-6 -21 -6 -34.5t10 -20t36 -6.5h43l4 -7l-7 -63q-82 6 -146 6l-121 -3l8 67q24 4 38.5 18.5t26.5 47.5l178 507l159 16l11 -5q90 -347 143 -516 q11 -36 28 -51t50 -18l4 -7zM294 286q32 0 74 4l-58 220h-14l-72 -224h70zM310 818q59 -17 72 -17q22 0 55 39l11 13h11l40 -37v-10l-79 -97l-16 -4q-18 0 -77 17t-71 17q-23 0 -56 -39l-11 -13h-11l-39 37v11l78 96l17 4q17 0 76 -17z" />
<glyph unicode="&#xc4;" horiz-adv-x="625" d="M627 -3q-79 3 -120 3q-80 0 -172 -8l-6 8l5 60q49 4 63 11t14 21.5t-5 37.5l-20 76q-26 1 -78 1t-108 -7l-25 -75q-6 -21 -6 -34.5t10 -20t36 -6.5h43l4 -7l-7 -63q-82 6 -146 6l-121 -3l8 67q24 4 38.5 18.5t26.5 47.5l178 507l159 16l11 -5q90 -347 143 -516 q11 -36 28 -51t50 -18l4 -7zM294 286q32 0 74 4l-58 220h-14l-72 -224h70zM451.5 725q-18.5 -19 -48 -19t-45 16.5t-15.5 45t18.5 47.5t48 19t45 -16.5t15.5 -45t-18.5 -47.5zM273.5 725q-18.5 -19 -48 -19t-45 16.5t-15.5 45t18.5 47.5t47.5 19t45 -16.5t16 -45 t-18.5 -47.5z" />
<glyph unicode="&#xc5;" horiz-adv-x="625" d="M627 -3q-79 3 -120 3q-80 0 -172 -8l-6 8l5 60q49 4 63 11t14 21.5t-5 37.5l-20 76q-26 1 -78 1t-108 -7l-25 -75q-6 -21 -6 -34.5t10 -20t36 -6.5h43l4 -7l-7 -63q-82 6 -146 6l-121 -3l8 67q24 4 38.5 18.5t26.5 47.5l178 507l159 16l11 -5q90 -347 143 -516 q11 -36 28 -51t50 -18l4 -7zM294 286q32 0 74 4l-58 220h-14l-72 -224h70zM320 731q40 0 40 36q0 19 -12 30.5t-34 11.5q-39 0 -39 -36q0 -21 14 -31.5t31 -10.5zM383.5 707q-26.5 -29 -69.5 -29t-66 25t-23 66t26.5 68t70.5 27t66 -25t22 -64t-26.5 -68z" />
<glyph unicode="&#xc6;" horiz-adv-x="871" d="M386 73.5q16 9.5 16 28.5q0 24 -16 147l-87 -11l-84 -16l-45 -97q-11 -25 -11 -38t11.5 -18t43.5 -5l33 -5l-6 -65q-1 1 -30 2t-69.5 2.5t-66.5 1.5l-74 -3l-5 60q10 2 27.5 22.5t32.5 50.5l208 425q-4 22 -25 22l-31 -2l-6 9l8 61q111 -3 294.5 -3t267.5 12l8 -11 q-18 -89 -23 -182l-91 -6q2 26 2 40q0 41 -22 52t-81.5 11t-68.5 -5t-10 -22l26 -182l96 12l96 19l11 -10l-13 -84l-91 -7l-88 -10l20 -123q6 -36 22.5 -52t47.5 -16q84 0 108.5 20t34.5 95l85 7l7 -10q-18 -90 -28 -186l-9 -11q-210 7 -294 7h-38q-71 0 -159 -8l-5 8l4 60 q51 4 67 13.5zM252 317l65 4l62 8l-23 181h-15z" />
<glyph unicode="&#xc7;" horiz-adv-x="617" d="M100.5 80q-72.5 83 -72.5 233.5t95 245.5t255 95q79 0 191 -25l6 -13q-20 -83 -26 -189l-99 -7q2 27 2 53q0 43 -26.5 63.5t-82.5 20.5q-159 0 -159 -219q0 -122 44 -189t122 -67q54 0 84 32.5t42 105.5l99 7q-17 -104 -20 -187l-10 -12q-83 -34 -193 -39l-9 -33 q27 -16 43.5 -26.5t34.5 -31t18 -39.5q0 -39 -40.5 -67.5t-92.5 -28.5q-28 0 -53 12t-25 31t37 63h9q1 -27 15 -41.5t34 -14.5t31.5 8.5t11.5 21.5q0 26 -86 71l21 75q-128 8 -200.5 91z" />
<glyph unicode="&#xc8;" horiz-adv-x="597" d="M253 370l93 -1l116 8l8 -9l-14 -86q-80 3 -117.5 3t-88.5 -6q-3 -109 -3 -144.5t10.5 -45.5t56.5 -10t72 3.5t44 16.5t24.5 33.5t12.5 60.5l85 7l7 -10q-18 -90 -28 -186l-9 -11q-188 7 -270 7q-122 0 -216 -10l8 68q41 6 56.5 24.5t15.5 61.5l1 379q0 33 -6.5 43.5 t-26.5 10.5l-30 -2l-7 9l8 61q110 -3 254 -3t235 12l8 -11q-18 -89 -23 -182l-92 -6q2 26 2 40q0 41 -21 52t-80.5 11t-68 -5.5t-9.5 -27.5zM155 762l-5 13l26 77l12 5q115 -57 223 -104l-13 -47l-14 -9q-122 38 -229 65z" />
<glyph unicode="&#xc9;" horiz-adv-x="597" d="M253 370l93 -1l116 8l8 -9l-14 -86q-80 3 -117.5 3t-88.5 -6q-3 -109 -3 -144.5t10.5 -45.5t56.5 -10t72 3.5t44 16.5t24.5 33.5t12.5 60.5l85 7l7 -10q-18 -90 -28 -186l-9 -11q-188 7 -270 7q-122 0 -216 -10l8 68q41 6 56.5 24.5t15.5 61.5l1 379q0 33 -6.5 43.5 t-26.5 10.5l-30 -2l-7 9l8 61q110 -3 254 -3t235 12l8 -11q-18 -89 -23 -182l-92 -6q2 26 2 40q0 41 -21 52t-80.5 11t-68 -5.5t-9.5 -27.5zM492 775l-6 -13q-115 -29 -229 -65l-13 9l-13 47l223 104l12 -5z" />
<glyph unicode="&#xca;" horiz-adv-x="597" d="M253 370l93 -1l116 8l8 -9l-14 -86q-80 3 -117.5 3t-88.5 -6q-3 -109 -3 -144.5t10.5 -45.5t56.5 -10t72 3.5t44 16.5t24.5 33.5t12.5 60.5l85 7l7 -10q-18 -90 -28 -186l-9 -11q-188 7 -270 7q-122 0 -216 -10l8 68q41 6 56.5 24.5t15.5 61.5l1 379q0 33 -6.5 43.5 t-26.5 10.5l-30 -2l-7 9l8 61q110 -3 254 -3t235 12l8 -11q-18 -89 -23 -182l-92 -6q2 26 2 40q0 41 -21 52t-80.5 11t-68 -5.5t-9.5 -27.5zM329 876q0 1 63 -49.5t94 -74.5l-24 -41l-16 -4q-50 25 -127 58q-48 -20 -126 -58l-16 4l-25 41q73 53 157 124h20z" />
<glyph unicode="&#xcb;" horiz-adv-x="597" d="M253 370l93 -1l116 8l8 -9l-14 -86q-80 3 -117.5 3t-88.5 -6q-3 -109 -3 -144.5t10.5 -45.5t56.5 -10t72 3.5t44 16.5t24.5 33.5t12.5 60.5l85 7l7 -10q-18 -90 -28 -186l-9 -11q-188 7 -270 7q-122 0 -216 -10l8 68q41 6 56.5 24.5t15.5 61.5l1 379q0 33 -6.5 43.5 t-26.5 10.5l-30 -2l-7 9l8 61q110 -3 254 -3t235 12l8 -11q-18 -89 -23 -182l-92 -6q2 26 2 40q0 41 -21 52t-80.5 11t-68 -5.5t-9.5 -27.5zM451.5 725q-18.5 -19 -48 -19t-45 16.5t-15.5 45t18.5 47.5t48 19t45 -16.5t15.5 -45t-18.5 -47.5zM273.5 725q-18.5 -19 -48 -19 t-45 16.5t-15.5 45t18.5 47.5t47.5 19t45 -16.5t16 -45t-18.5 -47.5z" />
<glyph unicode="&#xcc;" horiz-adv-x="365" d="M48 643l140 -1l142 7l-6 -67q-38 -5 -50 -15.5t-14 -38.5q-12 -207 -12 -395q0 -41 7.5 -54.5t30.5 -13.5l43 3l5 -7l-9 -64q-104 3 -139 3q-69 0 -150 -9l7 65q44 9 58.5 26t14.5 58l1 385q0 31 -7 41.5t-29 10.5l-35 -1l-5 8zM23 762l-5 13l26 77l12 5 q115 -57 223 -104l-13 -47l-14 -9q-122 38 -229 65z" />
<glyph unicode="&#xcd;" horiz-adv-x="365" d="M48 643l140 -1l142 7l-6 -67q-38 -5 -50 -15.5t-14 -38.5q-12 -207 -12 -395q0 -41 7.5 -54.5t30.5 -13.5l43 3l5 -7l-9 -64q-104 3 -139 3q-69 0 -150 -9l7 65q44 9 58.5 26t14.5 58l1 385q0 31 -7 41.5t-29 10.5l-35 -1l-5 8zM360 775l-6 -13q-115 -29 -229 -65l-13 9 l-13 47l223 104l12 -5z" />
<glyph unicode="&#xce;" horiz-adv-x="365" d="M48 643l140 -1l142 7l-6 -67q-38 -5 -50 -15.5t-14 -38.5q-12 -207 -12 -395q0 -41 7.5 -54.5t30.5 -13.5l43 3l5 -7l-9 -64q-104 3 -139 3q-69 0 -150 -9l7 65q44 9 58.5 26t14.5 58l1 385q0 31 -7 41.5t-29 10.5l-35 -1l-5 8zM196 876q0 1 63 -49.5t94 -74.5l-24 -41 l-16 -4q-50 25 -127 58q-48 -20 -126 -58l-16 4l-25 41q73 53 157 124h20z" />
<glyph unicode="&#xcf;" horiz-adv-x="365" d="M48 643l140 -1l142 7l-6 -67q-38 -5 -50 -15.5t-14 -38.5q-12 -207 -12 -395q0 -41 7.5 -54.5t30.5 -13.5l43 3l5 -7l-9 -64q-104 3 -139 3q-69 0 -150 -9l7 65q44 9 58.5 26t14.5 58l1 385q0 31 -7 41.5t-29 10.5l-35 -1l-5 8zM319.5 725q-18.5 -19 -48 -19t-45 16.5 t-15.5 45t18.5 47.5t48 19t45 -16.5t15.5 -45t-18.5 -47.5zM141.5 725q-18.5 -19 -48 -19t-45 16.5t-15.5 45t18.5 47.5t47.5 19t45 -16.5t16 -45t-18.5 -47.5z" />
<glyph unicode="&#xd0;" horiz-adv-x="709" d="M333 -12q-95 12 -135 12q-63 0 -145 -10l7 68q45 8 58.5 27.5t13.5 76.5v124h-116l-8 7l10 60h114v169q0 32 -6 43t-25 11l-33 -2l-6 9l8 62q88 -3 128 -3l158 5q151 0 237.5 -80t86.5 -229t-97.5 -249.5t-249.5 -100.5zM345 75q177 0 177 241q0 127 -53.5 185.5 t-165.5 58.5q-16 0 -22 -5t-7 -19l-8 -183l125 2l6 -9l-6 -60h-127l-2 -140q0 -43 16.5 -57t66.5 -14z" />
<glyph unicode="&#xd1;" horiz-adv-x="729" d="M495 577l-34 -1l-4 8l7 62q85 -4 129 -4l118 5l-5 -67q-33 -5 -47.5 -19t-15.5 -44l-13 -531l-106 -13q-148 237 -291 444h-10l-1 -308q0 -25 7.5 -35t26.5 -10l43 3l6 -7l-10 -64q-86 4 -119 4q-57 0 -133 -8l8 67q58 7 59 63l13 395q0 32 -16 44.5t-65 17.5l-8 10l7 58 q67 -5 116 -5l96 4q131 -213 267 -411h10l-2 299q-1 43 -33 43zM370 818q59 -17 72 -17q22 0 55 39l11 13h11l40 -37v-10l-79 -97l-16 -4q-18 0 -77 17t-71 17q-23 0 -56 -39l-11 -13h-11l-39 37v11l78 96l17 4q17 0 76 -17z" />
<glyph unicode="&#xd2;" horiz-adv-x="674" d="M224 144q41 -69 114 -69t112.5 55.5t39.5 172.5t-42 185.5t-115.5 68.5t-111.5 -55.5t-38 -172t41 -185.5zM555 85q-91 -97 -232 -97t-218 85t-77 237t90 248t232 96t219 -83t77 -236t-91 -250zM171 762l-5 13l26 77l12 5q115 -57 223 -104l-13 -47l-14 -9 q-122 38 -229 65z" />
<glyph unicode="&#xd3;" horiz-adv-x="674" d="M224 144q41 -69 114 -69t112.5 55.5t39.5 172.5t-42 185.5t-115.5 68.5t-111.5 -55.5t-38 -172t41 -185.5zM555 85q-91 -97 -232 -97t-218 85t-77 237t90 248t232 96t219 -83t77 -236t-91 -250zM508 775l-6 -13q-115 -29 -229 -65l-13 9l-13 47l223 104l12 -5z" />
<glyph unicode="&#xd4;" horiz-adv-x="674" d="M224 144q41 -69 114 -69t112.5 55.5t39.5 172.5t-42 185.5t-115.5 68.5t-111.5 -55.5t-38 -172t41 -185.5zM555 85q-91 -97 -232 -97t-218 85t-77 237t90 248t232 96t219 -83t77 -236t-91 -250zM344 876q0 1 63 -49.5t94 -74.5l-24 -41l-16 -4q-50 25 -127 58 q-48 -20 -126 -58l-16 4l-25 41q73 53 157 124h20z" />
<glyph unicode="&#xd5;" horiz-adv-x="674" d="M224 144q41 -69 114 -69t112.5 55.5t39.5 172.5t-42 185.5t-115.5 68.5t-111.5 -55.5t-38 -172t41 -185.5zM555 85q-91 -97 -232 -97t-218 85t-77 237t90 248t232 96t219 -83t77 -236t-91 -250zM326 818q59 -17 72 -17q22 0 55 39l11 13h11l40 -37v-10l-79 -97l-16 -4 q-18 0 -77 17t-71 17q-23 0 -56 -39l-11 -13h-11l-39 37v11l78 96l17 4q17 0 76 -17z" />
<glyph unicode="&#xd6;" horiz-adv-x="674" d="M224 144q41 -69 114 -69t112.5 55.5t39.5 172.5t-42 185.5t-115.5 68.5t-111.5 -55.5t-38 -172t41 -185.5zM555 85q-91 -97 -232 -97t-218 85t-77 237t90 248t232 96t219 -83t77 -236t-91 -250zM467.5 725q-18.5 -19 -48 -19t-45 16.5t-15.5 45t18.5 47.5t48 19t45 -16.5 t15.5 -45t-18.5 -47.5zM289.5 725q-18.5 -19 -48 -19t-45 16.5t-15.5 45t18.5 47.5t47.5 19t45 -16.5t16 -45t-18.5 -47.5z" />
<glyph unicode="&#xd7;" horiz-adv-x="506" d="M379 452l12 -5l57 -70l-127 -128l131 -122l-5 -13l-72 -58l-124 123l-123 -125l-14 3l-51 72q63 62 119 118l-130 129l3 14l74 53q66 -68 124 -125z" />
<glyph unicode="&#xd8;" horiz-adv-x="674" d="M132 47q-104 84 -104 249.5t90 261.5t238 96q66 0 119 -21l59 96l62 -29l3 -13l-57 -91q104 -82 104 -248t-91 -263t-240 -97q-62 0 -119 21l-70 -116l-60 29l-3 10zM340 75q71 0 110.5 55.5t39.5 160t-29 171.5l-207 -355q35 -32 86 -32zM221 501.5q-38 -55.5 -38 -158 t26 -168.5l204 353q-35 29 -85 29q-69 0 -107 -55.5z" />
<glyph unicode="&#xd9;" horiz-adv-x="655" d="M343 79q122 0 122 130l-4 314q-1 33 -7 43.5t-25 10.5l-33 -2l-2 4l8 66q79 -3 117 -3l119 6l-6 -67q-37 -8 -47.5 -17t-10.5 -33v-311q0 -113 -66.5 -172.5t-191.5 -59.5q-232 0 -232 216v319q0 33 -6 43.5t-26 10.5l-32 -2l-2 4l9 66q86 -3 143 -3l119 6l-7 -68 q-31 -4 -42.5 -15t-13.5 -38l-7 -291q0 -75 32 -116t92 -41zM177 762l-5 13l26 77l12 5q115 -57 223 -104l-13 -47l-14 -9q-122 38 -229 65z" />
<glyph unicode="&#xda;" horiz-adv-x="655" d="M343 79q122 0 122 130l-4 314q-1 33 -7 43.5t-25 10.5l-33 -2l-2 4l8 66q79 -3 117 -3l119 6l-6 -67q-37 -8 -47.5 -17t-10.5 -33v-311q0 -113 -66.5 -172.5t-191.5 -59.5q-232 0 -232 216v319q0 33 -6 43.5t-26 10.5l-32 -2l-2 4l9 66q86 -3 143 -3l119 6l-7 -68 q-31 -4 -42.5 -15t-13.5 -38l-7 -291q0 -75 32 -116t92 -41zM514 775l-6 -13q-115 -29 -229 -65l-13 9l-13 47l223 104l12 -5z" />
<glyph unicode="&#xdb;" horiz-adv-x="655" d="M343 79q122 0 122 130l-4 314q-1 33 -7 43.5t-25 10.5l-33 -2l-2 4l8 66q79 -3 117 -3l119 6l-6 -67q-37 -8 -47.5 -17t-10.5 -33v-311q0 -113 -66.5 -172.5t-191.5 -59.5q-232 0 -232 216v319q0 33 -6 43.5t-26 10.5l-32 -2l-2 4l9 66q86 -3 143 -3l119 6l-7 -68 q-31 -4 -42.5 -15t-13.5 -38l-7 -291q0 -75 32 -116t92 -41zM351 876q0 1 63 -49.5t94 -74.5l-24 -41l-16 -4q-50 25 -127 58q-48 -20 -126 -58l-16 4l-25 41q73 53 157 124h20z" />
<glyph unicode="&#xdc;" horiz-adv-x="655" d="M343 79q122 0 122 130l-4 314q-1 33 -7 43.5t-25 10.5l-33 -2l-2 4l8 66q79 -3 117 -3l119 6l-6 -67q-37 -8 -47.5 -17t-10.5 -33v-311q0 -113 -66.5 -172.5t-191.5 -59.5q-232 0 -232 216v319q0 33 -6 43.5t-26 10.5l-32 -2l-2 4l9 66q86 -3 143 -3l119 6l-7 -68 q-31 -4 -42.5 -15t-13.5 -38l-7 -291q0 -75 32 -116t92 -41zM473.5 725q-18.5 -19 -48 -19t-45 16.5t-15.5 45t18.5 47.5t48 19t45 -16.5t15.5 -45t-18.5 -47.5zM295.5 725q-18.5 -19 -48 -19t-45 16.5t-15.5 45t18.5 47.5t47.5 19t45 -16.5t16 -45t-18.5 -47.5z" />
<glyph unicode="&#xdd;" horiz-adv-x="598" d="M369 645l133 -4l102 4l4 -7l-7 -61q-39 -13 -63 -39.5t-58 -88.5l-96 -179q-18 -35 -18 -138v-20.5t9.5 -31t37.5 -13.5l50 3l3 -5l-9 -69q-115 4 -153 4q-51 0 -168 -11l7 69q57 7 73.5 25t16.5 69v30q0 47 -29 102l-98 191q-24 48 -46.5 69.5t-66.5 30.5l-3 5l8 64 q89 -3 129 -3l160 8l5 -9l-5 -58q-34 -1 -47 -8t-13 -19.5t18 -56.5q40 -99 67 -152h10l79 165q14 28 14 48t-51 23l-2 5zM497 775l-6 -13q-115 -29 -229 -65l-13 9l-13 47l223 104l12 -5z" />
<glyph unicode="&#xde;" horiz-adv-x="573" d="M260 536l-2 -24h76q227 0 227 -176q0 -82 -70 -137t-172 -55h-71v-30q0 -30 7.5 -39.5t30.5 -9.5l48 3l4 -7l-9 -64q-107 3 -143 3q-69 0 -150 -9l7 65q44 9 58.5 25.5t14.5 58.5l1 385q0 31 -7 41.5t-29 10.5l-35 -1l-5 8l7 59l140 -1l142 7l-6 -67q-39 -6 -50.5 -14.5 t-13.5 -31.5zM419 326q0 55 -34 80t-108 25q-13 0 -17.5 -3t-5.5 -11q-5 -122 -5 -185q50 -14 83 -14q87 14 87 108z" />
<glyph unicode="&#xdf;" horiz-adv-x="932" d="M191 -9q-40 0 -77 7.5t-72 22.5l-8 12q13 71 15 131l77 6q0 -56 19 -77.5t61 -21.5t63 14t21 37q0 18 -11 27.5t-16.5 14.5t-20 12t-21.5 10q-9 5 -61 28t-86 54.5t-34 82.5q0 70 64 114.5t165 44.5q78 0 145 -21l7 -12q-15 -64 -21 -134l-70 -6l-8 6q1 11 1 22 q0 32 -18 46.5t-53.5 14.5t-56 -13.5t-20.5 -31t7.5 -28.5t27.5 -23q23 -13 64 -31t61.5 -28.5t44.5 -28.5q48 -36 48 -93q0 -72 -64 -115t-173 -43zM658 -9q-40 0 -77.5 7.5t-72.5 22.5l-8 12q13 71 15 131l77 6q0 -56 19 -77.5t61 -21.5t63 14t21 37q0 18 -11 27.5 t-16.5 14.5t-20 12t-21.5 10q-9 5 -44.5 21t-54.5 27t-40 28q-41 34 -41 89q0 71 63.5 115t164.5 44q78 0 145 -21l7 -12q-15 -64 -20 -134l-71 -6l-8 6q1 11 1 22q0 32 -18 46.5t-53.5 14.5t-56 -13.5t-20.5 -31t7.5 -28.5t27.5 -23q23 -13 64 -31t61.5 -28.5t44.5 -28.5 q48 -36 48 -93q0 -72 -64 -115t-172 -43z" />
<glyph unicode="&#xe0;" horiz-adv-x="544" d="M336.5 62q10.5 4 10.5 14q0 13 -18 77q-21 1 -53.5 1t-93.5 -4q-22 -62 -22 -73.5t7 -16t28 -4.5h31l6 -7l-7 -53q-70 4 -122 4l-102 -2l6 57q33 6 50 49l143 393l153 13l10 -6q75 -280 114 -396q8 -27 21.5 -39t39.5 -14l3 -7l-6 -50q-66 2 -104 2l-145 -6l-5 6l4 54 q41 4 51.5 8zM257 227q23 0 57 2l-43 161h-13l-54 -163h53zM127 620l-5 13l26 77l12 5q115 -57 223 -104l-13 -47l-14 -9q-87 27 -229 65z" />
<glyph unicode="&#xe1;" horiz-adv-x="544" d="M336.5 62q10.5 4 10.5 14q0 13 -18 77q-21 1 -53.5 1t-93.5 -4q-22 -62 -22 -73.5t7 -16t28 -4.5h31l6 -7l-7 -53q-70 4 -122 4l-102 -2l6 57q33 6 50 49l143 393l153 13l10 -6q75 -280 114 -396q8 -27 21.5 -39t39.5 -14l3 -7l-6 -50q-66 2 -104 2l-145 -6l-5 6l4 54 q41 4 51.5 8zM257 227q23 0 57 2l-43 161h-13l-54 -163h53zM439 633l-6 -13q-115 -29 -229 -65l-13 9l-13 47l223 104l12 -5z" />
<glyph unicode="&#xe2;" horiz-adv-x="544" d="M336.5 62q10.5 4 10.5 14q0 13 -18 77q-21 1 -53.5 1t-93.5 -4q-22 -62 -22 -73.5t7 -16t28 -4.5h31l6 -7l-7 -53q-70 4 -122 4l-102 -2l6 57q33 6 50 49l143 393l153 13l10 -6q75 -280 114 -396q8 -27 21.5 -39t39.5 -14l3 -7l-6 -50q-66 2 -104 2l-145 -6l-5 6l4 54 q41 4 51.5 8zM257 227q23 0 57 2l-43 161h-13l-54 -163h53zM286 734q0 1 63 -49.5t94 -74.5l-24 -41l-16 -4q-50 25 -127 58q-48 -20 -126 -58l-16 4l-25 41q73 53 157 124h20z" />
<glyph unicode="&#xe3;" horiz-adv-x="544" d="M336.5 62q10.5 4 10.5 14q0 13 -18 77q-21 1 -53.5 1t-93.5 -4q-22 -62 -22 -73.5t7 -16t28 -4.5h31l6 -7l-7 -53q-70 4 -122 4l-102 -2l6 57q33 6 50 49l143 393l153 13l10 -6q75 -280 114 -396q8 -27 21.5 -39t39.5 -14l3 -7l-6 -50q-66 2 -104 2l-145 -6l-5 6l4 54 q41 4 51.5 8zM257 227q23 0 57 2l-43 161h-13l-54 -163h53zM267 676q59 -17 71 -17q23 0 56 39l11 13h11l40 -37v-10l-79 -97l-16 -4q-18 0 -77 17t-72 17q-22 0 -55 -39l-11 -13h-11l-39 37v11l78 96l17 4q17 0 76 -17z" />
<glyph unicode="&#xe4;" horiz-adv-x="544" d="M336.5 62q10.5 4 10.5 14q0 13 -18 77q-21 1 -53.5 1t-93.5 -4q-22 -62 -22 -73.5t7 -16t28 -4.5h31l6 -7l-7 -53q-70 4 -122 4l-102 -2l6 57q33 6 50 49l143 393l153 13l10 -6q75 -280 114 -396q8 -27 21.5 -39t39.5 -14l3 -7l-6 -50q-66 2 -104 2l-145 -6l-5 6l4 54 q41 4 51.5 8zM257 227q23 0 57 2l-43 161h-13l-54 -163h53zM409.5 583q-18.5 -19 -48 -19t-45 16.5t-15.5 45t18.5 47.5t48 19t45 -16.5t15.5 -45t-18.5 -47.5zM231.5 583q-18.5 -19 -48 -19t-45 16.5t-15.5 45t18.5 47.5t47.5 19t45 -16.5t16 -45t-18.5 -47.5z" />
<glyph unicode="&#xe5;" horiz-adv-x="544" d="M336.5 62q10.5 4 10.5 14q0 13 -18 77q-21 1 -53.5 1t-93.5 -4q-22 -62 -22 -73.5t7 -16t28 -4.5h31l6 -7l-7 -53q-70 4 -122 4l-102 -2l6 57q33 6 50 49l143 393l153 13l10 -6q75 -280 114 -396q8 -27 21.5 -39t39.5 -14l3 -7l-6 -50q-66 2 -104 2l-145 -6l-5 6l4 54 q41 4 51.5 8zM257 227q23 0 57 2l-43 161h-13l-54 -163h53zM278 589q40 0 40 36q0 19 -12 30.5t-34 11.5q-39 0 -39 -36q0 -21 14 -31.5t31 -10.5zM341.5 565q-26.5 -29 -69.5 -29t-66 25t-23 66t26.5 68t70.5 27t66 -25t22 -64t-26.5 -68z" />
<glyph unicode="&#xe6;" horiz-adv-x="751" d="M342 89l-11 97l-70 -8l-68 -15l-30 -65q-9 -15 -9 -25.5t9 -13.5t36 -3l23 -5l-6 -55q-88 4 -143 4l-63 -2l-3 54q23 4 49 52l163 322q-4 19 -21 19l-24 -1l-7 7l7 52q102 -2 260 -2t228 9l7 -9q-15 -73 -19 -146l-85 -6q2 20 2 31q0 31 -17.5 39t-62.5 8t-52 -3.5 t-8 -17.5l20 -129l74 10l81 17l9 -10l-10 -73l-75 -7l-68 -9l14 -83q9 -53 55 -53q64 0 83 15.5t27 72.5l79 6l7 -9q-15 -72 -23 -150l-9 -9q-187 5 -248 5h-33l-133 -6l-4 6l4 54q40 3 52.5 10t12.5 25zM227 248l97 10l-17 131h-13z" />
<glyph unicode="&#xe7;" horiz-adv-x="524" d="M88 63q-59 65 -59 183t77.5 191t211.5 73q62 0 162 -20l6 -11q-17 -67 -23 -154l-92 -5q1 20 1 48q0 57 -82 57q-117 0 -117 -160q0 -92 32 -140.5t91 -48.5q41 0 63.5 24t30.5 78l93 6q-13 -84 -15 -152l-9 -10q-67 -25 -156 -30l-10 -36q27 -16 43.5 -26.5t34.5 -31 t18 -39.5q0 -39 -40.5 -67.5t-92.5 -28.5q-28 0 -53 12t-25 31t37 63h9q1 -27 15 -41.5t34 -14.5t31.5 8.5t11.5 21.5q0 26 -86 71l21 78q-104 6 -163 71z" />
<glyph unicode="&#xe8;" horiz-adv-x="512" d="M226 292l74 -1l94 7l8 -9l-12 -74q-65 2 -86.5 2t-81.5 -4q-1 -24 -1 -75.5t8 -59.5t59.5 -8t72.5 15t30 72l78 6l7 -9q-15 -72 -22 -150l-10 -9q-150 5 -222 5q-104 0 -188 -8l7 59q33 4 45 18.5t12 49.5l1 284q0 25 -5 33.5t-20 8.5l-24 -1l-7 7l7 52q97 -2 218 -2 t196 9l7 -9q-14 -73 -19 -146l-85 -6q2 20 2 31q0 31 -17 39t-62.5 8t-52 -4t-6.5 -20zM119 620l-5 13l26 77l12 5q115 -57 223 -104l-13 -47l-14 -9q-87 27 -229 65z" />
<glyph unicode="&#xe9;" horiz-adv-x="512" d="M226 292l74 -1l94 7l8 -9l-12 -74q-65 2 -86.5 2t-81.5 -4q-1 -24 -1 -75.5t8 -59.5t59.5 -8t72.5 15t30 72l78 6l7 -9q-15 -72 -22 -150l-10 -9q-150 5 -222 5q-104 0 -188 -8l7 59q33 4 45 18.5t12 49.5l1 284q0 25 -5 33.5t-20 8.5l-24 -1l-7 7l7 52q97 -2 218 -2 t196 9l7 -9q-14 -73 -19 -146l-85 -6q2 20 2 31q0 31 -17 39t-62.5 8t-52 -4t-6.5 -20zM436 633l-6 -13q-115 -29 -229 -65l-13 9l-13 47l223 104l12 -5z" />
<glyph unicode="&#xea;" horiz-adv-x="512" d="M226 292l74 -1l94 7l8 -9l-12 -74q-65 2 -86.5 2t-81.5 -4q-1 -24 -1 -75.5t8 -59.5t59.5 -8t72.5 15t30 72l78 6l7 -9q-15 -72 -22 -150l-10 -9q-150 5 -222 5q-104 0 -188 -8l7 59q33 4 45 18.5t12 49.5l1 284q0 25 -5 33.5t-20 8.5l-24 -1l-7 7l7 52q97 -2 218 -2 t196 9l7 -9q-14 -73 -19 -146l-85 -6q2 20 2 31q0 31 -17 39t-62.5 8t-52 -4t-6.5 -20zM284 734q0 1 63 -49.5t94 -74.5l-24 -41l-16 -4q-50 25 -127 58q-48 -20 -126 -58l-16 4l-25 41q73 53 157 124h20z" />
<glyph unicode="&#xeb;" horiz-adv-x="512" d="M226 292l74 -1l94 7l8 -9l-12 -74q-65 2 -86.5 2t-81.5 -4q-1 -24 -1 -75.5t8 -59.5t59.5 -8t72.5 15t30 72l78 6l7 -9q-15 -72 -22 -150l-10 -9q-150 5 -222 5q-104 0 -188 -8l7 59q33 4 45 18.5t12 49.5l1 284q0 25 -5 33.5t-20 8.5l-24 -1l-7 7l7 52q97 -2 218 -2 t196 9l7 -9q-14 -73 -19 -146l-85 -6q2 20 2 31q0 31 -17 39t-62.5 8t-52 -4t-6.5 -20zM406.5 583q-18.5 -19 -48 -19t-45 16.5t-15.5 45t19 47.5t48 19t44.5 -16.5t15.5 -45t-18.5 -47.5zM228.5 583q-18.5 -19 -48 -19t-45 16.5t-15.5 45t18.5 47.5t47.5 19t45 -16.5 t16 -45t-18.5 -47.5z" />
<glyph unicode="&#xec;" horiz-adv-x="320" d="M44 502l120 -1l123 5l-5 -58q-31 -4 -40.5 -11.5t-11.5 -30.5q-9 -157 -9 -297q0 -32 6 -42.5t25 -10.5l32 2l5 -6l-7 -54q-90 2 -127 2l-120 -6l6 56q35 7 46.5 19.5t11.5 45.5v289q0 25 -6 33t-23 8l-27 -1l-5 8zM9 620l-5 13l26 77l12 5q115 -57 223 -104l-13 -47 l-14 -9q-87 27 -229 65z" />
<glyph unicode="&#xed;" horiz-adv-x="320" d="M44 502l120 -1l123 5l-5 -58q-31 -4 -40.5 -11.5t-11.5 -30.5q-9 -157 -9 -297q0 -32 6 -42.5t25 -10.5l32 2l5 -6l-7 -54q-90 2 -127 2l-120 -6l6 56q35 7 46.5 19.5t11.5 45.5v289q0 25 -6 33t-23 8l-27 -1l-5 8zM325 633l-6 -13q-115 -29 -229 -65l-13 9l-13 47 l223 104l12 -5z" />
<glyph unicode="&#xee;" horiz-adv-x="320" d="M44 502l120 -1l123 5l-5 -58q-31 -4 -40.5 -11.5t-11.5 -30.5q-9 -157 -9 -297q0 -32 6 -42.5t25 -10.5l32 2l5 -6l-7 -54q-90 2 -127 2l-120 -6l6 56q35 7 46.5 19.5t11.5 45.5v289q0 25 -6 33t-23 8l-27 -1l-5 8zM173 734q0 1 63 -49.5t94 -74.5l-24 -41l-16 -4 q-50 25 -127 58q-48 -20 -126 -58l-16 4l-25 41q73 53 157 124h20z" />
<glyph unicode="&#xef;" horiz-adv-x="320" d="M44 502l120 -1l123 5l-5 -58q-31 -4 -40.5 -11.5t-11.5 -30.5q-9 -157 -9 -297q0 -32 6 -42.5t25 -10.5l32 2l5 -6l-7 -54q-90 2 -127 2l-120 -6l6 56q35 7 46.5 19.5t11.5 45.5v289q0 25 -6 33t-23 8l-27 -1l-5 8zM295.5 583q-18.5 -19 -48 -19t-45 16.5t-15.5 45 t18.5 47.5t48 19t45 -16.5t15.5 -45t-18.5 -47.5zM117.5 583q-18.5 -19 -48 -19t-45 16.5t-15.5 45t18.5 47.5t47.5 19t45 -16.5t16 -45t-18.5 -47.5z" />
<glyph unicode="&#xf0;" horiz-adv-x="602" d="M114 128v90h-91l-7 6l9 53h89v125q0 25 -5 33.5t-20 8.5l-26 -2l-6 8l7 53q77 -2 110 -2l132 4q126 0 196 -61.5t70 -179.5t-79.5 -195.5t-207.5 -77.5q-78 9 -126 9l-109 -8l6 60q36 5 47 20t11 56zM293 67q134 0 134 179q0 97 -38 139.5t-123 42.5q-13 0 -17.5 -4.5 t-4.5 -15.5l-7 -130l93 1l6 -7l-6 -54h-95l-1 -100q0 -31 12 -41t47 -10z" />
<glyph unicode="&#xf1;" horiz-adv-x="622" d="M411 445h-27l-4 6l6 53q75 -3 145.5 -3t70.5 4l-4 -58q-28 -4 -39.5 -15t-12.5 -34l-11 -405l-103 -10q-106 158 -224 316h-9v-207q1 -21 7.5 -29t22.5 -8l33 2l6 -5l-9 -55q-76 3 -111 3l-108 -6l7 58q25 3 36 14t12 35l11 296q0 25 -13 34.5t-53 14.5l-7 8l6 51 q56 -4 102 -4l86 3q95 -147 205 -296h9l-3 203q-1 19 -7 26.5t-20 7.5zM314 676q59 -17 72 -17q22 0 55 39l11 13h11l40 -37v-10l-79 -97l-16 -4q-18 0 -77 17t-71 17q-23 0 -56 -39l-11 -13h-11l-39 37v11l78 96l17 4q17 0 76 -17z" />
<glyph unicode="&#xf2;" horiz-adv-x="570" d="M288 68q52 0 80.5 39t28.5 115q0 203 -119 203q-105 0 -105 -153q0 -204 115 -204zM467 65q-74 -74 -192.5 -74t-182 65.5t-63.5 186.5t73 194t193 73t183 -64t63 -185.5t-74 -195.5zM139 620l-5 13l26 77l12 5q115 -57 223 -104l-13 -47l-14 -9q-87 27 -229 65z" />
<glyph unicode="&#xf3;" horiz-adv-x="570" d="M288 68q52 0 80.5 39t28.5 115q0 203 -119 203q-105 0 -105 -153q0 -204 115 -204zM467 65q-74 -74 -192.5 -74t-182 65.5t-63.5 186.5t73 194t193 73t183 -64t63 -185.5t-74 -195.5zM446 633l-6 -13q-115 -29 -229 -65l-13 9l-13 47l223 104l12 -5z" />
<glyph unicode="&#xf4;" horiz-adv-x="570" d="M288 68q52 0 80.5 39t28.5 115q0 203 -119 203q-105 0 -105 -153q0 -204 115 -204zM467 65q-74 -74 -192.5 -74t-182 65.5t-63.5 186.5t73 194t193 73t183 -64t63 -185.5t-74 -195.5zM298 734q0 1 63 -49.5t94 -74.5l-24 -41l-16 -4q-50 25 -127 58q-48 -20 -126 -58 l-16 4l-25 41q73 53 157 124h20z" />
<glyph unicode="&#xf5;" horiz-adv-x="570" d="M288 68q52 0 80.5 39t28.5 115q0 203 -119 203q-105 0 -105 -153q0 -204 115 -204zM467 65q-74 -74 -192.5 -74t-182 65.5t-63.5 186.5t73 194t193 73t183 -64t63 -185.5t-74 -195.5zM279 676q59 -17 71 -17q23 0 56 39l11 13h11l40 -37v-10l-79 -97l-16 -4q-18 0 -77 17 t-72 17q-22 0 -55 -39l-11 -13h-11l-39 37v11l78 96l17 4q17 0 76 -17z" />
<glyph unicode="&#xf6;" horiz-adv-x="570" d="M288 68q52 0 80.5 39t28.5 115q0 203 -119 203q-105 0 -105 -153q0 -204 115 -204zM467 65q-74 -74 -192.5 -74t-182 65.5t-63.5 186.5t73 194t193 73t183 -64t63 -185.5t-74 -195.5zM421.5 583q-18.5 -19 -48 -19t-45 16.5t-15.5 45t18.5 47.5t48 19t45 -16.5t15.5 -45 t-18.5 -47.5zM243.5 583q-18.5 -19 -48 -19t-45 16.5t-15.5 45t18.5 47.5t47.5 19t45 -16.5t16 -45t-18.5 -47.5z" />
<glyph unicode="&#xf7;" horiz-adv-x="506" d="M482 312l7 -12l-10 -92l-455 -2l-7 11l14 90q145 -1 234 -1zM299.5 28q-20.5 -21 -54 -21t-51 19t-17.5 51t20.5 53t53.5 21t51 -19t18 -51t-20.5 -53zM299.5 383q-20.5 -21 -54 -21t-51 19t-17.5 51t20.5 53t53.5 21t51 -19t18 -51t-20.5 -53z" />
<glyph unicode="&#xf8;" horiz-adv-x="570" d="M107 43q-78 66 -78 193.5t73 200.5t198 73q54 0 96 -15l54 80l60 -30l1 -11l-50 -74q80 -63 80 -192t-74 -203t-198 -74q-54 0 -100 16l-64 -94l-58 31l-2 8zM224 90q25 -22 70.5 -22t74 39t28.5 113t-15 119zM173 272q0 -63 11 -109l154 243q-27 19 -60 19 q-105 0 -105 -153z" />
<glyph unicode="&#xf9;" horiz-adv-x="552" d="M290 70q90 0 90 91l-2 242q-1 25 -6 33.5t-19 8.5l-26 -1l-2 3l8 56q66 -2 97 -2l103 4l-5 -58q-30 -7 -38 -13.5t-8 -24.5v-234q0 -90 -55 -137t-156.5 -47t-149 41t-47.5 126v245q0 26 -5.5 34t-21.5 8l-25 -1l-2 3l8 56q73 -2 125 -2l101 4l-6 -59q-25 -2 -34.5 -11 t-10.5 -29l-6 -227q0 -51 24 -80t69 -29zM134 620l-5 13l26 77l12 5q115 -57 223 -104l-13 -47l-14 -9q-87 27 -229 65z" />
<glyph unicode="&#xfa;" horiz-adv-x="552" d="M290 70q90 0 90 91l-2 242q-1 25 -6 33.5t-19 8.5l-26 -1l-2 3l8 56q66 -2 97 -2l103 4l-5 -58q-30 -7 -38 -13.5t-8 -24.5v-234q0 -90 -55 -137t-156.5 -47t-149 41t-47.5 126v245q0 26 -5.5 34t-21.5 8l-25 -1l-2 3l8 56q73 -2 125 -2l101 4l-6 -59q-25 -2 -34.5 -11 t-10.5 -29l-6 -227q0 -51 24 -80t69 -29zM446 633l-6 -13q-115 -29 -229 -65l-13 9l-13 47l223 104l12 -5z" />
<glyph unicode="&#xfb;" horiz-adv-x="552" d="M290 70q90 0 90 91l-2 242q-1 25 -6 33.5t-19 8.5l-26 -1l-2 3l8 56q66 -2 97 -2l103 4l-5 -58q-30 -7 -38 -13.5t-8 -24.5v-234q0 -90 -55 -137t-156.5 -47t-149 41t-47.5 126v245q0 26 -5.5 34t-21.5 8l-25 -1l-2 3l8 56q73 -2 125 -2l101 4l-6 -59q-25 -2 -34.5 -11 t-10.5 -29l-6 -227q0 -51 24 -80t69 -29zM298 734q0 1 63 -49.5t94 -74.5l-24 -41l-16 -4q-50 25 -127 58q-48 -20 -126 -58l-16 4l-25 41q73 53 157 124h20z" />
<glyph unicode="&#xfc;" horiz-adv-x="552" d="M290 70q90 0 90 91l-2 242q-1 25 -6 33.5t-19 8.5l-26 -1l-2 3l8 56q66 -2 97 -2l103 4l-5 -58q-30 -7 -38 -13.5t-8 -24.5v-234q0 -90 -55 -137t-156.5 -47t-149 41t-47.5 126v245q0 26 -5.5 34t-21.5 8l-25 -1l-2 3l8 56q73 -2 125 -2l101 4l-6 -59q-25 -2 -34.5 -11 t-10.5 -29l-6 -227q0 -51 24 -80t69 -29zM421.5 583q-18.5 -19 -48 -19t-45 16.5t-15.5 45t18.5 47.5t48 19t45 -16.5t15.5 -45t-18.5 -47.5zM243.5 583q-18.5 -19 -48 -19t-45 16.5t-15.5 45t18.5 47.5t47.5 19t45 -16.5t16 -45t-18.5 -47.5z" />
<glyph unicode="&#xfd;" horiz-adv-x="524" d="M317 503l115 -3l87 3l3 -6l-6 -53q-31 -11 -52 -33.5t-46 -65.5l-78 -140q-14 -28 -14 -97v-16t8.5 -23.5t30.5 -10.5l42 2l2 -4l-7 -60q-101 4 -145 4l-138 -8l6 59q49 5 63 18t14 52v20q0 34 -23 77l-83 150q-18 33 -37 49t-53 25l-3 4l7 56q79 -2 111 -2l136 6l5 -8 l-6 -50q-45 -1 -45 -23q0 -11 30.5 -74t33.5 -71h9l57 115q12 24 12 36q0 16 -40 17l-2 4zM443 633l-6 -13q-115 -29 -229 -65l-13 9l-13 47l223 104l12 -5z" />
<glyph unicode="&#xfe;" horiz-adv-x="497" d="M282 448q-32 -5 -41.5 -11.5t-11.5 -35.5h61q191 0 191 -141q0 -64 -57.5 -106.5t-144.5 -42.5h-58v-22q0 -20 6 -26.5t25 -6.5l37 2l5 -6l-7 -54q-94 2 -132 2l-120 -6l6 56q35 6 46.5 19t11.5 46v289q0 25 -6 33t-23 8l-27 -1l-5 8l6 50l120 -1l123 5zM225 317l-3 -130 q35 -10 64 -10q65 11 65 78q0 39 -25.5 57t-81.5 18q-18 0 -19 -13z" />
<glyph unicode="&#xff;" horiz-adv-x="524" d="M317 503l115 -3l87 3l3 -6l-6 -53q-31 -11 -52 -33.5t-46 -65.5l-78 -140q-14 -28 -14 -97v-16t8.5 -23.5t30.5 -10.5l42 2l2 -4l-7 -60q-101 4 -145 4l-138 -8l6 59q49 5 63 18t14 52v20q0 34 -23 77l-83 150q-18 33 -37 49t-53 25l-3 4l7 56q79 -2 111 -2l136 6l5 -8 l-6 -50q-45 -1 -45 -23q0 -11 30.5 -74t33.5 -71h9l57 115q12 24 12 36q0 16 -40 17l-2 4zM412.5 583q-18.5 -19 -48 -19t-45 16.5t-15.5 45t19 47.5t48 19t44.5 -16.5t15.5 -45t-18.5 -47.5zM234.5 583q-18.5 -19 -48 -19t-45 16.5t-15.5 45t18.5 47.5t47.5 19t45 -16.5 t16 -45t-18.5 -47.5z" />
<glyph unicode="&#x100;" horiz-adv-x="625" d="M627 -3q-79 3 -120 3q-80 0 -172 -8l-6 8l5 60q49 4 63 11t14 21.5t-5 37.5l-20 76q-26 1 -78 1t-108 -7l-25 -75q-6 -21 -6 -34.5t10 -20t36 -6.5h43l4 -7l-7 -63q-82 6 -146 6l-121 -3l8 67q24 4 38.5 18.5t26.5 47.5l178 507l159 16l11 -5q90 -347 143 -516 q11 -36 28 -51t50 -18l4 -7zM294 286q32 0 74 4l-58 220h-14l-72 -224h70zM463 800l8 -14l-12 -77l-280 -2l-11 12l14 76q95 -1 154 -1z" />
<glyph unicode="&#x101;" horiz-adv-x="544" d="M336.5 62q10.5 4 10.5 14q0 13 -18 77q-21 1 -53.5 1t-93.5 -4q-22 -62 -22 -73.5t7 -16t28 -4.5h31l6 -7l-7 -53q-70 4 -122 4l-102 -2l6 57q33 6 50 49l143 393l153 13l10 -6q75 -280 114 -396q8 -27 21.5 -39t39.5 -14l3 -7l-6 -50q-66 2 -104 2l-145 -6l-5 6l4 54 q41 4 51.5 8zM257 227q23 0 57 2l-43 161h-13l-54 -163h53zM420 658l8 -14l-12 -77l-280 -2l-11 12l14 76q95 -1 154 -1z" />
<glyph unicode="&#x102;" horiz-adv-x="625" d="M627 -3q-79 3 -120 3q-80 0 -172 -8l-6 8l5 60q49 4 63 11t14 21.5t-5 37.5l-20 76q-26 1 -78 1t-108 -7l-25 -75q-6 -21 -6 -34.5t10 -20t36 -6.5h43l4 -7l-7 -63q-82 6 -146 6l-121 -3l8 67q24 4 38.5 18.5t26.5 47.5l178 507l159 16l11 -5q90 -347 143 -516 q11 -36 28 -51t50 -18l4 -7zM294 286q32 0 74 4l-58 220h-14l-72 -224h70zM317 788q76 0 103 60l17 -4l28 -35q-15 -50 -52 -83t-96 -33t-96 33t-52 83l28 35l17 4q27 -60 103 -60z" />
<glyph unicode="&#x103;" horiz-adv-x="544" d="M336.5 62q10.5 4 10.5 14q0 13 -18 77q-21 1 -53.5 1t-93.5 -4q-22 -62 -22 -73.5t7 -16t28 -4.5h31l6 -7l-7 -53q-70 4 -122 4l-102 -2l6 57q33 6 50 49l143 393l153 13l10 -6q75 -280 114 -396q8 -27 21.5 -39t39.5 -14l3 -7l-6 -50q-66 2 -104 2l-145 -6l-5 6l4 54 q41 4 51.5 8zM257 227q23 0 57 2l-43 161h-13l-54 -163h53zM275 651q76 0 103 60l17 -4l28 -35q-15 -50 -52 -83t-96 -33t-96 33t-52 83l28 35l17 4q27 -60 103 -60z" />
<glyph unicode="&#x104;" horiz-adv-x="625" d="M444.5 -216.5q-32.5 24.5 -32.5 61.5t22 71.5t69 83.5q-76 0 -168 -8l-6 8l5 60q49 4 63 11t14 21.5t-5 37.5l-20 76q-26 1 -78 1t-108 -7l-25 -75q-6 -21 -6 -34.5t10 -20t36 -6.5h43l4 -7l-7 -63q-82 6 -146 6l-121 -3l8 67q24 4 38.5 18.5t26.5 47.5l178 507l159 16 l11 -5q90 -347 143 -516q11 -36 28 -51t50 -18l4 -7l-7 -59q-32 2 -65 3q-39 -47 -54 -73t-15 -48t14 -35.5t33 -13.5q35 0 75 24l18 -29q-52 -49 -102 -66q-54 0 -86.5 24.5zM294 286q32 0 74 4l-58 220h-14l-72 -224h70z" />
<glyph unicode="&#x105;" horiz-adv-x="544" d="M365.5 -217.5q-31.5 23.5 -31.5 60.5t22.5 72t70.5 85l-141 -6l-5 6l4 54q41 4 51.5 8t10.5 14q0 13 -18 77q-21 1 -53.5 1t-93.5 -4q-22 -62 -22 -73.5t7 -16t28 -4.5h31l6 -7l-7 -53q-70 4 -122 4l-102 -2l6 57q33 6 50 49l143 393l153 13l10 -6q75 -280 114 -396 q8 -27 21.5 -39t39.5 -14l3 -7l-6 -50q-24 1 -50 2q-40 -47 -55.5 -73.5t-15.5 -49t13.5 -36t32.5 -13.5q34 0 74 24l17 -28q-51 -49 -100 -65q-54 0 -85.5 23.5zM257 227q23 0 57 2l-43 161h-13l-54 -163h53z" />
<glyph unicode="&#x106;" horiz-adv-x="617" d="M545 28q-96 -40 -227 -40t-210.5 84.5t-79.5 238t95 248.5t255 95q79 0 191 -25l6 -13q-20 -83 -26 -189l-99 -7q2 27 2 53q0 43 -26.5 63.5t-82.5 20.5q-159 0 -159 -219q0 -122 44 -189t122 -67q54 0 84 32.5t42 105.5l99 7q-17 -104 -20 -187zM522 775l-6 -13 q-115 -29 -229 -65l-13 9l-13 47l223 104l12 -5z" />
<glyph unicode="&#x107;" horiz-adv-x="524" d="M459 22q-82 -31 -190.5 -31t-174 66t-65.5 186.5t77.5 193.5t211.5 73q62 0 162 -20l6 -11q-17 -67 -23 -154l-92 -5q1 20 1 48q0 57 -82 57q-117 0 -117 -160q0 -92 32 -140.5t91 -48.5q41 0 63.5 24t30.5 78l93 6q-13 -84 -15 -152zM456 633l-6 -13q-115 -29 -229 -65 l-13 9l-13 47l223 104l12 -5z" />
<glyph unicode="&#x108;" horiz-adv-x="617" d="M545 28q-96 -40 -227 -40t-210.5 84.5t-79.5 238t95 248.5t255 95q79 0 191 -25l6 -13q-20 -83 -26 -189l-99 -7q2 27 2 53q0 43 -26.5 63.5t-82.5 20.5q-159 0 -159 -219q0 -122 44 -189t122 -67q54 0 84 32.5t42 105.5l99 7q-17 -104 -20 -187zM208 709l-29 41 q64 60 152 154h20q80 -86 151 -154l-29 -41l-15 -4q-20 16 -117 83q-71 -46 -117 -83z" />
<glyph unicode="&#x109;" horiz-adv-x="524" d="M459 22q-82 -31 -190.5 -31t-174 66t-65.5 186.5t77.5 193.5t211.5 73q62 0 162 -20l6 -11q-17 -67 -23 -154l-92 -5q1 20 1 48q0 57 -82 57q-117 0 -117 -160q0 -92 32 -140.5t91 -48.5q41 0 63.5 24t30.5 78l93 6q-13 -84 -15 -152zM157 567l-29 41q64 60 152 154h20 q80 -86 151 -154l-29 -41l-15 -4q-20 16 -117 83q-71 -46 -117 -83z" />
<glyph unicode="&#x10a;" horiz-adv-x="617" d="M545 28q-96 -40 -227 -40t-210.5 84.5t-79.5 238t95 248.5t255 95q79 0 191 -25l6 -13q-20 -83 -26 -189l-99 -7q2 27 2 53q0 43 -26.5 63.5t-82.5 20.5q-159 0 -159 -219q0 -122 44 -189t122 -67q54 0 84 32.5t42 105.5l99 7q-17 -104 -20 -187zM402 724.5 q-22 -22.5 -57 -22.5t-53 20t-18 53.5t22 56t56.5 22.5t53 -19.5t18.5 -53.5t-22 -56.5z" />
<glyph unicode="&#x10b;" horiz-adv-x="524" d="M459 22q-82 -31 -190.5 -31t-174 66t-65.5 186.5t77.5 193.5t211.5 73q62 0 162 -20l6 -11q-17 -67 -23 -154l-92 -5q1 20 1 48q0 57 -82 57q-117 0 -117 -160q0 -92 32 -140.5t91 -48.5q41 0 63.5 24t30.5 78l93 6q-13 -84 -15 -152zM347 587.5q-22 -22.5 -57 -22.5 t-53 20t-18 53.5t22 56t56.5 22.5t53 -19.5t18.5 -53.5t-22 -56.5z" />
<glyph unicode="&#x10c;" horiz-adv-x="617" d="M545 28q-96 -40 -227 -40t-210.5 84.5t-79.5 238t95 248.5t255 95q79 0 191 -25l6 -13q-20 -83 -26 -189l-99 -7q2 27 2 53q0 43 -26.5 63.5t-82.5 20.5q-159 0 -159 -219q0 -122 44 -189t122 -67q54 0 84 32.5t42 105.5l99 7q-17 -104 -20 -187zM489 861l25 -41 q-73 -53 -157 -124h-20q-83 70 -157 124l24 41l16 4q50 -25 127 -58q48 20 126 58z" />
<glyph unicode="&#x10d;" horiz-adv-x="524" d="M459 22q-82 -31 -190.5 -31t-174 66t-65.5 186.5t77.5 193.5t211.5 73q62 0 162 -20l6 -11q-17 -67 -23 -154l-92 -5q1 20 1 48q0 57 -82 57q-117 0 -117 -160q0 -92 32 -140.5t91 -48.5q41 0 63.5 24t30.5 78l93 6q-13 -84 -15 -152zM435 719l25 -41q-73 -53 -157 -124 h-20q-83 70 -157 124l24 41l16 4q50 -25 127 -58q48 20 126 58z" />
<glyph unicode="&#x10e;" horiz-adv-x="693" d="M318 -12q-94 12 -134 12q-64 0 -146 -10l7 68q43 8 57.5 25.5t14.5 59.5l1 379q0 32 -6.5 43t-25.5 11l-33 -2l-6 9l8 62q89 -3 128 -3l159 5q152 0 237.5 -79.5t85.5 -229t-97 -250t-250 -100.5zM289 560q-16 0 -22 -5t-7 -19q-13 -273 -13 -390q0 -43 16.5 -57 t66.5 -14q178 0 178 241q0 127 -53.5 185.5t-165.5 58.5zM481 861l25 -41q-73 -53 -157 -124h-20q-83 70 -157 124l24 41l16 4q50 -25 127 -58q48 20 126 58z" />
<glyph unicode="&#x10f;" horiz-adv-x="587" d="M100 117v285q0 25 -5 33.5t-19 8.5l-27 -2l-6 8l7 53q78 -2 110 -2l132 4q127 0 196.5 -61t69.5 -179.5t-79.5 -196t-207.5 -77.5q-77 9 -126 9l-108 -8l5 60q34 5 46 19t12 46zM252 428q-12 0 -16.5 -4t-5.5 -16q-10 -188 -10 -290q0 -30 12 -40.5t47 -10.5 q135 0 135 179q0 97 -38.5 139.5t-123.5 42.5zM432 719l25 -41q-73 -53 -157 -124h-20q-83 70 -157 124l24 41l16 4q50 -25 127 -58q48 20 126 58z" />
<glyph unicode="&#x110;" horiz-adv-x="709" d="M333 -12q-95 12 -135 12q-63 0 -145 -10l7 68q45 8 58.5 27.5t13.5 76.5v124h-116l-8 7l10 60h114v169q0 32 -6 43t-25 11l-33 -2l-6 9l8 62q88 -3 128 -3l158 5q151 0 237.5 -80t86.5 -229t-97.5 -249.5t-249.5 -100.5zM345 75q177 0 177 241q0 127 -53.5 185.5 t-165.5 58.5q-16 0 -22 -5t-7 -19l-8 -183l125 2l6 -9l-6 -60h-127l-2 -140q0 -43 16.5 -57t66.5 -14z" />
<glyph unicode="&#x111;" horiz-adv-x="602" d="M114 128v90h-91l-7 6l9 53h89v125q0 25 -5 33.5t-20 8.5l-26 -2l-6 8l7 53q77 -2 110 -2l132 4q126 0 196 -61.5t70 -179.5t-79.5 -195.5t-207.5 -77.5q-78 9 -126 9l-109 -8l6 60q36 5 47 20t11 56zM293 67q134 0 134 179q0 97 -38 139.5t-123 42.5q-13 0 -17.5 -4.5 t-4.5 -15.5l-7 -130l93 1l6 -7l-6 -54h-95l-1 -100q0 -31 12 -41t47 -10z" />
<glyph unicode="&#x112;" horiz-adv-x="597" d="M253 370l93 -1l116 8l8 -9l-14 -86q-80 3 -117.5 3t-88.5 -6q-3 -109 -3 -144.5t10.5 -45.5t56.5 -10t72 3.5t44 16.5t24.5 33.5t12.5 60.5l85 7l7 -10q-18 -90 -28 -186l-9 -11q-188 7 -270 7q-122 0 -216 -10l8 68q41 6 56.5 24.5t15.5 61.5l1 379q0 33 -6.5 43.5 t-26.5 10.5l-30 -2l-7 9l8 61q110 -3 254 -3t235 12l8 -11q-18 -89 -23 -182l-92 -6q2 26 2 40q0 41 -21 52t-80.5 11t-68 -5.5t-9.5 -27.5zM463 800l8 -14l-12 -77l-280 -2l-11 12l14 76q95 -1 154 -1z" />
<glyph unicode="&#x113;" horiz-adv-x="512" d="M226 292l74 -1l94 7l8 -9l-12 -74q-65 2 -86.5 2t-81.5 -4q-1 -24 -1 -75.5t8 -59.5t59.5 -8t72.5 15t30 72l78 6l7 -9q-15 -72 -22 -150l-10 -9q-150 5 -222 5q-104 0 -188 -8l7 59q33 4 45 18.5t12 49.5l1 284q0 25 -5 33.5t-20 8.5l-24 -1l-7 7l7 52q97 -2 218 -2 t196 9l7 -9q-14 -73 -19 -146l-85 -6q2 20 2 31q0 31 -17 39t-62.5 8t-52 -4t-6.5 -20zM418 658l8 -14l-12 -77l-280 -2l-11 12l14 76q95 -1 154 -1z" />
<glyph unicode="&#x114;" horiz-adv-x="597" d="M253 370l93 -1l116 8l8 -9l-14 -86q-80 3 -117.5 3t-88.5 -6q-3 -109 -3 -144.5t10.5 -45.5t56.5 -10t72 3.5t44 16.5t24.5 33.5t12.5 60.5l85 7l7 -10q-18 -90 -28 -186l-9 -11q-188 7 -270 7q-122 0 -216 -10l8 68q41 6 56.5 24.5t15.5 61.5l1 379q0 33 -6.5 43.5 t-26.5 10.5l-30 -2l-7 9l8 61q110 -3 254 -3t235 12l8 -11q-18 -89 -23 -182l-92 -6q2 26 2 40q0 41 -21 52t-80.5 11t-68 -5.5t-9.5 -27.5zM327 812q76 0 103 68l17 -4l28 -34q-15 -54 -52 -89.5t-96 -35.5t-96 35.5t-52 89.5l28 34l17 4q27 -68 103 -68z" />
<glyph unicode="&#x115;" horiz-adv-x="512" d="M226 292l74 -1l94 7l8 -9l-12 -74q-65 2 -86.5 2t-81.5 -4q-1 -24 -1 -75.5t8 -59.5t59.5 -8t72.5 15t30 72l78 6l7 -9q-15 -72 -22 -150l-10 -9q-150 5 -222 5q-104 0 -188 -8l7 59q33 4 45 18.5t12 49.5l1 284q0 25 -5 33.5t-20 8.5l-24 -1l-7 7l7 52q97 -2 218 -2 t196 9l7 -9q-14 -73 -19 -146l-85 -6q2 20 2 31q0 31 -17 39t-62.5 8t-52 -4t-6.5 -20zM279 665q76 0 103 68l17 -4l28 -34q-15 -54 -52 -89.5t-96 -35.5t-96 35.5t-52 89.5l28 34l17 4q27 -68 103 -68z" />
<glyph unicode="&#x116;" horiz-adv-x="597" d="M253 370l93 -1l116 8l8 -9l-14 -86q-80 3 -117.5 3t-88.5 -6q-3 -109 -3 -144.5t10.5 -45.5t56.5 -10t72 3.5t44 16.5t24.5 33.5t12.5 60.5l85 7l7 -10q-18 -90 -28 -186l-9 -11q-188 7 -270 7q-122 0 -216 -10l8 68q41 6 56.5 24.5t15.5 61.5l1 379q0 33 -6.5 43.5 t-26.5 10.5l-30 -2l-7 9l8 61q110 -3 254 -3t235 12l8 -11q-18 -89 -23 -182l-92 -6q2 26 2 40q0 41 -21 52t-80.5 11t-68 -5.5t-9.5 -27.5zM372 724.5q-22 -22.5 -57 -22.5t-53 20t-18 53.5t22 56t56.5 22.5t53 -19.5t18.5 -53.5t-22 -56.5z" />
<glyph unicode="&#x117;" horiz-adv-x="512" d="M226 292l74 -1l94 7l8 -9l-12 -74q-65 2 -86.5 2t-81.5 -4q-1 -24 -1 -75.5t8 -59.5t59.5 -8t72.5 15t30 72l78 6l7 -9q-15 -72 -22 -150l-10 -9q-150 5 -222 5q-104 0 -188 -8l7 59q33 4 45 18.5t12 49.5l1 284q0 25 -5 33.5t-20 8.5l-24 -1l-7 7l7 52q97 -2 218 -2 t196 9l7 -9q-14 -73 -19 -146l-85 -6q2 20 2 31q0 31 -17 39t-62.5 8t-52 -4t-6.5 -20zM327 582.5q-22 -22.5 -57 -22.5t-53 20t-18 53.5t22 56t56.5 22.5t53 -19.5t18.5 -53.5t-22 -56.5z" />
<glyph unicode="&#x118;" horiz-adv-x="597" d="M253 370l93 -1l116 8l8 -9l-14 -86q-80 3 -117.5 3t-88.5 -6q-3 -109 -3 -144.5t10.5 -45.5t56.5 -10t72 3.5t44 16.5t24.5 33.5t12.5 60.5l85 7l7 -10q-18 -90 -28 -186l-9 -11q-16 1 -41 2q-37 -44 -51 -69t-14 -47t14 -35.5t33 -13.5q35 0 75 24l18 -29 q-52 -49 -102 -66q-54 0 -86.5 24.5t-32.5 61t21 70.5t67 82q-96 3 -175 3q-118 0 -212 -10l8 68q41 6 56.5 24.5t15.5 61.5l1 379q0 33 -6.5 43.5t-26.5 10.5l-30 -2l-7 9l8 61q110 -3 254 -3t235 12l8 -11q-18 -89 -23 -182l-92 -6q2 26 2 40q0 41 -21 52t-80.5 11 t-68 -5.5t-9.5 -27.5z" />
<glyph unicode="&#x119;" horiz-adv-x="512" d="M226 292l74 -1l94 7l8 -9l-12 -74q-65 2 -86.5 2t-81.5 -4q-1 -24 -1 -75.5t8 -59.5t59.5 -8t72.5 15t30 72l78 6l7 -9q-15 -72 -22 -150l-10 -9q-11 1 -29 1q-38 -44 -52 -69t-14 -47.5t14 -36t33 -13.5q35 0 75 24l18 -29q-52 -49 -102 -66q-54 0 -86.5 24.5 t-32.5 66.5q0 56 89 148q-104 2 -155 2q-84 0 -168 -8l7 59q33 4 45 18.5t12 49.5l1 284q0 25 -5 33.5t-20 8.5l-24 -1l-7 7l7 52q97 -2 218 -2t196 9l7 -9q-14 -73 -19 -146l-85 -6q2 20 2 31q0 31 -17 39t-62.5 8t-52 -4t-6.5 -20z" />
<glyph unicode="&#x11a;" horiz-adv-x="597" d="M253 370l93 -1l116 8l8 -9l-14 -86q-80 3 -117.5 3t-88.5 -6q-3 -109 -3 -144.5t10.5 -45.5t56.5 -10t72 3.5t44 16.5t24.5 33.5t12.5 60.5l85 7l7 -10q-18 -90 -28 -186l-9 -11q-188 7 -270 7q-122 0 -216 -10l8 68q41 6 56.5 24.5t15.5 61.5l1 379q0 33 -6.5 43.5 t-26.5 10.5l-30 -2l-7 9l8 61q110 -3 254 -3t235 12l8 -11q-18 -89 -23 -182l-92 -6q2 26 2 40q0 41 -21 52t-80.5 11t-68 -5.5t-9.5 -27.5zM460 861l25 -41q-73 -53 -157 -124h-20q-83 70 -157 124l24 41l16 4q50 -25 127 -58q48 20 126 58z" />
<glyph unicode="&#x11b;" horiz-adv-x="512" d="M226 292l74 -1l94 7l8 -9l-12 -74q-65 2 -86.5 2t-81.5 -4q-1 -24 -1 -75.5t8 -59.5t59.5 -8t72.5 15t30 72l78 6l7 -9q-15 -72 -22 -150l-10 -9q-150 5 -222 5q-104 0 -188 -8l7 59q33 4 45 18.5t12 49.5l1 284q0 25 -5 33.5t-20 8.5l-24 -1l-7 7l7 52q97 -2 218 -2 t196 9l7 -9q-14 -73 -19 -146l-85 -6q2 20 2 31q0 31 -17 39t-62.5 8t-52 -4t-6.5 -20zM414 719l25 -41q-73 -53 -157 -124h-20q-83 70 -157 124l24 41l16 4q50 -25 127 -58q48 20 126 58z" />
<glyph unicode="&#x11c;" horiz-adv-x="654" d="M357 329l139 -2q102 0 102 5l7 -39q-26 -17 -33.5 -48t-7.5 -104t7 -100l-9 -13q-42 -17 -107 -28.5t-129 -11.5q-138 0 -218 84.5t-80 239.5t95 248.5t261 93.5q83 0 198 -25l7 -13q-20 -80 -26 -184l-99 -6q3 25 3 60.5t-24.5 53t-82.5 17.5q-90 0 -133.5 -54 t-43.5 -171t44 -183.5t124 -66.5q26 0 50 6.5t46 19.5v93q0 29 -8.5 38.5t-35.5 9.5h-51l-6 8zM215 709l-29 41q64 60 152 154h20q80 -86 151 -154l-29 -41l-15 -4q-20 16 -117 83q-71 -46 -117 -83z" />
<glyph unicode="&#x11d;" horiz-adv-x="554" d="M300 262l117 -1l88 4l6 -35q-23 -14 -29.5 -38t-6.5 -79t5 -82l-8 -11q-73 -29 -192 -29t-185 66t-66 188t78 193.5t217 71.5q65 0 165 -20l6 -11q-18 -64 -22 -147l-92 -6q2 19 2 46t-18 40t-61 13q-68 0 -100 -38.5t-32 -126.5t32.5 -136t93.5 -48q40 0 70 16v65 q0 22 -7 29t-27 7h-38l-6 8zM163 567l-29 41q64 60 152 154h20q80 -86 151 -154l-29 -41l-15 -4q-20 16 -117 83q-71 -46 -117 -83z" />
<glyph unicode="&#x11e;" horiz-adv-x="654" d="M357 329l139 -2q102 0 102 5l7 -39q-26 -17 -33.5 -48t-7.5 -104t7 -100l-9 -13q-42 -17 -107 -28.5t-129 -11.5q-138 0 -218 84.5t-80 239.5t95 248.5t261 93.5q83 0 198 -25l7 -13q-20 -80 -26 -184l-99 -6q3 25 3 60.5t-24.5 53t-82.5 17.5q-90 0 -133.5 -54 t-43.5 -171t44 -183.5t124 -66.5q26 0 50 6.5t46 19.5v93q0 29 -8.5 38.5t-35.5 9.5h-51l-6 8zM354 802q76 0 103 60l17 -4l28 -35q-15 -50 -52 -83t-96 -33t-96 33t-52 83l28 35l17 4q27 -60 103 -60z" />
<glyph unicode="&#x11f;" horiz-adv-x="554" d="M300 262l117 -1l88 4l6 -35q-23 -14 -29.5 -38t-6.5 -79t5 -82l-8 -11q-73 -29 -192 -29t-185 66t-66 188t78 193.5t217 71.5q65 0 165 -20l6 -11q-18 -64 -22 -147l-92 -6q2 19 2 46t-18 40t-61 13q-68 0 -100 -38.5t-32 -126.5t32.5 -136t93.5 -48q40 0 70 16v65 q0 22 -7 29t-27 7h-38l-6 8zM298 656q76 0 103 60l17 -4l28 -35q-15 -50 -52 -83t-96 -33t-96 33t-52 83l28 35l17 4q27 -60 103 -60z" />
<glyph unicode="&#x120;" horiz-adv-x="654" d="M357 329l139 -2q102 0 102 5l7 -39q-26 -17 -33.5 -48t-7.5 -104t7 -100l-9 -13q-42 -17 -107 -28.5t-129 -11.5q-138 0 -218 84.5t-80 239.5t95 248.5t261 93.5q83 0 198 -25l7 -13q-20 -80 -26 -184l-99 -6q3 25 3 60.5t-24.5 53t-82.5 17.5q-90 0 -133.5 -54 t-43.5 -171t44 -183.5t124 -66.5q26 0 50 6.5t46 19.5v93q0 29 -8.5 38.5t-35.5 9.5h-51l-6 8zM409 724.5q-22 -22.5 -57 -22.5t-53 20t-18 53.5t22 56t56.5 22.5t53 -19.5t18.5 -53.5t-22 -56.5z" />
<glyph unicode="&#x121;" horiz-adv-x="554" d="M300 262l117 -1l88 4l6 -35q-23 -14 -29.5 -38t-6.5 -79t5 -82l-8 -11q-73 -29 -192 -29t-185 66t-66 188t78 193.5t217 71.5q65 0 165 -20l6 -11q-18 -64 -22 -147l-92 -6q2 19 2 46t-18 40t-61 13q-68 0 -100 -38.5t-32 -126.5t32.5 -136t93.5 -48q40 0 70 16v65 q0 22 -7 29t-27 7h-38l-6 8zM353 582.5q-22 -22.5 -57 -22.5t-53 20t-18 53.5t22 56t56.5 22.5t53 -19.5t18.5 -53.5t-22 -56.5z" />
<glyph unicode="&#x122;" horiz-adv-x="654" d="M357 329l139 -2q102 0 102 5l7 -39q-26 -17 -33.5 -48t-7.5 -104t7 -100l-9 -13q-42 -17 -107 -28.5t-129 -11.5q-138 0 -218 84.5t-80 239.5t95 248.5t261 93.5q83 0 198 -25l7 -13q-20 -80 -26 -184l-99 -6q3 25 3 60.5t-24.5 53t-82.5 17.5q-90 0 -133.5 -54 t-43.5 -171t44 -183.5t124 -66.5q26 0 50 6.5t46 19.5v93q0 29 -8.5 38.5t-35.5 9.5h-51l-6 8zM264 -86q44 35 76.5 35t52 -23.5t19.5 -68t-41.5 -92.5t-105.5 -83l-37 30v17q30 21 49 49t19 53q0 41 -35 69z" />
<glyph unicode="&#x123;" horiz-adv-x="554" d="M300 262l117 -1l88 4l6 -35q-23 -14 -29.5 -38t-6.5 -79t5 -82l-8 -11q-73 -29 -192 -29t-185 66t-66 188t78 193.5t217 71.5q65 0 165 -20l6 -11q-18 -64 -22 -147l-92 -6q2 19 2 46t-18 40t-61 13q-68 0 -100 -38.5t-32 -126.5t32.5 -136t93.5 -48q40 0 70 16v65 q0 22 -7 29t-27 7h-38l-6 8zM219 -86q44 35 76.5 35t52 -23.5t19.5 -68t-41.5 -92.5t-105.5 -83l-37 30v17q30 21 49 49t19 53q0 41 -35 69z" />
<glyph unicode="&#x124;" horiz-adv-x="747" d="M629 133q0 -39 9 -53t33 -14l36 3l5 -8l-9 -64q-83 3 -146 3l-139 -2l8 66q42 1 57 19.5t15 72.5v127q-72 1 -108 1l-140 -10l-2 -141q0 -41 7.5 -54.5t30.5 -13.5l36 3l5 -7l-9 -64q-84 3 -117.5 3t-71.5 -2q-92 -3 -92 -7l7 65q44 9 58 25.5t14 58.5l1 385 q0 31 -7 41.5t-29 10.5l-31 -1l-5 8l8 59q79 -1 119 -1l151 7l-5 -67q-38 -6 -48 -18.5t-12 -52.5l-6 -143l128 -2q62 0 118 7v152q0 31 -7 41.5t-29 10.5l-31 -1l-5 8l8 59q85 -1 128 -1l147 7l-6 -66q-37 -5 -48.5 -15.5t-13.5 -39.5q-12 -230 -12 -395zM241 735l-29 41 q64 60 152 154h20q80 -86 151 -154l-29 -41l-15 -4q-20 16 -117 83q-71 -46 -117 -83z" />
<glyph unicode="&#x125;" horiz-adv-x="632" d="M533 109q0 -30 7 -41t27 -11l28 2l5 -7l-8 -54q-69 2 -125 2l-120 -1l7 56q33 1 45 15t12 53v93q-51 1 -78 1l-111 -8l-1 -100q0 -32 6 -42.5t25 -10.5l27 2l5 -6l-7 -54q-77 2 -104.5 2t-60 -1.5t-54.5 -2.5t-23 -2l6 56q35 6 46.5 19t11.5 46v289q0 25 -6 33t-23 8 l-24 -1l-6 8l7 50q67 -1 101 -1l134 5l-5 -58q-30 -4 -38 -13t-10 -38l-5 -105l97 -2q55 0 90 5l1 109q0 25 -6 33t-24 8l-25 -1l-5 8l7 50q0 -1 112 -1l127 5l-5 -57q-30 -4 -39.5 -12t-10.5 -31q-10 -133 -10 -297zM183 593l-29 41q64 60 152 154h20q80 -86 151 -154 l-29 -41l-15 -4q-20 16 -117 83q-71 -46 -117 -83z" />
<glyph unicode="&#x126;" horiz-adv-x="745" d="M628 133q0 -39 9 -53t33 -14l36 3l5 -8l-9 -64q-83 3 -146 3l-139 -2l8 66q42 1 57 19.5t15 72.5v127q-72 1 -108 1l-140 -10l-2 -141q0 -41 7.5 -54.5t30.5 -13.5l36 3l5 -7l-9 -64q-84 3 -117.5 3t-71.5 -2q-92 -3 -92 -7l7 65q44 9 58 25.5t14 58.5l1 302h-87l-10 10 l8 48q38 -1 89 -1v26q0 31 -7 41.5t-29 10.5l-31 -1l-5 8l8 59q79 -1 119 -1l151 7l-5 -67q-38 -6 -48 -18q-9 -11 -13 -65h241v26q0 31 -7 41.5t-29 10.5l-31 -1l-5 8l8 59q85 -1 128 -1l147 7l-6 -66q-37 -5 -48.5 -15.5t-13.5 -39.5l-2 -26l75 2l14 -14l-5 -46h-86 q-8 -168 -8 -311zM497 443h-243l-3 -75l128 -2q62 0 118 7v70z" />
<glyph unicode="&#x127;" horiz-adv-x="632" d="M532 109q0 -30 7 -41t27 -11l28 2l5 -7l-8 -54q-69 2 -125 2l-120 -1l7 56q33 1 45 15t12 53v93q-51 1 -78 1l-111 -8l-1 -100q0 -32 6 -42.5t24 -10.5l28 2l5 -6l-7 -54q-77 2 -104.5 2t-60 -1.5t-54.5 -2.5t-23 -2l6 56q35 6 46.5 19t11.5 46v228h-70l-8 7l6 40 q30 -1 72 -1v15q0 25 -6 33t-23 8l-24 -1l-6 8l7 50q67 -1 101 -1l134 5l-5 -58q-30 -4 -38 -13q-6 -7 -11 -46h184v15q0 25 -6 33t-24 8l-25 -1l-5 8l7 50q0 -1 112 -1l127 5l-5 -57q-30 -4 -40 -12q-11 -10 -11 -46l60 2l12 -11l-4 -37h-71q-6 -114 -6 -236zM410 344h-185 l-2 -52l97 -2q55 0 90 5v49z" />
<glyph unicode="&#x128;" horiz-adv-x="365" d="M48 643l140 -1l142 7l-6 -67q-38 -5 -50 -15.5t-14 -38.5q-12 -207 -12 -395q0 -41 7.5 -54.5t30.5 -13.5l43 3l5 -7l-9 -64q-104 3 -139 3q-69 0 -150 -9l7 65q44 9 58.5 26t14.5 58l1 385q0 31 -7 41.5t-29 10.5l-35 -1l-5 8zM178 849.5q59 -16.5 71 -16.5t28.5 14 t38.5 42h11l39 -37v-10l-78 -102l-17 -4q-17 0 -76 17t-71.5 17t-29 -14t-37.5 -42h-11l-40 36v11l79 101l16 4q18 0 77 -16.5z" />
<glyph unicode="&#x129;" horiz-adv-x="320" d="M44 502l120 -1l123 5l-5 -58q-31 -4 -40.5 -11.5t-11.5 -30.5q-9 -157 -9 -297q0 -32 6 -42.5t25 -10.5l32 2l5 -6l-7 -54q-90 2 -127 2l-120 -6l6 56q35 7 46.5 19.5t11.5 45.5v289q0 25 -6 33t-23 8l-27 -1l-5 8zM154 707.5q59 -16.5 71 -16.5t28.5 14t38.5 42h11 l39 -37v-10l-78 -102l-17 -4q-17 0 -76 17t-71.5 17t-29 -14t-37.5 -42h-11l-40 36v11l79 101l16 4q18 0 77 -16.5z" />
<glyph unicode="&#x12a;" horiz-adv-x="365" d="M48 643l140 -1l142 7l-6 -67q-38 -5 -50 -15.5t-14 -38.5q-12 -207 -12 -395q0 -41 7.5 -54.5t30.5 -13.5l43 3l5 -7l-9 -64q-104 3 -139 3q-69 0 -150 -9l7 65q44 9 58.5 26t14.5 58l1 385q0 31 -7 41.5t-29 10.5l-35 -1l-5 8zM331 800l8 -14l-12 -77l-280 -2l-11 12 l14 76q95 -1 154 -1z" />
<glyph unicode="&#x12b;" horiz-adv-x="320" d="M44 502l120 -1l123 5l-5 -58q-31 -4 -40.5 -11.5t-11.5 -30.5q-9 -157 -9 -297q0 -32 6 -42.5t25 -10.5l32 2l5 -6l-7 -54q-90 2 -127 2l-120 -6l6 56q35 7 46.5 19.5t11.5 45.5v289q0 25 -6 33t-23 8l-27 -1l-5 8zM307 658l8 -14l-12 -77l-280 -2l-11 12l14 76 q95 -1 154 -1z" />
<glyph unicode="&#x12c;" horiz-adv-x="365" d="M48 643l140 -1l142 7l-6 -67q-38 -5 -50 -15.5t-14 -38.5q-12 -207 -12 -395q0 -41 7.5 -54.5t30.5 -13.5l43 3l5 -7l-9 -64q-104 3 -139 3q-69 0 -150 -9l7 65q44 9 58.5 26t14.5 58l1 385q0 31 -7 41.5t-29 10.5l-35 -1l-5 8zM188 812q76 0 103 68l17 -4l28 -34 q-15 -54 -52 -89.5t-96 -35.5t-96 35.5t-52 89.5l28 34l17 4q27 -68 103 -68z" />
<glyph unicode="&#x12d;" horiz-adv-x="320" d="M44 502l120 -1l123 5l-5 -58q-31 -4 -40.5 -11.5t-11.5 -30.5q-9 -157 -9 -297q0 -32 6 -42.5t25 -10.5l32 2l5 -6l-7 -54q-90 2 -127 2l-120 -6l6 56q35 7 46.5 19.5t11.5 45.5v289q0 25 -6 33t-23 8l-27 -1l-5 8zM164 675q76 0 103 68l17 -4l28 -34q-15 -54 -52 -89.5 t-96 -35.5t-96 35.5t-52 89.5l28 34l17 4q27 -68 103 -68z" />
<glyph unicode="&#x12e;" horiz-adv-x="365" d="M48 643l140 -1l142 7l-6 -67q-38 -5 -50 -15.5t-14 -38.5q-12 -207 -12 -395q0 -41 7.5 -54.5t30.5 -13.5l43 3l5 -7l-9 -64q-24 1 -52 2q-39 -46 -53.5 -72t-14.5 -48t14 -35.5t33 -13.5q35 0 75 24l18 -29q-52 -49 -102 -66q-54 0 -86.5 24.5t-32.5 61.5t22 71.5 t69 83.5h-39q-59 0 -140 -9l7 65q44 9 58.5 26t14.5 58l1 385q0 31 -7 41.5t-29 10.5l-35 -1l-5 8z" />
<glyph unicode="&#x12f;" horiz-adv-x="320" d="M44 502l120 -1l123 5l-5 -58q-31 -4 -40.5 -11.5t-11.5 -30.5q-9 -157 -9 -297q0 -32 6 -42.5t25 -10.5l32 2l5 -6l-7 -54q-20 1 -42 1q-39 -46 -54 -72t-15 -48t14 -35.5t33 -13.5q35 0 75 24l18 -29q-52 -49 -102 -66q-54 0 -86.5 24.5t-32.5 61.5t22 71.5t69 83.5h-26 l-120 -6l6 56q35 7 46.5 19.5t11.5 45.5v289q0 25 -6 33t-23 8l-27 -1l-5 8z" />
<glyph unicode="&#x130;" horiz-adv-x="365" d="M48 643l140 -1l142 7l-6 -67q-38 -5 -50 -15.5t-14 -38.5q-12 -207 -12 -395q0 -41 7.5 -54.5t30.5 -13.5l43 3l5 -7l-9 -64q-104 3 -139 3q-69 0 -150 -9l7 65q44 9 58.5 26t14.5 58l1 385q0 31 -7 41.5t-29 10.5l-35 -1l-5 8zM240 724.5q-22 -22.5 -57 -22.5t-53 20 t-18 53.5t22 56t56.5 22.5t53 -19.5t18.5 -53.5t-22 -56.5z" />
<glyph unicode="&#x131;" horiz-adv-x="320" d="M44 502l120 -1l123 5l-5 -58q-31 -4 -40.5 -11.5t-11.5 -30.5q-9 -157 -9 -297q0 -32 6 -42.5t25 -10.5l32 2l5 -6l-7 -54q-90 2 -127 2l-120 -6l6 56q35 7 46.5 19.5t11.5 45.5v289q0 25 -6 33t-23 8l-27 -1l-5 8z" />
<glyph unicode="&#x132;" horiz-adv-x="698" d="M48 643l140 -1l142 7l-6 -67q-38 -5 -50 -15.5t-14 -38.5q-12 -207 -12 -395q0 -41 7.5 -54.5t30.5 -13.5l43 3l5 -7l-9 -64q-104 3 -139 3q-69 0 -150 -9l7 65q44 9 58.5 26t14.5 58l1 385q0 31 -7 41.5t-29 10.5l-35 -1l-5 8zM472 123v402q0 32 -6.5 42t-28.5 10 l-41 -3l-6 8l8 60h124l151 8l-6 -68q-32 -6 -41 -15.5t-11 -38.5q-12 -218 -12 -427q-1 -99 -48.5 -160t-151.5 -95l-28 41l2 11q57 41 76 86.5t19 138.5z" />
<glyph unicode="&#x133;" horiz-adv-x="596" d="M44 502l120 -1l123 5l-5 -58q-31 -4 -40.5 -11.5t-11.5 -30.5q-9 -157 -9 -297q0 -32 6 -42.5t25 -10.5l32 2l5 -6l-7 -54q-90 2 -127 2l-120 -6l6 56q35 7 46.5 19.5t11.5 45.5v289q0 25 -6 33t-23 8l-27 -1l-5 8zM427 98v306q0 25 -5.5 33t-22.5 8l-33 -2l-5 8l6 50 h106l133 6l-5 -59q-26 -4 -33.5 -11.5t-9.5 -30.5q-10 -175 -10 -331q0 -76 -41.5 -123.5t-131.5 -73.5l-25 33l1 10q46 34 61 69t15 108z" />
<glyph unicode="&#x134;" horiz-adv-x="333" d="M107 123v402q0 32 -6.5 42t-28.5 10l-41 -3l-6 8l8 60h124l151 8l-6 -68q-32 -6 -41 -15.5t-11 -38.5q-12 -218 -12 -427q-1 -99 -48.5 -160t-151.5 -95l-28 41l2 11q57 41 76 86.5t19 138.5zM41 709l-29 41q64 60 152 154h20q80 -86 151 -154l-29 -41l-15 -4 q-20 16 -117 83q-71 -46 -117 -83z" />
<glyph unicode="&#x135;" horiz-adv-x="294" d="M91 98l1 306q0 25 -5.5 33t-22.5 8l-33 -2l-6 8l7 50h105l133 6l-5 -59q-26 -4 -33 -11.5t-9 -30.5q-10 -175 -10 -331q-1 -77 -42.5 -124t-131.5 -73l-25 33l2 10q45 34 60 69t15 108zM19 567l-29 41q64 60 152 154h20q80 -86 151 -154l-29 -41l-15 -4q-20 16 -117 83 q-71 -46 -117 -83z" />
<glyph unicode="&#x136;" horiz-adv-x="659" d="M257 524q-9 -396 -9 -415t7 -31.5t31 -12.5l39 3l4 -7l-9 -64q-101 3 -144 3l-139 -3l9 64q43 7 56.5 22t13.5 57l1 385q0 31 -7 41.5t-29 10.5l-31 -1l-5 8l8 60q106 -2 135 -2l138 7l-6 -67q-37 -8 -49.5 -19t-13.5 -39zM443 547q0 28 -53 31l-3 7l8 62q84 -5 125 -5 l117 4l7 -11l-8 -57q-31 -13 -59.5 -37.5t-71.5 -76.5l-103 -116l132 -202q30 -45 55.5 -65t58.5 -22l6 -9l-8 -53q-99 -12 -117 -12q-59 0 -111 84l-151 247l3 22l147 160q26 26 26 49zM276 -86q44 35 76.5 35t52 -23.5t19.5 -68t-41.5 -92.5t-105.5 -83l-37 30v17 q30 21 49 49t19 53q0 41 -35 69z" />
<glyph unicode="&#x137;" horiz-adv-x="568" d="M99 115v289q0 25 -6 33t-23 8l-24 -1l-6 8l7 50q95 -1 117 -1l120 5l-4 -58q-31 -6 -41 -14.5t-11 -29.5q-7 -301 -7 -314.5t6 -23.5t25 -10l30 2l4 -6l-7 -54q-88 2 -124 2l-120 -2l7 54q35 6 46 17.5t11 45.5zM372 421q0 23 -41 24l-3 7l7 52q72 -3 106 -3l103 3l6 -9 l-7 -49q-46 -20 -111 -97l-73 -76l101 -152q24 -35 43.5 -50.5t46.5 -18.5l7 -9l-7 -46q-88 -9 -104 -9q-51 0 -92 65l-119 193l3 19l114 119q20 18 20 37zM234 -86q44 35 76.5 35t52 -23.5t19.5 -68t-41.5 -92.5t-105.5 -83l-37 30v17q30 21 49 49t19 53q0 41 -35 69z" />
<glyph unicode="&#x138;" horiz-adv-x="568" d="M99 115v289q0 25 -6 33t-23 8l-24 -1l-6 8l7 50q95 -1 117 -1l120 5l-4 -58q-31 -6 -41 -14.5t-11 -29.5q-7 -301 -7 -314.5t6 -23.5t25 -10l30 2l4 -6l-7 -54q-88 2 -124 2l-120 -2l7 54q35 6 46 17.5t11 45.5zM372 421q0 23 -41 24l-3 7l7 52q72 -3 106 -3l103 3l6 -9 l-7 -49q-46 -20 -111 -97l-73 -76l101 -152q24 -35 43.5 -50.5t46.5 -18.5l7 -9l-7 -46q-88 -9 -104 -9q-51 0 -92 65l-119 193l3 19l114 119q20 18 20 37z" />
<glyph unicode="&#x139;" horiz-adv-x="531" d="M52 643l136 -1l155 7l-8 -71q-49 -6 -61.5 -19t-14.5 -54q-11 -149 -11 -366q0 -38 11.5 -49t50.5 -11q71 0 94.5 27.5t33.5 124.5l85 9l7 -10q-17 -109 -27 -227l-9 -11q-163 8 -242 8q-118 0 -210 -10l7 68q38 6 52.5 24.5t14.5 61.5v381q0 31 -7 41.5t-29 10.5l-30 -1 l-5 8zM364 775l-6 -13q-115 -29 -229 -65l-13 9l-13 47l223 104l12 -5z" />
<glyph unicode="&#x13a;" horiz-adv-x="461" d="M46 502l118 -1l138 5l-7 -62q-41 -4 -52 -13.5t-13 -37.5q-10 -133 -10 -280q0 -26 9.5 -34.5t37.5 -8.5q54 0 72.5 22.5t27.5 99.5l78 7l7 -9q-13 -89 -21 -186l-10 -10q-132 6 -200 6q-102 0 -184 -8l7 59q31 4 42.5 18.5t11.5 49.5l1 285q0 25 -6 33t-24 8l-23 -1 l-6 8zM329 633l-6 -13q-115 -29 -229 -65l-13 9l-13 47l223 104l12 -5z" />
<glyph unicode="&#x13b;" horiz-adv-x="531" d="M52 643l136 -1l155 7l-8 -71q-49 -6 -61.5 -19t-14.5 -54q-11 -149 -11 -366q0 -38 11.5 -49t50.5 -11q71 0 94.5 27.5t33.5 124.5l85 9l7 -10q-17 -109 -27 -227l-9 -11q-163 8 -242 8q-118 0 -210 -10l7 68q38 6 52.5 24.5t14.5 61.5v381q0 31 -7 41.5t-29 10.5l-30 -1 l-5 8zM220 -86q44 35 76.5 35t52 -23.5t19.5 -68t-41.5 -92.5t-105.5 -83l-37 30v17q30 21 49 49t19 53q0 41 -35 69z" />
<glyph unicode="&#x13c;" horiz-adv-x="461" d="M46 502l118 -1l138 5l-7 -62q-41 -4 -52 -13.5t-13 -37.5q-10 -133 -10 -280q0 -26 9.5 -34.5t37.5 -8.5q54 0 72.5 22.5t27.5 99.5l78 7l7 -9q-13 -89 -21 -186l-10 -10q-132 6 -200 6q-102 0 -184 -8l7 59q31 4 42.5 18.5t11.5 49.5l1 285q0 25 -6 33t-24 8l-23 -1 l-6 8zM181 -86q44 35 76.5 35t52 -23.5t19.5 -68t-41.5 -92.5t-105.5 -83l-37 30v17q30 21 49 49t19 53q0 41 -35 69z" />
<glyph unicode="&#x13d;" horiz-adv-x="537" d="M428 398v44q0 79 -8 184l101 14l8 -10q-15 -110 -39 -217l-48 -19zM52 643l136 -1l155 7l-8 -71q-49 -6 -61.5 -19t-14.5 -54q-11 -149 -11 -366q0 -38 11.5 -49t50.5 -11q71 0 94.5 27.5t33.5 124.5l85 9l7 -10q-17 -109 -27 -227l-9 -11q-163 8 -242 8q-118 0 -210 -10 l7 68q38 6 52.5 24.5t14.5 61.5v381q0 31 -7 41.5t-29 10.5l-30 -1l-5 8z" />
<glyph unicode="&#x13e;" horiz-adv-x="483" d="M364 309v37q0 63 -6 143l90 11l7 -8q-13 -86 -33 -170l-45 -16zM46 502l118 -1l138 5l-7 -62q-41 -4 -52 -13.5t-13 -37.5q-10 -133 -10 -280q0 -26 9.5 -34.5t37.5 -8.5q54 0 72.5 22.5t27.5 99.5l78 7l7 -9q-13 -89 -21 -186l-10 -10q-132 6 -200 6q-102 0 -184 -8 l7 59q31 4 42.5 18.5t11.5 49.5l1 285q0 25 -6 33t-24 8l-23 -1l-6 8z" />
<glyph unicode="&#x13f;" horiz-adv-x="554" d="M52 643l136 -1l155 7l-8 -71q-49 -6 -61.5 -19t-14.5 -54q-11 -149 -11 -366q0 -38 11.5 -49t50.5 -11q71 0 94.5 27.5t33.5 124.5l85 9l7 -10q-17 -109 -27 -227l-9 -11q-163 8 -242 8q-118 0 -210 -10l7 68q38 6 52.5 24.5t14.5 61.5v381q0 31 -7 41.5t-29 10.5l-30 -1 l-5 8zM453 380q-37 0 -56 20.5t-19 56t22 58.5t58 23t56 -21t20 -56t-22 -58t-59 -23z" />
<glyph unicode="&#x140;" horiz-adv-x="516" d="M46 502l118 -1l138 5l-7 -62q-41 -4 -52 -13.5t-13 -37.5q-10 -133 -10 -280q0 -26 9.5 -34.5t37.5 -8.5q54 0 72.5 22.5t27.5 99.5l78 7l7 -9q-13 -89 -21 -186l-10 -10q-132 6 -200 6q-102 0 -184 -8l7 59q31 4 42.5 18.5t11.5 49.5l1 285q0 25 -6 33t-24 8l-23 -1 l-6 8zM401 276q-35 0 -53.5 19.5t-18.5 53.5t21 55.5t55.5 21.5t53.5 -19.5t19 -53.5t-21 -55.5t-56 -21.5z" />
<glyph unicode="&#x141;" horiz-adv-x="566" d="M64 643l136 -1l155 7l-8 -71q-49 -6 -61.5 -19t-16 -59t-4.5 -103l133 67l8 -4l17 -61l-161 -81q-2 -60 -2 -179q0 -38 11.5 -49t50.5 -11q71 0 94.5 27.5t33.5 124.5l85 9l7 -10q-17 -109 -27 -227l-9 -11q-163 8 -242 8q-118 0 -210 -10l7 68q38 6 52.5 24.5t14.5 61.5 v122l-62 -31l-10 2l-17 62l89 44v182q0 31 -7 41.5t-29 10.5l-30 -1l-5 8z" />
<glyph unicode="&#x142;" horiz-adv-x="476" d="M64 502l117 -1l139 5l-7 -62q-41 -4 -52 -13.5t-14 -46.5t-4 -67l100 47l7 -3l17 -56l-127 -60q-2 -42 -2 -132q0 -26 9 -34.5t37 -8.5q55 0 73.5 22.5t26.5 99.5l79 7l6 -9q-13 -89 -21 -186l-9 -10q-132 6 -200 6q-102 0 -184 -8l7 59q31 4 42.5 18.5t11.5 49.5v81 l-48 -23l-8 2l-17 56l73 35l1 134q0 25 -6 33t-24 8l-23 -1l-6 8z" />
<glyph unicode="&#x143;" horiz-adv-x="729" d="M495 577l-34 -1l-4 8l7 62q85 -4 129 -4l118 5l-5 -67q-33 -5 -47.5 -19t-15.5 -44l-13 -531l-106 -13q-148 237 -291 444h-10l-1 -308q0 -25 7.5 -35t26.5 -10l43 3l6 -7l-10 -64q-86 4 -119 4q-57 0 -133 -8l8 67q58 7 59 63l13 395q0 32 -16 44.5t-65 17.5l-8 10l7 58 q67 -5 116 -5l96 4q131 -213 267 -411h10l-2 299q-1 43 -33 43zM552 775l-6 -13q-115 -29 -229 -65l-13 9l-13 47l223 104l12 -5z" />
<glyph unicode="&#x144;" horiz-adv-x="622" d="M411 445h-27l-4 6l6 53q75 -3 145.5 -3t70.5 4l-4 -58q-28 -4 -39.5 -15t-12.5 -34l-11 -405l-103 -10q-106 158 -224 316h-9v-207q1 -21 7.5 -29t22.5 -8l33 2l6 -5l-9 -55q-76 3 -111 3l-108 -6l7 58q25 3 36 14t12 35l11 296q0 25 -13 34.5t-53 14.5l-7 8l6 51 q56 -4 102 -4l86 3q95 -147 205 -296h9l-3 203q-1 19 -7 26.5t-20 7.5zM485 633l-6 -13q-115 -29 -229 -65l-13 9l-13 47l223 104l12 -5z" />
<glyph unicode="&#x145;" horiz-adv-x="729" d="M495 577l-34 -1l-4 8l7 62q85 -4 129 -4l118 5l-5 -67q-33 -5 -47.5 -19t-15.5 -44l-13 -531l-106 -13q-148 237 -291 444h-10l-1 -308q0 -25 7.5 -35t26.5 -10l43 3l6 -7l-10 -64q-86 4 -119 4q-57 0 -133 -8l8 67q58 7 59 63l13 395q0 32 -16 44.5t-65 17.5l-8 10l7 58 q67 -5 116 -5l96 4q131 -213 267 -411h10l-2 299q-1 43 -33 43zM300 -86q44 35 76.5 35t52 -23.5t19.5 -68t-41.5 -92.5t-105.5 -83l-37 30v17q30 21 49 49t19 53q0 41 -35 69z" />
<glyph unicode="&#x146;" horiz-adv-x="622" d="M411 445h-27l-4 6l6 53q75 -3 145.5 -3t70.5 4l-4 -58q-28 -4 -39.5 -15t-12.5 -34l-11 -405l-103 -10q-106 158 -224 316h-9v-207q1 -21 7.5 -29t22.5 -8l33 2l6 -5l-9 -55q-76 3 -111 3l-108 -6l7 58q25 3 36 14t12 35l11 296q0 25 -13 34.5t-53 14.5l-7 8l6 51 q56 -4 102 -4l86 3q95 -147 205 -296h9l-3 203q-1 19 -7 26.5t-20 7.5zM251 -86q44 35 76.5 35t52 -23.5t19.5 -68t-41.5 -92.5t-105.5 -83l-37 30v17q30 21 49 49t19 53q0 41 -35 69z" />
<glyph unicode="&#x147;" horiz-adv-x="729" d="M495 577l-34 -1l-4 8l7 62q85 -4 129 -4l118 5l-5 -67q-33 -5 -47.5 -19t-15.5 -44l-13 -531l-106 -13q-148 237 -291 444h-10l-1 -308q0 -25 7.5 -35t26.5 -10l43 3l6 -7l-10 -64q-86 4 -119 4q-57 0 -133 -8l8 67q58 7 59 63l13 395q0 32 -16 44.5t-65 17.5l-8 10l7 58 q67 -5 116 -5l96 4q131 -213 267 -411h10l-2 299q-1 43 -33 43zM519 861l25 -41q-73 -53 -157 -124h-20q-83 70 -157 124l24 41l16 4q50 -25 127 -58q48 20 126 58z" />
<glyph unicode="&#x148;" horiz-adv-x="622" d="M411 445h-27l-4 6l6 53q75 -3 145.5 -3t70.5 4l-4 -58q-28 -4 -39.5 -15t-12.5 -34l-11 -405l-103 -10q-106 158 -224 316h-9v-207q1 -21 7.5 -29t22.5 -8l33 2l6 -5l-9 -55q-76 3 -111 3l-108 -6l7 58q25 3 36 14t12 35l11 296q0 25 -13 34.5t-53 14.5l-7 8l6 51 q56 -4 102 -4l86 3q95 -147 205 -296h9l-3 203q-1 19 -7 26.5t-20 7.5zM463 719l25 -41q-73 -53 -157 -124h-20q-83 70 -157 124l24 41l16 4q50 -25 127 -58q48 20 126 58z" />
<glyph unicode="&#x14a;" horiz-adv-x="727" d="M155 642l96 4q104 -174 272 -418h9l-1 308q0 43 -33 43l-35 -1l-4 6l8 62q96 -4 128 -4l115 6l-5 -66q-34 -4 -48.5 -18.5t-15.5 -44.5l-10 -433q-3 -99 -49 -157.5t-148 -91.5l-27 40l3 11q43 26 65.5 52.5t32.5 63.5q-143 224 -278 421h-9l-2 -317q1 -26 8.5 -35.5 t26.5 -9.5l43 2l5 -6l-9 -63q-83 4 -145 4l-103 -8l8 65q32 4 45.5 20.5t14.5 55.5l12 386q0 31 -16 43.5t-66 18.5l-7 10l7 56q75 -5 112 -5z" />
<glyph unicode="&#x14b;" horiz-adv-x="619" d="M140 501l84 3q82 -128 210 -304h9l-2 213q0 34 -27 34l-28 -1l-3 6l5 52q88 -3 113 -3l99 4l-4 -56q-28 -4 -39.5 -15t-12.5 -34l-8 -333q-2 -78 -42 -124.5t-128 -71.5l-25 32l3 10q64 40 77 89q-99 145 -215 305h-8l-1 -217q0 -20 6.5 -28t22.5 -8l34 2l5 -5l-8 -54 q-71 3 -126 3l-89 -6l7 55q26 3 37 15.5t12 41.5l10 293q0 24 -12.5 34t-53.5 14l-7 9l6 49q65 -4 99 -4z" />
<glyph unicode="&#x14c;" horiz-adv-x="674" d="M224 144q41 -69 114 -69t112.5 55.5t39.5 172.5t-42 185.5t-115.5 68.5t-111.5 -55.5t-38 -172t41 -185.5zM555 85q-91 -97 -232 -97t-218 85t-77 237t90 248t232 96t219 -83t77 -236t-91 -250zM479 800l8 -14l-12 -77l-280 -2l-11 12l14 76q95 -1 154 -1z" />
<glyph unicode="&#x14d;" horiz-adv-x="570" d="M288 68q52 0 80.5 39t28.5 115q0 203 -119 203q-105 0 -105 -153q0 -204 115 -204zM467 65q-74 -74 -192.5 -74t-182 65.5t-63.5 186.5t73 194t193 73t183 -64t63 -185.5t-74 -195.5zM433 658l8 -14l-12 -77l-280 -2l-11 12l14 76q95 -1 154 -1z" />
<glyph unicode="&#x14e;" horiz-adv-x="674" d="M224 144q41 -69 114 -69t112.5 55.5t39.5 172.5t-42 185.5t-115.5 68.5t-111.5 -55.5t-38 -172t41 -185.5zM555 85q-91 -97 -232 -97t-218 85t-77 237t90 248t232 96t219 -83t77 -236t-91 -250zM325 812q76 0 103 68l17 -4l28 -34q-15 -54 -52 -89.5t-96 -35.5t-96 35.5 t-52 89.5l28 34l17 4q27 -68 103 -68z" />
<glyph unicode="&#x14f;" horiz-adv-x="570" d="M288 68q52 0 80.5 39t28.5 115q0 203 -119 203q-105 0 -105 -153q0 -204 115 -204zM467 65q-74 -74 -192.5 -74t-182 65.5t-63.5 186.5t73 194t193 73t183 -64t63 -185.5t-74 -195.5zM282 670q76 0 103 68l17 -4l28 -34q-15 -54 -52 -89.5t-96 -35.5t-96 35.5t-52 89.5 l28 34l17 4q27 -68 103 -68z" />
<glyph unicode="&#x150;" horiz-adv-x="674" d="M224 144q41 -69 114 -69t112.5 55.5t39.5 172.5t-42 185.5t-115.5 68.5t-111.5 -55.5t-38 -172t41 -185.5zM555 85q-91 -97 -232 -97t-218 85t-77 237t90 248t232 96t219 -83t77 -236t-91 -250zM402 794l-1 -12q-84 -46 -168 -98l-14 5l-23 34l151 134l12 -1zM570 790 l-1 -12q-85 -46 -169 -98l-12 4l-24 34l151 134l12 -2z" />
<glyph unicode="&#x151;" horiz-adv-x="570" d="M288 68q52 0 80.5 39t28.5 115q0 203 -119 203q-105 0 -105 -153q0 -204 115 -204zM467 65q-74 -74 -192.5 -74t-182 65.5t-63.5 186.5t73 194t193 73t183 -64t63 -185.5t-74 -195.5zM336 652l-1 -12q-84 -46 -168 -98l-14 5l-23 34l151 134l12 -1zM504 648l-1 -12 q-85 -46 -169 -98l-12 4l-24 34l151 134l12 -2z" />
<glyph unicode="&#x152;" horiz-adv-x="940" d="M653 79q93 0 119.5 19.5t36.5 94.5l85 7l7 -10q-18 -90 -27 -186l-10 -11q-191 9 -276.5 9t-165 -6.5t-108.5 -6.5q-132 0 -208.5 84.5t-76.5 236.5t87.5 245.5t234.5 93.5q31 0 104 -6.5t119 -6.5q184 0 312 18l8 -11q-18 -89 -23 -182l-91 -6q2 26 2 40q0 41 -22 52 t-81.5 11t-67.5 -5t-9 -28l-7 -155l93 -1l116 8l8 -9l-14 -86q-80 3 -130 3l-77 -6l-2 -140q0 -40 10.5 -50t53.5 -10zM222 142.5q40 -69.5 111 -69.5t100.5 30t30.5 99l1 252q0 61 -29.5 84t-102 23t-112 -56.5t-39.5 -174.5t40 -187.5z" />
<glyph unicode="&#x153;" horiz-adv-x="785" d="M503.5 78q8.5 -8 60 -8t72.5 15t29 72l79 6l6 -9q-14 -72 -22 -150l-9 -9q-153 7 -226 7t-138 -5t-87 -5q-112 0 -175.5 65.5t-63.5 186t70.5 191.5t194.5 71q25 0 86 -5t150 -5t208 14l8 -9q-15 -73 -19 -146l-85 -6q2 20 2 31q0 31 -17 39t-62.5 8t-52 -4t-7.5 -20 l-5 -111l75 -1l94 7l8 -9l-12 -74q-65 2 -106 2l-62 -4l-2 -96q0 -31 8.5 -39zM284 65q49 0 71.5 21.5t22.5 69.5l1 193q0 45 -23 62t-78 17q-108 0 -108 -155q0 -208 114 -208z" />
<glyph unicode="&#x154;" horiz-adv-x="643" d="M569 475q0 -121 -134 -191l87 -140q28 -46 54 -66.5t57 -20.5l7 -9l-7 -53l-119 -11q-66 0 -109 93l-86 174h-70l-1 -110q0 -50 11.5 -63t59.5 -14l4 -6l-10 -62q0 3 -134 3l-143 -5l9 67q42 6 56.5 22.5t14.5 59.5l1 385q0 29 -6.5 39t-25.5 10l-35 -2l-5 8l8 61 q87 -2 126 -2l153 5q115 0 176 -44.5t61 -127.5zM427 456q0 108 -149 108q-10 0 -14 -4q-8 -9 -12 -219l90 -10q85 36 85 125zM497 775l-6 -13q-115 -29 -229 -65l-13 9l-13 47l223 104l12 -5z" />
<glyph unicode="&#x155;" horiz-adv-x="555" d="M99 117v291q0 22 -5 29.5t-19 7.5l-29 -1l-6 6l8 52q74 -1 107 -1l132 4q100 0 152 -35.5t52 -102.5q0 -94 -107 -148l66 -100q44 -68 89 -68l7 -9l-7 -46l-105 -8q-58 0 -91 72l-66 130h-55l-1 -76q0 -38 9.5 -47.5t49.5 -10.5l3 -5l-8 -54q0 2 -116 2l-124 -5l7 59 q33 5 45 18t12 46zM361 352q0 78 -116 78q-8 0 -11 -4q-6 -6 -10 -157l71 -8q66 26 66 91zM443 633l-6 -13q-115 -29 -229 -65l-13 9l-13 47l223 104l12 -5z" />
<glyph unicode="&#x156;" horiz-adv-x="643" d="M569 475q0 -121 -134 -191l87 -140q28 -46 54 -66.5t57 -20.5l7 -9l-7 -53l-119 -11q-66 0 -109 93l-86 174h-70l-1 -110q0 -50 11.5 -63t59.5 -14l4 -6l-10 -62q0 3 -134 3l-143 -5l9 67q42 6 56.5 22.5t14.5 59.5l1 385q0 29 -6.5 39t-25.5 10l-35 -2l-5 8l8 61 q87 -2 126 -2l153 5q115 0 176 -44.5t61 -127.5zM427 456q0 108 -149 108q-10 0 -14 -4q-8 -9 -12 -219l90 -10q85 36 85 125zM260 -86q44 35 76.5 35t52 -23.5t19.5 -68t-41.5 -92.5t-105.5 -83l-37 30v17q30 21 49 49t19 53q0 41 -35 69z" />
<glyph unicode="&#x157;" horiz-adv-x="555" d="M99 117v291q0 22 -5 29.5t-19 7.5l-29 -1l-6 6l8 52q74 -1 107 -1l132 4q100 0 152 -35.5t52 -102.5q0 -94 -107 -148l66 -100q44 -68 89 -68l7 -9l-7 -46l-105 -8q-58 0 -91 72l-66 130h-55l-1 -76q0 -38 9.5 -47.5t49.5 -10.5l3 -5l-8 -54q0 2 -116 2l-124 -5l7 59 q33 5 45 18t12 46zM361 352q0 78 -116 78q-8 0 -11 -4q-6 -6 -10 -157l71 -8q66 26 66 91zM219 -86q44 35 76.5 35t52 -23.5t19.5 -68t-41.5 -92.5t-105.5 -83l-37 30v17q30 21 49 49t19 53q0 41 -35 69z" />
<glyph unicode="&#x158;" horiz-adv-x="643" d="M569 475q0 -121 -134 -191l87 -140q28 -46 54 -66.5t57 -20.5l7 -9l-7 -53l-119 -11q-66 0 -109 93l-86 174h-70l-1 -110q0 -50 11.5 -63t59.5 -14l4 -6l-10 -62q0 3 -134 3l-143 -5l9 67q42 6 56.5 22.5t14.5 59.5l1 385q0 29 -6.5 39t-25.5 10l-35 -2l-5 8l8 61 q87 -2 126 -2l153 5q115 0 176 -44.5t61 -127.5zM427 456q0 108 -149 108q-10 0 -14 -4q-8 -9 -12 -219l90 -10q85 36 85 125zM465 861l25 -41q-73 -53 -157 -124h-20q-83 70 -157 124l24 41l16 4q50 -25 127 -58q48 20 126 58z" />
<glyph unicode="&#x159;" horiz-adv-x="555" d="M99 117v291q0 22 -5 29.5t-19 7.5l-29 -1l-6 6l8 52q74 -1 107 -1l132 4q100 0 152 -35.5t52 -102.5q0 -94 -107 -148l66 -100q44 -68 89 -68l7 -9l-7 -46l-105 -8q-58 0 -91 72l-66 130h-55l-1 -76q0 -38 9.5 -47.5t49.5 -10.5l3 -5l-8 -54q0 2 -116 2l-124 -5l7 59 q33 5 45 18t12 46zM361 352q0 78 -116 78q-8 0 -11 -4q-6 -6 -10 -157l71 -8q66 26 66 91zM421 719l25 -41q-73 -53 -157 -124h-20q-83 70 -157 124l24 41l16 4q50 -25 127 -58q48 20 126 58z" />
<glyph unicode="&#x15a;" horiz-adv-x="540" d="M252 -12q-47 0 -91 9.5t-85 28.5l-8 14q15 88 16 170l84 7q0 -82 23 -111t78.5 -29t84 21t28.5 56q0 25 -13.5 38.5t-20.5 20t-25 16.5t-26 14t-32 15q-102 50 -145.5 91t-43.5 105q0 88 75 144t192 56q85 0 151 -20l21 -7l7 -13q-17 -81 -24 -172l-76 -6l-9 7q1 16 1 35 q0 44 -22.5 62.5t-69 18.5t-73.5 -20t-27 -51q0 -48 80 -88q17 -8 55 -26t61 -31t54 -37q59 -45 59 -116q0 -92 -76 -147t-203 -55zM448 775l-6 -13q-115 -29 -229 -65l-13 9l-13 47l223 104l12 -5z" />
<glyph unicode="&#x15b;" horiz-adv-x="466" d="M191 -9q-40 0 -77 7.5t-72 22.5l-8 12q13 71 15 131l77 6q0 -56 19 -77.5t61 -21.5t63 14t21 37q0 18 -11 27.5t-16.5 14.5t-20 12t-21.5 10q-9 5 -61 28t-86 54.5t-34 82.5q0 70 64 114.5t165 44.5q78 0 145 -21l7 -12q-15 -64 -21 -134l-70 -6l-8 6q1 11 1 22 q0 32 -18 46.5t-53.5 14.5t-56 -13.5t-20.5 -31t7.5 -28.5t27.5 -23q23 -13 64 -31t61.5 -28.5t44.5 -28.5q48 -36 48 -93q0 -72 -64 -115t-173 -43zM401 633l-6 -13q-115 -29 -229 -65l-13 9l-13 47l223 104l12 -5z" />
<glyph unicode="&#x15c;" horiz-adv-x="540" d="M160 709l-29 41q64 60 152 154h20q80 -86 151 -154l-29 -41l-15 -4q-20 16 -117 83q-71 -46 -117 -83zM220 -12q-47 0 -91 9.5t-85 28.5l-8 14q15 88 16 170l84 7q0 -82 23 -111t78.5 -29t84 21t28.5 56q0 25 -13.5 38.5t-20.5 20t-25 16.5t-26 14t-32 15 q-102 50 -145.5 91t-43.5 105q0 88 75 144t192 56q85 0 151 -20l21 -7l7 -13q-17 -81 -24 -172l-76 -6l-9 7q1 16 1 35q0 44 -22.5 62.5t-69 18.5t-73.5 -20t-27 -51q0 -48 80 -88q17 -8 55 -26t61 -31t54 -37q59 -45 59 -116q0 -92 -76 -147t-203 -55z" />
<glyph unicode="&#x15d;" horiz-adv-x="466" d="M191 -9q-40 0 -77 7.5t-72 22.5l-8 12q13 71 15 131l77 6q0 -56 19 -77.5t61 -21.5t63 14t21 37q0 18 -11 27.5t-16.5 14.5t-20 12t-21.5 10q-9 5 -61 28t-86 54.5t-34 82.5q0 70 64 114.5t165 44.5q78 0 145 -21l7 -12q-15 -64 -21 -134l-70 -6l-8 6q1 11 1 22 q0 32 -18 46.5t-53.5 14.5t-56 -13.5t-20.5 -31t7.5 -28.5t27.5 -23q23 -13 64 -31t61.5 -28.5t44.5 -28.5q48 -36 48 -93q0 -72 -64 -115t-173 -43zM118 567l-29 41q64 60 152 154h20q80 -86 151 -154l-29 -41l-15 -4q-20 16 -117 83q-71 -46 -117 -83z" />
<glyph unicode="&#x15e;" horiz-adv-x="540" d="M191 106q23 -29 78.5 -29t84 21t28.5 56q0 25 -13.5 38.5t-20.5 20t-25 16.5t-26 14t-32 15q-102 50 -145.5 91t-43.5 105q0 88 75 144t192 56q85 0 151 -20l21 -7l7 -13q-17 -81 -24 -172l-76 -6l-9 7q1 16 1 35q0 44 -22.5 62.5t-69 18.5t-73.5 -20t-27 -51 q0 -48 80 -88q17 -8 55 -26t61 -31t54 -37q59 -45 59 -116q0 -87 -70 -141.5t-187 -59.5l-9 -33q27 -16 43.5 -26.5t34.5 -31t18 -39.5q0 -39 -40.5 -67.5t-92.5 -28.5q-28 0 -53 12t-25 31t37 63h9q1 -27 15 -41.5t34 -14.5t31.5 8.5t11.5 21.5q0 26 -86 71l21 75 q-40 3 -76.5 12t-70.5 25l-8 14q15 88 16 170l84 7q0 -82 23 -111z" />
<glyph unicode="&#x15f;" horiz-adv-x="466" d="M145 92.5q19 -21.5 61 -21.5t63 14t21 37q0 18 -11 27.5t-16.5 14.5t-20 12t-21.5 10q-9 5 -61 28t-86 54.5t-34 82.5q0 70 64 114.5t165 44.5q78 0 145 -21l7 -12q-15 -64 -21 -134l-70 -6l-8 6q1 11 1 22q0 32 -18 46.5t-53.5 14.5t-56 -13.5t-20.5 -31t7.5 -28.5 t27.5 -23q23 -13 64 -31t61.5 -28.5t44.5 -28.5q48 -36 48 -96t-49 -101t-135 -51l-11 -38q27 -16 43.5 -26.5t34.5 -31t18 -39.5q0 -39 -40.5 -67.5t-92.5 -28.5q-28 0 -53 12t-25 31t37 63h9q1 -27 15 -41.5t34 -14.5t31.5 8.5t11.5 21.5q0 26 -86 71l21 77q-40 0 -77 7.5 t-72 22.5l-8 12q13 71 15 131l77 6q0 -56 19 -77.5z" />
<glyph unicode="&#x160;" horiz-adv-x="540" d="M252 -12q-47 0 -91 9.5t-85 28.5l-8 14q15 88 16 170l84 7q0 -82 23 -111t78.5 -29t84 21t28.5 56q0 25 -13.5 38.5t-20.5 20t-25 16.5t-26 14t-32 15q-102 50 -145.5 91t-43.5 105q0 88 75 144t192 56q85 0 151 -20l21 -7l7 -13q-17 -81 -24 -172l-76 -6l-9 7q1 16 1 35 q0 44 -22.5 62.5t-69 18.5t-73.5 -20t-27 -51q0 -48 80 -88q17 -8 55 -26t61 -31t54 -37q59 -45 59 -116q0 -92 -76 -147t-203 -55zM416 861l25 -41q-73 -53 -157 -124h-20q-83 70 -157 124l24 41l16 4q50 -25 127 -58q48 20 126 58z" />
<glyph unicode="&#x161;" horiz-adv-x="466" d="M191 -9q-40 0 -77 7.5t-72 22.5l-8 12q13 71 15 131l77 6q0 -56 19 -77.5t61 -21.5t63 14t21 37q0 18 -11 27.5t-16.5 14.5t-20 12t-21.5 10q-9 5 -61 28t-86 54.5t-34 82.5q0 70 64 114.5t165 44.5q78 0 145 -21l7 -12q-15 -64 -21 -134l-70 -6l-8 6q1 11 1 22 q0 32 -18 46.5t-53.5 14.5t-56 -13.5t-20.5 -31t7.5 -28.5t27.5 -23q23 -13 64 -31t61.5 -28.5t44.5 -28.5q48 -36 48 -93q0 -72 -64 -115t-173 -43zM380 719l25 -41q-73 -53 -157 -124h-20q-83 70 -157 124l24 41l16 4q50 -25 127 -58q48 20 126 58z" />
<glyph unicode="&#x162;" horiz-adv-x="569" d="M216 165v398q-43 -1 -64 -4.5t-35 -20t-18 -37t-10 -68.5l-84 -6q9 117 11 215l11 11l101 -11h311l103 11l11 -11l10 -209l-84 -6q-11 93 -28.5 113.5t-92.5 22.5q-11 -163 -11 -428q0 -37 12.5 -52.5t42.5 -15.5l53 3l4 -5l-9 -69q-84 3 -143 4l-12 -44 q27 -16 43.5 -26.5t34.5 -31t18 -39.5q0 -39 -40.5 -67.5t-92.5 -28.5q-28 0 -53 12t-25 31t37 63h9q1 -27 15 -41.5t34 -14.5t31.5 8.5t11.5 21.5q0 26 -86 71l24 86l-148 -6l8 66q66 6 83 23.5t17 81.5z" />
<glyph unicode="&#x163;" horiz-adv-x="492" d="M184 129v301q-55 -1 -71 -18.5t-24 -85.5l-77 -5q7 99 9 179l9 10l87 -9h258l87 9l10 -10l7 -174l-77 -5q-9 74 -23 90.5t-66 18.5q-8 -146 -8 -319q0 -29 10 -41t35 -12l43 2l4 -4l-8 -60q-69 3 -118 4l-12 -44q27 -16 43.5 -26.5t34.5 -31t18 -39.5q0 -39 -40.5 -67.5 t-92.5 -28.5q-28 0 -53 12t-25 31t37 63h9q1 -27 15 -41.5t34 -14.5t31.5 8.5t11.5 21.5q0 26 -86 71l24 86l-125 -6l6 59q54 4 68.5 17.5t14.5 58.5z" />
<glyph unicode="&#x164;" horiz-adv-x="569" d="M216 165v398q-43 -1 -64 -4.5t-35 -20t-18 -37t-10 -68.5l-84 -6q9 117 11 215l11 11l101 -11h311l103 11l11 -11l10 -209l-84 -6q-11 93 -28.5 113.5t-92.5 22.5q-11 -163 -11 -428q0 -37 12.5 -52.5t42.5 -15.5l53 3l4 -5l-9 -69q-122 4 -174 4l-168 -6l8 66 q66 6 83 23.5t17 81.5zM430 861l25 -41q-73 -53 -157 -124h-20q-83 70 -157 124l24 41l16 4q50 -25 127 -58q48 20 126 58z" />
<glyph unicode="&#x165;" horiz-adv-x="492" d="M184 129v301q-55 -1 -71 -18.5t-24 -85.5l-77 -5q7 99 9 179l9 10l87 -9h258l87 9l10 -10l7 -174l-77 -5q-9 74 -23 90.5t-66 18.5q-8 -146 -8 -319q0 -29 10 -41t35 -12l43 2l4 -4l-8 -60q-106 4 -149 4l-145 -6l6 59q54 4 68.5 17.5t14.5 58.5zM390 719l25 -41 q-73 -53 -157 -124h-20q-83 70 -157 124l24 41l16 4q50 -25 127 -58q48 20 126 58z" />
<glyph unicode="&#x166;" horiz-adv-x="569" d="M216 165v111l-86 -1l-10 10l8 48q42 -1 88 -1v231q-43 -1 -64 -4.5t-35 -20t-18 -37t-10 -68.5l-84 -6q9 117 11 215l11 11l101 -11h311l103 11l11 -11l10 -209l-84 -6q-11 93 -28.5 113.5t-92.5 22.5q-6 -72 -9 -230l74 4l14 -14l-4 -46l-85 -1q-1 -48 -1 -141 q0 -37 12.5 -52.5t42.5 -15.5l53 3l4 -5l-9 -69q-122 4 -174 4l-168 -6l8 66q66 6 83 23.5t17 81.5z" />
<glyph unicode="&#x167;" horiz-adv-x="492" d="M184 129v55l-90 -1l-10 9l8 48q44 -1 92 -1v191q-55 -1 -71 -18.5t-24 -85.5l-77 -5q7 99 9 179l9 10l87 -9h258l87 9l10 -10l7 -174l-77 -5q-9 74 -23 90.5t-66 18.5q-3 -48 -7 -191l81 5l14 -14l-4 -46h-92v-73q0 -29 10 -41t35 -12l43 2l4 -4l-8 -60q-106 4 -149 4 l-145 -6l6 59q54 4 68.5 17.5t14.5 58.5z" />
<glyph unicode="&#x168;" horiz-adv-x="655" d="M343 79q122 0 122 130l-4 314q-1 33 -7 43.5t-25 10.5l-33 -2l-2 4l8 66q79 -3 117 -3l119 6l-6 -67q-37 -8 -47.5 -17t-10.5 -33v-311q0 -113 -66.5 -172.5t-191.5 -59.5q-232 0 -232 216v319q0 33 -6 43.5t-26 10.5l-32 -2l-2 4l9 66q86 -3 143 -3l119 6l-7 -68 q-31 -4 -42.5 -15t-13.5 -38l-7 -291q0 -75 32 -116t92 -41zM323 849.5q59 -16.5 71 -16.5t28.5 14t38.5 42h11l39 -37v-10l-78 -102l-17 -4q-17 0 -76 17t-71.5 17t-29 -14t-37.5 -42h-11l-40 36v11l79 101l16 4q18 0 77 -16.5z" />
<glyph unicode="&#x169;" horiz-adv-x="552" d="M290 70q90 0 90 91l-2 242q-1 25 -6 33.5t-19 8.5l-26 -1l-2 3l8 56q66 -2 97 -2l103 4l-5 -58q-30 -7 -38 -13.5t-8 -24.5v-234q0 -90 -55 -137t-156.5 -47t-149 41t-47.5 126v245q0 26 -5.5 34t-21.5 8l-25 -1l-2 3l8 56q73 -2 125 -2l101 4l-6 -59q-25 -2 -34.5 -11 t-10.5 -29l-6 -227q0 -51 24 -80t69 -29zM274 707.5q59 -16.5 71 -16.5t28.5 14t38.5 42h11l39 -37v-10l-78 -102l-17 -4q-17 0 -76 17t-71.5 17t-29 -14t-37.5 -42h-11l-40 36v11l79 101l16 4q18 0 77 -16.5z" />
<glyph unicode="&#x16a;" horiz-adv-x="655" d="M343 79q122 0 122 130l-4 314q-1 33 -7 43.5t-25 10.5l-33 -2l-2 4l8 66q79 -3 117 -3l119 6l-6 -67q-37 -8 -47.5 -17t-10.5 -33v-311q0 -113 -66.5 -172.5t-191.5 -59.5q-232 0 -232 216v319q0 33 -6 43.5t-26 10.5l-32 -2l-2 4l9 66q86 -3 143 -3l119 6l-7 -68 q-31 -4 -42.5 -15t-13.5 -38l-7 -291q0 -75 32 -116t92 -41zM485 800l8 -14l-12 -77l-280 -2l-11 12l14 76q95 -1 154 -1z" />
<glyph unicode="&#x16b;" horiz-adv-x="552" d="M290 70q90 0 90 91l-2 242q-1 25 -6 33.5t-19 8.5l-26 -1l-2 3l8 56q66 -2 97 -2l103 4l-5 -58q-30 -7 -38 -13.5t-8 -24.5v-234q0 -90 -55 -137t-156.5 -47t-149 41t-47.5 126v245q0 26 -5.5 34t-21.5 8l-25 -1l-2 3l8 56q73 -2 125 -2l101 4l-6 -59q-25 -2 -34.5 -11 t-10.5 -29l-6 -227q0 -51 24 -80t69 -29zM433 658l8 -14l-12 -77l-280 -2l-11 12l14 76q95 -1 154 -1z" />
<glyph unicode="&#x16c;" horiz-adv-x="655" d="M343 79q122 0 122 130l-4 314q-1 33 -7 43.5t-25 10.5l-33 -2l-2 4l8 66q79 -3 117 -3l119 6l-6 -67q-37 -8 -47.5 -17t-10.5 -33v-311q0 -113 -66.5 -172.5t-191.5 -59.5q-232 0 -232 216v319q0 33 -6 43.5t-26 10.5l-32 -2l-2 4l9 66q86 -3 143 -3l119 6l-7 -68 q-31 -4 -42.5 -15t-13.5 -38l-7 -291q0 -75 32 -116t92 -41zM333 817q76 0 103 68l17 -4l28 -34q-15 -54 -52 -89.5t-96 -35.5t-96 35.5t-52 89.5l28 34l17 4q27 -68 103 -68z" />
<glyph unicode="&#x16d;" horiz-adv-x="552" d="M290 70q90 0 90 91l-2 242q-1 25 -6 33.5t-19 8.5l-26 -1l-2 3l8 56q66 -2 97 -2l103 4l-5 -58q-30 -7 -38 -13.5t-8 -24.5v-234q0 -90 -55 -137t-156.5 -47t-149 41t-47.5 126v245q0 26 -5.5 34t-21.5 8l-25 -1l-2 3l8 56q73 -2 125 -2l101 4l-6 -59q-25 -2 -34.5 -11 t-10.5 -29l-6 -227q0 -51 24 -80t69 -29zM279 670q76 0 103 68l17 -4l28 -34q-15 -54 -52 -89.5t-96 -35.5t-96 35.5t-52 89.5l28 34l17 4q27 -68 103 -68z" />
<glyph unicode="&#x16e;" horiz-adv-x="655" d="M343 79q122 0 122 130l-4 314q-1 33 -7 43.5t-25 10.5l-33 -2l-2 4l8 66q79 -3 117 -3l119 6l-6 -67q-37 -8 -47.5 -17t-10.5 -33v-311q0 -113 -66.5 -172.5t-191.5 -59.5q-232 0 -232 216v319q0 33 -6 43.5t-26 10.5l-32 -2l-2 4l9 66q86 -3 143 -3l119 6l-7 -68 q-31 -4 -42.5 -15t-13.5 -38l-7 -291q0 -75 32 -116t92 -41zM342 731q40 0 40 36q0 19 -12 30.5t-34 11.5q-39 0 -39 -36q0 -21 14 -31.5t31 -10.5zM405.5 707q-26.5 -29 -69.5 -29t-66 25t-23 66t26.5 68t70.5 27t66 -25t22 -64t-26.5 -68z" />
<glyph unicode="&#x16f;" horiz-adv-x="552" d="M290 70q90 0 90 91l-2 242q-1 25 -6 33.5t-19 8.5l-26 -1l-2 3l8 56q66 -2 97 -2l103 4l-5 -58q-30 -7 -38 -13.5t-8 -24.5v-234q0 -90 -55 -137t-156.5 -47t-149 41t-47.5 126v245q0 26 -5.5 34t-21.5 8l-25 -1l-2 3l8 56q73 -2 125 -2l101 4l-6 -59q-25 -2 -34.5 -11 t-10.5 -29l-6 -227q0 -51 24 -80t69 -29zM290 589q40 0 40 36q0 19 -12 30.5t-34 11.5q-39 0 -39 -36q0 -21 14 -31.5t31 -10.5zM353.5 565q-26.5 -29 -69.5 -29t-66 25t-23 66t26.5 68t70.5 27t66 -25t22 -64t-26.5 -68z" />
<glyph unicode="&#x170;" horiz-adv-x="655" d="M343 79q122 0 122 130l-4 314q-1 33 -7 43.5t-25 10.5l-33 -2l-2 4l8 66q79 -3 117 -3l119 6l-6 -67q-37 -8 -47.5 -17t-10.5 -33v-311q0 -113 -66.5 -172.5t-191.5 -59.5q-232 0 -232 216v319q0 33 -6 43.5t-26 10.5l-32 -2l-2 4l9 66q86 -3 143 -3l119 6l-7 -68 q-31 -4 -42.5 -15t-13.5 -38l-7 -291q0 -75 32 -116t92 -41zM409 794l-1 -12q-84 -46 -168 -98l-14 5l-23 34l151 134l12 -1zM577 790l-1 -12q-85 -46 -169 -98l-12 4l-24 34l151 134l12 -2z" />
<glyph unicode="&#x171;" horiz-adv-x="552" d="M290 70q90 0 90 91l-2 242q-1 25 -6 33.5t-19 8.5l-26 -1l-2 3l8 56q66 -2 97 -2l103 4l-5 -58q-30 -7 -38 -13.5t-8 -24.5v-234q0 -90 -55 -137t-156.5 -47t-149 41t-47.5 126v245q0 26 -5.5 34t-21.5 8l-25 -1l-2 3l8 56q73 -2 125 -2l101 4l-6 -59q-25 -2 -34.5 -11 t-10.5 -29l-6 -227q0 -51 24 -80t69 -29zM342 652l-1 -12q-84 -46 -168 -98l-14 5l-23 34l151 134l12 -1zM510 648l-1 -12q-85 -46 -169 -98l-12 4l-24 34l151 134l12 -2z" />
<glyph unicode="&#x172;" horiz-adv-x="655" d="M348.5 -216.5q-32.5 24.5 -32.5 60.5t20 69.5t68 84.5q-37 -10 -88 -10q-232 0 -232 216v319q0 33 -6 43.5t-26 10.5l-32 -2l-2 4l9 66q86 -3 143 -3l119 6l-7 -68q-31 -4 -42.5 -15t-13.5 -38l-7 -291q0 -76 32.5 -116.5t91.5 -40.5q122 0 122 130l-4 314q-1 33 -7 43.5 t-25 10.5l-33 -2l-2 4l8 66q79 -3 117 -3l119 6l-6 -67q-37 -8 -47.5 -17t-10.5 -33v-311q0 -99 -67.5 -176t-88 -108t-20.5 -55.5t13.5 -37.5t32.5 -13q35 0 75 24l19 -29q-52 -49 -102 -66q-55 0 -87.5 24.5z" />
<glyph unicode="&#x173;" horiz-adv-x="553" d="M380 161l-2 242q-1 26 -5.5 34t-19.5 8l-26 -1l-1 3l7 56q66 -2 97 -2l103 4l-5 -57q-30 -8 -38 -14.5t-8 -24.5v-234q0 -80 -52 -136q-63 -72 -83 -102.5t-20 -55t14 -38t33 -13.5q35 0 75 24l19 -29q-53 -49 -102 -66q-55 0 -87.5 24.5t-32.5 61t21 70.5t67 82 q-30 -6 -66 -6q-194 0 -194 167v245q0 25 -5 33.5t-21 8.5l-26 -1l-2 3l8 56q73 -2 125 -2l101 4l-6 -58q-25 -3 -34.5 -12t-10.5 -29l-6 -227q0 -52 24.5 -80.5t68.5 -28.5q90 0 90 91z" />
<glyph unicode="&#x174;" horiz-adv-x="964" d="M1 644q80 -2 119 -2q75 0 167 8l5 -8l-5 -61q-48 -5 -61.5 -11.5t-13.5 -25.5q0 -39 89 -413h13q32 86 110 360q-2 20 -7.5 43t-21.5 32.5t-52 10.5l-5 7l8 60q91 -2 130 -2q74 0 170 8l5 -8l-5 -61q-49 -5 -62 -11t-13 -24q0 -31 89 -415h13q22 60 72.5 228.5 t50.5 187.5t-11 25t-39 6h-38l-5 7l8 62q82 -5 143 -5l112 2l-7 -66q-23 -4 -32.5 -13.5t-19.5 -38.5l-176 -521l-159 -20q-16 92 -86 357h-10l-104 -337l-161 -20q-85 343 -141 530q-9 31 -26 45.5t-46 16.5l-4 7zM502 876q0 1 63 -49.5t94 -74.5l-24 -41l-16 -4 q-50 25 -127 58q-48 -20 -126 -58l-16 4l-25 41q73 53 157 124h20z" />
<glyph unicode="&#x175;" horiz-adv-x="820" d="M203.5 438.5q-9.5 -4.5 -9.5 -18.5q0 -33 65 -309h12q14 31 85 274q-1 3 -2.5 13.5t-3.5 21.5q-6 25 -56 25l-4 6l7 52q77 -2 117 -2l139 5l5 -6l-4 -53q-40 -4 -49.5 -8t-9.5 -19q0 -23 65 -309h13q13 30 52.5 163t39.5 148t-8 19t-30 4h-28l-4 6l6 53q70 -3 119 -3 l94 1l-6 -56q-17 -3 -25 -10.5t-16 -30.5l-137 -401l-153 -16q-14 83 -63 261h-8l-78 -245l-154 -16q-70 282 -110 408q-14 46 -56 49q-2 4 -4 6l7 52q65 -2 102 -2l139 5l5 -6l-5 -53q-39 -4 -48.5 -8.5zM430 734q0 1 63 -49.5t94 -74.5l-24 -41l-16 -4q-50 25 -127 58 q-48 -20 -126 -58l-16 4l-25 41q73 53 157 124h20z" />
<glyph unicode="&#x176;" horiz-adv-x="598" d="M369 645l133 -4l102 4l4 -7l-7 -61q-39 -13 -63 -39.5t-58 -88.5l-96 -179q-18 -35 -18 -138v-20.5t9.5 -31t37.5 -13.5l50 3l3 -5l-9 -69q-115 4 -153 4q-51 0 -168 -11l7 69q57 7 73.5 25t16.5 69v30q0 47 -29 102l-98 191q-24 48 -46.5 69.5t-66.5 30.5l-3 5l8 64 q89 -3 129 -3l160 8l5 -9l-5 -58q-34 -1 -47 -8t-13 -19.5t18 -56.5q40 -99 67 -152h10l79 165q14 28 14 48t-51 23l-2 5zM334 876q0 1 63 -49.5t94 -74.5l-24 -41l-16 -4q-50 25 -127 58q-48 -20 -126 -58l-16 4l-25 41q73 53 157 124h20z" />
<glyph unicode="&#x177;" horiz-adv-x="524" d="M317 503l115 -3l87 3l3 -6l-6 -53q-31 -11 -52 -33.5t-46 -65.5l-78 -140q-14 -28 -14 -97v-16t8.5 -23.5t30.5 -10.5l42 2l2 -4l-7 -60q-101 4 -145 4l-138 -8l6 59q49 5 63 18t14 52v20q0 34 -23 77l-83 150q-18 33 -37 49t-53 25l-3 4l7 56q79 -2 111 -2l136 6l5 -8 l-6 -50q-45 -1 -45 -23q0 -11 30.5 -74t33.5 -71h9l57 115q12 24 12 36q0 16 -40 17l-2 4zM294 734q0 1 63 -49.5t94 -74.5l-24 -41l-16 -4q-50 25 -127 58q-48 -20 -126 -58l-16 4l-25 41q73 53 157 124h20z" />
<glyph unicode="&#x178;" horiz-adv-x="598" d="M369 645l133 -4l102 4l4 -7l-7 -61q-39 -13 -63 -39.5t-58 -88.5l-96 -179q-18 -35 -18 -138v-20.5t9.5 -31t37.5 -13.5l50 3l3 -5l-9 -69q-115 4 -153 4q-51 0 -168 -11l7 69q57 7 73.5 25t16.5 69v30q0 47 -29 102l-98 191q-24 48 -46.5 69.5t-66.5 30.5l-3 5l8 64 q89 -3 129 -3l160 8l5 -9l-5 -58q-34 -1 -47 -8t-13 -19.5t18 -56.5q40 -99 67 -152h10l79 165q14 28 14 48t-51 23l-2 5zM456.5 725q-18.5 -19 -48 -19t-45 16.5t-15.5 45t19 47.5t48 19t44.5 -16.5t15.5 -45t-18.5 -47.5zM278.5 725q-18.5 -19 -48 -19t-45 16.5t-15.5 45 t18.5 47.5t47.5 19t45 -16.5t16 -45t-18.5 -47.5z" />
<glyph unicode="&#x179;" horiz-adv-x="580" d="M531 16l-17 -19l-395 6l-75 -8l-25 45l351 529l-127 -8q-64 -8 -87 -33t-28 -94l-85 -6q14 124 17 216l10 10l178 -11l293 -3l18 -41q-153 -203 -361 -526l156 11q50 4 77.5 40.5t39.5 113.5l85 7q-21 -131 -25 -229zM485 775l-6 -13q-115 -29 -229 -65l-13 9l-13 47 l223 104l12 -5z" />
<glyph unicode="&#x17a;" horiz-adv-x="500" d="M455 13l-15 -15l-332 4l-64 -6l-22 38l283 402l-94 -7q-51 -6 -68.5 -24.5t-20.5 -70.5l-79 -5q11 101 13 174l9 8l147 -9l249 -2l17 -35q-148 -183 -292 -400l118 10q41 5 62.5 32t30.5 85l78 7q-17 -109 -20 -186zM428 633l-6 -13q-115 -29 -229 -65l-13 9l-13 47 l223 104l12 -5z" />
<glyph unicode="&#x17b;" horiz-adv-x="580" d="M531 16l-17 -19l-395 6l-75 -8l-25 45l351 529l-127 -8q-64 -8 -87 -33t-28 -94l-85 -6q14 124 17 216l10 10l178 -11l293 -3l18 -41q-153 -203 -361 -526l156 11q50 4 77.5 40.5t39.5 113.5l85 7q-21 -131 -25 -229zM365 724.5q-22 -22.5 -57 -22.5t-53 20t-18 53.5 t22 56t56.5 22.5t53 -19.5t18.5 -53.5t-22 -56.5z" />
<glyph unicode="&#x17c;" horiz-adv-x="500" d="M455 13l-15 -15l-332 4l-64 -6l-22 38l283 402l-94 -7q-51 -6 -68.5 -24.5t-20.5 -70.5l-79 -5q11 101 13 174l9 8l147 -9l249 -2l17 -35q-148 -183 -292 -400l118 10q41 5 62.5 32t30.5 85l78 7q-17 -109 -20 -186zM324 582.5q-22 -22.5 -57 -22.5t-53 20t-18 53.5 t22 56t56.5 22.5t53 -19.5t18.5 -53.5t-22 -56.5z" />
<glyph unicode="&#x17d;" horiz-adv-x="580" d="M531 16l-17 -19l-395 6l-75 -8l-25 45l351 529l-127 -8q-64 -8 -87 -33t-28 -94l-85 -6q14 124 17 216l10 10l178 -11l293 -3l18 -41q-153 -203 -361 -526l156 11q50 4 77.5 40.5t39.5 113.5l85 7q-21 -131 -25 -229zM453 861l25 -41q-73 -53 -157 -124h-20 q-83 70 -157 124l24 41l16 4q50 -25 127 -58q48 20 126 58z" />
<glyph unicode="&#x17e;" horiz-adv-x="500" d="M455 13l-15 -15l-332 4l-64 -6l-22 38l283 402l-94 -7q-51 -6 -68.5 -24.5t-20.5 -70.5l-79 -5q11 101 13 174l9 8l147 -9l249 -2l17 -35q-148 -183 -292 -400l118 10q41 5 62.5 32t30.5 85l78 7q-17 -109 -20 -186zM411 719l25 -41q-73 -53 -157 -124h-20 q-83 70 -157 124l24 41l16 4q50 -25 127 -58q48 20 126 58z" />
<glyph unicode="&#x192;" horiz-adv-x="416" d="M264 363l122 1l4 -5l-10 -61q-15 0 -121 2l-14 -195q-6 -78 -25 -136.5t-67 -94t-104 -35.5q-31 0 -59.5 13t-28.5 29.5t10 48.5t20 44h15q7 -27 27 -45t44 -18q49 0 52 89l17 264q-1 24 -14.5 30.5t-60.5 6.5l-4 6l8 46l76 12l2 23q1 37 17 74q20 59 74.5 97.5 t117.5 38.5q37 0 66.5 -9t29.5 -21q0 -16 -10 -50.5t-19 -46.5l-15 -1q-42 54 -86 54q-32 0 -43.5 -26t-15.5 -79z" />
<glyph unicode="&#x1fa;" horiz-adv-x="625" d="M627 -3q-79 3 -120 3q-80 0 -172 -8l-6 8l5 60q49 4 63 11t14 21.5t-5 37.5l-20 76q-26 1 -78 1t-108 -7l-25 -75q-6 -21 -6 -34.5t10 -20t36 -6.5h43l4 -7l-7 -63q-82 6 -146 6l-121 -3l8 67q24 4 38.5 18.5t26.5 47.5l178 507l159 16l11 -5q90 -347 143 -516 q11 -36 28 -51t50 -18l4 -7zM294 286q32 0 74 4l-58 220h-14l-72 -224h70zM328 721q36 0 36 32q0 38 -38.5 38t-38.5 -32q0 -19 13 -28.5t28 -9.5zM385.5 699.5q-23.5 -26.5 -62.5 -26.5t-60 22t-21 59.5t24 62t64 24.5t59.5 -23t19.5 -57.5t-23.5 -61zM449 903l-5 -11 q-104 -26 -206 -59l-12 8l-12 43l201 93l11 -4z" />
<glyph unicode="&#x1fb;" horiz-adv-x="544" d="M336.5 62q10.5 4 10.5 14q0 13 -18 77q-21 1 -53.5 1t-93.5 -4q-22 -62 -22 -73.5t7 -16t28 -4.5h31l6 -7l-7 -53q-70 4 -122 4l-102 -2l6 57q33 6 50 49l143 393l153 13l10 -6q75 -280 114 -396q8 -27 21.5 -39t39.5 -14l3 -7l-6 -50q-66 2 -104 2l-145 -6l-5 6l4 54 q41 4 51.5 8zM257 227q23 0 57 2l-43 161h-13l-54 -163h53zM279 580q36 0 36 32q0 38 -38.5 38t-38.5 -32q0 -19 13 -28.5t28 -9.5zM336.5 558.5q-23.5 -26.5 -62.5 -26.5t-60 22t-21 59.5t24 62t64 24.5t59.5 -23t19.5 -57.5t-23.5 -61zM395 761l-5 -11q-104 -26 -206 -59 l-12 8l-12 43l201 93l11 -4z" />
<glyph unicode="&#x1fc;" horiz-adv-x="871" d="M386 73.5q16 9.5 16 28.5q0 24 -16 147l-87 -11l-84 -16l-45 -97q-11 -25 -11 -38t11.5 -18t43.5 -5l33 -5l-6 -65q-1 1 -30 2t-69.5 2.5t-66.5 1.5l-74 -3l-5 60q10 2 27.5 22.5t32.5 50.5l208 425q-4 22 -25 22l-31 -2l-6 9l8 61q111 -3 294.5 -3t267.5 12l8 -11 q-18 -89 -23 -182l-91 -6q2 26 2 40q0 41 -22 52t-81.5 11t-68.5 -5t-10 -22l26 -182l96 12l96 19l11 -10l-13 -84l-91 -7l-88 -10l20 -123q6 -36 22.5 -52t47.5 -16q84 0 108.5 20t34.5 95l85 7l7 -10q-18 -90 -28 -186l-9 -11q-210 7 -294 7h-38q-71 0 -159 -8l-5 8l4 60 q51 4 67 13.5zM252 317l65 4l62 8l-23 181h-15zM653 841l-1 -14q-96 -60 -189 -129l-15 4l-30 39q104 104 167 171l14 -1z" />
<glyph unicode="&#x1fd;" horiz-adv-x="751" d="M342 89l-11 97l-70 -8l-68 -15l-30 -65q-9 -15 -9 -25.5t9 -13.5t36 -3l23 -5l-6 -55q-88 4 -143 4l-63 -2l-3 54q23 4 49 52l163 322q-4 19 -21 19l-24 -1l-7 7l7 52q102 -2 260 -2t228 9l7 -9q-15 -73 -19 -146l-85 -6q2 20 2 31q0 31 -17.5 39t-62.5 8t-52 -3.5 t-8 -17.5l20 -129l74 10l81 17l9 -10l-10 -73l-75 -7l-68 -9l14 -83q9 -53 55 -53q64 0 83 15.5t27 72.5l79 6l7 -9q-15 -72 -23 -150l-9 -9q-187 5 -248 5h-33l-133 -6l-4 6l4 54q40 3 52.5 10t12.5 25zM227 248l97 10l-17 131h-13zM567 699l-1 -14q-96 -60 -189 -129 l-15 4l-30 39q104 104 167 171l14 -1z" />
<glyph unicode="&#x1fe;" horiz-adv-x="674" d="M132 47q-104 84 -104 249.5t90 261.5t238 96q66 0 119 -21l59 96l62 -29l3 -13l-57 -91q104 -82 104 -248t-91 -263t-240 -97q-62 0 -119 21l-70 -116l-60 29l-3 10zM340 75q71 0 110.5 55.5t39.5 160t-29 171.5l-207 -355q35 -32 86 -32zM221 501.5q-38 -55.5 -38 -158 t26 -168.5l204 353q-35 29 -85 29q-69 0 -107 -55.5zM488 781l-6 -13q-115 -29 -229 -65l-13 9l-13 47l223 104l12 -5z" />
<glyph unicode="&#x1ff;" horiz-adv-x="570" d="M107 43q-78 66 -78 193.5t73 200.5t198 73q54 0 96 -15l54 80l60 -30l1 -11l-50 -74q80 -63 80 -192t-74 -203t-198 -74q-54 0 -100 16l-64 -94l-58 31l-2 8zM224 90q25 -22 70.5 -22t74 39t28.5 113t-15 119zM173 272q0 -63 11 -109l154 243q-27 19 -60 19 q-105 0 -105 -153zM430 647l-6 -13q-115 -29 -229 -65l-13 9l-13 47l223 104l12 -5z" />
<glyph unicode="&#x218;" horiz-adv-x="540" d="M252 -12q-47 0 -91 9.5t-85 28.5l-8 14q15 88 16 170l84 7q0 -82 23 -111t78.5 -29t84 21t28.5 56q0 25 -13.5 38.5t-20.5 20t-25 16.5t-26 14t-32 15q-102 50 -145.5 91t-43.5 105q0 88 75 144t192 56q85 0 151 -20l21 -7l7 -13q-17 -81 -24 -172l-76 -6l-9 7q1 16 1 35 q0 44 -22.5 62.5t-69 18.5t-73.5 -20t-27 -51q0 -48 80 -88q17 -8 55 -26t61 -31t54 -37q59 -45 59 -116q0 -92 -76 -147t-203 -55zM179 -86q44 35 76.5 35t52 -23.5t19.5 -68t-41.5 -92.5t-105.5 -83l-37 30v17q30 21 49 49t19 53q0 41 -35 69z" />
<glyph unicode="&#x219;" horiz-adv-x="466" d="M191 -9q-40 0 -77 7.5t-72 22.5l-8 12q13 71 15 131l77 6q0 -56 19 -77.5t61 -21.5t63 14t21 37q0 18 -11 27.5t-16.5 14.5t-20 12t-21.5 10q-9 5 -61 28t-86 54.5t-34 82.5q0 70 64 114.5t165 44.5q78 0 145 -21l7 -12q-15 -64 -21 -134l-70 -6l-8 6q1 11 1 22 q0 32 -18 46.5t-53.5 14.5t-56 -13.5t-20.5 -31t7.5 -28.5t27.5 -23q23 -13 64 -31t61.5 -28.5t44.5 -28.5q48 -36 48 -93q0 -72 -64 -115t-173 -43zM150 -86q44 35 76.5 35t52 -23.5t19.5 -68t-41.5 -92.5t-105.5 -83l-37 30v17q30 21 49 49t19 53q0 41 -35 69z" />
<glyph unicode="&#x21a;" horiz-adv-x="569" d="M216 165v398q-43 -1 -64 -4.5t-35 -20t-18 -37t-10 -68.5l-84 -6q9 117 11 215l11 11l101 -11h311l103 11l11 -11l10 -209l-84 -6q-11 93 -28.5 113.5t-92.5 22.5q-11 -163 -11 -428q0 -37 12.5 -52.5t42.5 -15.5l53 3l4 -5l-9 -69q-122 4 -174 4l-168 -6l8 66 q66 6 83 23.5t17 81.5zM209 -86q44 35 76.5 35t52 -23.5t19.5 -68t-41.5 -92.5t-105.5 -83l-37 30v17q30 21 49 49t19 53q0 41 -35 69z" />
<glyph unicode="&#x21b;" horiz-adv-x="492" d="M184 129v301q-55 -1 -71 -18.5t-24 -85.5l-77 -5q7 99 9 179l9 10l87 -9h258l87 9l10 -10l7 -174l-77 -5q-9 74 -23 90.5t-66 18.5q-8 -146 -8 -319q0 -29 10 -41t35 -12l43 2l4 -4l-8 -60q-106 4 -149 4l-145 -6l6 59q54 4 68.5 17.5t14.5 58.5zM176 -86q44 35 76.5 35 t52 -23.5t19.5 -68t-41.5 -92.5t-105.5 -83l-37 30v17q30 21 49 49t19 53q0 41 -35 69z" />
<glyph unicode="&#x237;" horiz-adv-x="294" d="M91 98l1 306q0 25 -5.5 33t-22.5 8l-33 -2l-6 8l7 50h105l133 6l-5 -59q-26 -4 -33 -11.5t-9 -30.5q-10 -175 -10 -331q-1 -77 -42.5 -124t-131.5 -73l-25 33l2 10q45 34 60 69t15 108z" />
<glyph unicode="&#x2c6;" d="M66 535l-29 41q64 60 152 154h20q80 -86 151 -154l-29 -41l-15 -4q-20 16 -117 83q-71 -46 -117 -83z" />
<glyph unicode="&#x2c7;" d="M33 679l30 42l15 3q53 -42 121 -85q75 50 119 85l16 -3l30 -42q-66 -62 -156 -158h-20q-82 88 -155 158z" />
<glyph unicode="&#x2d8;" d="M199 642q76 0 103 68l17 -4l28 -34q-15 -54 -52 -89.5t-96 -35.5t-96 35.5t-52 89.5l28 34l17 4q27 -68 103 -68z" />
<glyph unicode="&#x2d9;" d="M252 596.5q-22 -22.5 -57 -22.5t-53 20t-18 53.5t22 56t56.5 22.5t53 -19.5t18.5 -53.5t-22 -56.5z" />
<glyph unicode="&#x2da;" d="M201 596q40 0 40 37q0 41 -42.5 41t-42.5 -35q0 -22 14 -32.5t31 -10.5zM265 572.5q-26 -29.5 -69.5 -29.5t-66.5 25t-23 66t26.5 68t70.5 27t66 -25t22 -63.5t-26 -68z" />
<glyph unicode="&#x2db;" d="M117.5 -216.5q-32.5 24.5 -32.5 64.5t31 82t102 112h54q-64 -74 -85 -105t-21 -55.5t14 -38t33 -13.5q35 0 75 24l18 -29q-52 -49 -102 -66q-54 0 -86.5 24.5z" />
<glyph unicode="&#x2dc;" d="M191 674.5q59 -16.5 71 -16.5t28.5 14t38.5 42h11l39 -37v-10l-78 -102l-17 -4q-17 0 -76 17t-71.5 17t-29 -14t-37.5 -42h-11l-40 36v11l79 101l16 4q18 0 77 -16.5z" />
<glyph unicode="&#x2dd;" d="M242 677v-11q-74 -64 -148 -135l-14 1l-31 28l124 166l12 1zM387 677v-11q-74 -64 -148 -135l-14 1l-32 28l125 166l11 1z" />
<glyph unicode="&#x323;" horiz-adv-x="321" d="M216 -188q-22 -23 -58.5 -23t-55.5 20.5t-19 55.5t22 58t58 23t55.5 -20.5t19.5 -55.5t-22 -58z" />
<glyph unicode="&#x3c0;" horiz-adv-x="621" d="M484 366q-11 -132 -11 -184.5t18 -71t66 -18.5l9 -15q0 -13 -35 -51t-46 -38q-66 0 -96.5 31.5t-30.5 99.5l3 250q0 33 -9.5 41t-47.5 8t-47 -7t-10 -37q-8 -200 -8 -341l3 -99l-7 -10l-118 -22l-7 14q5 12 10 166t5 279q0 30 -6.5 40.5t-22.5 10.5t-32.5 -12.5 t-36.5 -37.5l-8 -1l-31 42l1 8l74 87l15 7q64 0 192.5 -5t155.5 -5q60 0 170 10l6 -7l-13 -70l-7 -7q-58 0 -76 -10t-22 -45z" />
<glyph unicode="&#x1e80;" horiz-adv-x="964" d="M1 644q80 -2 119 -2q75 0 167 8l5 -8l-5 -61q-48 -5 -61.5 -11.5t-13.5 -25.5q0 -39 89 -413h13q32 86 110 360q-2 20 -7.5 43t-21.5 32.5t-52 10.5l-5 7l8 60q91 -2 130 -2q74 0 170 8l5 -8l-5 -61q-49 -5 -62 -11t-13 -24q0 -31 89 -415h13q22 60 72.5 228.5 t50.5 187.5t-11 25t-39 6h-38l-5 7l8 62q82 -5 143 -5l112 2l-7 -66q-23 -4 -32.5 -13.5t-19.5 -38.5l-176 -521l-159 -20q-16 92 -86 357h-10l-104 -337l-161 -20q-85 343 -141 530q-9 31 -26 45.5t-46 16.5l-4 7zM329 762l-5 13l26 77l12 5q115 -57 223 -104l-13 -47 l-14 -9q-122 38 -229 65z" />
<glyph unicode="&#x1e81;" horiz-adv-x="820" d="M203.5 438.5q-9.5 -4.5 -9.5 -18.5q0 -33 65 -309h12q14 31 85 274q-1 3 -2.5 13.5t-3.5 21.5q-6 25 -56 25l-4 6l7 52q77 -2 117 -2l139 5l5 -6l-4 -53q-40 -4 -49.5 -8t-9.5 -19q0 -23 65 -309h13q13 30 52.5 163t39.5 148t-8 19t-30 4h-28l-4 6l6 53q70 -3 119 -3 l94 1l-6 -56q-17 -3 -25 -10.5t-16 -30.5l-137 -401l-153 -16q-14 83 -63 261h-8l-78 -245l-154 -16q-70 282 -110 408q-14 46 -56 49q-2 4 -4 6l7 52q65 -2 102 -2l139 5l5 -6l-5 -53q-39 -4 -48.5 -8.5zM266 620l-5 13l26 77l12 5q115 -57 223 -104l-13 -47l-14 -9 q-87 27 -229 65z" />
<glyph unicode="&#x1e82;" horiz-adv-x="964" d="M1 644q80 -2 119 -2q75 0 167 8l5 -8l-5 -61q-48 -5 -61.5 -11.5t-13.5 -25.5q0 -39 89 -413h13q32 86 110 360q-2 20 -7.5 43t-21.5 32.5t-52 10.5l-5 7l8 60q91 -2 130 -2q74 0 170 8l5 -8l-5 -61q-49 -5 -62 -11t-13 -24q0 -31 89 -415h13q22 60 72.5 228.5 t50.5 187.5t-11 25t-39 6h-38l-5 7l8 62q82 -5 143 -5l112 2l-7 -66q-23 -4 -32.5 -13.5t-19.5 -38.5l-176 -521l-159 -20q-16 92 -86 357h-10l-104 -337l-161 -20q-85 343 -141 530q-9 31 -26 45.5t-46 16.5l-4 7zM665 775l-6 -13q-115 -29 -229 -65l-13 9l-13 47l223 104 l12 -5z" />
<glyph unicode="&#x1e83;" horiz-adv-x="820" d="M203.5 438.5q-9.5 -4.5 -9.5 -18.5q0 -33 65 -309h12q14 31 85 274q-1 3 -2.5 13.5t-3.5 21.5q-6 25 -56 25l-4 6l7 52q77 -2 117 -2l139 5l5 -6l-4 -53q-40 -4 -49.5 -8t-9.5 -19q0 -23 65 -309h13q13 30 52.5 163t39.5 148t-8 19t-30 4h-28l-4 6l6 53q70 -3 119 -3 l94 1l-6 -56q-17 -3 -25 -10.5t-16 -30.5l-137 -401l-153 -16q-14 83 -63 261h-8l-78 -245l-154 -16q-70 282 -110 408q-14 46 -56 49q-2 4 -4 6l7 52q65 -2 102 -2l139 5l5 -6l-5 -53q-39 -4 -48.5 -8.5zM582 633l-6 -13q-115 -29 -229 -65l-13 9l-13 47l223 104l12 -5z " />
<glyph unicode="&#x1e84;" horiz-adv-x="964" d="M1 644q80 -2 119 -2q75 0 167 8l5 -8l-5 -61q-48 -5 -61.5 -11.5t-13.5 -25.5q0 -39 89 -413h13q32 86 110 360q-2 20 -7.5 43t-21.5 32.5t-52 10.5l-5 7l8 60q91 -2 130 -2q74 0 170 8l5 -8l-5 -61q-49 -5 -62 -11t-13 -24q0 -31 89 -415h13q22 60 72.5 228.5 t50.5 187.5t-11 25t-39 6h-38l-5 7l8 62q82 -5 143 -5l112 2l-7 -66q-23 -4 -32.5 -13.5t-19.5 -38.5l-176 -521l-159 -20q-16 92 -86 357h-10l-104 -337l-161 -20q-85 343 -141 530q-9 31 -26 45.5t-46 16.5l-4 7zM624.5 725q-18.5 -19 -48 -19t-45 16.5t-15.5 45t19 47.5 t48 19t44.5 -16.5t15.5 -45t-18.5 -47.5zM446.5 725q-18.5 -19 -48 -19t-45 16.5t-15.5 45t18.5 47.5t47.5 19t45 -16.5t16 -45t-18.5 -47.5z" />
<glyph unicode="&#x1e85;" horiz-adv-x="820" d="M203.5 438.5q-9.5 -4.5 -9.5 -18.5q0 -33 65 -309h12q14 31 85 274q-1 3 -2.5 13.5t-3.5 21.5q-6 25 -56 25l-4 6l7 52q77 -2 117 -2l139 5l5 -6l-4 -53q-40 -4 -49.5 -8t-9.5 -19q0 -23 65 -309h13q13 30 52.5 163t39.5 148t-8 19t-30 4h-28l-4 6l6 53q70 -3 119 -3 l94 1l-6 -56q-17 -3 -25 -10.5t-16 -30.5l-137 -401l-153 -16q-14 83 -63 261h-8l-78 -245l-154 -16q-70 282 -110 408q-14 46 -56 49q-2 4 -4 6l7 52q65 -2 102 -2l139 5l5 -6l-5 -53q-39 -4 -48.5 -8.5zM553.5 583q-18.5 -19 -48 -19t-45 16.5t-15.5 45t18.5 47.5t48 19 t45 -16.5t15.5 -45t-18.5 -47.5zM375.5 583q-18.5 -19 -48 -19t-45 16.5t-15.5 45t18.5 47.5t47.5 19t45 -16.5t16 -45t-18.5 -47.5z" />
<glyph unicode="&#x1ef2;" horiz-adv-x="598" d="M369 645l133 -4l102 4l4 -7l-7 -61q-39 -13 -63 -39.5t-58 -88.5l-96 -179q-18 -35 -18 -138v-20.5t9.5 -31t37.5 -13.5l50 3l3 -5l-9 -69q-115 4 -153 4q-51 0 -168 -11l7 69q57 7 73.5 25t16.5 69v30q0 47 -29 102l-98 191q-24 48 -46.5 69.5t-66.5 30.5l-3 5l8 64 q89 -3 129 -3l160 8l5 -9l-5 -58q-34 -1 -47 -8t-13 -19.5t18 -56.5q40 -99 67 -152h10l79 165q14 28 14 48t-51 23l-2 5zM161 762l-5 13l26 77l12 5q115 -57 223 -104l-13 -47l-14 -9q-122 38 -229 65z" />
<glyph unicode="&#x1ef3;" horiz-adv-x="524" d="M317 503l115 -3l87 3l3 -6l-6 -53q-31 -11 -52 -33.5t-46 -65.5l-78 -140q-14 -28 -14 -97v-16t8.5 -23.5t30.5 -10.5l42 2l2 -4l-7 -60q-101 4 -145 4l-138 -8l6 59q49 5 63 18t14 52v20q0 34 -23 77l-83 150q-18 33 -37 49t-53 25l-3 4l7 56q79 -2 111 -2l136 6l5 -8 l-6 -50q-45 -1 -45 -23q0 -11 30.5 -74t33.5 -71h9l57 115q12 24 12 36q0 16 -40 17l-2 4zM130 620l-5 13l26 77l12 5q115 -57 223 -104l-13 -47l-14 -9q-87 27 -229 65z" />
<glyph unicode="&#x2013;" horiz-adv-x="453" d="M452 213l-452 -1l-9 13l11 76h241q212 0 212 4l8 -15z" />
<glyph unicode="&#x2014;" horiz-adv-x="876" d="M874 213l-874 -1l-9 13l11 76h439q392 0 436 4l8 -15z" />
<glyph unicode="&#x2018;" horiz-adv-x="218" d="M176 422q-44 -35 -76.5 -35t-52 23t-19.5 67.5t41.5 92.5t105.5 84l37 -30v-17q-30 -20 -49 -48.5t-19 -61t34 -61.5z" />
<glyph unicode="&#x2019;" horiz-adv-x="218" d="M42 619q45 35 77 35t51.5 -23.5t19.5 -68t-41.5 -92.5t-105.5 -83l-37 30v17q30 20 49 48t19 54q0 41 -35 69z" />
<glyph unicode="&#x201a;" horiz-adv-x="238" d="M48 108q45 34 77 34t50.5 -24t18.5 -70.5t-44 -98.5t-109 -89l-37 30v17q32 22 52 53t20 66t-31 68z" />
<glyph unicode="&#x201c;" horiz-adv-x="402" d="M360 422q-44 -35 -76.5 -35t-52 23t-19.5 67.5t41.5 92.5t105.5 84l37 -30v-17q-30 -20 -49 -48.5t-19 -61t34 -61.5zM176 422q-44 -35 -76.5 -35t-52 23t-19.5 67.5t41.5 92.5t105.5 84l37 -30v-17q-30 -20 -49 -48.5t-19 -61t34 -61.5z" />
<glyph unicode="&#x201d;" horiz-adv-x="402" d="M226 619q45 35 77 35t51.5 -23.5t19.5 -68t-41.5 -92.5t-105.5 -83l-37 30v17q30 20 49 48t19 54q0 41 -35 69zM42 619q45 35 77 35t51.5 -23.5t19.5 -68t-41.5 -92.5t-105.5 -83l-37 30v17q30 20 49 48t19 54q0 41 -35 69z" />
<glyph unicode="&#x201e;" horiz-adv-x="421" d="M48 108q45 34 77 34t51.5 -23t19.5 -67.5t-41.5 -92.5t-105.5 -84l-37 30v17q30 20 49 48.5t19 54.5q0 40 -34 69zM229 108q45 34 77 34t51.5 -23t19.5 -67.5t-41.5 -92.5t-105.5 -84l-37 30v17q30 20 49 48.5t19 54.5q0 40 -34 69z" />
<glyph unicode="&#x2020;" horiz-adv-x="512" d="M303 317v-402l-88 -6l-9 9v399h-158l-8 11l7 78h159v179l91 7l8 -8l-1 -178l158 2l10 -11l-7 -80h-162z" />
<glyph unicode="&#x2021;" horiz-adv-x="512" d="M303 336v-158l160 1l9 -10l-7 -80h-162v-174l-88 -6l-9 9v171h-158l-8 10l7 78l159 1v158h-158l-8 11l7 78h159v160l91 7l8 -8l-1 -159l159 1l9 -10l-7 -80h-162z" />
<glyph unicode="&#x2022;" horiz-adv-x="340" d="M167 113q-55 0 -86 32t-31 86t34 89t88.5 35t86 -32.5t31.5 -86t-34 -88.5t-89 -35z" />
<glyph unicode="&#x2024;" horiz-adv-x="238" d="M116 -11q-37 0 -56 20.5t-19 56t22 58.5t58 23t56 -20.5t20 -56t-22 -58.5t-59 -23z" />
<glyph unicode="&#x2025;" horiz-adv-x="458" d="M116 -11q-37 0 -56 20.5t-19 56t22 58.5t58 23t56 -20.5t20 -56t-22 -58.5t-59 -23zM336 -11q-37 0 -56 20.5t-19 56t22 58.5t58 23t56 -20.5t20 -56t-22 -58.5t-59 -23z" />
<glyph unicode="&#x2026;" horiz-adv-x="677" d="M336 -11q-37 0 -56 20.5t-19 56t22 58.5t58 23t56 -20.5t20 -56t-22 -58.5t-59 -23zM555 -11q-37 0 -56 20.5t-19 56t22 58.5t58 23t56 -20.5t20 -56t-22 -58.5t-59 -23zM116 -11q-37 0 -56 20.5t-19 56t22 58.5t58 23t56 -20.5t20 -56t-22 -58.5t-59 -23z" />
<glyph unicode="&#x2030;" horiz-adv-x="1048" d="M172 408q82 0 82 66q0 35 -24 56t-69 21q-80 0 -80 -65q0 -39 25.5 -58.5t65.5 -19.5zM274.5 359.5q-42.5 -50.5 -111.5 -50.5t-107 44t-38 123.5t43.5 128.5t112.5 49t106 -44.5t37 -122t-42.5 -128zM562 88q81 0 81 65q0 35 -24 56.5t-66 21.5t-62.5 -17.5t-20.5 -52.5 t25.5 -54t66.5 -19zM664.5 38.5q-42.5 -50.5 -111.5 -50.5t-107 44t-38 124t43.5 128.5t113 48.5t106 -44t36.5 -122t-42.5 -128.5zM897 88q82 0 82 65q0 35 -24.5 56.5t-68.5 21.5q-80 0 -80 -66q0 -39 25 -58t66 -19zM999.5 38.5q-42.5 -50.5 -111.5 -50.5t-107 44 t-38 124t44 128.5t113 48.5t105.5 -44t36.5 -122t-42.5 -128.5zM607 653l7 -19q-176 -267 -266 -407l-202 -320l-65 27l-5 14q121 180 207 316l262 414z" />
<glyph unicode="&#x2039;" horiz-adv-x="265" d="M136 229q0 -3 89 -144l-4 -16l-41 -25q-64 72 -165 171v21q92 92 165 175l41 -25l4 -16q-14 -21 -89 -141z" />
<glyph unicode="&#x203a;" horiz-adv-x="265" d="M86 44l-41 25l-4 16q36 56 88 141q-66 108 -88 143l4 16l41 26q64 -72 164 -172v-20q-92 -92 -164 -175z" />
<glyph unicode="&#x2044;" horiz-adv-x="155" d="M326 653l7 -19q-176 -267 -266 -407l-202 -320l-65 27l-5 14q121 180 207 316l262 414z" />
<glyph unicode="&#x2070;" horiz-adv-x="353" d="M283.5 386.5q-41.5 -55.5 -111.5 -55.5t-106.5 50t-36.5 143t42 148.5t111.5 55.5t106 -49.5t36.5 -143t-41.5 -149zM180 431q79 0 79 93q0 49 -22.5 75t-64.5 26q-77 0 -77 -95q0 -48 22 -73.5t63 -25.5z" />
<glyph unicode="&#x2074;" horiz-adv-x="337" d="M257 500h50l7 -9l-7 -62l-49 2l4 -85l-7 -7l-90 -7l-5 7q3 49 4 94l-155 3l2 52l170 239l5 1l71 -7v-221zM164 500v104h-7l-71 -104h78z" />
<glyph unicode="&#x2075;" horiz-adv-x="305" d="M235.5 544.5q36.5 -26.5 36.5 -76.5t-61 -93.5t-135 -43.5q-29 0 -42 17t-17 59l12 12q27 -11 61 -11t56 14t22 37.5t-28 36.5t-91 17l-6 7l12 187l5 5l135 4q19 0 28 5.5t14 20.5l43 3l-18 -105l-10 -9q-62 5 -132 5l-4 -53q83 -12 119.5 -38.5z" />
<glyph unicode="&#x2076;" horiz-adv-x="329" d="M277 547.5q30 -31.5 30 -87t-40.5 -92.5t-105 -37t-101 39.5t-36.5 99t24 106t59 73.5q72 56 128 72l24 7l8 -4l16 -42q-10 -2 -33 -15t-40 -25q-42 -31 -66 -77l3 -6q33 17 49 20q51 0 81 -31.5zM119 498l-1 -27q0 -76 50 -76q47 0 47 55q0 29 -13 46t-36.5 17 t-46.5 -15z" />
<glyph unicode="&#x2077;" horiz-adv-x="304" d="M120 720h146l30 -37q-66 -136 -122 -269l-22 -82h-14l-69 21l-7 17l140 272l-78 -5q-31 -3 -40.5 -13t-15.5 -43l-46 -4q10 80 13 143l4 3q40 -3 81 -3z" />
<glyph unicode="&#x2078;" horiz-adv-x="336" d="M30 426q0 60 69 91q-62 40 -62 99q0 47 40 79.5t94.5 32.5t89.5 -26.5t35 -66.5q0 -54 -57 -85q65 -36 65 -92t-42 -91.5t-101 -35.5t-95 26.5t-36 68.5zM128 404.5q15 -15.5 37 -15.5t35 11.5t13 29.5t-16.5 31t-33.5 21t-23 11q-27 -22 -27 -47.5t15 -41zM138 656 q-11 -10 -11 -24t11 -25q15 -16 54 -34q20 22 20 45.5t-12 35.5t-31.5 12t-30.5 -10z" />
<glyph unicode="&#x2079;" horiz-adv-x="329" d="M52 512.5q-30 31.5 -30 86.5t40.5 92t105.5 37t101 -39t36 -103q0 -80 -47 -137q-42 -52 -96 -79q-54 -28 -92 -38l-7 3l-16 43q7 2 31 14.5t40 25.5q47 35 68 77l-4 6q-27 -16 -49 -20q-51 0 -81 31.5zM127.5 563.5q12.5 -16.5 35 -16.5t47.5 14q2 18 2 28q0 76 -51 76 q-46 0 -46 -56q0 -29 12.5 -45.5z" />
<glyph unicode="&#x207f;" horiz-adv-x="400" d="M349 565l-13 -152q0 -28 20 -28l18 1l2 -3l-7 -46q-52 2 -78 2l-77 -3l4 47q28 6 28 33l2 103q0 52 -37 52q-21 0 -46 -20q-7 -112 -7 -132.5t4 -26t14 -5.5h15l1 -3l-7 -47q-48 2 -74 2l-86 -3l6 47q20 1 27.5 9t7.5 26v127q0 22 -6.5 30t-25.5 8h-10l-3 4l5 41l136 22 l7 -7q-6 -24 -8 -46l4 -2q60 55 80 55q50 0 77 -22.5t27 -62.5z" />
<glyph unicode="&#x2080;" horiz-adv-x="353" d="M283.5 -72.5q-41.5 -55.5 -111.5 -55.5t-106.5 49.5t-36.5 142.5t42 149t111.5 56t106 -50t36.5 -143t-41.5 -148.5zM180 -29q79 0 79 94q0 49 -22.5 75t-64.5 26q-77 0 -77 -96q0 -47 22 -73t63 -26z" />
<glyph unicode="&#x2081;" horiz-adv-x="265" d="M182 -29q0 -43 29 -43l30 2l3 -4l-9 -49q-64 3 -98 3l-112 -7l5 46q31 3 45 14t14 34v197q0 22 -6.5 29t-25.5 7l-33 -2l-4 5l4 42q47 5 104 13t79 11l9 -24q-21 -15 -26 -49q-8 -62 -8 -225z" />
<glyph unicode="&#x2082;" horiz-adv-x="352" d="M179 144q0 37 -44.5 37t-83.5 -53h-10l-13 62q24 35 62.5 57t84.5 22t79 -26t33 -67.5t-29.5 -90.5t-103.5 -129l3 -5h57q29 0 41.5 12t17.5 47l61 5q-14 -77 -18 -132l-11 -9q-157 6 -222 6l-55 -6l-6 48l81 87q76 90 76 135z" />
<glyph unicode="&#x2083;" horiz-adv-x="310" d="M34 -41q28 -10 61 -10t55.5 14t22.5 36q0 44 -89 44l-7 8l-6 49l44 8q45 20 45 56q0 32 -34 32t-74 -27h-8l-17 55q23 16 61 30.5t76 14.5t67 -22t29 -53.5t-19.5 -55t-53.5 -36.5v-6q92 -29 92 -95q0 -48 -61.5 -88.5t-136.5 -40.5q-30 0 -43 17t-16 58z" />
<glyph unicode="&#x2084;" horiz-adv-x="337" d="M257 40h50l7 -8l-7 -62l-49 1l4 -84l-7 -7l-90 -7l-5 6q3 50 4 95l-155 2l2 53l170 238l5 2l71 -8v-221zM164 40v104h-7l-71 -104h78z" />
<glyph unicode="&#x2085;" horiz-adv-x="305" d="M235.5 84.5q36.5 -26.5 36.5 -76.5t-61 -93t-135 -43q-29 0 -42 17t-17 58l12 12q28 -10 61.5 -10t55.5 14t22 37q0 45 -119 53l-6 8l12 186l5 5l135 4q33 1 42 26l43 3l-18 -104l-10 -10q-62 5 -132 5l-4 -52q83 -13 119.5 -39.5z" />
<glyph unicode="&#x2086;" horiz-adv-x="329" d="M277 87.5q30 -31.5 30 -86.5t-40.5 -92t-105 -37t-101 39t-36.5 104q0 79 46 136q44 53 96 80q55 28 93 38l8 -4l16 -43q-9 -2 -32.5 -14.5t-40.5 -25.5q-44 -33 -66 -77l3 -6q27 15 49 20q51 0 81 -31.5zM119 38l-1 -27q0 -76 50 -76q47 0 47 56q0 29 -13 45.5 t-36.5 16.5t-46.5 -15z" />
<glyph unicode="&#x2087;" horiz-adv-x="304" d="M120 261h146l30 -37q-66 -136 -122 -269l-22 -82h-14l-69 20l-7 17l140 273l-78 -6q-30 -2 -40 -12t-16 -43l-46 -4q10 79 13 143l4 3q40 -3 81 -3z" />
<glyph unicode="&#x2088;" horiz-adv-x="336" d="M30 -34q0 62 69 91q-62 40 -62 100q0 46 40 79t94.5 33t89.5 -26.5t35 -66.5q0 -54 -57 -85q65 -38 65 -93t-42 -90.5t-101 -35.5t-95 26t-36 68zM128 -54.5q15 -15.5 37 -15.5t35 11t13 27.5t-12.5 28.5t-23 17.5t-37.5 18.5q-27 -20 -27 -46t15 -41.5zM138.5 196.5 q-11.5 -10.5 -11.5 -24.5t10 -25q14 -15 55 -33q20 22 20 45t-12 35.5t-31 12.5t-30.5 -10.5z" />
<glyph unicode="&#x2089;" horiz-adv-x="329" d="M52 52.5q-30 31.5 -30 86.5t40.5 92.5t105.5 37.5t101 -39t36 -104q0 -79 -47 -136q-43 -53 -96 -80q-54 -28 -92 -38l-7 4l-16 43q7 2 31 14.5t40 24.5q45 33 68 78l-4 5q-30 -15 -49 -20q-51 0 -81 31.5zM163 87q20 0 47 15q2 18 2 27q0 37 -13.5 57t-37.5 20 q-46 0 -46 -59.5t48 -59.5z" />
<glyph unicode="&#x20a3;" horiz-adv-x="472" d="M233 177l100 1l5 -7l-4 -44h-92l-10 -20q0 -25 7 -33.5t26 -8.5l49 4l9 -12l-10 -59h-20l-145 2l-103 -9l6 60q38 5 47.5 19t11.5 57h-62l-7 6l7 44h63l1 229q0 24 -5 32t-19 8l-28 -1l-6 10l8 50q72 -2 133 -2h53q108 0 210 10l9 -10q-13 -72 -17 -142l-86 -5q2 23 2 33 q0 25 -15 33t-69 8l-19 -1q-7 0 -12 -6.5t-6 -11.5q-2 -10 -2.5 -16t-1 -8t-0.5 -9v-8l-3 -73q22 -1 73 -1l89 7l9 -10l-12 -70q-51 3 -78 3t-84 -5z" />
<glyph unicode="&#x20ac;" horiz-adv-x="573" d="M346 68q44 0 68 25t34 81l84 6q-14 -82 -17 -149l-8 -9q-79 -31 -178 -31t-160.5 45.5t-80.5 128.5h-76l-7 7l7 47h68v18q0 14 2 42h-70l-7 7l7 47h82q26 83 98.5 129.5t176.5 46.5q67 0 158 -19l6 -11q-17 -65 -23 -149l-83 -5q1 20 1 41q0 64 -88 64q-99 0 -121 -97 l151 4l7 -9l-4 -48l-161 -1v-15q0 -17 2 -45h4l152 4l7 -9l-4 -48l-148 -1q31 -97 121 -97z" />
<glyph unicode="&#x2122;" horiz-adv-x="568" d="M314 446q0 -13 12 -13l12 1l3 -3l-4 -29q-40 1 -53 1l-45 -3l3 31q22 1 23 25q1 4 8.5 68t7.5 73t-4.5 11.5t-22.5 4.5l-4 3l4 28q40 -2 56 -2l55 2l37 -130h5q22 66 41 128q25 0 103 2l2 -1l-3 -29q-17 -1 -22.5 -5t-5.5 -30.5t5.5 -79t9.5 -59t14 -6.5h11l2 -2l-3 -30 q-25 1 -65.5 1t-46.5 -3l4 31q21 3 21 18l-4 99h-5q-19 -45 -51 -146l-41 -4q-32 106 -50 150h-5q-4 -94 -4 -102zM82 465v138q-21 -1 -27.5 -9.5t-10.5 -40.5l-43 -3q3 51 4 92l4 4l45 -4h125l46 4l5 -4l3 -89l-44 -3q-4 35 -9.5 43.5t-26.5 9.5q-3 -108 -3 -138.5 t21 -30.5l21 1l2 -2l-4 -32q-54 2 -76 2l-75 -3l3 31q25 2 32.5 8.5t7.5 25.5z" />
<glyph unicode="&#x2126;" horiz-adv-x="857" d="M553 169.5q27 61.5 27 167t-38.5 163t-111.5 57.5t-115 -50t-42 -142q0 -216 121 -317l-16 -51l-56 9l-268 -11l-18 19q0 72 -12 192l70 7q8 -71 28 -99.5t63 -30.5l73 -4q-140 121 -140 281q0 126 91 210t226.5 84t218.5 -75.5t83 -196.5q0 -184 -151 -304l83 5 q41 2 61 29t29 94l72 7q-12 -117 -12 -199l-19 -19l-271 11l-56 -8l-17 49q70 61 97 122.5z" />
<glyph unicode="&#x212e;" horiz-adv-x="797" d="M180 311q-5 0 -5 -4v-181q0 -10 9 -21q91 -97 230.5 -97t232.5 109h54q-51 -60 -128 -94.5t-164 -34.5q-152 0 -260.5 97t-108.5 234.5t108 234.5t260.5 97t260.5 -97t108 -235v-8h-597zM643 516q0 12 -10 22q-93 93 -224 93t-224 -96q-10 -10 -10 -23v-178q0 -5 5 -5 h458q5 0 5 5v182z" />
<glyph unicode="&#x2202;" horiz-adv-x="509" d="M480 249q0 -116 -65 -189t-169 -73t-160.5 62t-56.5 165t57.5 175.5t143.5 72.5q22 -4 61 -24l3 5q-64 130 -257 236l32 56l13 6q181 -76 289.5 -204.5t108.5 -287.5zM344 203q0 77 -14 142q-32 29 -79 29t-68 -32t-21 -110q0 -168 105 -168q77 0 77 139z" />
<glyph unicode="&#x2206;" horiz-adv-x="604" d="M20 0l-10 13l219 624l160 17h9q98 -390 183 -647l-8 -7h-553zM301 519h-15l-134 -424h256z" />
<glyph unicode="&#x220f;" horiz-adv-x="713" d="M116 140l1 382q0 31 -7 41.5t-29 10.5l-35 -1l-5 8l8 65q98 -4 139 -4h327q31 0 96 3t66 4l-5 -70q-38 -5 -50.5 -15.5t-14.5 -38.5q-12 -223 -12 -392q0 -40 7.5 -54t30.5 -14l43 3l5 -7l-9 -64q-104 3 -138 3q-67 0 -146 -9l7 65q41 9 55 25.5t14 58.5v375 q0 38 -18.5 45t-84 7t-82.5 -9.5t-19 -39.5q-12 -240 -12 -330t4 -104q7 -19 41 -19l31 3l5 -7l-9 -64q-42 1 -73.5 2t-61.5 1t-89 -3.5t-60 -5.5l7 65q44 9 58.5 25.5t14.5 58.5z" />
<glyph unicode="&#x2211;" horiz-adv-x="566" d="M34 639l275 4q56 2 178 11l11 -10l11 -201l-80 -13q-5 67 -29 96t-85 34l-133 10l156 -231v-29l-187 -238l171 15q50 3 76 37.5t38 105.5l85 7q-21 -127 -22 -221l-18 -19l-389 6l-66 -9l-27 39l218 273l-200 296l16 38z" />
<glyph unicode="&#x2212;" horiz-adv-x="506" d="M482 312l7 -12l-10 -92l-455 -2l-7 11l14 90q145 -1 234 -1z" />
<glyph unicode="&#x221a;" horiz-adv-x="505" d="M71 344q-15 47 -56 47h-17l-2 4l7 59q82 5 163 14l7 -8q5 -48 83 -345h12l170 611l21 16h79l-219 -738l-136 -16q-86 278 -112 356z" />
<glyph unicode="&#x221e;" horiz-adv-x="515" d="M150 411q75 0 123 -79q42 82 114 82q52 0 83.5 -43.5t31.5 -111.5t-42.5 -116.5t-102.5 -48.5q-73 0 -119 82q-41 -79 -112 -79q-51 0 -82.5 43t-31.5 109t41 114t97 48zM95.5 206.5q17.5 -17.5 52.5 -17.5t65 37q-34 68 -57 82q-12 6 -30 6t-33 -16t-15 -45t17.5 -46.5z M419.5 303.5q-19.5 19.5 -55.5 19.5t-65 -38q16 -32 25.5 -48t26 -31t37.5 -15t36 16.5t15 46.5t-19.5 49.5z" />
<glyph unicode="&#x222b;" horiz-adv-x="425" d="M370 599q34 0 62.5 -9t28.5 -21q0 -15 -10.5 -50.5t-18.5 -46.5l-15 -2q-39 54 -81 54q-52 0 -56 -68l-24 -417q-4 -85 -60.5 -142.5t-128.5 -57.5q-31 0 -59.5 13t-28.5 30t10.5 49t20.5 43h14q8 -27 27.5 -45t43.5 -18q50 0 53 89l17 426q2 65 65.5 119t139.5 54z" />
<glyph unicode="&#x2248;" horiz-adv-x="506" d="M251 392.5q87 -19.5 103 -19.5q28 0 66 43l13 14h11l35 -38v-10l-91 -102l-19 -4q-26 0 -112.5 19.5t-102.5 19.5q-28 0 -67 -42l-13 -14h-11l-35 37v11l91 101l19 4q26 0 113 -19.5zM251 212.5q87 -19.5 103 -19.5q28 0 66 43l13 14h11l35 -38v-10l-91 -102l-19 -4 q-26 0 -112.5 19.5t-102.5 19.5q-29 0 -67 -43l-13 -14h-11l-35 38v10l91 102l19 4q26 0 113 -19.5z" />
<glyph unicode="&#x2260;" horiz-adv-x="506" d="M477 120l-195 -1h-26l-26 -121l-70 -6l-5 9l25 118l-157 -1l-8 11l14 90q88 -1 169 -1l17 79l-192 -1l-8 11l14 90q117 -1 204 -1l28 130l69 4l7 -9l-26 -125l170 6l7 -12l-11 -92l-185 -1l-18 -79l207 6l7 -12z" />
<glyph unicode="&#x2264;" horiz-adv-x="489" d="M45 213l-8 13l1 97l368 158l14 -8l20 -76q-69 -25 -304 -121v-7l300 -132q1 -5 5 -15l-43 -65q-36 16 -76 35q-65 30 -95 42.5t-72 30.5q-77 33 -110 48zM452 -97l-419 -2l-8 14l11 76h230q43 0 89.5 1t73.5 1.5t26 1.5l8 -15z" />
<glyph unicode="&#x2265;" horiz-adv-x="489" d="M443 325l8 -13l-1 -98l-368 -157l-13 7l-20 77q103 37 180 70l124 50v7l-301 132l-4 16l42 65q183 -86 353 -156zM450 -97l-418 -2l-9 14l11 76h231q43 0 89 1t73 1.5t26 1.5l8 -15z" />
<glyph unicode="&#x25ca;" horiz-adv-x="523" d="M51 257l-1 35l159 355l98 4l11 -7l82 -182l77 -161l1 -38l-158 -352l-97 -5l-13 7l-80 178zM200 422l-59 -148l124 -268h7l116 274l-125 272h-7z" />
<glyph unicode="&#x25fc;" horiz-adv-x="505" d="M0 505h505v-505h-505v505z" />
<glyph unicode="&#xfb01;" horiz-adv-x="782" d="M307 -3q-89 3 -125 3q-66 0 -148 -8l7 59q34 5 45.5 19t11.5 49l1 284q0 25 -5 33.5t-20 8.5l-24 -1l-7 7l7 52q97 -2 211 -2t183 9l7 -9q-13 -75 -17 -147l-84 -5q1 21 1 31q0 30 -14.5 38.5t-53.5 8.5t-45.5 -4t-6.5 -20l-6 -124l75 -1l86 6l8 -8l-11 -74 q-61 2 -93.5 2t-67.5 -5l-1 -80q0 -30 6.5 -39.5t28.5 -9.5l52 5l8 -10zM505 502l120 -1l123 5l-5 -58q-31 -4 -40.5 -11.5t-11.5 -30.5q-9 -157 -9 -297q0 -32 6 -42.5t25 -10.5l32 2l5 -6l-7 -54q-90 2 -127 2l-120 -6l6 56q35 7 46.5 19.5t11.5 45.5v289q0 25 -6 33 t-23 8l-27 -1l-5 8z" />
<glyph unicode="&#xfb02;" horiz-adv-x="923" d="M307 -3q-89 3 -125 3q-66 0 -148 -8l7 59q34 5 45.5 19t11.5 49l1 284q0 25 -5 33.5t-20 8.5l-24 -1l-7 7l7 52q97 -2 211 -2t183 9l7 -9q-13 -75 -17 -147l-84 -5q1 21 1 31q0 30 -14.5 38.5t-53.5 8.5t-45.5 -4t-6.5 -20l-6 -124l75 -1l86 6l8 -8l-11 -74 q-61 2 -93.5 2t-67.5 -5l-1 -80q0 -30 6.5 -39.5t28.5 -9.5l52 5l8 -10zM507 502l118 -1l138 5l-7 -62q-41 -4 -52 -13.5t-13 -37.5q-10 -133 -10 -280q0 -26 9.5 -34.5t37.5 -8.5q54 0 72.5 22.5t27.5 99.5l78 7l7 -9q-13 -89 -21 -186l-10 -10q-132 6 -200 6 q-102 0 -184 -8l7 59q31 4 42.5 18.5t11.5 49.5l1 285q0 25 -6 33t-24 8l-23 -1l-6 8z" />
<glyph d="M359 775l-6 -13q-115 -29 -229 -65l-13 9l-13 47l223 104l12 -5z" />
<glyph d="M199 788q76 0 103 60l17 -4l28 -35q-15 -50 -52 -83t-96 -33t-96 33t-52 83l28 35l17 4q27 -60 103 -60z" />
<glyph d="M209 876q0 1 63 -49.5t94 -74.5l-24 -41l-16 -4q-50 25 -127 58q-48 -20 -126 -58l-16 4l-25 41q73 53 157 124h20z" />
<glyph d="M332.5 725q-18.5 -19 -48 -19t-45 16.5t-15.5 45t19 47.5t48 19t44.5 -16.5t15.5 -45t-18.5 -47.5zM154.5 725q-18.5 -19 -48 -19t-45 16.5t-15.5 45t18.5 47.5t47.5 19t45 -16.5t16 -45t-18.5 -47.5z" />
<glyph d="M44 762l-5 13l26 77l12 5q115 -57 223 -104l-13 -47l-14 -9q-122 38 -229 65z" />
<glyph d="M345 800l8 -14l-12 -77l-280 -2l-11 12l14 76q95 -1 154 -1z" />
<glyph d="M201 731q40 0 40 36q0 19 -12 30.5t-34 11.5q-39 0 -39 -36q0 -21 14 -31.5t31 -10.5zM264.5 707q-26.5 -29 -69.5 -29t-66 25t-23 66t26.5 68t70.5 27t66 -25t22 -64t-26.5 -68z" />
<glyph d="M191 818q59 -17 71 -17q23 0 56 39l11 13h11l40 -37v-10l-79 -97l-16 -4q-18 0 -77 17t-72 17q-22 0 -55 -39l-11 -13h-11l-39 37v11l78 96l17 4q17 0 76 -17z" />
<glyph d="M341 861l25 -41q-73 -53 -157 -124h-20q-83 70 -157 124l24 41l16 4q50 -25 127 -58q48 20 126 58z" />
<glyph d="M252 724.5q-22 -22.5 -57 -22.5t-53 20t-18 53.5t22 56t56.5 22.5t53 -19.5t18.5 -53.5t-22 -56.5z" />
<glyph d="M121 -86q44 35 76.5 35t52 -23.5t19.5 -68t-41.5 -92.5t-105.5 -83l-37 30v17q30 21 49 49t19 53q0 41 -35 69z" />
<glyph d="M261 794l-1 -12q-84 -46 -168 -98l-14 5l-23 34l151 134l12 -1zM429 790l-1 -12q-85 -46 -169 -98l-12 4l-24 34l151 134l12 -2z" />
<glyph horiz-adv-x="513" d="M416.5 75q-64.5 -87 -168 -87t-160 78t-56.5 218.5t65.5 227t168 86.5t159 -77.5t56.5 -218t-64.5 -227.5zM156.5 163q37.5 -48 103 -48t100 44.5t34.5 127t-38.5 130.5t-103.5 48t-99 -44.5t-34 -127t37.5 -130.5z" />
<glyph horiz-adv-x="366" d="M246 132q0 -37 9.5 -52t34.5 -15l49 3l3 -5l-11 -67q-93 4 -133 4q-56 0 -166 -11l7 63q52 5 70.5 24t18.5 70v301q0 35 -10.5 46t-39.5 11l-51 -5l-5 7l6 58q38 2 92.5 10t78.5 11t38.5 5.5t25.5 4t21 3.5l11 -29q-32 -26 -38 -79q-11 -138 -11 -358z" />
<glyph horiz-adv-x="494" d="M268 420q0 65 -74.5 65t-133.5 -90h-14l-17 80q33 53 90.5 88t124.5 35t115 -38t48 -100.5t-47 -142t-165 -215.5l4 -8h107q47 0 66 18.5t30 72.5l76 7q-22 -108 -29 -189l-14 -12q-236 9 -331 9l-73 -10l-11 57l115 127q133 162 133 246z" />
<glyph horiz-adv-x="435" d="M40 104q44 -13 94 -13t88.5 25.5t38.5 65.5q0 81 -148 81l-9 10l-7 61l65 15q34 15 54.5 41.5t20.5 53.5t-16.5 42.5t-44.5 15.5q-56 0 -110 -43h-12l-21 71q32 21 86.5 44.5t109.5 23.5t96.5 -33.5t41.5 -80.5t-30 -84.5t-80 -58.5v-9q138 -41 138 -143 q0 -74 -91 -137.5t-197 -63.5q-42 0 -59.5 23t-20.5 79z" />
<glyph horiz-adv-x="469" d="M356 244h81l9 -12l-10 -82q-32 1 -80 2l7 -143l-8 -8l-116 -12l-8 10q5 85 6 156q-154 4 -237 4l3 67l263 371l6 2l84 -11v-344zM238 244v180h-10l-124 -180h134z" />
<glyph horiz-adv-x="428" d="M328.5 316.5q56.5 -40.5 56.5 -117t-90.5 -144t-196.5 -67.5q-40 0 -58 23t-22 79l13 14q44 -13 95 -13t88.5 26.5t37.5 69t-45 65t-143 28.5l-9 11l18 276l8 8l198 7q29 2 42 10t21 30l55 4l-26 -147l-13 -12q-96 8 -204 8l-7 -103q125 -15 181.5 -55.5z" />
<glyph horiz-adv-x="464" d="M439 191q0 -89 -59.5 -146t-152.5 -57t-146 60t-53 156q0 62 19 117t49.5 93.5t68 71t74.5 52.5q82 44 117 54l19 6l10 -5l20 -55q-18 -5 -55.5 -26.5t-64.5 -43.5t-57.5 -59t-47.5 -79l5 -6q3 1 19 10q47 24 66 27q78 0 123.5 -49.5t45.5 -120.5zM296 243 q-24 30 -64.5 30t-79.5 -28q-2 -28 -2 -42q0 -63 23.5 -98.5t64 -35.5t61.5 25t21 72t-24 77z" />
<glyph horiz-adv-x="426" d="M172 586h217l39 -48q-109 -224 -196 -436l-31 -114h-17l-91 28l-11 25l224 441l-134 -7q-47 -4 -62.5 -20t-24.5 -68l-60 -6q14 114 19 204l6 5q60 -4 122 -4z" />
<glyph horiz-adv-x="479" d="M38 130q0 98 112 148q-99 62 -99 151q0 69 57.5 119t136 50t129.5 -39t51 -101q0 -88 -90 -135q48 -28 76 -63t28 -86q0 -79 -61.5 -132.5t-147 -53.5t-139 39t-53.5 103zM173.5 89.5q26.5 -27.5 65 -27.5t62 22t23.5 55t-27 54.5t-58 36.5t-35 17q-57 -35 -57 -91 q0 -39 26.5 -66.5zM187.5 500q-19.5 -19 -19.5 -44.5t17 -44.5t34.5 -29t55.5 -29q39 33 39 77.5t-21 66.5t-53.5 22t-52 -19z" />
<glyph horiz-adv-x="464" d="M24 395q0 90 60 147t152.5 57t146 -60t53.5 -156q0 -62 -19 -117t-49.5 -94t-68 -71.5t-74.5 -52.5q-82 -44 -117 -54l-19 -6l-10 6l-20 54q16 5 54 26.5t65.5 43.5t57.5 59t47 79l-4 7q-67 -35 -86 -37q-78 0 -123.5 49t-45.5 120zM167.5 343.5q23.5 -29.5 62.5 -29.5 t81 27q3 19 3 43q0 62 -24 97.5t-66 35.5q-80 0 -80 -97q0 -47 23.5 -76.5z" />
<glyph horiz-adv-x="455" d="M376.5 75q-59.5 -87 -156.5 -87t-149 77.5t-52 218.5t60.5 227.5t156.5 86.5t148 -77.5t52 -218t-59.5 -227.5zM138.5 163q33.5 -48 91.5 -48t89 44t31 127t-34 131t-93 48t-88.5 -44t-29.5 -127t33.5 -131z" />
<glyph horiz-adv-x="455" d="M291 132q0 -37 11 -52t41 -15l57 3l3 -5l-12 -67q-103 4 -147 4q-62 0 -181 -11l8 63q61 4 82 23.5t21 70.5v301q0 35 -13.5 46t-45.5 11l-59 -5l-6 7l7 58q48 3 106 10.5t84.5 10.5t41.5 5.5t25.5 4t19.5 3.5l11 -29q-21 -15 -30 -31.5t-14 -47.5q-10 -125 -10 -358z " />
<glyph horiz-adv-x="455" d="M242 421q0 64 -68 64t-124 -90h-13l-18 80q33 54 87.5 88.5t107.5 34.5q75 0 121.5 -38t46.5 -100.5t-44 -142t-154 -215.5l4 -8h95q43 0 61 18.5t27 72.5l77 7q-21 -108 -27 -189l-14 -12q-223 9 -313 9l-73 -10l-10 57l111 127q122 160 120 247z" />
<glyph horiz-adv-x="455" d="M46 104q44 -13 96.5 -13t92.5 25.5t40 66.5t-36.5 60.5t-117.5 19.5l-9 10l-8 61l67 15q36 15 57.5 41t21.5 53.5t-17.5 43t-46.5 15.5q-58 0 -114 -43h-12l-21 71q28 20 85.5 44t114.5 24t99 -33t42 -80.5t-30.5 -85t-82.5 -58.5v-9q143 -42 143 -143 q0 -74 -93.5 -137.5t-201.5 -63.5q-43 0 -61 23t-21 79z" />
<glyph horiz-adv-x="455" d="M257 597l6 2l85 -11v-344h79l8 -12l-9 -82q-31 1 -78 2l7 -143l-8 -8l-116 -12l-8 10q5 85 6 156q-152 4 -232 4l3 67zM230 244v180h-10l-119 -180h129z" />
<glyph horiz-adv-x="455" d="M345 316.5q59 -40.5 59 -117t-94 -144t-203 -67.5q-41 0 -59.5 23t-22.5 79l13 14q46 -13 100 -13t93.5 26.5t39.5 69t-47.5 65t-150.5 28.5l-10 11l19 276l8 8l206 7q30 2 43.5 10t21.5 30l55 4l-27 -147l-12 -12q-101 8 -215 8l-7 -103q131 -15 190 -55.5z" />
<glyph horiz-adv-x="455" d="M432 191q0 -89 -58.5 -146t-151 -57t-144.5 60t-52 156q0 62 19 117t49 93.5t67 71t73 52.5q82 45 116 54l19 6l9 -5l21 -55q-16 -5 -53.5 -26.5t-64.5 -43.5t-56.5 -59t-46.5 -79l5 -6q3 1 19 10q48 24 65 27q76 0 120.5 -49.5t44.5 -120.5zM289.5 243 q-23.5 30 -62.5 30t-78 -28q-2 -28 -2 -42q0 -63 23 -98.5t65 -35.5q78 0 78 97q0 47 -23.5 77z" />
<glyph horiz-adv-x="455" d="M186 586h226l38 -48q-126 -248 -207 -436l-32 -114h-16l-91 28l-11 25l235 441l-144 -7q-49 -4 -65 -20t-26 -68l-60 -6q15 114 20 204l7 5q62 -4 126 -4z" />
<glyph horiz-adv-x="455" d="M32 130q0 99 106 148q-94 61 -94 151q0 69 56 119t132.5 50t126 -38.5t49.5 -101.5q0 -87 -86 -135q99 -60 99 -144t-59.5 -137.5t-143 -53.5t-135 39t-51.5 103zM165 89.5q25 -27.5 61 -27.5t58 22t22 50t-15.5 47.5t-34.5 31t-37.5 21t-21 11t-5.5 2.5q-52 -35 -52 -91 q0 -39 25 -66.5zM178 500q-18 -19 -18 -41.5t7 -36.5t25 -28q21 -15 69 -41q37 31 37 76.5t-19.5 67.5t-51 22t-49.5 -19z" />
<glyph horiz-adv-x="455" d="M23 395q0 90 58.5 147t150.5 57t144.5 -60t52.5 -156q0 -62 -19 -117t-49 -94t-66.5 -71.5t-73.5 -52.5q-83 -45 -116 -54l-19 -6l-9 6l-21 54q17 5 53.5 26.5t63.5 43.5t56.5 59t46.5 79l-4 7q-1 0 -19 -10q-45 -25 -65 -27q-77 0 -121 49t-44 120zM164.5 343.5 q22.5 -29.5 60.5 -29.5t80 27q3 19 3 43q0 62 -23.5 97.5t-64.5 35.5q-78 0 -78 -97q0 -47 22.5 -76.5z" />
<glyph horiz-adv-x="445" d="M371.5 63.5q-60.5 -75.5 -156.5 -75.5t-149 66.5t-53 186t61 194.5t157 75t148.5 -66t52.5 -185.5t-60.5 -195zM129 155q36 -36 96.5 -36t93 32t32.5 91.5t-36 95.5t-96.5 36t-93 -32.5t-32.5 -91.5t36 -95z" />
<glyph horiz-adv-x="445" d="M285 132q0 -37 11 -52t40 -15l57 3l3 -5l-12 -67q-102 4 -145 4q-63 0 -180 -11l8 63q59 5 80 24t21 68v215q0 34 -13.5 45.5t-44.5 11.5l-58 -5l-6 7l7 57q4 1 27 3q27 2 81.5 9t80.5 10t41 5.5t25.5 4t18.5 3.5l11 -30q-21 -15 -30 -31.5t-13 -46.5q-10 -113 -10 -270z " />
<glyph horiz-adv-x="445" d="M76 107q138 169 138 233t-57.5 64t-104.5 -77h-12l-18 74q38 51 87.5 80t108.5 29t100 -35.5t41 -88t-35.5 -110t-137.5 -175.5l4 -8h84q43 0 61.5 19t26.5 72l77 7q-20 -107 -26 -188l-14 -12q-235 9 -324 9l-62 -9l-7 33z" />
<glyph horiz-adv-x="445" d="M65 365l-12 -1l-21 71q28 23 85.5 49t114.5 26t98 -32t41 -79t-30.5 -84t-82.5 -58v-8q142 -37 142 -132q0 -79 -96.5 -148t-207.5 -69q-42 0 -60 23t-21 79l13 14q38 -13 95 -13t100 27t43 68q0 80 -153 80l-8 10l-8 62l66 14q35 15 56 41t21 52.5t-17.5 41.5t-45.5 15 q-55 0 -112 -49z" />
<glyph horiz-adv-x="445" d="M255 508l7 2l85 -11v-342h78l9 -11l-10 -83q-31 1 -76 3l6 -145l-8 -9l-115 -12l-8 10q4 87 6 159q-152 4 -232 4l3 67zM229 157v178h-10l-118 -178h128z" />
<glyph horiz-adv-x="445" d="M395 130q0 -87 -99 -158.5t-210 -71.5q-40 0 -58.5 22.5t-21.5 79.5l12 14q40 -13 98 -13t102.5 27t44.5 67.5t-43.5 63t-151.5 37.5l-9 11l19 270l9 8l198 7q30 2 43.5 10t21.5 30l55 4l-27 -147l-12 -13q-95 8 -207 8l-7 -89q123 -24 183 -62t60 -105z" />
<glyph horiz-adv-x="445" d="M425 191q0 -89 -58 -146t-149 -57t-143 60t-52 156q0 62 18.5 117t48.5 93.5t66 71t72 52.5q79 44 114 54l19 6l10 -5l20 -55q-18 -6 -53 -27t-61.5 -43t-55.5 -59t-46 -79l5 -6q3 1 19 10q46 24 63 27q75 0 119 -49.5t44 -120.5zM223 273q-38 0 -77 -28q-2 -28 -2 -42 q0 -63 22.5 -98.5t63.5 -35.5q76 0 76 97q0 47 -22.5 77t-60.5 30z" />
<glyph horiz-adv-x="445" d="M181 498h222l39 -48q-125 -251 -203 -437l-31 -113h-17l-91 27l-12 25l232 442l-140 -8q-49 -4 -65 -20t-25 -68l-60 -6q15 114 20 205l6 5q61 -4 125 -4z" />
<glyph horiz-adv-x="445" d="M29 130q0 98 104 148q-92 61 -92 151q0 69 55.5 119t131 50t124.5 -38.5t49 -101.5q0 -87 -84 -135q97 -60 97 -144t-59 -137.5t-142 -53.5t-133.5 39t-50.5 103zM161.5 89.5q24.5 -27.5 59.5 -27.5t56.5 22t21.5 56q0 36 -31 58q-36 27 -81 49q-50 -33 -50 -91 q0 -39 24.5 -66.5zM174.5 500q-18.5 -19 -18.5 -41.5t7 -36.5t25 -27q28 -21 68 -42q36 32 36 77t-19.5 67t-49.5 22t-48.5 -19z" />
<glyph horiz-adv-x="445" d="M64 186q-44 49 -44 129.5t58 137.5t149 57t143 -60t52 -156q0 -62 -18.5 -117t-48.5 -93.5t-66 -71.5t-72 -53q-73 -41 -133 -60l-10 6l-20 55q18 6 53 27t61 42.5t55 58.5t46 79l-4 7q-3 -1 -19 -10q-45 -25 -63 -27q-75 0 -119 49zM161.5 254.5q22.5 -29.5 58.5 -29.5 t78 27q3 21 3 43q0 62 -23 98t-63 36q-76 0 -76 -97q0 -48 22.5 -77.5z" />
<glyph d="M153 491v47q0 88 -7 181l100 14l8 -10q-15 -109 -38 -216l-48 -20z" />
<glyph horiz-adv-x="353" d="M283.5 308.5q-41.5 -55.5 -111.5 -55.5t-106.5 49.5t-36.5 142.5t42 148.5t111.5 55.5t106 -49.5t36.5 -142.5t-41.5 -148.5zM180 352q79 0 79 93q0 49 -22.5 75.5t-64.5 26.5q-77 0 -77 -96q0 -48 22 -73.5t63 -25.5z" />
<glyph horiz-adv-x="265" d="M182 352q0 -43 29 -43l30 2l3 -4l-9 -49q-64 3 -98 3l-112 -7l5 46q31 2 45 13t14 34v197q0 23 -6.5 30t-25.5 7l-33 -2l-4 5l4 42q80 9 120 14.5t63 8.5l9 -23q-21 -15 -26 -49q-8 -62 -8 -225z" />
<glyph horiz-adv-x="352" d="M179 525q0 37 -43.5 37t-84.5 -53h-10l-13 62q24 35 62.5 56.5t84.5 21.5t79 -25.5t33 -67.5t-29.5 -90.5t-103.5 -128.5l3 -6h57q29 0 41.5 12.5t17.5 46.5l61 5q-14 -77 -18 -131l-11 -10q-157 7 -222 7l-55 -6l-6 48l81 87q76 90 76 135z" />
<glyph horiz-adv-x="310" d="M34 340q27 -11 60.5 -11t56 14t22.5 36q0 45 -89 45l-7 8l-6 48l44 9q45 20 45 56q0 14 -10 23t-26 9q-32 0 -72 -27h-8l-17 54q23 16 61 30.5t76.5 14.5t67 -21.5t28.5 -53t-19.5 -55t-53.5 -36.5v-7q92 -28 92 -94q0 -48 -61.5 -88.5t-136.5 -40.5q-30 0 -43 17t-16 58 z" />
<glyph horiz-adv-x="337" d="M257 421h50l7 -9l-7 -61l-49 1l4 -84l-7 -7l-90 -8l-5 7q3 50 4 95l-155 2l2 52l170 239l5 1l71 -7v-221zM164 421v104h-7l-71 -104h78z" />
<glyph horiz-adv-x="305" d="M235.5 465.5q36.5 -26.5 36.5 -76.5t-61 -93t-135 -43q-29 0 -42 17t-17 58l12 12q27 -11 61 -11t56 14.5t22 37.5q0 45 -119 53l-6 8l12 186l5 5l135 4q19 0 28 5.5t14 20.5l43 3l-18 -104l-10 -10q-62 5 -132 5l-4 -53q83 -12 119.5 -38.5z" />
<glyph horiz-adv-x="329" d="M277 468.5q30 -31.5 30 -86.5t-40.5 -92t-105 -37t-101 39t-36.5 98.5t24 106t59 73.5q72 56 128 72l24 7l8 -4l16 -42q-9 -2 -32.5 -14.5t-40.5 -24.5q-44 -34 -66 -78l3 -6q33 17 49 20q51 0 81 -31.5zM119 419l-1 -27q0 -76 50 -76q47 0 47 55q0 29 -13 46t-36.5 17 t-46.5 -15z" />
<glyph horiz-adv-x="304" d="M120 641h146l30 -37q-66 -134 -122 -268l-22 -82h-14l-69 20l-7 17l140 273l-78 -6q-30 -3 -40 -12.5t-16 -42.5l-46 -4q10 79 13 142l4 3q40 -3 81 -3z" />
<glyph horiz-adv-x="336" d="M30 347q0 60 69 91q-62 40 -62 100q0 46 40 78.5t94.5 32.5t89.5 -26t35 -66q0 -55 -57 -86q65 -36 65 -92t-42 -91t-101 -35t-95 26t-36 68zM128 325.5q15 -15.5 37 -15.5t35 11.5t13 27.5t-12 28t-23.5 18.5t-37.5 18.5q-27 -20 -27 -46.5t15 -42zM138.5 577.5 q-11.5 -10.5 -11.5 -24.5t10 -25q14 -15 55 -33q20 22 20 45t-12 35.5t-31 12.5t-30.5 -10.5z" />
<glyph horiz-adv-x="329" d="M52 433.5q-30 31.5 -30 86.5t40.5 92t105.5 37t101 -39t36 -103q0 -80 -47 -137q-42 -52 -96 -79q-54 -28 -92 -38l-7 4l-16 43q7 2 31 14.5t40 24.5q46 33 68 77l-4 6q-34 -17 -49 -20q-51 0 -81 31.5zM163 468q22 0 47 14q2 18 2 28q0 37 -13.5 57t-37.5 20 q-46 0 -46 -59.5t48 -59.5z" />
<glyph horiz-adv-x="353" d="M283.5 47.5q-41.5 -55.5 -111.5 -55.5t-106.5 49.5t-36.5 142.5t42 149t111.5 56t106 -50t36.5 -143t-41.5 -148.5zM180 91q79 0 79 94q0 49 -22.5 75t-64.5 26q-77 0 -77 -96q0 -47 22 -73t63 -26z" />
<glyph horiz-adv-x="265" d="M182 91q0 -43 29 -43l30 2l3 -4l-9 -49q-64 3 -98 3l-112 -7l5 46q31 3 45 14t14 34v197q0 22 -6.5 29t-25.5 7l-33 -2l-4 5l4 42q47 5 104 13t79 11l9 -24q-21 -15 -26 -49q-8 -62 -8 -225z" />
<glyph horiz-adv-x="352" d="M179 264q0 37 -44.5 37t-83.5 -53h-10l-13 62q24 35 62.5 57t84.5 22t79 -26t33 -67.5t-29.5 -90.5t-103.5 -129l3 -5h57q29 0 41.5 12t17.5 47l61 5q-14 -77 -18 -132l-11 -9q-157 6 -222 6l-55 -6l-6 48l81 87q76 90 76 135z" />
<glyph horiz-adv-x="310" d="M34 79q28 -10 61 -10t55.5 14t22.5 36q0 44 -89 44l-7 8l-6 49l44 8q45 20 45 56q0 32 -34 32t-74 -27h-8l-17 55q23 16 61 30.5t76 14.5t67 -22t29 -53.5t-19.5 -55t-53.5 -36.5v-6q92 -29 92 -95q0 -48 -61.5 -88.5t-136.5 -40.5q-30 0 -43 17t-16 58z" />
<glyph horiz-adv-x="337" d="M257 160h50l7 -8l-7 -62l-49 1l4 -84l-7 -7l-90 -7l-5 6q3 50 4 95l-155 2l2 53l170 238l5 2l71 -8v-221zM164 160v104h-7l-71 -104h78z" />
<glyph horiz-adv-x="305" d="M235.5 204.5q36.5 -26.5 36.5 -76.5t-61 -93t-135 -43q-29 0 -42 17t-17 58l12 12q28 -10 61.5 -10t55.5 14t22 37q0 45 -119 53l-6 8l12 186l5 5l135 4q33 1 42 26l43 3l-18 -104l-10 -10q-62 5 -132 5l-4 -52q83 -13 119.5 -39.5z" />
<glyph horiz-adv-x="329" d="M277 207.5q30 -31.5 30 -86.5t-40.5 -92t-105 -37t-101 39t-36.5 104q0 79 46 136q44 53 96 80q55 28 93 38l8 -4l16 -43q-9 -2 -32.5 -14.5t-40.5 -25.5q-44 -33 -66 -77l3 -6q27 15 49 20q51 0 81 -31.5zM119 158l-1 -27q0 -76 50 -76q47 0 47 56q0 29 -13 45.5 t-36.5 16.5t-46.5 -15z" />
<glyph horiz-adv-x="304" d="M120 381h146l30 -37q-66 -136 -122 -269l-22 -82h-14l-69 20l-7 17l140 273l-78 -6q-30 -2 -40 -12t-16 -43l-46 -4q10 79 13 143l4 3q40 -3 81 -3z" />
<glyph horiz-adv-x="336" d="M30 86q0 62 69 91q-62 40 -62 100q0 46 40 79t94.5 33t89.5 -26.5t35 -66.5q0 -54 -57 -85q65 -38 65 -93t-42 -90.5t-101 -35.5t-95 26t-36 68zM128 65.5q15 -15.5 37 -15.5t35 11t13 27.5t-12.5 28.5t-23 17.5t-37.5 18.5q-27 -20 -27 -46t15 -41.5zM138.5 316.5 q-11.5 -10.5 -11.5 -24.5t10 -25q14 -15 55 -33q20 22 20 45t-12 35.5t-31 12.5t-30.5 -10.5z" />
<glyph horiz-adv-x="329" d="M52 172.5q-30 31.5 -30 86.5t40.5 92.5t105.5 37.5t101 -39t36 -104q0 -79 -47 -136q-43 -53 -96 -80q-54 -28 -92 -38l-7 4l-16 43q7 2 31 14.5t40 24.5q45 33 68 78l-4 5q-30 -15 -49 -20q-51 0 -81 31.5zM163 207q20 0 47 15q2 18 2 27q0 37 -13.5 57t-37.5 20 q-46 0 -46 -59.5t48 -59.5z" />
<glyph horiz-adv-x="341" d="M295 409q11 0 29 9l10 -16q-36 -62 -67 -71q-65 0 -70 50l-7 2q-49 -49 -74 -49q-39 0 -66 29.5t-27 72.5q0 20 11 35.5t29 19.5l129 26v9q0 25 -14.5 39.5t-35.5 14.5q-40 0 -72 -22l-11 -7l-6 3l-14 44q96 52 128 52q62 0 91 -25.5t29 -65.5l-13 -125q0 -25 21 -25z M130 462q-14 -4 -14 -19.5t9 -26t26 -10.5t38 12l2 59z" />
<glyph horiz-adv-x="362" d="M20 756l-17 -1l-2 4l4 40l153 22l5 -14q-13 -15 -18 -200q57 40 68 40q59 0 92.5 -38.5t33.5 -110t-46.5 -118t-122.5 -46.5q-45 0 -115 11l-6 7v366q0 22 -6 30t-23 8zM183 396q54 0 54 80q0 48 -14.5 74.5t-38.5 26.5t-40 -14l-2 -159q20 -8 41 -8z" />
<glyph horiz-adv-x="308" d="M192 407q33 0 67 18l6 -2l13 -41q-61 -51 -105 -51q-70 0 -110 41t-40 113.5t46 118.5t120 46q47 0 87 -14l3 -7q-11 -49 -14 -105l-51 -3v22q0 43 -35 43q-52 0 -52 -75q0 -104 65 -104z" />
<glyph horiz-adv-x="375" d="M332 409q9 0 25 9l11 -16q-31 -57 -71 -71q-62 0 -70 48l-4 1q-63 -46 -74 -46q-59 0 -92.5 39t-33.5 110.5t46.5 117.5t122.5 46q19 0 27 -1v70q0 22 -6 30t-23 8l-16 -2l5 47q66 6 149 22l7 -12q-10 -14 -16.5 -122t-6.5 -253q0 -25 20 -25zM139.5 430.5 q14.5 -26.5 36.5 -26.5t43 15v157q-17 9 -40 9q-54 0 -54 -81q0 -47 14.5 -73.5z" />
<glyph horiz-adv-x="331" d="M210 544q0 45 -35 45q-48 0 -51 -63l75 4q11 1 11 14zM125 484v-4q8 -76 76 -76q38 0 80 20l5 -3l12 -39q-67 -51 -119 -51q-74 0 -115 40.5t-41 113.5t45.5 119t117.5 46q117 0 117 -119l-4 -40l-8 -7h-166z" />
<glyph horiz-adv-x="249" d="M67 641q0 82 47 131t126 49q41 0 77 -14l4 -12q-12 -30 -24 -65l-9 -3q-28 26 -64 26t-48.5 -20t-13.5 -72v-29l83 2l3 -4l-8 -49q-32 2 -79 2l-1 -166q0 -27 25 -27l41 1l2 -3l-6 -51q-73 2 -102 2l-95 -4l5 47q20 2 28.5 10.5t8.5 25.5v141q-1 15 -9.5 19.5t-34.5 6.5 l-3 4l6 38l41 6v8z" />
<glyph horiz-adv-x="361" d="M182 651l69 -6q32 2 95 23l4 -4l-9 -57q-22 -2 -45 -3l-3 -4q27 -27 27 -63q0 -51 -41.5 -83.5t-108.5 -32.5q-16 0 -42 4q-13 -9 -13 -19q0 -24 105 -24l10 1q41 0 76 -18.5t35 -62t-55.5 -81.5t-119.5 -38t-98.5 25t-34.5 68q19 19 67 43v4q-31 4 -49.5 22.5 t-18.5 44.5q18 20 56 45v6q-51 28 -51 85.5t40.5 91t104.5 33.5zM181 472q41 0 41 61t-48 61q-39 0 -39 -61t46 -61zM145.5 249q14.5 -10 40 -10t45.5 12t20 26.5t-16.5 20t-86.5 15.5q-17 -18 -17 -36t14.5 -28z" />
<glyph horiz-adv-x="383" d="M335 565l-13 -152q0 -28 19 -28l19 1l1 -3l-6 -46q-52 2 -78 2l-78 -3l5 47q27 5 28 33l2 103q0 52 -37 52q-20 0 -50 -23q-1 -42 -1 -137q0 -25 18 -25l13 1l2 -4l-6 -46q-50 2 -78 2l-78 -2l6 47q17 1 23.5 9t6.5 25v300q0 22 -6 29.5t-24 7.5h-15l-3 4l4 40l153 22 l6 -14q-15 -15 -20 -215q61 58 83 58q50 0 77 -22t27 -63z" />
<glyph horiz-adv-x="216" d="M155 719.5q-16 -16.5 -42 -16.5q-53 0 -53 54q0 27 15.5 43t41.5 16t40 -14.5t14 -40t-16 -42zM66 420v128q0 22 -6.5 29.5t-23.5 7.5l-15 -2l4 44l142 23l7 -13q-15 -29 -15 -227q0 -24 18 -24l18 1l2 -3l-7 -47q-52 2 -81 2l-87 -7l6 49q38 4 38 39z" />
<glyph horiz-adv-x="208" d="M62 362v186q0 21 -5 29t-18 8l-21 -2l5 44l140 23l7 -13q-15 -33 -15 -307q0 -45 -32 -85t-86 -65l-25 23l1 8q29 28 39 59t10 92zM108 703q-53 0 -53 54q0 26 16.5 42.5t42 16.5t39.5 -14.5t14 -40t-16 -42t-43 -16.5z" />
<glyph horiz-adv-x="370" d="M53 426v292q0 31 -16 35q-5 2 -30 2l-2 6l4 38l153 22l6 -14q-22 -22 -22 -397q0 -25 18 -25h15l1 -3l-7 -45q-51 2 -78 2l-78 -3l6 47q19 2 24.5 11t5.5 32zM225 588q0 13 -34 13l-2 3l6 39q48 -1 86 -1l75 2l2 -3l-6 -44q-36 -18 -54.5 -35.5t-23 -22t-15.5 -15 t-14 -13.5l50 -82q26 -42 62 -46l3 -6l-5 -39q-34 -7 -50 -7h-30q-36 5 -61 52l-61 109l3 17l56 58q13 13 13 21z" />
<glyph horiz-adv-x="201" d="M53 426v292q0 31 -16 35q-5 2 -30 2l-2 6l4 38l153 22l6 -14q-22 -22 -22 -397q0 -25 18 -25h22l1 -3l-7 -45q-56 2 -85 2l-79 -4l6 47q19 4 25 13t6 31z" />
<glyph horiz-adv-x="578" d="M530 565l-13 -152q0 -28 20 -28l18 1l1 -3l-6 -46q-53 2 -79 2l-74 -2l4 47q14 2 19.5 9t6.5 23l1 103q1 52 -37 52q-18 0 -45 -19l-9 -139q0 -28 19 -28l16 1l2 -3l-8 -46q-49 2 -75 2l-77 -3l5 47q27 6 27 33l2 103q0 52 -37 52q-17 0 -46 -20q-7 -114 -7 -133.5t4 -25 t14 -5.5h15l1 -3l-7 -47q-48 2 -74 2l-86 -2l7 47q19 2 26.5 9t7.5 25v127q0 22 -6.5 30t-25.5 8h-10l-3 4l5 41l136 22l7 -7q-6 -24 -8 -46l2 -2q65 55 83 55q80 0 97 -56q64 56 83 56q50 0 77 -22t27 -63z" />
<glyph horiz-adv-x="354" d="M287 377q-44 -46 -114.5 -46t-110 41t-39.5 114t44.5 118.5t116 45.5t109.5 -40t38 -113.5t-44 -119.5zM180 390q46 0 46 76q0 119 -53 119q-46 0 -46 -76q0 -119 53 -119z" />
<glyph horiz-adv-x="379" d="M199 188l-90 2l-85 -3l6 47q18 1 23.5 8.5t6 28t3.5 96.5v178q0 22 -6.5 30t-25.5 8h-10l-3 4l5 41l136 22l6 -7q-5 -23 -7 -44l3 -2q50 50 61 50q61 0 97 -39.5t36 -112t-49 -117t-132 -44.5l-19 1v-56q0 -25 3.5 -33.5t17.5 -8.5l29 2l1 -3zM200 396q53 0 53 80 q0 97 -54 97q-17 0 -37 -13q-4 -100 -4 -156q24 -8 42 -8z" />
<glyph horiz-adv-x="362" d="M149 334q-59 0 -92.5 38.5t-33.5 110.5t46.5 118t122.5 46q32 0 79 -6l47 18l9 -8q-15 -30 -15 -376q0 -23 3.5 -29.5t15.5 -6.5h18l1 -2l-4 -47h-96l-87 -2l5 47q30 2 39 9t10 31l2 102q-58 -43 -70 -43zM139.5 430.5q14.5 -26.5 36.5 -26.5t43 15v157q-17 9 -40 9 q-54 0 -54 -81q0 -47 14.5 -73.5z" />
<glyph horiz-adv-x="302" d="M67 424v121q0 23 -6 30.5t-24 7.5h-11l-4 4l4 40l137 23l7 -7q-7 -31 -8 -57l5 -3q44 61 93 61l24 -2l4 -6q-12 -72 -15 -131l-52 -3q0 33 -4 44t-18.5 11t-32.5 -21q-7 -111 -7 -123q0 -24 24 -24l34 2l3 -4l-8 -50q-61 2 -95 2l-90 -3l6 48q20 1 27 9t7 31z" />
<glyph horiz-adv-x="292" d="M28 351l-6 8q6 29 10 85l44 3q1 -27 15.5 -43t39.5 -16q37 0 37 23q0 12 -11.5 20.5t-49.5 25.5q-77 34 -77 90q0 46 40 74.5t106 28.5q44 0 77 -13l5 -8q-8 -43 -13 -87l-44 -2v8q0 43 -42 43q-15 0 -24.5 -6.5t-9.5 -17.5q0 -19 39 -38q59 -26 80 -46.5t21 -51.5 q0 -43 -41 -71.5t-96.5 -28.5t-99.5 20z" />
<glyph horiz-adv-x="240" d="M181 405q15 0 37 8l9 -24q-58 -58 -81 -58q-95 0 -95 82v136q0 22 -7 29t-29 7l-8 6l5 38q59 26 127 75l21 -12q-5 -23 -9 -60l70 2l2 -4l-7 -49l-69 2q-4 -72 -4 -125t38 -53z" />
<glyph horiz-adv-x="384" d="M339 409q10 0 28 9l11 -15q-38 -60 -75 -72q-64 0 -72 50l-6 3q-50 -52 -65 -52q-112 0 -112 85l6 138q0 30 -21 30l-18 -2l5 45l134 22l7 -13q-18 -38 -18 -178q0 -47 36 -47q19 0 46 18v123q0 19 -5 24.5t-22 6.5h-9l7 43l134 21l7 -12q-19 -35 -19 -202q0 -25 21 -25z " />
<glyph horiz-adv-x="336" d="M226 583q0 12 -18 12h-15l-2 4l5 44q45 -1 74 -1l63 1l-6 -47q-15 -2 -20.5 -8t-12.5 -25l-78 -224l-110 -9q-49 187 -63 233q-10 32 -40 33l-1 2l4 45q43 -1 67 -1l96 5l2 -4l-7 -46q-19 -2 -24 -5t-5 -11q0 -11 33 -160h9q49 143 49 162z" />
<glyph horiz-adv-x="520" d="M295 330q-5 28 -32 147h-10l-39 -138l-108 -9q-49 187 -63 233q-9 31 -39 33l-1 2l5 45q41 -1 66 -1l95 5l2 -4l-7 -46q-19 -2 -24 -5t-5 -11q0 -11 33 -160h9q7 18 25.5 80t20.5 74q-2 12 -8 16t-24 4l-2 3l7 45q40 -1 65 -1l92 4l2 -3l-7 -46q-20 -3 -24.5 -5.5 t-4.5 -10.5q0 -11 33 -160h9q48 141 48 162q0 12 -17 12h-16l-2 4l6 44q44 -1 73 -1l63 1l-6 -47q-15 -2 -20.5 -8t-12.5 -25l-77 -224z" />
<glyph horiz-adv-x="355" d="M200 388q0 3 -8 16l-35 46q-40 -50 -40 -60.5t23 -11.5l2 -4l-5 -38q-54 3 -70 3l-57 -2l-2 5l5 37q15 7 58 57l51 60l-42 56q-27 37 -67 44l-1 4l4 43q36 -1 82 -1l89 3l2 -5l-4 -40q-23 0 -23 -12q0 -8 14 -29l23 -30q41 55 41 63t-22 8l-1 3l4 39h65l59 2l2 -4l-3 -41 q-35 -21 -57 -48l-51 -68l46 -59q32 -40 64 -44l2 -2l-6 -40q-47 1 -67 1l-102 -3l-3 3l6 38q24 0 24 11z" />
<glyph horiz-adv-x="334" d="M179 437q52 130 52 141.5t-3 14t-14 2.5h-17l-2 4l6 44q43 -1 73 -1h63l-6 -47q-14 -3 -20 -8.5t-12 -20.5l-84 -201q-74 -182 -163 -182h-2q-12 0 -36 24t-24 36l6 10q91 11 135 78q-55 155 -93 237q-15 26 -38 27l-1 3l5 44h50q111 0 111 5l1 -4l-6 -46q-29 -1 -29 -15 q0 -20 39 -145h9z" />
<glyph horiz-adv-x="322" d="M32 336l-15 24l162 233l-49 -5q-36 -3 -48 -13.5t-14 -42.5l-38 -4q6 72 7 115l5 4l87 -5l161 -1l10 -22q-87 -114 -165 -230l57 6q30 4 45 21t20 54l38 3q-11 -77 -11 -126l-10 -10l-204 3z" />
<glyph horiz-adv-x="783" d="M265 321v116h-74v-344h74v180q0 12 24 12q43 0 43 -56v-136h74v178q0 32 -22 52.5t-56 20.5q-55 -32 -59 -32t-4 9zM435 302h26q10 0 10 -10v-132q0 -32 22 -52.5t56 -20.5l63 37v25q-12 -4 -26 -4q-41 0 -41 57v90q0 10 10 10h58v36h-58q-10 0 -10 10v28h-21l-89 -56 v-18zM180 -59q-80 0 -80 80v423q0 80 80 80h423q80 0 80 -80v-423q0 -80 -80 -80h-423z" />
<glyph horiz-adv-x="462" d="M0 0v462h462v-462h-462z" />
<glyph horiz-adv-x="642" d="M0 0v642h642v-642h-642z" />
<glyph horiz-adv-x="320" d="M44 502l120 -1l123 5l-5 -58q-31 -4 -40.5 -11.5t-11.5 -30.5q-9 -157 -9 -297q0 -32 6 -42.5t25 -10.5l32 2l5 -6l-7 -54q-90 2 -127 2l-120 -6l6 56q35 7 46.5 19.5t11.5 45.5v289q0 25 -6 33t-23 8l-27 -1l-5 8zM216 582.5q-22 -22.5 -57 -22.5t-53 20t-18 53.5t22 56 t56.5 22.5t53 -19.5t18.5 -53.5t-22 -56.5z" />
</font>
</defs>
</svg>
