<svg xmlns="http://www.w3.org/2000/svg" viewBox="0 0 100 100"><path fill="#fefefe" d="M94.37,46.89V38.23a3.67,3.67,0,0,0-3.63-3.7h-6.2L68.85,11.43a3.59,3.59,0,0,0-5-.93,3.76,3.76,0,0,0-.91,5.16L75.71,34.53H24.65L37.47,15.66a3.77,3.77,0,0,0-.91-5.16,3.59,3.59,0,0,0-5.05.93L15.82,34.53H9.62A3.67,3.67,0,0,0,6,38.23V54.7a3.67,3.67,0,0,0,3.63,3.71h2.05L23.88,88.23h0l0,.09a3.84,3.84,0,0,0,.27.49.91.91,0,0,0,.11.16c.09.13.19.25.29.37a1.59,1.59,0,0,1,.13.13,4.47,4.47,0,0,0,.41.35l.09.06a3.6,3.6,0,0,0,.54.31l.17.06a3.53,3.53,0,0,0,.46.15l.18,0a3.7,3.7,0,0,0,.66.07h45.9a3.5,3.5,0,0,0,.65-.07l.19,0a3,3,0,0,0,.45-.15l.17-.06a3.7,3.7,0,0,0,.55-.31l.09-.06a4.47,4.47,0,0,0,.41-.35l.12-.13a3.47,3.47,0,0,0,.3-.37.91.91,0,0,0,.11-.16,4.82,4.82,0,0,0,.27-.5l0-.08h0L88.69,58.41h2a3.67,3.67,0,0,0,3.63-3.71Zm-81.12-5H87.11v9H13.25v-9ZM70.71,83.1H29.65L19.53,58.39h61.3Z"/></svg>