<?xml version="1.0" encoding="utf-8"?>
<!-- Generator: Adobe Illustrator 15.1.0, SVG Export Plug-In . SVG Version: 6.00 Build 0)  -->
<!DOCTYPE svg PUBLIC "-//W3C//DTD SVG 1.1 Tiny//EN" "http://www.w3.org/Graphics/SVG/1.1/DTD/svg11-tiny.dtd">
<svg version="1.1" baseProfile="tiny" id="Layer_1" xmlns="http://www.w3.org/2000/svg" xmlns:xlink="http://www.w3.org/1999/xlink"
	 x="0px" y="0px" width="300px" height="300px" viewBox="0 0 300 300" xml:space="preserve">
<path fill="#FFFFFF" d="M157.2,98.1c31.1-8.2,49.2-4.9,66.1,15.8c16.9,20.8,12,30.6,12,30.6s45.9-4.9,45.9,31.1
	s-51.9,31.1-45.9,31.1s-78.1,0-78.1,0V98.1z"/>
<path fill="#FFFFFF" d="M152.3,204.8c0,1.7-1.5,3.1-3.5,3.1l0,0c-1.9,0-3.5-1.4-3.5-3.1v-99.5c0-1.7,1.5-3.1,3.5-3.1l0,0
	c1.9,0,3.5,1.4,3.5,3.1V204.8z"/>
<path fill="#FFFFFF" d="M139.5,204.8c0,1.7-1.5,3.1-3.5,3.1l0,0c-1.9,0-3.5-1.4-3.5-3.1v-92.3c0-1.7,1.5-3.1,3.5-3.1l0,0
	c1.9,0,3.5,1.4,3.5,3.1V204.8z"/>
<path fill="#FFFFFF" d="M126.4,204.8c0,1.7-1.5,3.1-3.5,3.1l0,0c-1.9,0-3.5-1.4-3.5-3.1v-78.5c0-1.7,1.5-3.1,3.5-3.1l0,0
	c1.9,0,3.5,1.4,3.5,3.1V204.8z"/>
<path fill="#FFFFFF" d="M113.7,204.8c0,1.7-1.5,3.1-3.5,3.1l0,0c-1.9,0-3.5-1.4-3.5-3.1v-87.6c0-1.7,1.5-3.1,3.5-3.1l0,0
	c1.9,0,3.5,1.4,3.5,3.1V204.8z"/>
<path fill="#FFFFFF" d="M101.3,204.8c0,1.7-1.5,3.1-3.5,3.1l0,0c-1.9,0-3.5-1.4-3.5-3.1v-85.1c0-1.7,1.5-3.1,3.5-3.1l0,0
	c1.9,0,3.5,1.4,3.5,3.1V204.8z"/>
<path fill="#FFFFFF" d="M88.5,204.8c0,1.7-1.5,3.1-3.5,3.1l0,0c-1.9,0-3.5-1.4-3.5-3.1v-77c0-1.7,1.5-3.1,3.5-3.1l0,0
	c1.9,0,3.5,1.4,3.5,3.1V204.8z"/>
<path fill="#FFFFFF" d="M76.5,204.8c0,1.7-1.5,3.1-3.5,3.1l0,0c-1.9,0-3.5-1.4-3.5-3.1v-71.2c0-1.7,1.5-3.1,3.5-3.1l0,0
	c1.9,0,3.5,1.4,3.5,3.1V204.8z"/>
<path fill="#FFFFFF" d="M63.8,204.8c0,1.7-1.5,3.1-3.5,3.1l0,0c-1.9,0-3.5-1.4-3.5-3.1v-51.5c0-1.7,1.5-3.1,3.5-3.1l0,0
	c1.9,0,3.5,1.4,3.5,3.1V204.8z"/>
<path fill="#FFFFFF" d="M50.3,204.8c0,1.7-1.5,3.1-3.5,3.1l0,0c-1.9,0-3.5-1.4-3.5-3.1v-56.3c0-1.7,1.5-3.1,3.5-3.1l0,0
	c1.9,0,3.5,1.4,3.5,3.1V204.8z"/>
<path fill="#FFFFFF" d="M38.3,197.7c0,1.7-1.5,3.1-3.5,3.1l0,0c-1.9,0-3.5-1.4-3.5-3.1v-41.5c0-1.7,1.5-3.1,3.5-3.1l0,0
	c1.9,0,3.5,1.4,3.5,3.1V197.7z"/>
<path fill="#FFFFFF" d="M25.5,191.2c0,1.7-1.5,3.1-3.5,3.1l0,0c-1.9,0-3.5-1.4-3.5-3.1V166c0-1.7,1.5-3.1,3.5-3.1l0,0
	c1.9,0,3.5,1.4,3.5,3.1V191.2z"/>
</svg>
